<svg xmlns="http://www.w3.org/2000/svg" viewBox="0 0 16 16"><path d="M6 9H2a1 1 0 0 0 0 2h1.586L.222 14.364l.014.014A.983.983 0 0 0 0 15a1 1 0 0 0 1 1c.239 0 .45-.095.622-.236l.014.014L5 12.414V14a1 1 0 0 0 2 0v-4a1 1 0 0 0-1-1zM10 7h4a1 1 0 0 0 0-2h-1.586l3.364-3.364-.014-.014A.983.983 0 0 0 16 1a1 1 0 0 0-1-1 .983.983 0 0 0-.622.236l-.014-.014L11 3.586V2a1 1 0 0 0-2 0v4a1 1 0 0 0 1 1zM6 1a1 1 0 0 0-1 1v1.586L1.636.222l-.014.014A.983.983 0 0 0 1 0a1 1 0 0 0-1 1c0 .239.096.45.236.622l-.014.014L3.586 5H2a1 1 0 0 0 0 2h4a1 1 0 0 0 1-1V2a1 1 0 0 0-1-1zM15.778 14.364L12.414 11H14a1 1 0 0 0 0-2h-4a1 1 0 0 0-1 1v4a1 1 0 0 0 2 0v-1.586l3.364 3.364.014-.014A.977.977 0 0 0 15 16a1 1 0 0 0 1-1 .983.983 0 0 0-.236-.622l.014-.014z"/></svg>