<svg viewBox="0 0 16 16"><path class="st0" fill="#7FC400" d="M11.7 4.7l2.7-1.6C13 1.4 11.1.3 9 .1v3.1c1.1.2 2 .7 2.7 1.5z"/><path class="st1" fill="#FFB21D" d="M13 8c0 .6-.1 1.1-.3 1.6l2.6 1.5c.4-1 .7-2.1.7-3.1 0-1.1-.2-2.1-.7-3.1l-2.6 1.5c.2.5.3 1 .3 1.6z"/><path class="st2" fill="#FF4D4D" d="M9 12.8v3.1c2.1-.3 4-1.4 5.3-3.1l-2.7-1.6c-.6.9-1.5 1.4-2.6 1.6z"/><path class="st3" fill="#675088" d="M4.3 11.3l-2.7 1.6c1.4 1.7 3.3 2.8 5.4 3v-3.1c-1.1-.2-2-.7-2.7-1.5z"/><path class="st4" fill="#436284" d="M3 8c0-.6.1-1.1.3-1.6L.7 4.9C.2 5.9 0 6.9 0 8s.2 2.1.7 3.1l2.6-1.5C3.1 9.1 3 8.6 3 8z"/><path class="st5" fill="#00ADEF" d="M7 3.2V.1c-2.1.2-4 1.3-5.3 3l2.7 1.6C5 3.9 5.9 3.4 7 3.2z"/></svg>