<svg xmlns="http://www.w3.org/2000/svg" viewBox="0 0 32 32"><path d="M16.785 20.839a1.992 1.992 0 0 1-1.57 0h-.002L7 17.319V24a2 2 0 0 0 1.212 1.838l.001.002.009.004 6.991 2.996h.002a2.01 2.01 0 0 0 1.57-.001h.002l6.991-2.996.009-.004.001-.002A1.998 1.998 0 0 0 25 24v-6.681l-8.213 3.52h-.002z"/><path d="M30.778 12.843c.001 0 .001 0 0 0l.009-.004v-.001a2 2 0 0 0 0-3.676v-.001l-.009-.004-13.991-5.996h-.002a1.992 1.992 0 0 0-1.57 0h-.002L1.222 9.157l-.009.004v.001a2 2 0 0 0 0 3.676v.001l.009.004 13.991 5.996h.002a1.992 1.992 0 0 0 1.57 0h.002L28 14.034v6.244c-.595.346-1 .984-1 1.723v6a1 1 0 0 0 1 1h2a1 1 0 0 0 1-1v-6c0-.738-.405-1.376-1-1.723v-7.101l.778-.334zM16 11c-1.105 0-2-.448-2-1s.895-1 2-1 2 .448 2 1-.895 1-2 1z"/></svg>