<svg xmlns="http://www.w3.org/2000/svg" viewBox="0 0 128 128"><path d="M38.829 88.344L14.485 64l24.343-24.344a4 4 0 0 0 0-5.657L36 31.171a4 4 0 0 0-5.657 0L1.757 59.757A5.985 5.985 0 0 0 0 64c0 1.657.672 3.158 1.758 4.244l28.585 28.585a4 4 0 0 0 5.657 0l2.828-2.828a4 4 0 0 0 .001-5.657zM89.171 88.344L113.515 64 89.171 39.656a4 4 0 0 1 0-5.657L92 31.171a4 4 0 0 1 5.657 0l28.586 28.586A5.985 5.985 0 0 1 128 64a5.984 5.984 0 0 1-1.758 4.244L97.657 96.829a4 4 0 0 1-5.657 0l-2.828-2.828a4 4 0 0 1-.001-5.657zM78.447 17.155l-3.867-1.022-.001.003c-.009-.002-.016-.007-.025-.009a3.998 3.998 0 0 0-4.86 2.847l-.002-.001-.006.024-.002.006-.001.005-22.976 86.947-.001.005a4 4 0 0 0 2.846 4.884l3.867 1.022.001-.003c.009.002.016.007.025.009a3.998 3.998 0 0 0 4.86-2.847l.002.001.006-.024.002-.006.001-.005 22.976-86.947.001-.005a4 4 0 0 0-2.846-4.884z"/></svg>