<svg xmlns="http://www.w3.org/2000/svg" viewBox="0 0 32 32"><path d="M8.816 4.988L4.414.586a2 2 0 1 0-2.828 2.828l6.865 6.865a5.98 5.98 0 0 1 .365-5.291z"/><circle cx="14" cy="8" r="4"/><path d="M31.414.586a2 2 0 0 0-2.828 0l-8.737 8.737a6.007 6.007 0 0 1-4.108 4.419l.061.061a7.02 7.02 0 0 1-.114-.048l1.112 2.393-.25-.071-.003.009A1.937 1.937 0 0 0 16 16a2 2 0 0 0-2 2v5.167l-3-.9v-3.615l1.134.324A3.976 3.976 0 0 1 12 18c0-1.13.473-2.146 1.226-2.873l-3.675-1.05-.003.009A1.95 1.95 0 0 0 9 14a2 2 0 0 0-2 2v5.067l-3.137-.941-.004.014A2.977 2.977 0 0 0 3 20a3 3 0 0 0-3 3 2.99 2.99 0 0 0 2.141 2.86l-.004.014 20 6 .004-.014c.274.082.558.14.859.14a3 3 0 0 0 3-3 2.99 2.99 0 0 0-2.141-2.86l.004-.014L18 24.367v-3.715l4.449 1.271.003-.009c.175.051.357.086.548.086a2 2 0 0 0 2-2c0-.301-.071-.584-.191-.84l.005-.002-2.9-6.243 9.5-9.5a2 2 0 0 0 0-2.829z"/></svg>