<svg xmlns="http://www.w3.org/2000/svg" viewBox="0 0 32 32"><path d="M5 32H3c-.6 0-1-.4-1-1v-8c0-.6.4-1 1-1h2c.6 0 1 .4 1 1v8c0 .6-.4 1-1 1z" fill="#a3dd24"/><path d="M13 32h-2c-.6 0-1-.4-1-1V17c0-.6.4-1 1-1h2c.6 0 1 .4 1 1v14c0 .6-.4 1-1 1z" fill="#7fc400"/><path d="M21 32h-2c-.6 0-1-.4-1-1V21c0-.6.4-1 1-1h2c.6 0 1 .4 1 1v10c0 .6-.4 1-1 1z" fill="#a3dd24"/><path d="M29 32h-2c-.6 0-1-.4-1-1V17c0-.6.4-1 1-1h2c.6 0 1 .4 1 1v14c0 .6-.4 1-1 1z" fill="#7fc400"/><path d="M31.7 1.7L30.3.3c-.4-.4-1-.4-1.4 0l-8.8 8.3-6.9-5.2c-.3-.2-.7-.4-1.2-.4-.6 0-1.1.2-1.4.6L.3 13.9c-.4.4-.4 1 0 1.4l1.4 1.4c.4.4 1 .4 1.4 0l8.8-8.8 6.9 5.2c.3.3.7.4 1.2.4s1-.2 1.4-.6l10.3-9.8c.4-.4.4-1 0-1.4z" fill="#2e9a01"/></svg>