<svg xmlns="http://www.w3.org/2000/svg" viewBox="0 0 64 64"><path d="M8 10v38c0 3.3 2.7 6 6 6h36c3.3 0 6-2.7 6-6V14h-4v32c0 2.2-1.8 4-4 4s-4-1.8-4-4V10H8zm42 52H14C6.3 62 0 55.7 0 48V10c0-4.4 3.6-8 8-8h36c3 0 5.5 1.6 6.9 4H56c4.4 0 8 3.6 8 8v34c0 7.7-6.3 14-14 14zM22 26h-8c-1.1 0-2-.9-2-2v-8c0-1.1.9-2 2-2h8c1.1 0 2 .9 2 2v8c0 1.1-.9 2-2 2zm8-8h8c1.1 0 2-.9 2-2s-.9-2-2-2h-8c-1.1 0-2 .9-2 2s.9 2 2 2zm8 4h-8c-1.1 0-2 .9-2 2s.9 2 2 2h8c1.1 0 2-.9 2-2s-.9-2-2-2zm0 8H14c-1.1 0-2 .9-2 2s.9 2 2 2h24c1.1 0 2-.9 2-2s-.9-2-2-2zm0 8H14c-1.1 0-2 .9-2 2s.9 2 2 2h24c1.1 0 2-.9 2-2s-.9-2-2-2zm0 8H14c-1.1 0-2 .9-2 2s.9 2 2 2h24c1.1 0 2-.9 2-2s-.9-2-2-2z"/></svg>