<svg xmlns="http://www.w3.org/2000/svg" viewBox="0 0 32 32"><path d="M21.707 24.707l-5 5a.999.999 0 0 1-1.414 0l-5-5a.999.999 0 0 1 0-1.414l1.061-1.061a.999.999 0 0 1 1.414 0L14 23.464V15a1 1 0 0 1 1-1h2a1 1 0 0 1 1 1v8.464l1.232-1.232a.999.999 0 0 1 1.414 0l1.061 1.061a.999.999 0 0 1 0 1.414z"/><path d="M27.894 12.31c.063-.429.106-.864.106-1.31a9 9 0 0 0-9-9c-3.601 0-6.699 2.12-8.138 5.175A4.473 4.473 0 0 0 8.5 6.5a4.5 4.5 0 0 0-4.313 5.78A6 6 0 0 0 6 24h1a5 5 0 0 1 4-4.899V15a4 4 0 0 1 4-4h2a4 4 0 0 1 4 4v4.101A5 5 0 0 1 25 24h1a5.999 5.999 0 1 0 1.894-11.69z"/></svg>