<svg xmlns="http://www.w3.org/2000/svg" viewBox="0 0 12 12"><path fill-rule="evenodd" clip-rule="evenodd" d="M11.5 5H9.859a3.991 3.991 0 0 0-.425-1.02l1.162-1.162a.5.5 0 0 0 0-.707l-.707-.707a.5.5 0 0 0-.707 0L8.02 2.566A3.991 3.991 0 0 0 7 2.141V.5a.5.5 0 0 0-.5-.5h-1a.5.5 0 0 0-.5.5v1.641a3.991 3.991 0 0 0-1.02.425L2.818 1.404a.5.5 0 0 0-.707 0l-.707.707a.5.5 0 0 0 0 .707L2.566 3.98c-.186.316-.33.656-.425 1.02H.5a.5.5 0 0 0-.5.5v1a.5.5 0 0 0 .5.5h1.641c.095.364.239.704.425 1.02L1.404 9.182a.5.5 0 0 0 0 .707l.707.707a.5.5 0 0 0 .707 0L3.98 9.434c.316.186.656.33 1.02.425V11.5a.5.5 0 0 0 .5.5h1a.5.5 0 0 0 .5-.5V9.859a3.991 3.991 0 0 0 1.02-.425l1.162 1.162a.5.5 0 0 0 .707 0l.707-.707a.5.5 0 0 0 0-.707L9.434 8.02c.186-.316.33-.656.425-1.02H11.5a.5.5 0 0 0 .5-.5v-1a.5.5 0 0 0-.5-.5zM4 6a2 2 0 1 1 3.999-.001A2 2 0 0 1 4 6z"/></svg>