<svg xmlns="http://www.w3.org/2000/svg" viewBox="0 0 24 24"><path d="M24 12a.987.987 0 0 0-.357-.751l.008-.009-2.723-2.334 2.444-.978-.002-.003A.997.997 0 0 0 24 7a.987.987 0 0 0-.357-.751l.007-.009-7-6-.008.009A.985.985 0 0 0 16 0a.993.993 0 0 0-.37.075l-.001-.003-15 6 .001.003A.997.997 0 0 0 0 7c0 .304.143.567.357.751L.35 7.76l2.723 2.334-2.444.978.001.003A.997.997 0 0 0 0 12c0 .304.143.567.357.751l-.007.009 2.723 2.334-2.444.978.001.003A.997.997 0 0 0 0 17c0 .304.143.567.357.751l-.007.009 7 6 .008-.009A.985.985 0 0 0 8 24a.993.993 0 0 0 .37-.075l.001.004 15-6-.001-.003A.999.999 0 0 0 24 17a.987.987 0 0 0-.357-.751l.008-.009-2.723-2.334 2.444-.978-.001-.003A.997.997 0 0 0 24 12zm-8.191-9.846l5.286 4.531-12.904 5.161-5.286-4.531 12.904-5.161zm5.286 14.531L8.191 21.846l-5.286-4.531 1.882-.753L7.35 18.76l.008-.009A.985.985 0 0 0 8 19a.993.993 0 0 0 .37-.075l.001.004 10.461-4.184 2.263 1.94zm-12.904.161l-5.286-4.531 1.882-.753L7.35 13.76l.008-.009A.985.985 0 0 0 8 14a.993.993 0 0 0 .37-.075l.001.004 10.461-4.184 2.263 1.94-12.904 5.161z"/></svg>