<svg xmlns="http://www.w3.org/2000/svg" viewBox="0 0 32 32"><path d="M14.5 4.5c.4 0 .4 2.1 1.2 2.1.6 0 2-1.6 2-2.3 0-.4-.2-.7-.5-.7-.5 0-.8.3-1 .8 0 0 .1-.1.2-.1.7 0-.1 1.2-.3 1.2-.4 0-.2-1.9-.8-1.9-.3 0-1.1.8-1.1.8l.2.2c-.2 0 .1-.1.1-.1zM19 12h2v4h-2z"/><path d="M16 0C7.2 0 0 7.2 0 16s7.2 16 16 16 16-7.2 16-16S24.8 0 16 0zm0 2c1.7 0 3 1.3 3 3s-1.3 3-3 3-3-1.3-3-3 1.3-3 3-3zm5 8c1.1 0 2 .9 2 2v4c0 1.1-.9 2-2 2h-2v6h-2V10h4zm-7 0c1.1 0 2 .9 2 2v2h-2v-2h-2v4h2c1.1 0 2 .9 2 2v4c0 1.1-.9 2-2 2h-2c-1.1 0-2-.9-2-2v-2h2v2h2v-4h-2c-1.1 0-2-.9-2-2v-4c0-1.1.9-2 2-2h2zm2 19C8.8 29 3 23.2 3 16c0-5.4 3.3-10 8-12v2.2C7.4 8 5 11.7 5 16c0 6.1 4.9 11 11 11s11-4.9 11-11c0-4.3-2.4-8-6-9.8V4c4.7 2 8 6.6 8 12 0 7.2-5.8 13-13 13z"/></svg>