<svg xmlns="http://www.w3.org/2000/svg" viewBox="0 0 32 32"><path d="M25 31H7c-3.859 0-7-3.14-7-7V5c0-2.206 1.794-4 4-4h18a4 4 0 0 1 3.463 2H28c2.206 0 4 1.794 4 4v17c0 3.86-3.141 7-7 7zM4 5v19c0 1.654 1.346 3 3 3h18c1.654 0 3-1.346 3-3V7h-2v16a2 2 0 0 1-4 0V5H4z"/><path d="M11 13H7a1 1 0 0 1-1-1V8a1 1 0 0 1 1-1h4a1 1 0 0 1 1 1v4a1 1 0 0 1-1 1zM15 9h4a1 1 0 0 0 0-2h-4a1 1 0 0 0 0 2zM19 11h-4a1 1 0 0 0 0 2h4a1 1 0 0 0 0-2zM19 15H7a1 1 0 0 0 0 2h12a1 1 0 0 0 0-2zM19 19H7a1 1 0 0 0 0 2h12a1 1 0 0 0 0-2zM19 23H7a1 1 0 0 0 0 2h12a1 1 0 0 0 0-2z"/></svg>