<svg xmlns="http://www.w3.org/2000/svg" viewBox="0 0 16 16"><path d="M8 0a8 8 0 1 0 0 16A8 8 0 0 0 8 0zm0 14A6 6 0 1 1 8 2a6 6 0 0 1 0 12z"/><path d="M6 10.5c-1.379 0-2.5-1.122-2.5-2.5a2.503 2.503 0 0 1 3.929-2.051.5.5 0 1 1-.573.819A1.502 1.502 0 0 0 4.5 8a1.502 1.502 0 0 0 2.338 1.244.5.5 0 1 1 .56.828c-.414.28-.897.428-1.398.428zM10.586 10.5c-1.379 0-2.5-1.122-2.5-2.5a2.503 2.503 0 0 1 3.929-2.051.5.5 0 1 1-.572.819A1.502 1.502 0 0 0 9.086 8a1.502 1.502 0 0 0 2.338 1.244.5.5 0 1 1 .56.828c-.414.28-.897.428-1.398.428z"/></svg>