<svg width="20" height="20" xmlns="http://www.w3.org/2000/svg"><g fill="#3A5161" fill-rule="evenodd"><path d="M1.25 4.006v11.988c0 .42.333.756.74.756h16.02c.402 0 .74-.34.74-.756V4.006a.748.748 0 0 0-.74-.756H1.99c-.402 0-.74.34-.74.756zm-1.25 0C0 2.898.898 2 1.99 2h16.02C19.108 2 20 2.897 20 4.006v11.988A2.003 2.003 0 0 1 18.01 18H1.99C.892 18 0 17.103 0 15.994V4.006z" fill-rule="nonzero"/><path d="M7 6.895v6.21a.5.5 0 0 0 .762.426l5.046-3.105a.5.5 0 0 0 0-.852L7.762 6.47A.5.5 0 0 0 7 6.895z"/></g></svg>