<?xml version="1.0" encoding="UTF-8"?>
<svg width="20px" height="20px" viewBox="0 0 20 20" version="1.1" xmlns="http://www.w3.org/2000/svg" xmlns:xlink="http://www.w3.org/1999/xlink">
    <!-- Generator: Sketch 44.1 (41455) - http://www.bohemiancoding.com/sketch -->
    <title>plus</title>
    <desc>Created with Sketch.</desc>
    <defs></defs>
    <g id="Exportable" stroke="none" stroke-width="1" fill="none" fill-rule="evenodd">
        <g id="plus" fill="#1A2E3B">
            <path d="M10.75,9.25 L10.75,3.75270081 C10.75,3.33226082 10.4142136,3 10,3 C9.58289862,3 9.25,3.33699563 9.25,3.75270081 L9.25,9.25 L3.75270081,9.25 C3.33226082,9.25 3,9.58578644 3,10 C3,10.4171014 3.33699563,10.75 3.75270081,10.75 L9.25,10.75 L9.25,16.2472992 C9.25,16.6677392 9.58578644,17 10,17 C10.4171014,17 10.75,16.6630044 10.75,16.2472992 L10.75,10.75 L16.2472992,10.75 C16.6677392,10.75 17,10.4142136 17,10 C17,9.58289862 16.6630044,9.25 16.2472992,9.25 L10.75,9.25 Z" id="Combined-Shape"></path>
        </g>
    </g>
</svg>