<?xml version="1.0" encoding="UTF-8"?>
<svg width="20px" height="20px" viewBox="0 0 20 20" version="1.1" xmlns="http://www.w3.org/2000/svg" xmlns:xlink="http://www.w3.org/1999/xlink">
    <!-- Generator: Sketch 44.1 (41455) - http://www.bohemiancoding.com/sketch -->
    <title>alert</title>
    <desc>Created with Sketch.</desc>
    <defs></defs>
    <g id="Exportable" stroke="none" stroke-width="1" fill="none" fill-rule="evenodd">
        <g id="alert" fill-rule="nonzero" fill="#1A2E3B">
            <g id="Group" transform="translate(10.000000, 10.000000) rotate(-180.000000) translate(-10.000000, -10.000000) ">
                <path d="M10,0 C4.5,0 0,4.5 0,10 C0,15.5 4.5,20 10,20 C15.5,20 20,15.5 20,10 C20,4.5 15.5,0 10,0 Z M10,18.5 C5.3,18.5 1.5,14.7 1.5,10 C1.5,5.3 5.3,1.5 10,1.5 C14.7,1.5 18.5,5.3 18.5,10 C18.5,14.7 14.7,18.5 10,18.5 Z" id="Shape"></path>
                <rect id="Rectangle-path" x="9.2" y="9" width="1.5" height="6"></rect>
                <circle id="Oval" cx="10" cy="6" r="1.1"></circle>
            </g>
        </g>
    </g>
</svg>