<?xml version="1.0" encoding="UTF-8"?>
<svg width="20px" height="20px" viewBox="0 0 20 20" version="1.1" xmlns="http://www.w3.org/2000/svg" xmlns:xlink="http://www.w3.org/1999/xlink">
    <!-- Generator: Sketch 45.2 (43514) - http://www.bohemiancoding.com/sketch -->
    <title>Group 3</title>
    <desc>Created with Sketch.</desc>
    <defs></defs>
    <g id="Page-1" stroke="none" stroke-width="1">
        <g id="Artboard-2">
            <g id="Group-3" transform="translate(0.000000, 0.500000)">
                <g id="Group">
                    <g id="Group-2">
                        <g id="Group-7">
                            <path d="M18.5,3.87854862 C19.4145614,4.61090739 20,5.73526718 20,6.99620271 L20,15.9905224 C20,17.652611 18.6660385,19 16.9998738,19 L5.00010618,19 C4.06673745,19 3.28269367,18.3613524 3.0620156,17.5 L16.5,17.5 C17.6045695,17.5 18.5,16.6045695 18.5,15.5 L18.5,3.87854862 Z" id="Combined-Shape"></path>
                            <path d="M0,1.99406028 C0,0.892771196 0.890058413,0 2.00010618,0 L14.9998938,0 C16.104522,0 17,0.894513756 17,1.99406028 L17,14.0059397 C17,15.1072288 16.1099416,16 14.9998938,16 L2.00010618,16 C0.895478039,16 0,15.1054862 0,14.0059397 L0,1.99406028 Z" id="Rectangle-7"></path>
                        </g>
                    </g>
                </g>
                <path d="M10.2842158,8.7168876 C10.6770916,9.10976345 10.5624003,9.54140057 10.0327104,9.67975764 L5.03360535,10.9855432 C4.50182691,11.1244458 4.18388362,10.8038686 4.32224069,10.2741786 L5.6280263,5.27507357 C5.76692889,4.74329513 6.19956345,4.63223529 6.59089634,5.02356818 L10.2842158,8.7168876 Z" id="Path-5" fill="#FFFFFF" transform="translate(7.403920, 7.903920) rotate(-135.000000) translate(-7.403920, -7.903920) "></path>
            </g>
        </g>
    </g>
</svg>
