<?xml version="1.0" encoding="UTF-8"?>
<svg width="20px" height="20px" viewBox="0 0 20 20" version="1.1" xmlns="http://www.w3.org/2000/svg" xmlns:xlink="http://www.w3.org/1999/xlink">
    <!-- Generator: Sketch 44.1 (41455) - http://www.bohemiancoding.com/sketch -->
    <title>bell</title>
    <desc>Created with Sketch.</desc>
    <defs></defs>
    <g id="Exportable" stroke="none" stroke-width="1" fill="none" fill-rule="evenodd">
        <g id="bell" fill-rule="nonzero" fill="#1A2D3A">
            <path d="M9,2.08319708 L9,1 C9,0.44771525 9.44771525,0 10,0 C10.5522847,0 11,0.44771525 11,1 L11,2.08274843 C13.8381226,2.55786052 16.0007757,5.02197275 16.0007757,7.99371623 L16.0007757,11.5 L17.6586092,14.3360076 C18.3572474,15.5311476 17.8072247,16.5 16.4233296,16.5 L3.57734407,16.5 C2.19647978,16.5 1.6406191,15.5359497 2.34206446,14.3360076 L3.99989798,11.5 L3.99989798,7.99371623 C3.99989798,5.0245105 6.16678247,2.559575 9,2.08319708 Z M3.69140493,15 L16.3092687,15 L14.5007757,11.9062636 L14.5007757,7.99371623 C14.5007757,5.51110281 12.4869729,3.5 10.0003368,3.5 C7.5185911,3.5 5.49989798,5.51486742 5.49989798,7.99371623 L5.49989798,11.9062636 L3.69140493,15 Z M9.87499446,19.9475615 C8.56332124,19.9475615 7.5,18.861067 7.5,17.5 C7.5,17.5 12.2583768,17.5 12.2499889,17.5 C12.2499889,18.861067 11.1866677,19.9475615 9.87499446,19.9475615 Z" id="Combined-Shape"></path>
        </g>
    </g>
</svg>