<?xml version="1.0" encoding="UTF-8"?>
<svg width="20px" height="20px" viewBox="0 0 20 20" version="1.1" xmlns="http://www.w3.org/2000/svg" xmlns:xlink="http://www.w3.org/1999/xlink">
    <!-- Generator: Sketch 44.1 (41455) - http://www.bohemiancoding.com/sketch -->
    <title>plus-circle</title>
    <desc>Created with Sketch.</desc>
    <defs></defs>
    <g id="Exportable" stroke="none" stroke-width="1" fill="none" fill-rule="evenodd">
        <g id="plus-circle" fill="#1A2E3B">
            <g id="Create">
                <path d="M10.75,9.25 L10.75,5.7516253 C10.75,5.3327179 10.4142136,5 10,5 C9.58289862,5 9.25,5.33651411 9.25,5.7516253 L9.25,9.25 L5.7516253,9.25 C5.3327179,9.25 5,9.58578644 5,10 C5,10.4171014 5.33651411,10.75 5.7516253,10.75 L9.25,10.75 L9.25,14.2483747 C9.25,14.6672821 9.58578644,15 10,15 C10.4171014,15 10.75,14.6634859 10.75,14.2483747 L10.75,10.75 L14.2483747,10.75 C14.6672821,10.75 15,10.4142136 15,10 C15,9.58289862 14.6634859,9.25 14.2483747,9.25 L10.75,9.25 Z" id="Combined-Shape"></path>
                <path d="M10,18.5 C14.6944204,18.5 18.5,14.6944204 18.5,10 C18.5,5.30557963 14.6944204,1.5 10,1.5 C5.30557963,1.5 1.5,5.30557963 1.5,10 C1.5,14.6944204 5.30557963,18.5 10,18.5 Z M10,20 C4.4771525,20 0,15.5228475 0,10 C0,4.4771525 4.4771525,0 10,0 C15.5228475,0 20,4.4771525 20,10 C20,15.5228475 15.5228475,20 10,20 Z" id="Oval-4" fill-rule="nonzero"></path>
            </g>
        </g>
    </g>
</svg>