<?xml version="1.0" encoding="UTF-8"?>
<svg width="20px" height="20px" viewBox="0 0 20 20" version="1.1" xmlns="http://www.w3.org/2000/svg" xmlns:xlink="http://www.w3.org/1999/xlink">
    <!-- Generator: Sketch 44.1 (41455) - http://www.bohemiancoding.com/sketch -->
    <title>collections</title>
    <desc>Created with Sketch.</desc>
    <defs></defs>
    <g id="Exportable" stroke="none" stroke-width="1" fill="none" fill-rule="evenodd">
        <g id="collections" fill="#1A2E3B">
            <path d="M18.027625,13.4713751 L10.448625,18.1093751 C10.214625,18.2523751 9.74862505,18.2523751 9.51462505,18.1093751 L1.93562505,13.4713751 L3.35162505,12.6073751 L8.73162505,15.8993751 C9.44662505,16.3363751 10.516625,16.3373751 11.231625,15.8993751 L16.611625,12.6073751 L18.027625,13.4713751 Z M8.73162505,12.3993751 C9.44662505,12.8363751 10.516625,12.8373751 11.231625,12.3993751 L16.602625,9.11337511 L18.027625,9.98237511 L10.448625,14.6203751 C10.214625,14.7633751 9.74862505,14.7633751 9.51462505,14.6203751 L1.93562505,9.98237511 L3.36062505,9.11337511 L8.73162505,12.3993751 Z M9.51362505,1.85737511 C9.74862505,1.71437511 10.214625,1.71437511 10.449625,1.85737511 L18.027625,6.48237511 L10.448625,11.1203751 C10.214625,11.2633751 9.74862505,11.2633751 9.51462505,11.1203751 L1.93562505,6.48237511 L9.51362505,1.85737511 Z M18.998625,8.81737511 L18.040625,8.23337511 L18.998625,7.64637511 C19.951625,7.06437511 19.951625,5.89937511 18.998625,5.31737511 L11.230625,0.577375107 C10.516625,0.141375107 9.44662505,0.140375107 8.73262505,0.577375107 L0.965625049,5.31737511 C0.0116250492,5.89937511 0.0116250492,7.06337511 0.964625049,7.64637511 L1.92262505,8.23337511 L0.965625049,8.81737511 C0.0116250492,9.39937511 0.0116250492,10.5633751 0.964625049,11.1463751 L1.91362505,11.7273751 L0.965625049,12.3063751 C0.0116250492,12.8883751 0.0116250492,14.0523751 0.964625049,14.6353751 L8.73162505,19.3883751 C9.44662505,19.8253751 10.516625,19.8253751 11.231625,19.3883751 L18.998625,14.6353751 C19.951625,14.0523751 19.951625,12.8883751 18.998625,12.3063751 L18.049625,11.7273751 L18.998625,11.1463751 C19.951625,10.5643751 19.951625,9.39937511 18.998625,8.81737511 L18.998625,8.81737511 Z" id="Fill-1"></path>
        </g>
    </g>
</svg>