<?xml version="1.0" encoding="UTF-8"?>
<svg width="20px" height="20px" viewBox="0 0 20 20" version="1.1" xmlns="http://www.w3.org/2000/svg" xmlns:xlink="http://www.w3.org/1999/xlink">
    <!-- Generator: Sketch 44.1 (41455) - http://www.bohemiancoding.com/sketch -->
    <title>delete</title>
    <desc>Created with Sketch.</desc>
    <defs></defs>
    <g id="Exportable" stroke="none" stroke-width="1" fill="none" fill-rule="evenodd">
        <g id="delete" fill-rule="nonzero" fill="#1A2E3B">
            <g id="Delete" transform="translate(1.000000, 0.000000)">
                <path d="M4,5.5 L4,18.0059397 C4,18.2763992 4.2244409,18.5 4.50276013,18.5 L13.4972399,18.5 C13.7780493,18.5 14,18.2787751 14,18.0059397 L14,5.5 L4,5.5 Z M3.75,4 L5,4 L5,2.00118474 C5,0.895960926 5.88670635,0 6.99810135,0 L11.0018986,0 C12.1054196,0 13,0.895910911 13,2.00118474 L13,4 L14.25,4 L16.747596,4 C17.1631373,4 17.5,4.33289862 17.5,4.75 C17.5,5.16421356 17.1604186,5.5 16.747596,5.5 L15.5,5.5 L15.5,18.0059397 C15.5,19.1072288 14.6064574,20 13.4972399,20 L4.50276013,20 C3.39666625,20 2.5,19.1054862 2.5,18.0059397 L2.5,5.5 L1.25240396,5.5 C0.836862727,5.5 0.5,5.16710138 0.5,4.75 C0.5,4.33578644 0.839581445,4 1.25240396,4 L3.75,4 Z M6.5,4 L11.5,4 L11.5,2.00118474 C11.5,1.72384377 11.2764973,1.5 11.0018986,1.5 L6.99810135,1.5 C6.71928939,1.5 6.5,1.72022727 6.5,2.00118474 L6.5,4 Z" id="Combined-Shape"></path>
                <g id="Lines" transform="translate(6.750000, 8.500000)">
                    <path d="M0,1.5 L1.11022302e-16,5.5 C1.20602916e-16,5.84517797 0.279822031,6.125 0.625,6.125 C0.970177969,6.125 1.25,5.84517797 1.25,5.5 L1.25,1.5 C1.25,1.15482203 0.970177969,0.875 0.625,0.875 C0.279822031,0.875 -9.58061321e-18,1.15482203 0,1.5 Z" id="Line"></path>
                    <path d="M3.125,1.5 L3.125,5.5 C3.125,5.84517797 3.40482203,6.125 3.75,6.125 C4.09517797,6.125 4.375,5.84517797 4.375,5.5 L4.375,1.5 C4.375,1.15482203 4.09517797,0.875 3.75,0.875 C3.40482203,0.875 3.125,1.15482203 3.125,1.5 Z" id="Line"></path>
                </g>
            </g>
        </g>
    </g>
</svg>