<?xml version="1.0" encoding="UTF-8"?>
<svg width="20px" height="20px" viewBox="0 0 20 20" version="1.1" xmlns="http://www.w3.org/2000/svg" xmlns:xlink="http://www.w3.org/1999/xlink">
    <!-- Generator: Sketch 44.1 (41455) - http://www.bohemiancoding.com/sketch -->
    <title>dismiss_lrg</title>
    <desc>Created with Sketch.</desc>
    <defs></defs>
    <g id="Exportable" stroke="none" stroke-width="1" fill="none" fill-rule="evenodd">
        <g id="dismiss_lrg" fill="#1A2E3B">
            <path d="M10.75,9.25 L10.75,-0.0829491811 C10.75,-0.48824966 10.4142136,-0.828427125 10,-0.828427125 C9.58289862,-0.828427125 9.25,-0.494665281 9.25,-0.0829491811 L9.25,9.25 L-0.0829491811,9.25 C-0.48824966,9.25 -0.828427125,9.58578644 -0.828427125,10 C-0.828427125,10.4171014 -0.494665281,10.75 -0.0829491811,10.75 L9.25,10.75 L9.25,20.0829492 C9.25,20.4882497 9.58578644,20.8284271 10,20.8284271 C10.4171014,20.8284271 10.75,20.4946653 10.75,20.0829492 L10.75,10.75 L20.0829492,10.75 C20.4882497,10.75 20.8284271,10.4142136 20.8284271,10 C20.8284271,9.58289862 20.4946653,9.25 20.0829492,9.25 L10.75,9.25 Z" id="Combined-Shape" transform="translate(10.000000, 10.000000) rotate(-315.000000) translate(-10.000000, -10.000000) "></path>
        </g>
    </g>
</svg>