<?xml version="1.0" encoding="UTF-8"?>
<svg width="20px" height="20px" viewBox="0 0 20 20" version="1.1" xmlns="http://www.w3.org/2000/svg" xmlns:xlink="http://www.w3.org/1999/xlink">
    <!-- Generator: Sketch 44.1 (41455) - http://www.bohemiancoding.com/sketch -->
    <title>dismiss</title>
    <desc>Created with Sketch.</desc>
    <defs></defs>
    <g id="Exportable" stroke="none" stroke-width="1" fill="none" fill-rule="evenodd">
        <g id="dismiss" fill="#1A2E3B">
            <path d="M10.75,9.25 L10.75,2.75025296 C10.75,2.33418274 10.4142136,2 10,2 C9.58289862,2 9.25,2.33589969 9.25,2.75025296 L9.25,9.25 L2.75025296,9.25 C2.33418274,9.25 2,9.58578644 2,10 C2,10.4171014 2.33589969,10.75 2.75025296,10.75 L9.25,10.75 L9.25,17.249747 C9.25,17.6658173 9.58578644,18 10,18 C10.4171014,18 10.75,17.6641003 10.75,17.249747 L10.75,10.75 L17.249747,10.75 C17.6658173,10.75 18,10.4142136 18,10 C18,9.58289862 17.6641003,9.25 17.249747,9.25 L10.75,9.25 Z" id="Combined-Shape" transform="translate(10.000000, 10.000000) rotate(-315.000000) translate(-10.000000, -10.000000) "></path>
        </g>
    </g>
</svg>