<?xml version="1.0" encoding="UTF-8"?>
<svg width="20px" height="20px" viewBox="0 0 20 20" version="1.1" xmlns="http://www.w3.org/2000/svg" xmlns:xlink="http://www.w3.org/1999/xlink">
    <!-- Generator: Sketch 44.1 (41455) - http://www.bohemiancoding.com/sketch -->
    <title>folder</title>
    <desc>Created with Sketch.</desc>
    <defs></defs>
    <g id="Exportable" stroke="none" stroke-width="1" fill="none" fill-rule="evenodd">
        <g id="folder" fill="#1A2E3B">
            <path d="M10,1.5 L2,1.5 C0.887,1.5 0,2.395 0,3.5 L0,16.499 C0,17.604 0.891,18.5 1.991,18.5 L18.009,18.5 C19.102,18.5 20,17.604 20,16.499 L20,6.001 C20,4.896 19.109,4 18.009,4 L11.111,4 L10,1.5 Z M9.025,3 L9.74,4.609 L10.136,5.5 L11.111,5.5 L18.009,5.5 C18.28,5.5 18.5,5.725 18.5,6.001 L18.5,16.499 C18.5,16.771 18.275,17 18.009,17 L1.991,17 C1.72,17 1.5,16.775 1.5,16.499 L1.5,3.5 C1.5,3.22 1.719,3 2,3 L9.025,3 L9.025,3 Z"></path>
        </g>
    </g>
</svg>