<svg id="Layer_1" xmlns="http://www.w3.org/2000/svg" viewBox="0 0 18.86 20"><title>Gear</title><path d="M13,22H11a2,2,0,0,1-2-2V18.33a7,7,0,0,1-1-.57H8l-1.46.84a2,2,0,0,1-2.72-.73l-1-1.74a2,2,0,0,1,.73-2.73L5,12.56c0-.19,0-.38,0-.56s0-.38,0-.56H5l-1.46-.84a2,2,0,0,1-.73-2.73l1-1.74A2,2,0,0,1,6.56,5.4L8,6.24a7,7,0,0,1,1-.57V4a2,2,0,0,1,2-2h2a2,2,0,0,1,2,2V5.67a7.11,7.11,0,0,1,1,.56h0l1.46-.84a2,2,0,0,1,2.72.74l1,1.74a2,2,0,0,1-.72,2.73L19,11.44c0,.19,0,.37,0,.56s0,.38,0,.56h0l1.46.84a2,2,0,0,1,.72,2.73l-1,1.74a2,2,0,0,1-2.72.73L16,17.76a7,7,0,0,1-1,.57V20A2,2,0,0,1,13,22ZM8.12,15.4l1,.72a5,5,0,0,0,.7.4l1.14.54V20h2V17.06l1.14-.54a5.14,5.14,0,0,0,.7-.4l1-.72,2.56,1.47,1-1.74-2.54-1.47.1-1.26c0-.13,0-.27,0-.41s0-.27,0-.41l-.1-1.26,2.55-1.47-1-1.73L15.88,8.6l-1-.72a5.06,5.06,0,0,0-.7-.4L13,6.94V4H11V6.94l-1.14.54a5,5,0,0,0-.7.4l-1,.72L5.56,7.13l-1,1.74,2.55,1.47L7,11.59q0,.2,0,.41t0,.41l.1,1.26L4.56,15.14l1,1.73Z" transform="translate(-2.57 -2)" fill="#1a2e3b"/><path d="M12,15a3,3,0,1,1,3-3A3,3,0,0,1,12,15Zm0-4a1,1,0,1,0,1,1A1,1,0,0,0,12,11Z" transform="translate(-2.57 -2)" fill="#1a2e3b"/></svg>