<svg id="Layer_1" xmlns="http://www.w3.org/2000/svg" viewBox="0 0 20 20"><style>.st0{fill:#1a2e3b}</style><path class="st0" d="M10 7c-1.7 0-3 1.3-3 3s1.3 3 3 3 3-1.3 3-3-1.3-3-3-3zm0 4.5c-.8 0-1.5-.7-1.5-1.5s.7-1.5 1.5-1.5 1.5.7 1.5 1.5-.7 1.5-1.5 1.5z"/><path class="st0" d="M19.3 11.9L17 10.6V10v-.6l2.3-1.3c.5-.3.6-.9.4-1.4l-2-3.5c-.2-.3-.5-.5-.9-.5-.2 0-.3 0-.5.1L14 4.2c-.3-.2-.6-.4-1-.6V1c0-.6-.4-1-1-1H8c-.6 0-1 .4-1 1v2.7c-.3.1-.7.3-1 .5L3.7 2.9c-.2-.1-.3-.1-.5-.1-.3 0-.7.2-.9.5l-2 3.5c-.2.4-.1 1 .4 1.3L3 9.4v1.2L.7 11.9c-.5.3-.6.9-.4 1.4l2 3.5c.2.3.5.5.9.5.2 0 .3 0 .5-.1L6 15.8c.3.2.6.4 1 .6V19c0 .6.4 1 1 1h4c.6 0 1-.4 1-1v-2.7c.3-.2.7-.3 1-.6l2.3 1.3c.2.1.3.1.5.1.3 0 .7-.2.9-.5l2-3.5c.2-.3.1-.9-.4-1.2zm-2.7 3.6l-1.9-1.1-.8-.4-.8.5c-.2.2-.5.3-.8.4l-.9.4v3.1h-3v-3.1l-.8-.3c-.3-.1-.5-.3-.8-.4l-.7-.6-.8.5-1.9 1.1L1.9 13l1.9-1.1.8-.5-.1-.9v-.4-.4l.1-.9-.8-.7L1.9 7l1.5-2.6 1.9 1.1.8.5.8-.5c.2-.2.5-.3.7-.5l.9-.4V1.5h3v3.1l.9.4c.3.1.5.3.8.4l.7.6.8-.5 1.9-1.1L18.1 7l-1.9 1.1-.8.5.1.9v.8l-.1.9.8.5 1.9 1.1-1.5 2.7z"/></svg>