<?xml version="1.0" encoding="UTF-8"?>
<svg width="20px" height="20px" viewBox="0 0 20 20" version="1.1" xmlns="http://www.w3.org/2000/svg" xmlns:xlink="http://www.w3.org/1999/xlink">
    <!-- Generator: Sketch 44.1 (41455) - http://www.bohemiancoding.com/sketch -->
    <title>gear</title>
    <desc>Created with Sketch.</desc>
    <defs></defs>
    <g id="Exportable" stroke="none" stroke-width="1" fill="none" fill-rule="evenodd">
        <g id="gear" fill="#192E3B">
            <g>
                <path d="M11.0021,0 L8.9981,0 C7.8981,0 7.0001,0.891 7.0001,1.991 L7.0001,3.674 C6.6581,3.836 6.3311,4.026 6.0221,4.239 L4.5641,3.397 C4.2531,3.218 3.9131,3.133 3.5761,3.133 C2.8861,3.133 2.2111,3.49 1.8411,4.132 L0.8391,5.868 C0.2891,6.82 0.6121,8.044 1.5641,8.593 L3.0221,9.436 C3.0071,9.622 3.0001,9.81 3.0001,10 C3.0001,10.19 3.0071,10.378 3.0221,10.564 L1.5641,11.407 C0.6181,11.953 0.2871,13.177 0.8391,14.132 L1.8411,15.868 C2.2101,16.508 2.8841,16.868 3.5741,16.868 C3.9111,16.868 4.2521,16.783 4.5641,16.603 L6.0221,15.761 C6.3311,15.974 6.6581,16.164 7.0001,16.326 L7.0001,18.009 C7.0001,19.102 7.8941,20 8.9981,20 L11.0021,20 C12.1021,20 13.0001,19.109 13.0001,18.009 L13.0001,16.326 C13.3421,16.164 13.6691,15.974 13.9781,15.761 L15.4361,16.603 C15.7471,16.782 16.0871,16.867 16.4241,16.867 C17.1141,16.867 17.7881,16.51 18.1591,15.868 L19.1611,14.132 C19.7111,13.18 19.3881,11.956 18.4361,11.407 L16.9771,10.564 C16.9921,10.378 17.0001,10.19 17.0001,10 C17.0001,9.81 16.9921,9.622 16.9771,9.436 L18.4361,8.593 C19.3821,8.047 19.7131,6.823 19.1611,5.868 L18.1591,4.132 C17.7891,3.492 17.1161,3.132 16.4251,3.132 C16.0891,3.132 15.7481,3.217 15.4361,3.397 L13.9781,4.239 C13.6691,4.026 13.3421,3.836 13.0001,3.674 L13.0001,1.991 C13.0001,0.898 12.1051,0 11.0021,0 M11.0021,1.5 C11.2721,1.5 11.5001,1.725 11.5001,1.991 L11.5001,3.674 L11.5001,4.622 L12.3561,5.029 C12.6231,5.155 12.8811,5.305 13.1241,5.473 L13.9051,6.013 L14.7281,5.538 L16.1861,4.696 C16.2601,4.654 16.3411,4.632 16.4251,4.632 C16.5661,4.632 16.7531,4.698 16.8601,4.882 L17.8621,6.618 C17.9971,6.852 17.9161,7.161 17.6861,7.294 L16.2271,8.137 L15.4071,8.61 L15.4821,9.555 C15.4941,9.702 15.5001,9.85 15.5001,10 C15.5001,10.15 15.4941,10.298 15.4821,10.445 L15.4071,11.39 L16.2271,11.863 L17.6861,12.706 C17.9201,12.841 17.9991,13.144 17.8621,13.382 L16.8601,15.118 C16.7541,15.302 16.5651,15.367 16.4241,15.367 C16.3391,15.367 16.2591,15.346 16.1861,15.304 L14.7281,14.462 L13.9051,13.987 L13.1241,14.527 C12.8811,14.695 12.6231,14.845 12.3561,14.971 L11.5001,15.378 L11.5001,16.326 L11.5001,18.009 C11.5001,18.28 11.2771,18.5 11.0021,18.5 L8.9981,18.5 C8.7281,18.5 8.5001,18.275 8.5001,18.009 L8.5001,16.326 L8.5001,15.378 L7.6441,14.971 C7.3771,14.845 7.1191,14.695 6.8751,14.527 L6.0951,13.987 L5.2721,14.462 L3.8141,15.304 C3.7401,15.346 3.6591,15.368 3.5741,15.368 C3.4341,15.368 3.2461,15.302 3.1401,15.118 L2.1381,13.382 C2.0481,13.227 2.0691,13.078 2.0891,13.003 C2.1081,12.929 2.1641,12.792 2.3141,12.706 L3.7721,11.863 L4.5931,11.39 L4.5181,10.445 C4.5061,10.298 4.5001,10.15 4.5001,10 C4.5001,9.85 4.5061,9.702 4.5181,9.555 L4.5931,8.61 L3.7721,8.137 L2.3141,7.294 C2.1631,7.207 2.1071,7.071 2.0881,6.997 C2.0681,6.922 2.0481,6.773 2.1381,6.618 L3.1401,4.882 C3.2461,4.698 3.4341,4.633 3.5761,4.633 C3.6601,4.633 3.7401,4.654 3.8141,4.696 L5.2721,5.538 L6.0951,6.013 L6.8751,5.473 C7.1191,5.305 7.3771,5.155 7.6441,5.029 L8.5001,4.622 L8.5001,3.674 L8.5001,1.991 C8.5001,1.72 8.7231,1.5 8.9981,1.5 L11.0021,1.5" id="Fill-1"></path>
                <path d="M10,11.5 C10.828,11.5 11.5,10.828 11.5,10 C11.5,9.172 10.828,8.5 10,8.5 C9.172,8.5 8.5,9.172 8.5,10 C8.5,10.828 9.172,11.5 10,11.5 M10,13 C8.343,13 7,11.657 7,10 C7,8.343 8.343,7 10,7 C11.657,7 13,8.343 13,10 C13,11.657 11.657,13 10,13" id="Fill-3"></path>
            </g>
        </g>
    </g>
</svg>