<?xml version="1.0" encoding="UTF-8"?>
<svg width="20px" height="20px" viewBox="0 0 20 20" version="1.1" xmlns="http://www.w3.org/2000/svg" xmlns:xlink="http://www.w3.org/1999/xlink">
    <!-- Generator: Sketch 44.1 (41455) - http://www.bohemiancoding.com/sketch -->
    <title>globe</title>
    <desc>Created with Sketch.</desc>
    <defs></defs>
    <g id="Exportable" stroke="none" stroke-width="1" fill="none" fill-rule="evenodd">
        <g id="globe" fill="#1A2E3B">
            <g id="Public">
                <path d="M12.7536704,1.2125442 L12.7237211,4.97677415 C12.7176676,5.73761836 12.0945533,6.35321408 11.32447,6.35173125 L10.680785,6.35049181 L10.680785,8.16533696 C10.680785,8.92565661 10.0656898,9.54201747 9.28883003,9.54201747 L8.15298172,9.54201747 L8.15298172,12.2579779 L11.4306853,12.2566213 C12.1966533,12.2563042 12.8178438,12.8671838 12.8181585,13.6341443 L12.8182342,13.8186704 L14.2341902,13.8186704 C14.9970028,13.8186704 15.6153846,14.43564 15.6153846,15.2109926 L15.6153846,16.6076778 C15.6153846,17.3766361 15.0034046,18.0751625 14.2341902,18.1696364 L8.85448977,18.8303636 C8.09167713,18.9240512 7.4732953,18.3852867 7.4732953,17.6114988 L7.4732953,15.4416852 L5.36823922,13.8367525 C4.75938193,13.3725487 4.26580557,12.3814603 4.26580557,11.6159267 L4.26580557,7.24993235 L4.26580557,4.19620125 L4.32252912,4.19620125 L4.32900059,3.38282579 C5.91388829,1.9890365 7.96091797,1.10824988 10.2105556,1 L11.1886374,1.00188333 C11.7230152,1.02967008 12.2458559,1.10105341 12.7536704,1.2125442 Z" id="Fill"></path>
                <path d="M10,18.5 C14.6944204,18.5 18.5,14.6944204 18.5,10 C18.5,5.30557963 14.6944204,1.5 10,1.5 C5.30557963,1.5 1.5,5.30557963 1.5,10 C1.5,14.6944204 5.30557963,18.5 10,18.5 Z M10,20 C4.4771525,20 0,15.5228475 0,10 C0,4.4771525 4.4771525,0 10,0 C15.5228475,0 20,4.4771525 20,10 C20,15.5228475 15.5228475,20 10,20 Z" id="Circle" fill-rule="nonzero"></path>
            </g>
        </g>
    </g>
</svg>