<svg id="Layer_1" xmlns="http://www.w3.org/2000/svg" viewBox="0 0 20 20"><style>.st0{fill-rule:evenodd;clip-rule:evenodd}</style><path d="M2.6 8l5.1-4.7c.1-.1.2-.1.2 0l3.4 3.3c.7.7 1.9.7 2.7.1l4.6-3.6c.4-.3.4-.9.1-1.2-.3-.4-.9-.4-1.2-.1l-4.6 3.6c-.1.1-.3.1-.4 0L9.1 2.1c-.7-.7-1.9-.7-2.6-.1L1.4 6.8c-.3.3-.4.8 0 1.2.3.3.8.4 1.2 0z"/><path class="st0" d="M7.9 18.5c-.5 0-.9-.4-.9-.8V9.3c0-.5.4-.8.8-.8.5 0 .8.4.8.8v8.3c.2.5-.2.9-.7.9zM3.8 18.5c-.5 0-.9-.4-.9-.8v-5.3c0-.5.4-.8.8-.8.5 0 .8.4.8.8v5.3c.1.4-.3.8-.7.8zM12.1 18.5c-.5 0-.9-.4-.9-.8v-5.3c0-.5.4-.8.8-.8.5 0 .8.4.8.8v5.3c.1.4-.2.8-.7.8zM16.3 18.5c-.5 0-.9-.4-.9-.8V9.3c0-.5.4-.8.8-.8.5 0 .8.4.8.8v8.3c.1.5-.3.9-.7.9z"/></svg>