<?xml version="1.0" encoding="UTF-8"?>
<svg width="20px" height="20px" viewBox="0 0 20 20" version="1.1" xmlns="http://www.w3.org/2000/svg" xmlns:xlink="http://www.w3.org/1999/xlink">
    <!-- Generator: Sketch 44.1 (41455) - http://www.bohemiancoding.com/sketch -->
    <title>grid</title>
    <desc>Created with Sketch.</desc>
    <defs></defs>
    <g id="Exportable" stroke="none" stroke-width="1" fill="none" fill-rule="evenodd">
        <g id="grid" fill-rule="nonzero" fill="#1A2E3B">
            <g id="Grid" transform="translate(1.000000, 1.000000)">
                <path d="M1.5,2.49980749 L1.5,5.50019251 C1.5,6.05628335 1.94762906,6.5 2.49980749,6.5 L5.50019251,6.5 C6.05628335,6.5 6.5,6.05237094 6.5,5.50019251 L6.5,2.49980749 C6.5,1.94371665 6.05237094,1.5 5.50019251,1.5 L2.49980749,1.5 C1.94371665,1.5 1.5,1.94762906 1.5,2.49980749 Z M0,2.49980749 C0,1.11875453 1.11573054,0 2.49980749,0 L5.50019251,0 C6.88124547,0 8,1.11573054 8,2.49980749 L8,5.50019251 C8,6.88124547 6.88426946,8 5.50019251,8 L2.49980749,8 C1.11875453,8 0,6.88426946 0,5.50019251 L0,2.49980749 Z" id="Rectangle"></path>
                <path d="M1.5,12.4998075 L1.5,15.5001925 C1.5,16.0562834 1.94762906,16.5 2.49980749,16.5 L5.50019251,16.5 C6.05628335,16.5 6.5,16.0523709 6.5,15.5001925 L6.5,12.4998075 C6.5,11.9437166 6.05237094,11.5 5.50019251,11.5 L2.49980749,11.5 C1.94371665,11.5 1.5,11.9476291 1.5,12.4998075 Z M0,12.4998075 C0,11.1187545 1.11573054,10 2.49980749,10 L5.50019251,10 C6.88124547,10 8,11.1157305 8,12.4998075 L8,15.5001925 C8,16.8812455 6.88426946,18 5.50019251,18 L2.49980749,18 C1.11875453,18 0,16.8842695 0,15.5001925 L0,12.4998075 Z" id="Rectangle"></path>
                <path d="M11.5,2.49980749 L11.5,5.50019251 C11.5,6.05628335 11.9476291,6.5 12.4998075,6.5 L15.5001925,6.5 C16.0562834,6.5 16.5,6.05237094 16.5,5.50019251 L16.5,2.49980749 C16.5,1.94371665 16.0523709,1.5 15.5001925,1.5 L12.4998075,1.5 C11.9437166,1.5 11.5,1.94762906 11.5,2.49980749 Z M10,2.49980749 C10,1.11875453 11.1157305,0 12.4998075,0 L15.5001925,0 C16.8812455,0 18,1.11573054 18,2.49980749 L18,5.50019251 C18,6.88124547 16.8842695,8 15.5001925,8 L12.4998075,8 C11.1187545,8 10,6.88426946 10,5.50019251 L10,2.49980749 Z" id="Rectangle"></path>
                <path d="M11.5,12.4998075 L11.5,15.5001925 C11.5,16.0562834 11.9476291,16.5 12.4998075,16.5 L15.5001925,16.5 C16.0562834,16.5 16.5,16.0523709 16.5,15.5001925 L16.5,12.4998075 C16.5,11.9437166 16.0523709,11.5 15.5001925,11.5 L12.4998075,11.5 C11.9437166,11.5 11.5,11.9476291 11.5,12.4998075 Z M10,12.4998075 C10,11.1187545 11.1157305,10 12.4998075,10 L15.5001925,10 C16.8812455,10 18,11.1157305 18,12.4998075 L18,15.5001925 C18,16.8812455 16.8842695,18 15.5001925,18 L12.4998075,18 C11.1187545,18 10,16.8842695 10,15.5001925 L10,12.4998075 Z" id="Rectangle"></path>
            </g>
        </g>
    </g>
</svg>