<?xml version="1.0" encoding="UTF-8"?>
<svg width="20px" height="20px" viewBox="0 0 20 20" version="1.1" xmlns="http://www.w3.org/2000/svg" xmlns:xlink="http://www.w3.org/1999/xlink">
    <!-- Generator: Sketch 44.1 (41455) - http://www.bohemiancoding.com/sketch -->
    <title>heart</title>
    <desc>Created with Sketch.</desc>
    <defs></defs>
    <g id="Exportable" stroke="none" stroke-width="1" fill="none" fill-rule="evenodd">
        <g id="heart" fill-rule="nonzero" fill="#1A2E3B">
            <path d="M16.6544072,9.98258637 L17.2277406,9.40404091 C18.785636,7.83198275 18.785636,5.24543543 17.2277406,3.67337727 C15.6773081,2.10885 13.1373585,2.10885 11.5869261,3.67337727 L9.94831152,5.32688835 L8.8828614,4.25209009 L8.30913749,3.67333236 C6.75888769,2.10885749 4.21879256,2.10885749 2.66836755,3.67337727 C1.11047208,5.24543543 1.11047208,7.83198275 2.66836755,9.40404091 L9.94813179,16.7499848 L16.6544072,9.98258637 Z M9.94814414,3.19607273 L10.7658167,2.38551193 C12.9173988,0.463792026 16.2354987,0.541130473 18.2931892,2.61752727 C20.4304865,4.77425455 20.4304865,8.30316364 18.2931892,10.4598909 L17.7198559,11.0384364 L9.94814414,18.8809818 L1.60291892,10.4598909 C-0.534378378,8.30316364 -0.534378378,4.77425455 1.60291892,2.61752727 C3.66030167,0.541441039 6.9778837,0.463815206 9.12934462,2.38464977 L9.94814414,3.19607273 Z" id="Fill-1"></path>
        </g>
    </g>
</svg>