<svg xmlns="http://www.w3.org/2000/svg" viewBox="0 0 20 16.01"><title> Likes</title><g id="Symbols"><g id="Icon-_-Dark-_-Likes"><g id="like-24"><path d="M12,20h0a1,1,0,0,1-.81-.41,16.12,16.12,0,0,0-4.35-3.7C4.46,14.3,2,12.66,2,9.5a5.4,5.4,0,0,1,1.63-4A5.93,5.93,0,0,1,8,4a5.62,5.62,0,0,1,4,1.88A5.81,5.81,0,0,1,16,4c2.89,0,6,2.1,6,5.5,0,3.16-2.46,4.8-4.84,6.38a16.14,16.14,0,0,0-4.35,3.7A1,1,0,0,1,12,20ZM7.73,6A3.88,3.88,0,0,0,5,7,3.38,3.38,0,0,0,4,9.5c0,2,1.5,3.09,4,4.72a21.54,21.54,0,0,1,4,3.21,21.57,21.57,0,0,1,4-3.21c2.45-1.63,4-2.73,4-4.72C20,7.22,17.68,6,16,6s-3.16,2-3.18,2.07a1,1,0,0,1-1.73-.14A3.68,3.68,0,0,0,8,6Z" transform="translate(-2 -3.99)" fill="#1a2e3b"/></g></g></g></svg>