<svg xmlns="http://www.w3.org/2000/svg" xmlns:xlink="http://www.w3.org/1999/xlink" viewBox="0 0 30 25.99"><defs><clipPath id="clip-path" transform="translate(5 4.33)"><path d="M14,.46a4.55,4.55,0,0,0-1.94.46L13,5.46H11l1,6-5-6H9L4.57.56A5.6,5.6,0,0,0,1.63,2,5.4,5.4,0,0,0,0,6c0,3.16,2.46,4.8,4.84,6.38A16.12,16.12,0,0,1,9.19,16a1,1,0,0,0,1.62,0,16.14,16.14,0,0,1,4.35-3.7C17.54,10.76,20,9.12,20,6,20,2.56,16.89.46,14,.46Z" fill="none"/></clipPath></defs><title>likes-broken</title><g clip-path="url(#clip-path)"><rect width="30" height="25.99" fill="#1a2e3b"/></g></svg>