<?xml version="1.0" encoding="utf-8"?>
<!-- Generator: Adobe Illustrator 21.1.0, SVG Export Plug-In . SVG Version: 6.00 Build 0)  -->
<svg version="1.1" id="Layer_1" xmlns="http://www.w3.org/2000/svg" xmlns:xlink="http://www.w3.org/1999/xlink" x="0px" y="0px"
	 viewBox="0 0 20 20" style="enable-background:new 0 0 20 20;" xml:space="preserve">
<path id="Fill-1" d="M10,0c-2.7,0-3.1,0-4.1,0.1c-1.1,0-1.8,0.2-2.4,0.5C2.8,0.8,2.2,1.2,1.7,1.7C1.1,2.3,0.8,2.8,0.5,3.5
	C0.3,4.1,0.1,4.9,0.1,5.9C0,7,0,7.3,0,10s0,3.1,0.1,4.1c0,1.1,0.2,1.8,0.5,2.4c0.3,0.7,0.6,1.2,1.2,1.8c0.6,0.6,1.1,0.9,1.8,1.2
	c0.6,0.2,1.4,0.4,2.4,0.5C6.9,20,7.3,20,10,20c2.7,0,3.1,0,4.1-0.1c1.1,0,1.8-0.2,2.4-0.5c0.7-0.3,1.2-0.6,1.8-1.2
	c0.6-0.6,0.9-1.1,1.2-1.8c0.2-0.6,0.4-1.4,0.5-2.4c0-1.1,0.1-1.4,0.1-4.1c0-2.7,0-3.1-0.1-4.1c0-1.1-0.2-1.8-0.5-2.4
	c-0.3-0.7-0.6-1.2-1.2-1.8c-0.6-0.6-1.1-0.9-1.8-1.2c-0.6-0.2-1.4-0.4-2.4-0.5C13.1,0.1,12.7,0,10,0 M10,1.8c2.7,0,3,0,4,0.1
	c1,0,1.5,0.2,1.9,0.3C16.4,2.4,16.7,2.6,17,3c0.3,0.3,0.6,0.7,0.7,1.1C17.9,4.5,18.1,5,18.1,6c0,1.1,0.1,1.4,0.1,4c0,2.7,0,3-0.1,4
	c0,1-0.2,1.5-0.3,1.9c-0.2,0.5-0.4,0.8-0.7,1.1c-0.3,0.3-0.7,0.6-1.1,0.7C15.5,18,15,18.1,14,18.2c-1.1,0-1.4,0.1-4,0.1s-3,0-4-0.1
	c-1,0-1.5-0.2-1.9-0.3c-0.5-0.2-0.8-0.4-1.1-0.7c-0.3-0.3-0.6-0.7-0.7-1.1c-0.1-0.4-0.3-0.9-0.3-1.9c0-1.1-0.1-1.4-0.1-4
	c0-2.7,0-3,0.1-4c0-1,0.2-1.5,0.3-1.9C2.4,3.7,2.6,3.3,3,3c0.3-0.3,0.7-0.6,1.1-0.7C4.5,2.1,5,1.9,6,1.9C7,1.9,7.3,1.8,10,1.8"/>
<path id="Fill-4" d="M10,13.4c-1.8,0-3.3-1.5-3.3-3.3S8.2,6.7,10,6.7s3.3,1.5,3.3,3.3S11.8,13.4,10,13.4 M10,4.9
	c-2.8,0-5.1,2.3-5.1,5.1c0,2.8,2.3,5.1,5.1,5.1s5.1-2.3,5.1-5.1C15.1,7.2,12.8,4.9,10,4.9"/>
<path id="Fill-6" d="M16.5,4.7c0,0.7-0.5,1.2-1.2,1.2s-1.2-0.5-1.2-1.2s0.5-1.2,1.2-1.2S16.5,4,16.5,4.7"/>
</svg>
