<svg version="1.1"  xmlns="http://www.w3.org/2000/svg" xmlns:xlink="http://www.w3.org/1999/xlink" x="0px" y="0px"
	 viewBox="0 0 24 24" style="enable-background:new 0 0 24 24;" xml:space="preserve">
<path id="globe_24" d="M12,0C5.4,0,0,5.4,0,12c0,6.6,5.4,12,12,12s12-5.4,12-12C24,5.4,18.6,0,12,0z M11,9.6c0,0.3-0.1,0.5-0.3,0.7
	l-1.4,1.4C9.1,11.9,9,12.1,9,12.4V13c0,0.6-0.4,1-1,1H7.6c-0.4,0-0.7-0.2-0.9-0.6l-0.4-0.9C6.1,12.2,5.8,12,5.4,12H4.6
	c-0.4,0-0.7,0.2-0.9,0.6l-0.5,1c-0.1,0.3-0.1,0.6,0,0.9l0.5,1C3.9,15.8,4.2,16,4.6,16h1c0.3,0,0.5,0.1,0.7,0.3l1.3,1.3
	c0.3,0.3,0.4,0.7,0.2,1l-0.7,2.1C4.1,19,2,15.7,2,12c0-2.8,1.2-5.3,3-7.1V7c0,0.6,0.4,1,1,1h0.6c0.3,0,0.5-0.1,0.7-0.3l0.4-0.4
	C7.9,7.1,8.1,7,8.4,7h1.2c0.3,0,0.5,0.1,0.7,0.3l0.4,0.4C10.9,7.9,11,8.1,11,8.4V9.6z M12,3.4c0,0.4-0.2,0.7-0.6,0.9l-0.8,0.4
	c-0.4,0.2-0.8,0.1-1.2-0.2L7.9,2.9C9.1,2.3,10.5,2,12,2V3.4z M16,8c0-0.6,0.4-1,1-1h0.4c0.4,0,0.7-0.2,0.9-0.6L19,4.9
	C20.2,6,21,7.4,21.5,9h-1.1c-0.3,0-0.5,0.1-0.7,0.3l-0.4,0.4c-0.2,0.2-0.4,0.3-0.7,0.3h-1.2c-0.3,0-0.5-0.1-0.7-0.3l-0.4-0.4
	C16.1,9.1,16,8.9,16,8.6V8z M17,20.7v-1.1c0-0.3-0.2-0.6-0.4-0.8l-2.1-1.4c-0.3-0.2-0.4-0.5-0.4-0.8v-1.9c0-0.3,0.2-0.6,0.4-0.8
	l2.3-1.5c0.2-0.1,0.4-0.2,0.6-0.2h2.5c0.2,0,0.3,0,0.4,0.1L22,13C21.6,16.3,19.7,19.1,17,20.7z"/>
</svg>
