<svg version="1.1"  xmlns="http://www.w3.org/2000/svg" xmlns:xlink="http://www.w3.org/1999/xlink" x="0px" y="0px" viewBox="0 0 64 64" style="enable-background:new 0 0 64 64;" xml:space="preserve">
	<path id="SVGID_1_" d="M64,41.1v-4c0-0.7-0.4-1.3-0.9-1.7L37.8,19.6c0.1-3.3,0.2-6,0.2-7.6c0-6-2.7-12-6-12s-6,6-6,12
		c0,1.6,0.1,4.3,0.2,7.6L0.9,35.4c-0.6,0.4-0.9,1-0.9,1.7v4c0,1.4,1.4,2.4,2.7,1.9l24.1-9.1c0.3,6.7,0.7,14.1,0.9,18.4l-7,5.9
		c-0.5,0.4-0.7,0.9-0.7,1.5V62c0,1.4,1.3,2.3,2.6,1.9l9.4-3.1l9.4,3.1c1.3,0.4,2.6-0.5,2.6-1.9v-2.3c0-0.6-0.3-1.2-0.7-1.5l-7-5.9
		c0.2-4.3,0.6-11.7,0.9-18.4L61.3,43C62.6,43.5,64,42.5,64,41.1"/>
</svg>
