<svg xmlns="http://www.w3.org/2000/svg" viewBox="0 0 16 16"><path fillRule="evenodd" clipRule="evenodd" d="M15 6.5h-2.254a5.006 5.006 0 0 0-.328-.796l1.593-1.593a.999.999 0 0 0 0-1.414l-.708-.707a.999.999 0 0 0-1.414 0l-1.593 1.593a4.918 4.918 0 0 0-.796-.329V1a1 1 0 0 0-1-1h-1a1 1 0 0 0-1 1v2.254a4.918 4.918 0 0 0-.796.329L4.111 1.99a.999.999 0 0 0-1.414 0l-.707.707a.999.999 0 0 0 0 1.414l1.593 1.593a4.918 4.918 0 0 0-.329.796H1a1 1 0 0 0-1 1v1a1 1 0 0 0 1 1h2.254c.088.277.196.542.328.796L1.99 11.889a.999.999 0 0 0 0 1.414l.707.707a.999.999 0 0 0 1.414 0l1.593-1.593c.254.132.519.241.796.328V15a1 1 0 0 0 1 1h1a1 1 0 0 0 1-1v-2.254c.277-.088.542-.196.796-.328l1.593 1.593a.999.999 0 0 0 1.414 0l.707-.707a.999.999 0 0 0 0-1.414l-1.593-1.593c.132-.254.241-.519.328-.796H15a1 1 0 0 0 1-1v-1A1 1 0 0 0 15 6.5zM10 8a2 2 0 1 1-3.999.001A2 2 0 0 1 10 8z"/></svg>
