<svg version="1.1"  xmlns="http://www.w3.org/2000/svg" xmlns:xlink="http://www.w3.org/1999/xlink" x="0px" y="0px"
	 viewBox="0 0 16 16" style="enable-background:new 0 0 16 16;" xml:space="preserve">
<g id="globe_restricted_16">
	<path d="M5.5,11H5v-1c0-1.1-0.9-2-2-2s-2,0.9-2,2v1H0.5C0.2,11,0,11.2,0,11.5v4C0,15.8,0.2,16,0.5,16h5C5.8,16,6,15.8,6,15.5v-4
		C6,11.2,5.8,11,5.5,11z M2,10c0-0.6,0.4-1,1-1s1,0.4,1,1v1H2V10z"/>
	<g>
		<path d="M8,0C3.8,0,0.4,3.2,0,7.3c0.6-0.7,1.4-1.1,2.3-1.3C2.5,5.6,2.7,5.2,3,4.7C3,4.9,3.2,5,3.4,5h1.4c0.1,0,0.3-0.1,0.4-0.1
			l0.7-0.7C5.9,4.1,6.1,4,6.2,4h1.3C7.8,4,8,4.2,8,4.5v2.2c0,0.2-0.1,0.4-0.3,0.4L6.3,7.8C6.6,8.2,6.7,8.6,6.9,9H7c0.6,0,1,0.4,1,1
			v6c4.4,0,8-3.6,8-8S12.4,0,8,0z M8,2.5C8,2.8,7.8,3,7.5,3H6.2C6.1,3,5.9,2.9,5.9,2.9L5.5,2.5C6.3,2.2,7.1,2,8,2V2.5z M10,4.5
			C10,4.2,10.2,4,10.5,4h1.1c0.2,0,0.4-0.1,0.5-0.3l0,0c0.7,0.7,1.3,1.6,1.6,2.6l-0.6,0.6C13.1,6.9,12.9,7,12.8,7h-1.6
			c-0.1,0-0.3-0.1-0.4-0.1l-0.7-0.7C10.1,6.1,10,5.9,10,5.8V4.5z M10.2,13.6l-0.9-0.4C9.1,13.1,9,12.9,9,12.7v-2.4
			c0-0.2,0.1-0.4,0.3-0.4l1.6-0.8C11,9,11,9,11.1,9h1.8C13,9,13,9,13.1,9.1l0.7,0.4C13.4,11.3,12,12.9,10.2,13.6z"/>
	</g>
</g>
</svg>
