<svg version="1.1"  xmlns="http://www.w3.org/2000/svg" xmlns:xlink="http://www.w3.org/1999/xlink" x="0px" y="0px"
	 viewBox="0 0 24 24" style="enable-background:new 0 0 24 24;" xml:space="preserve">
<g id="rent_24">
	<g>
		<path d="M24,17V7c-2.2,0-4-1.8-4-4H4c0,2.2-1.8,4-4,4v10c2.2,0,4,1.8,4,4h16C20,18.8,21.8,17,24,17z M20,15c0,1.1-0.9,2-2,2H6
			c-1.1,0-2-0.9-2-2V9c0-1.1,0.9-2,2-2h12c1.1,0,2,0.9,2,2V15z"/>
	</g>
	<path d="M17,15H7c-0.6,0-1-0.4-1-1v-4c0-0.6,0.4-1,1-1h10c0.6,0,1,0.4,1,1v4C18,14.6,17.6,15,17,15z"/>
</g>
</svg>
