<svg version="1.1"  xmlns="http://www.w3.org/2000/svg" xmlns:xlink="http://www.w3.org/1999/xlink" x="0px" y="0px"
	 viewBox="0 0 24 24" enable-background="new 0 0 24 24" xml:space="preserve">
<path id="a" fill="#010101" d="M11.2,9C10,9,9,10,9,11.2s1,2.2,2.2,2.2s2.2-1,2.2-2.2S12.5,9,11.2,9 M15,18h-3c-3.3,0-6-2.7-6-6
	s2.7-6,6-6h3c3.3,0,6,2.7,6,6S18.3,18,15,18 M24,12c0-5-4-9-9-9h-2.4l-2.6-2.6C9.8,0.2,9.4,0,9,0C8.2,0,7.5,0.7,7.5,1.5v2.7
	c-2.3,1.3-3.9,3.6-4.4,6.3H1.5C0.7,10.5,0,11.2,0,12v3c0,0.8,0.7,1.5,1.5,1.5h2.7C5,17.9,6.1,19,7.5,19.8v2.7C7.5,23.3,8.2,24,9,24
	h1.5c0.8,0,1.5-0.7,1.5-1.5V21h3v1.5c0,0.8,0.7,1.5,1.5,1.5H18c0.8,0,1.5-0.7,1.5-1.5v-2.7C22.2,18.2,24,15.3,24,12"/>
</svg>
