<svg xmlns="http://www.w3.org/2000/svg" viewBox="0 0 120 47"><defs><style>.cls-1,.cls-2{fill:#fff;}.cls-1{fill-rule:evenodd;}</style></defs><title>flare_premiere</title><g id="Layer_2" data-name="Layer 2"><g id="Layer_1-2" data-name="Layer 1"><path class="cls-1" d="M1,12.76s.5.69,1,1.36l1.06,1.31.21-1.33.24-1.33s-.51-.67-1-1.36-1-1.41-1-1.41-.17.68-.31,1.37S1,12.76,1,12.76Z"/><path class="cls-1" d="M7.56,11.42s-.74.36-1.45.76S4.66,13,4.66,13l-.24,1.3-.2,1.3,1.4-.89c.7-.43,1.42-.83,1.42-.83s.11-.62.24-1.23S7.56,11.42,7.56,11.42Z"/><path class="cls-1" d="M1.89,8.64s.45.73.93,1.43,1,1.39,1,1.39.14-.66.3-1.31.34-1.3.34-1.3S4,8.13,3.53,7.41L2.66,5.93l-.4,1.35Z"/><path class="cls-1" d="M8.55,7.78,7,8.44c-.76.34-1.5.71-1.5.71s-.18.63-.33,1.28-.3,1.28-.3,1.28.72-.41,1.46-.78,1.47-.73,1.47-.73L8.19,9Z"/><path class="cls-1" d="M.35,16.95l1.13,1.28c.56.63,1.16,1.23,1.16,1.23s0-.67.11-1.34.14-1.34.14-1.34l-1.1-1.29L.73,14.16.53,15.55Z"/><path class="cls-1" d="M6.83,15.13,5.43,16l-1.38.92s-.08.65-.14,1.31-.11,1.31-.11,1.31.65-.51,1.33-1l1.35-.93.16-1.25Z"/><path class="cls-1" d="M0,21.16s.59.61,1.22,1.2L2.5,23.5s0-.67,0-1.35,0-1.35,0-1.35S2,20.22,1.38,19.6L.22,18.35l-.1,1.4C.07,20.46,0,21.16,0,21.16Z"/><path class="cls-1" d="M6.36,18.88,5,19.84c-.67.49-1.31,1-1.31,1s0,.66,0,1.32,0,1.32,0,1.32l1.26-1.08c.63-.53,1.28-1,1.28-1s0-.63.06-1.26Z"/><path class="cls-1" d="M0,25.38l1.3,1.11,1.32,1.05s-.06-.67-.08-1.34l-.05-1.35L1.25,23.73C.62,23.17,0,22.57,0,22.57s0,.7,0,1.41S0,25.38,0,25.38Z"/><path class="cls-1" d="M6.18,22.65s-.64.52-1.26,1.06L3.69,24.82l.05,1.32c0,.66.08,1.32.08,1.32L5,26.29l1.2-1.12s0-.63,0-1.26S6.18,22.65,6.18,22.65Z"/><path class="cls-1" d="M.33,29.59s.68.52,1.38,1,1.39,1,1.39,1-.1-.67-.18-1.33-.15-1.34-.15-1.34-.69-.5-1.35-1L.1,26.79l.1,1.4Z"/><path class="cls-1" d="M6.26,26.43,5.09,27.58c-.59.58-1.15,1.19-1.15,1.19s.05.66.14,1.31.18,1.31.18,1.31.53-.64,1.09-1.25,1.12-1.2,1.12-1.2l-.12-1.25Z"/><path class="cls-1" d="M.93,33.78s.71.47,1.44.91l1.46.85-.28-1.32-.24-1.32S2.61,32.45,1.9,32,.5,31,.5,31s.09.7.2,1.39S.93,33.78.93,33.78Z"/><path class="cls-1" d="M6.62,30.19s-.56.6-1.09,1.23S4.47,32.7,4.47,32.7L4.7,34,5,35.28,6,34c.5-.65,1-1.28,1-1.28s-.12-.62-.21-1.24S6.62,30.19,6.62,30.19Z"/><path class="cls-1" d="M1.83,37.91l1.51.8c.75.39,1.52.74,1.52.74s-.2-.64-.37-1.29-.34-1.3-.34-1.3L2.67,36,1.2,35.16l.3,1.38Z"/><path class="cls-1" d="M7.24,33.92l-1,1.3-1,1.35s.16.64.33,1.28S6,39.11,6,39.11s.43-.71.9-1.39l.93-1.35-.3-1.22Z"/><path class="cls-1" d="M3,42s.78.36,1.56.69,1.57.63,1.57.63S5.93,42.65,5.7,42s-.43-1.27-.43-1.27S4.49,40.4,3.73,40L2.2,39.27l.4,1.35Z"/><path class="cls-1" d="M8.14,37.59,7.24,39c-.45.7-.86,1.41-.86,1.41s.2.63.43,1.25.46,1.24.46,1.24.38-.74.79-1.46S8.89,40,8.89,40l-.39-1.2Z"/><path class="cls-1" d="M4.53,45.91s.8.3,1.61.57L7.75,47l-.55-1.23-.53-1.24s-.79-.28-1.58-.59-1.58-.65-1.58-.65.24.66.5,1.32S4.53,45.91,4.53,45.91Z"/><path class="cls-1" d="M9.3,41.18s-.41.71-.8,1.43-.76,1.47-.76,1.47l.51,1.21.54,1.2L9.49,45c.35-.74.73-1.47.73-1.47s-.25-.58-.47-1.17S9.3,41.18,9.3,41.18Z"/><path class="cls-1" d="M8.17,4.27s0-1.05,0-2.12S8.28,0,8.28,0,7.49.74,6.74,1.53s-1.5,1.61-1.5,1.61,0,1.11,0,2.2.13,2.17.13,2.17.66-.85,1.35-1.67S8.17,4.27,8.17,4.27Z"/><path class="cls-1" d="M113,13.89s.72.4,1.42.83l1.4.89-.2-1.3-.24-1.3s-.72-.42-1.44-.82-1.45-.76-1.45-.76.15.61.27,1.23S113,13.89,113,13.89Z"/><path class="cls-1" d="M118.45,10s-.47.72-1,1.41-1,1.36-1,1.36l.24,1.33.21,1.33L118,14.12c.53-.67,1-1.36,1-1.36s-.12-.69-.27-1.38S118.45,10,118.45,10Z"/><path class="cls-1" d="M112.14,10.2s.74.35,1.47.73,1.46.78,1.46.78-.14-.64-.3-1.28-.33-1.28-.33-1.28-.74-.37-1.5-.71l-1.5-.66L111.81,9Z"/><path class="cls-1" d="M117.34,5.93l-.86,1.48c-.43.73-.9,1.43-.9,1.43s.19.65.34,1.3.3,1.31.3,1.31.5-.68,1-1.39.93-1.43.93-1.43l-.37-1.36Z"/><path class="cls-1" d="M113.51,17.62l1.35.93c.68.48,1.33,1,1.33,1s0-.66-.11-1.31-.14-1.31-.14-1.31L114.57,16l-1.4-.87.18,1.24Z"/><path class="cls-1" d="M119.27,14.16l-1.06,1.33-1.1,1.29s.08.67.14,1.34.11,1.34.11,1.34.59-.6,1.16-1.23l1.13-1.28-.17-1.4Z"/><path class="cls-1" d="M113.79,21.39s.65.5,1.28,1l1.26,1.08,0-1.32c0-.66,0-1.32,0-1.32s-.64-.52-1.31-1l-1.32-1,.09,1.26C113.77,20.76,113.79,21.39,113.79,21.39Z"/><path class="cls-1" d="M119.78,18.35l-1.16,1.25c-.58.62-1.19,1.2-1.19,1.2s0,.67,0,1.35,0,1.35,0,1.35l1.24-1.15c.62-.58,1.22-1.2,1.22-1.2s0-.7-.07-1.4Z"/><path class="cls-1" d="M113.8,25.17l1.2,1.12,1.17,1.17s.05-.66.08-1.32l.05-1.32-1.24-1.11c-.61-.54-1.26-1.06-1.26-1.06s0,.63,0,1.26S113.8,25.17,113.8,25.17Z"/><path class="cls-1" d="M120,22.57s-.61.6-1.24,1.17l-1.27,1.12-.05,1.35c0,.67-.08,1.34-.08,1.34l1.32-1.05,1.3-1.11s0-.7,0-1.41S120,22.57,120,22.57Z"/><path class="cls-1" d="M113.53,28.94s.57.59,1.12,1.2,1.09,1.25,1.09,1.25.1-.65.18-1.31.14-1.31.14-1.31-.56-.61-1.15-1.19l-1.17-1.15-.09,1.26Z"/><path class="cls-1" d="M119.9,26.79l-1.33,1.07c-.66.53-1.35,1-1.35,1s-.06.67-.15,1.34-.18,1.33-.18,1.33.71-.46,1.39-1,1.38-1,1.38-1l.13-1.4Z"/><path class="cls-1" d="M113,32.68s.53.63,1,1.28l1,1.32L115.3,34l.24-1.3s-.52-.65-1.06-1.27-1.09-1.23-1.09-1.23-.08.62-.18,1.25S113,32.68,113,32.68Z"/><path class="cls-1" d="M119.5,31s-.69.5-1.4,1-1.41.92-1.41.92l-.24,1.32-.28,1.32,1.46-.85c.73-.44,1.44-.91,1.44-.91s.13-.69.23-1.39S119.5,31,119.5,31Z"/><path class="cls-1" d="M112.19,36.37l.93,1.35c.46.69.9,1.39.9,1.39s.2-.63.37-1.27.33-1.28.33-1.28l-1-1.35-1-1.3-.27,1.23Z"/><path class="cls-1" d="M118.8,35.16l-1.47.87-1.48.82s-.16.65-.34,1.3-.37,1.29-.37,1.29.77-.36,1.52-.74l1.51-.8.33-1.37Z"/><path class="cls-1" d="M111.11,40s.43.7.83,1.41.79,1.46.79,1.46.24-.61.46-1.24.43-1.25.43-1.25-.41-.72-.86-1.41l-.9-1.37-.36,1.21Z"/><path class="cls-1" d="M117.8,39.27l-1.53.76c-.76.37-1.54.71-1.54.71s-.2.64-.43,1.27-.47,1.26-.47,1.26.79-.3,1.57-.63S117,42,117,42l.43-1.34Z"/><path class="cls-1" d="M109.78,43.52s.38.73.73,1.47l.69,1.51.54-1.2.51-1.21s-.37-.75-.76-1.47-.8-1.43-.8-1.43-.21.59-.45,1.18S109.78,43.52,109.78,43.52Z"/><path class="cls-1" d="M116.49,43.29s-.78.34-1.58.65-1.58.59-1.58.59l-.53,1.24L112.25,47l1.61-.52c.81-.27,1.61-.57,1.61-.57s.28-.65.53-1.3S116.49,43.29,116.49,43.29Z"/><path class="cls-1" d="M114.76,3.15s-.73-.83-1.5-1.61S111.72,0,111.72,0s.07,1.08.1,2.15,0,2.12,0,2.12.71.77,1.41,1.59,1.35,1.67,1.35,1.67.09-1.08.13-2.17S114.76,3.15,114.76,3.15Z"/><path class="cls-2" d="M18,28.06v4.08h2.56V24.52H17a2,2,0,0,1-2-2V13.6a1.93,1.93,0,0,1,2-2H21.6a2,2,0,0,1,2,2v5h-3V14.62H18v6.87H21.6a2,2,0,0,1,2,2v9.67a2,2,0,0,1-2,2H17a2,2,0,0,1-2-2V28.06Z"/><path class="cls-2" d="M28,14.62h-2.7v-3h8.42v3H31V35.17H28Z"/><path class="cls-2" d="M41,30.55H37.64l-.47,4.62h-3l2.49-23.58H42l2.43,23.58h-3Zm-3-3h2.7l-1.35-12.9Z"/><path class="cls-2" d="M46.34,35.17V11.58h7.58v3H49.37v6.5h3.2v3h-3.2v11Z"/><path class="cls-2" d="M55.94,35.17V11.58h7.58v3H59v6.5h3.2v3H59v11Z"/><path class="cls-2" d="M68.81,11.58h6.6a2,2,0,0,1,2,2v8.86a2,2,0,0,1-2,2H71.84V35.17h-3V11.58Zm5.59,3H71.84v6.81H74.4Z"/><path class="cls-2" d="M79.46,11.58h3V35.17h-3Z"/><path class="cls-2" d="M90.78,18.66v-4H88.22V32.14h2.56V28.06h3v5.12a2,2,0,0,1-2,2H87.21a2,2,0,0,1-2-2V13.6a2.07,2.07,0,0,1,2-2h4.58a2,2,0,0,1,2,2v5.05Z"/><path class="cls-2" d="M99.07,11.58v8.86l2.36-8.86h3.2l-3.2,11L105,35.17h-3.13l-2.8-10.31V35.17H96V11.58Z"/><path class="cls-2" d="M42.77,38.89h2.75a.84.84,0,0,1,.84.84v3.12a.84.84,0,0,1-.84.83H44v3.19H42.77v-8Zm2.33,1.26H44v2.27h1.06Z"/><path class="cls-2" d="M49.52,43.68H48.45v3.19H47.19v-8h2.59a.84.84,0,0,1,.84.84V42.3a.67.67,0,0,1-.43.69.83.83,0,0,1,.59.83v3.07H49.52Zm-1.06-1.26h.91V40.15h-.91Z"/><path class="cls-2" d="M55.14,46.88H51.89v-8H55v1.26H53.16v2h1.33v1.26H53.16v2.17h2Z"/><path class="cls-2" d="M60.44,46.88V42.56l-1,3.19h-1l-1-3.19v4.31h-1.3v-8h1.26l1.5,4.61,1.56-4.61H61.7v8Z"/><path class="cls-2" d="M62.81,38.89h1.26v8H62.81Z"/><path class="cls-2" d="M68.44,46.88H65.19v-8h3.15v1.26H66.46v2h1.33v1.26H66.46v2.17h2Z"/><path class="cls-2" d="M71.75,43.68H70.68v3.19H69.42v-8H72a.84.84,0,0,1,.84.84V42.3a.67.67,0,0,1-.43.69.83.83,0,0,1,.59.83v3.07H71.75Zm-1.06-1.26h.91V40.15h-.91Z"/><path class="cls-2" d="M77.38,46.88H74.13v-8h3.15v1.26H75.39v2h1.33v1.26H75.39v2.17h2Z"/></g></g></svg>