<svg version="1.1"  xmlns="http://www.w3.org/2000/svg" xmlns:xlink="http://www.w3.org/1999/xlink" x="0px" y="0px"
	 viewBox="0 0 16 16" style="enable-background:new 0 0 16 16;" xml:space="preserve">
<path id="globe_16" d="M8,0C3.6,0,0,3.6,0,8s3.6,8,8,8s8-3.6,8-8S12.4,0,8,0z M4.7,13c-0.8-0.5-1.5-1.2-1.9-2h1
	c0.1,0,0.3,0.1,0.4,0.1l0.7,0.7c0.1,0.1,0.2,0.3,0.1,0.5L4.7,13z M8,6.7c0,0.2-0.1,0.4-0.3,0.4L6.3,7.9C6.1,7.9,6,8.1,6,8.3v1.2
	C6,9.8,5.8,10,5.5,10h-1C4.2,10,4,9.8,4,9.5v-1C4,8.2,3.8,8,3.5,8h-1C2.3,8,2.1,8.2,2,8.4C2,8.3,2,8.1,2,8c0-1.2,0.4-2.3,1-3.3
	C3,4.9,3.2,5,3.4,5h1.4c0.1,0,0.3-0.1,0.4-0.1l0.7-0.7C5.9,4.1,6.1,4,6.2,4h1.3C7.8,4,8,4.2,8,4.5V6.7z M8,2.5C8,2.8,7.8,3,7.5,3
	H6.2C6.1,3,5.9,2.9,5.9,2.9L5.5,2.5C6.3,2.2,7.1,2,8,2V2.5z M10,4.5C10,4.2,10.2,4,10.5,4h1.1c0.2,0,0.4-0.1,0.5-0.3l0,0
	c0.7,0.7,1.3,1.6,1.6,2.6l-0.6,0.6C13.1,6.9,12.9,7,12.8,7h-1.6c-0.1,0-0.3-0.1-0.4-0.1l-0.7-0.7C10.1,6.1,10,5.9,10,5.8V4.5z
	 M10.2,13.6l-0.9-0.4C9.1,13.1,9,12.9,9,12.7v-2.4c0-0.2,0.1-0.4,0.3-0.4l1.6-0.8C11,9,11,9,11.1,9h1.8C13,9,13,9,13.1,9.1l0.7,0.4
	C13.4,11.3,12,12.9,10.2,13.6z"/>
</svg>
