<svg version="1.1"  xmlns="http://www.w3.org/2000/svg" xmlns:xlink="http://www.w3.org/1999/xlink" x="0px" y="0px" viewBox="0 0 12 12" style="enable-background:new 0 0 12 12;" xml:space="preserve">
	<path id="SVGID_1_" d="M10,4c0-1.7-1.3-3-3-3C6.1,1,5.2,1.4,4.7,2.1C4.5,2,4.2,2,4,2C2.9,2,2,2.9,2,4c0,0.4,0.1,0.8,0.3,1.1
		C1,5.4,0,6.6,0,8c0,1.7,1.3,3,3,3h2V8.4L4.7,8.7c-0.4,0.4-1,0.4-1.4,0c-0.4-0.4-0.4-1,0-1.4l2-2c0.4-0.4,1-0.4,1.4,0l2,2
		c0.4,0.4,0.4,1,0,1.4C8.5,8.9,8.3,9,8,9C7.7,9,7.5,8.9,7.3,8.7L7,8.4V11h2c1.7,0,3-1.3,3-3c0-1.4-0.9-2.5-2.2-2.9
		C9.9,4.8,10,4.4,10,4z"/>
</svg>
