<svg version="1.1"  xmlns="http://www.w3.org/2000/svg" xmlns:xlink="http://www.w3.org/1999/xlink" x="0px" y="0px" viewBox="0 0 64 64" style="enable-background:new 0 0 64 64;" xml:space="preserve">
	<path id="SVGID_1_" d="M32,0C14.3,0,0,14.3,0,32s14.3,32,32,32s32-14.3,32-32S49.7,0,32,0 M32,56C18.7,56,8,45.3,8,32S18.7,8,32,8
		s24,10.7,24,24S45.3,56,32,56 M22,34c0-2.2-1.8-4-4-4s-4,1.8-4,4s1.8,4,4,4S22,36.2,22,34z M50,34c0-2.2-1.8-4-4-4s-4,1.8-4,4
		s1.8,4,4,4S50,36.2,50,34z M20,42c0,0,2,8,12,8s12-8,12-8H20z"/>
</svg>
