<svg version="1.1"  xmlns="http://www.w3.org/2000/svg" xmlns:xlink="http://www.w3.org/1999/xlink" x="0px" y="0px"
	 viewBox="0 0 16 16" enable-background="new 0 0 16 16" xml:space="preserve">
<g id="download_16_1_">
	<path d="M16,9.5c0-1.48-0.921-2.738-2.219-3.25C13.912,5.854,14,5.439,14,5c0-2.209-1.791-4-4-4C8.247,1,6.774,2.135,6.233,3.704
		C5.784,3.27,5.174,3,4.5,3C3.119,3,2,4.119,2,5.5c0,0.273,0.055,0.531,0.135,0.776C0.88,6.808,0,8.051,0,9.5
		c0,1.762,1.306,3.205,3,3.45V12c0-1.304,0.837-2.403,2-2.816V8c0-1.657,1.343-3,3-3s3,1.343,3,3v1.184c1.163,0.413,2,1.512,2,2.816
		v0.95C14.694,12.705,16,11.262,16,9.5z"/>
	<path d="M10.707,11.293c-0.391-0.391-1.024-0.391-1.414,0L9,11.586V8c0-0.552-0.448-1-1-1S7,7.448,7,8v3.586l-0.293-0.293
		c-0.391-0.391-1.024-0.391-1.414,0c-0.391,0.391-0.391,1.024,0,1.414l2,2c0.391,0.391,1.024,0.391,1.414,0l2-2
		C11.098,12.317,11.098,11.683,10.707,11.293z"/>
</g>
</svg>
