<svg version="1.1"  xmlns="http://www.w3.org/2000/svg" xmlns:xlink="http://www.w3.org/1999/xlink" x="0px" y="0px"
	 viewBox="0 0 24 24" enable-background="new 0 0 24 24" xml:space="preserve">
<path id="tip_jar_24" d="M18,5.09V3h0.5C19.328,3,20,2.328,20,1.5S19.328,0,18.5,0h-13C4.672,0,4,0.672,4,1.5S4.672,3,5.5,3H6v2.09
	C3.163,5.567,1,8.028,1,11v10c0,1.657,1.343,3,3,3h16c1.657,0,3-1.343,3-3V11C23,8.028,20.837,5.567,18,5.09z M12,19
	c-2.25-2.988-6-2.812-6-6c0-1.688,1.312-3,3-3c1.687,0,3,1.5,3,1.5s1.312-1.5,3-1.5c1.687,0,3,1.312,3,3
	C18,16.188,14.25,16.012,12,19z"/>
</svg>
