<svg version="1.1"  xmlns="http://www.w3.org/2000/svg" xmlns:xlink="http://www.w3.org/1999/xlink" x="0px" y="0px"
	 viewBox="0 0 16 16" enable-background="new 0 0 16 16" xml:space="preserve">
<g id="minimize_16_1_">
	<path d="M6,9H2c-0.552,0-1,0.448-1,1c0,0.552,0.448,1,1,1h1.586l-3.364,3.364l0.014,0.014C0.096,14.55,0,14.761,0,15
		c0,0.552,0.448,1,1,1c0.239,0,0.45-0.095,0.622-0.236l0.014,0.014L5,12.414V14c0,0.552,0.448,1,1,1s1-0.448,1-1v-4
		C7,9.448,6.552,9,6,9z"/>
	<path d="M10,7h4c0.552,0,1-0.448,1-1c0-0.552-0.448-1-1-1h-1.586l3.364-3.364l-0.014-0.014C15.904,1.45,16,1.239,16,1
		c0-0.552-0.448-1-1-1c-0.239,0-0.45,0.096-0.622,0.236l-0.014-0.014L11,3.586V2c0-0.552-0.448-1-1-1S9,1.448,9,2v4
		C9,6.552,9.448,7,10,7z"/>
	<path d="M6,1C5.448,1,5,1.448,5,2v1.586L1.636,0.222L1.622,0.236C1.45,0.096,1.239,0,1,0C0.448,0,0,0.448,0,1
		c0,0.239,0.096,0.45,0.236,0.622L0.222,1.636L3.586,5H2C1.448,5,1,5.448,1,6c0,0.552,0.448,1,1,1h4c0.552,0,1-0.448,1-1V2
		C7,1.448,6.552,1,6,1z"/>
	<path d="M15.778,14.364L12.414,11H14c0.552,0,1-0.448,1-1c0-0.552-0.448-1-1-1h-4c-0.552,0-1,0.448-1,1v4c0,0.552,0.448,1,1,1
		s1-0.448,1-1v-1.586l3.364,3.364l0.014-0.014C14.55,15.905,14.761,16,15,16c0.552,0,1-0.448,1-1c0-0.239-0.096-0.45-0.236-0.622
		L15.778,14.364z"/>
</g>
</svg>
