<svg version="1.1"  xmlns="http://www.w3.org/2000/svg" xmlns:xlink="http://www.w3.org/1999/xlink" x="0px" y="0px"
	 viewBox="0 0 96 96" enable-background="new 0 0 96 96" xml:space="preserve">
<g id="stats_96">
	<path d="M15,96H9c-1.657,0-3-1.343-3-3V69c0-1.657,1.343-3,3-3h6c1.657,0,3,1.343,3,3v24C18,94.657,16.657,96,15,96z"/>
	<path d="M39,96h-6c-1.657,0-3-1.343-3-3V51c0-1.657,1.343-3,3-3h6c1.657,0,3,1.343,3,3v42C42,94.657,40.657,96,39,96z"/>
	<path d="M63,96h-6c-1.657,0-3-1.343-3-3V63c0-1.657,1.343-3,3-3h6c1.657,0,3,1.343,3,3v30C66,94.657,64.657,96,63,96z"/>
	<path d="M87,96h-6c-1.657,0-3-1.343-3-3V51c0-1.657,1.343-3,3-3h6c1.657,0,3,1.343,3,3v42C90,94.657,88.657,96,87,96z"/>
	<path d="M95.121,5.113L90.879,0.87c-1.148-1.148-2.987-1.155-4.163-0.053l-0.025,0L60.423,25.809l-20.827-15.62l-0.012,0.018
		C38.583,9.454,37.35,8.992,36,8.992c-1.657,0-3.157,0.672-4.243,1.757L0.879,41.628c-1.172,1.172-1.172,3.071,0,4.243l4.243,4.243
		c1.172,1.172,3.071,1.172,4.243,0l26.342-26.342l20.698,15.523l0.012-0.018c1.003,0.753,2.235,1.215,3.585,1.215
		c1.627,0,3.098-0.653,4.178-1.705l0.01,0L95.067,9.409l0-0.017c0.016-0.016,0.038-0.02,0.054-0.036
		C96.293,8.184,96.293,6.285,95.121,5.113z"/>
</g>
</svg>
