<svg version="1.1"  xmlns="http://www.w3.org/2000/svg" xmlns:xlink="http://www.w3.org/1999/xlink" x="0px" y="0px"
	 viewBox="0 0 64 64" style="enable-background:new 0 0 64 64;" xml:space="preserve">
<g>
	<polygon points="36,30 28,42 24,36 16,48 48,48 	"/>
	<path d="M20,32c2.2,0,4-1.8,4-4s-1.8-4-4-4s-4,1.8-4,4S17.8,32,20,32z"/>
	<path d="M60,52.4V19.6c2.3-0.8,4-3,4-5.6c0-3.3-2.7-6-6-6c-2.6,0-4.8,1.7-5.6,4h-7.5L33.4,0.6c-0.8-0.8-2-0.8-2.8,0L19.2,12h-7.5
		c-0.8-2.3-3-4-5.6-4c-3.3,0-6,2.7-6,6c0,2.6,1.7,4.8,4,5.6v32.7c-2.3,0.8-4,3-4,5.6c0,3.3,2.7,6,6,6c2.6,0,4.8-1.7,5.6-4h40.7
		c0.8,2.3,3,4,5.6,4c3.3,0,6-2.7,6-6C64,55.4,62.3,53.2,60,52.4z M32,4.8l7.2,7.2H24.8L32,4.8z M52,52H12V20h40V52z"/>
</g>
</svg>
