<svg version="1.1"  xmlns="http://www.w3.org/2000/svg" xmlns:xlink="http://www.w3.org/1999/xlink" x="0px" y="0px"
	 viewBox="0 0 32 32" style="enable-background:new 0 0 32 32;" xml:space="preserve">
<path id="horror_x5F_32" d="M16,0C7.2,0,0,7.2,0,16v2c0,3.3,2.7,6,6,6h1v6c0,1.1,0.9,2,2,2h1v-6c0-0.6,0.4-1,1-1s1,0.4,1,1v6h3v-6
	c0-0.6,0.4-1,1-1s1,0.4,1,1v6h3v-6c0-0.6,0.4-1,1-1s1,0.4,1,1v6h1c1.1,0,2-0.9,2-2v-6h1c3.3,0,6-2.7,6-6v-2C32,7.2,24.8,0,16,0z
	 M8,19c-2.2,0-4-1.8-4-4c0-2.2,1.8-4,4-4s4,1.8,4,4C12,17.2,10.2,19,8,19z M18,22h-4c-0.6,0-1-0.4-1-1c0-0.2,0.1-0.4,0.2-0.5l0,0
	l2-3h0c0.2-0.3,0.5-0.4,0.8-0.4s0.6,0.2,0.8,0.4h0l2,3l0,0c0.1,0.2,0.2,0.3,0.2,0.5C19,21.6,18.6,22,18,22z M24,19c-2.2,0-4-1.8-4-4
	c0-2.2,1.8-4,4-4s4,1.8,4,4C28,17.2,26.2,19,24,19z"/>
</svg>
