<svg version="1.1"  xmlns="http://www.w3.org/2000/svg" xmlns:xlink="http://www.w3.org/1999/xlink" x="0px" y="0px"
	 viewBox="0 0 16 16" enable-background="new 0 0 16 16" xml:space="preserve">
<g id="finishes_16_2_">
	<path d="M15,2h-5V1c0-0.552-0.448-1-1-1H1C0.448,0,0,0.448,0,1v14c0,0.552,0.448,1,1,1s1-0.448,1-1v-5h6v1c0,0.552,0.448,1,1,1h6
		c0.552,0,1-0.448,1-1V3C16,2.448,15.552,2,15,2z M8,6H6v2H4V6H2V4h2V2h2v2h2V6z M14,8h-2v2h-2V8h2V6h-2V4h2v2h2V8z"/>
	<rect x="4" y="4" width="2" height="2"/>
</g>
</svg>
