<svg version="1.1"  xmlns="http://www.w3.org/2000/svg" xmlns:xlink="http://www.w3.org/1999/xlink" x="0px" y="0px"
	 viewBox="0 0 32 32" style="enable-background:new 0 0 32 32;" xml:space="preserve">
<g id="globe_restricted_32">
	<g id="privacy_16_1_">
		<path d="M11,32H1c-0.6,0-1-0.4-1-1v-8c0-0.6,0.4-1,1-1h10c0.6,0,1,0.4,1,1v8C12,31.6,11.6,32,11,32z"/>
		<path d="M6,16c-2.2,0-4,1.8-4,4v7h2v-7c0-1.1,0.9-2,2-2s2,0.9,2,2v7h2v-7C10,17.8,8.2,16,6,16z"/>
	</g>
	<g>
		<path d="M16,0C7.2,0,0,7.2,0,16c0,0.8,0.1,1.7,0.2,2.5c0.5-2,2-3.5,3.9-4.2c0.3-2.2,1.2-4.2,2.5-5.8v0.6c0,0.9,0.7,1.6,1.6,1.6
			h0.4c0.4,0,0.8-0.2,1.1-0.5l0.4-0.4c0.3-0.3,0.7-0.5,1.1-0.5h1.3c0.4,0,0.8,0.2,1.1,0.5l0.4,0.4c0.3,0.3,0.5,0.7,0.5,1.1v1.3
			c0,0.4-0.2,0.8-0.5,1.1l-1.7,1.7c-0.3,0.3-0.5,0.7-0.5,1.1v0.4c0,0.4-0.1,0.7-0.3,1c0.2,0.6,0.3,1.3,0.3,2c1.1,0,2,0.9,2,2v9.9
			c0.7,0.1,1.3,0.1,2,0.1c8.8,0,16-7.2,16-16S24.8,0,16,0z M16,4.4c0,0.6-0.3,1.2-0.9,1.4l-0.8,0.4c-0.6,0.3-1.4,0.2-1.8-0.3l-1-1
			C12.9,4.3,14.4,4,16,4V4.4z M21.3,10.9c0-0.9,0.7-1.6,1.6-1.6h0c0.7,0,1.2-0.4,1.5-1l0.3-0.6c1.2,1.2,2.1,2.7,2.6,4.3
			c-0.4,0-0.8,0.2-1.1,0.5l-0.4,0.4c-0.3,0.3-0.7,0.5-1.1,0.5h-1.3c-0.4,0-0.8-0.2-1.1-0.5l-0.4-0.4c-0.3-0.3-0.5-0.7-0.5-1.1V10.9z
			 M22.6,26c-0.1-0.5-0.3-0.9-0.7-1.1l-2.6-1.7c-0.4-0.3-0.7-0.8-0.7-1.3v-2.3c0-0.5,0.3-1,0.7-1.3l2.9-1.9c0.3-0.2,0.6-0.3,0.9-0.3
			h3.1c0.2,0,0.5,0.1,0.7,0.2l1,0.5C27.8,20.5,25.7,24,22.6,26z"/>
	</g>
</g>
</svg>
