<svg version="1.1" id="Layer_1" xmlns="http://www.w3.org/2000/svg" xmlns:xlink="http://www.w3.org/1999/xlink" x="0px" y="0px"
	 viewBox="0 0 64 64" style="enable-background:new 0 0 64 64;" xml:space="preserve">
<g id="stats_64_color">
	<path style="fill:#A3DD24;" d="M10,64H6c-1.1,0-2-0.9-2-2V46c0-1.1,0.9-2,2-2h4c1.1,0,2,0.9,2,2v16C12,63.1,11.1,64,10,64z"/>
	<path style="fill:#7FC400;" d="M26,64h-4c-1.1,0-2-0.9-2-2V34c0-1.1,0.9-2,2-2h4c1.1,0,2,0.9,2,2v28C28,63.1,27.1,64,26,64z"/>
	<path style="fill:#A3DD24;" d="M42,64h-4c-1.1,0-2-0.9-2-2V42c0-1.1,0.9-2,2-2h4c1.1,0,2,0.9,2,2v20C44,63.1,43.1,64,42,64z"/>
	<path style="fill:#7FC400;" d="M58,64h-4c-1.1,0-2-0.9-2-2V34c0-1.1,0.9-2,2-2h4c1.1,0,2,0.9,2,2v28C60,63.1,59.1,64,58,64z"/>
	<path style="fill:#2E9A01;" d="M63.4,3.4l-2.8-2.8c-0.8-0.8-2-0.8-2.8,0l0,0L40.3,17.2L26.4,6.8l0,0C25.7,6.3,24.9,6,24,6
		c-1.1,0-2.1,0.4-2.8,1.2L0.6,27.8c-0.8,0.8-0.8,2,0,2.8l2.8,2.8c0.8,0.8,2,0.8,2.8,0l17.6-17.6l13.8,10.3l0,0
		c0.7,0.5,1.5,0.8,2.4,0.8c1.1,0,2.1-0.4,2.8-1.1l0,0L63.4,6.3l0,0l0,0C64.2,5.5,64.2,4.2,63.4,3.4z"/>
</g>
</svg>
