<svg version="1.1"  xmlns="http://www.w3.org/2000/svg" xmlns:xlink="http://www.w3.org/1999/xlink" x="0px" y="0px"
	 viewBox="0 0 12 12" enable-background="new 0 0 12 12" xml:space="preserve">
<g id="sort">
	<path id="descending" d="M9.707,7.293c-0.391-0.391-1.024-0.391-1.414,0L6,9.586L3.707,7.293c-0.391-0.391-1.024-0.391-1.414,0
		c-0.391,0.391-0.391,1.024,0,1.414l3,3c0.391,0.391,1.024,0.391,1.414,0l3-3C10.098,8.317,10.098,7.683,9.707,7.293z"/>
	<path id="ascending" d="M9.707,4.707c-0.391,0.391-1.024,0.391-1.414,0L6,2.414L3.707,4.707c-0.391,0.391-1.024,0.391-1.414,0
		c-0.391-0.391-0.391-1.024,0-1.414l3-3c0.391-0.391,1.024-0.391,1.414,0l3,3C10.098,3.683,10.098,4.317,9.707,4.707z"/>
</g>
</svg>
