<svg version="1.1"  xmlns="http://www.w3.org/2000/svg" xmlns:xlink="http://www.w3.org/1999/xlink" x="0px" y="0px"
	 viewBox="0 0 32 32" enable-background="new 0 0 32 32" xml:space="preserve">
<g id="upload_32">
	<path d="M27.894,15.31C27.957,14.881,28,14.446,28,14c0-4.971-4.029-9-9-9c-3.601,0-6.699,2.12-8.138,5.175
		C10.175,9.75,9.368,9.5,8.5,9.5C6.015,9.5,4,11.515,4,14c0,0.445,0.067,0.874,0.187,1.28C1.76,16.049,0,18.318,0,21
		c0,3.314,2.686,6,6,6h8v-6.464l-1.232,1.232c-0.391,0.391-1.024,0.391-1.414,0l-1.061-1.061c-0.391-0.391-0.391-1.024,0-1.414l5-5
		c0.391-0.391,1.024-0.391,1.414,0l5,5c0.391,0.391,0.391,1.024,0,1.414l-1.061,1.061c-0.391,0.391-1.024,0.391-1.414,0L18,20.536
		V27h8c3.314,0,6-2.686,6-6C32,18.349,30.279,16.104,27.894,15.31z"/>
</g>
</svg>
