<svg version="1.1"  xmlns="http://www.w3.org/2000/svg" xmlns:xlink="http://www.w3.org/1999/xlink" x="0px" y="0px" viewBox="0 0 64 64" style="enable-background:new 0 0 64 64;" xml:space="preserve">
	<path id="SVGID_1_" d="M52,20h-8v-8c0-6.6-5.4-12-12-12S20,5.4,20,12v8h-8C5.4,20,0,25.4,0,32s5.4,12,12,12h8v8
		c0,6.6,5.4,12,12,12s12-5.4,12-12v-8h8c6.6,0,12-5.4,12-12S58.6,20,52,20 M52,40H42c-1.1,0-2,0.9-2,2v10c0,4.4-3.6,8-8,8
		s-8-3.6-8-8V42c0-1.1-0.9-2-2-2H12c-4.4,0-8-3.6-8-8s3.6-8,8-8h10c1.1,0,2-0.9,2-2V12c0-4.4,3.6-8,8-8s8,3.6,8,8v10
		c0,1.1,0.9,2,2,2h10c4.4,0,8,3.6,8,8S56.4,40,52,40"/>
</svg>
