<svg version="1.1"  xmlns="http://www.w3.org/2000/svg" xmlns:xlink="http://www.w3.org/1999/xlink" x="0px" y="0px"
	 viewBox="0 0 16 16" enable-background="new 0 0 16 16" xml:space="preserve">
<g id="licenses_16_a">
	<path d="M8,0C3.582,0,0,3.582,0,8s3.582,8,8,8s8-3.582,8-8S12.418,0,8,0z M8,14c-3.314,0-6-2.686-6-6s2.686-6,6-6s6,2.686,6,6
		S11.314,14,8,14z"/>
	<path d="M6,10.5c-1.379,0-2.5-1.122-2.5-2.5S4.621,5.5,6,5.5c0.516,0,1.01,0.155,1.429,0.449c0.227,0.158,0.282,0.47,0.124,0.696
		C7.393,6.873,7.08,6.926,6.856,6.768C6.605,6.593,6.31,6.5,6,6.5C5.173,6.5,4.5,7.173,4.5,8S5.173,9.5,6,9.5
		c0.301,0,0.59-0.088,0.838-0.256c0.229-0.155,0.539-0.095,0.694,0.134c0.155,0.229,0.095,0.54-0.134,0.694
		C6.984,10.352,6.501,10.5,6,10.5z"/>
	<path d="M10.586,10.5c-1.379,0-2.5-1.122-2.5-2.5s1.121-2.5,2.5-2.5c0.516,0,1.01,0.155,1.429,0.449
		c0.227,0.158,0.282,0.47,0.124,0.696c-0.159,0.228-0.472,0.281-0.696,0.123C11.191,6.593,10.896,6.5,10.586,6.5
		c-0.827,0-1.5,0.673-1.5,1.5s0.673,1.5,1.5,1.5c0.301,0,0.59-0.088,0.838-0.256c0.229-0.155,0.539-0.095,0.694,0.134
		c0.155,0.229,0.095,0.54-0.134,0.694C11.57,10.352,11.087,10.5,10.586,10.5z"/>
</g>
</svg>
