<svg version="1.1"  xmlns="http://www.w3.org/2000/svg" xmlns:xlink="http://www.w3.org/1999/xlink" x="0px" y="0px" viewBox="0 0 32 32" style="enable-background:new 0 0 32 32;" xml:space="preserve">
	<path d="M7,18c0-1.7,1.3-3,3-3s3,1.3,3,3c0,1.7-1.3,3-3,3S7,19.7,7,18z M2.4,27.7L7,23.2c0.9,0.5,1.9,0.8,3,0.8
		c3.3,0,6-2.7,6-6s-2.7-6-6-6s-6,2.7-6,6c0,1.1,0.3,2.1,0.8,3l-4.5,4.5c-0.4,0.4-0.4,1,0,1.4L1,27.7C1.4,28.1,2,28.1,2.4,27.7z
		 M29.7,4H15.3C14,4,13,5,13,6.3v4.3c2.9,1.2,5,4.1,5,7.4h11.7c1.3,0,2.3-1,2.3-2.3V6.3C32,5,31,4,29.7,4z M20,13.9V8.1l6.2,2.9
		L20,13.9z"/>
</svg>
