<svg version="1.1"  xmlns="http://www.w3.org/2000/svg" xmlns:xlink="http://www.w3.org/1999/xlink" x="0px" y="0px"
	 viewBox="0 0 64 64" enable-background="new 0 0 64 64" xml:space="preserve">
<g id="stats_64">
	<path d="M10,64H6c-1.105,0-2-0.895-2-2V46c0-1.105,0.895-2,2-2h4c1.105,0,2,0.895,2,2v16C12,63.105,11.105,64,10,64z"/>
	<path d="M26,64h-4c-1.105,0-2-0.895-2-2V34c0-1.105,0.895-2,2-2h4c1.105,0,2,0.895,2,2v28C28,63.105,27.105,64,26,64z"/>
	<path d="M42,64h-4c-1.105,0-2-0.895-2-2V42c0-1.105,0.895-2,2-2h4c1.105,0,2,0.895,2,2v20C44,63.105,43.105,64,42,64z"/>
	<path d="M58,64h-4c-1.105,0-2-0.895-2-2V34c0-1.105,0.895-2,2-2h4c1.105,0,2,0.895,2,2v28C60,63.105,59.105,64,58,64z"/>
	<path d="M63.414,3.409L60.586,0.58c-0.766-0.766-1.991-0.77-2.776-0.035l-0.017,0L40.282,17.206L26.398,6.792L26.39,6.804
		c-0.668-0.502-1.49-0.81-2.39-0.81c-1.104,0-2.104,0.448-2.828,1.172L0.586,27.752c-0.781,0.781-0.781,2.047,0,2.828l2.828,2.828
		c0.781,0.781,2.047,0.781,2.828,0l17.561-17.561l13.799,10.349l0.008-0.012c0.668,0.502,1.49,0.81,2.39,0.81
		c1.085,0,2.065-0.435,2.786-1.136l0.006,0L63.378,6.273l0-0.011c0.011-0.01,0.026-0.013,0.036-0.024
		C64.195,5.456,64.195,4.19,63.414,3.409z"/>
</g>
</svg>
