<svg version="1.1"  xmlns="http://www.w3.org/2000/svg" xmlns:xlink="http://www.w3.org/1999/xlink" x="0px" y="0px"
	 viewBox="0 0 32 32" enable-background="new 0 0 32 32" xml:space="preserve">
<g id="subscribe_32">
	<path d="M20,9v2c0,0.552,0.448,1,1,1h10c0.552,0,1-0.448,1-1V1c0-0.552-0.448-1-1-1h-2c-0.552,0-1,0.448-1,1v4.445
		c-3.019-3.435-7.477-5.573-12.442-5.439C7.293,0.229,0.413,6.958,0.019,15.216C-0.42,24.409,6.904,32,16,32
		c8.471,0,15.404-6.583,15.964-14.912c0.039-0.585-0.413-1.088-1-1.088h-2.005c-0.513,0-0.955,0.388-0.993,0.9
		C27.507,23.107,22.325,28,16,28C9.217,28,3.748,22.371,4.009,15.53C4.247,9.284,9.47,4.147,15.719,4.003
		c3.663-0.084,6.956,1.48,9.208,3.997H21C20.448,8,20,8.448,20,9z"/>
	<polygon points="13,20 13,12 21,16 	"/>
</g>
</svg>
