<svg version="1.1" xmlns="http://www.w3.org/2000/svg" xmlns:xlink="http://www.w3.org/1999/xlink" x="0px" y="0px"
	 viewBox="0 0 16 16" style="enable-background:new 0 0 16 16;" xml:space="preserve">
<g id="stats_16">
	<path style="fill:#5A9E02;" d="M1,10c-0.2,0-0.5-0.1-0.6-0.2C0,9.4-0.1,8.8,0.3,8.4l5-6C5.6,2,6.2,1.9,6.6,2.2l3.3,2.5l4.4-4.4
		c0.4-0.4,1-0.4,1.4,0s0.4,1,0,1.4l-5,5c-0.4,0.4-0.9,0.4-1.3,0.1L6.2,4.4L1.8,9.6C1.6,9.9,1.3,10,1,10z"/>
	<g id="bar_graph_16_2_">
		<path style="fill:#B9DF73;" d="M2,12c-0.6,0-1,0.4-1,1v2c0,0.6,0.4,1,1,1s1-0.4,1-1v-2C3,12.4,2.6,12,2,12z"/>
		<path style="fill:#7FC400;" d="M6,8C5.4,8,5,8.4,5,9v6c0,0.6,0.4,1,1,1s1-0.4,1-1V9C7,8.4,6.6,8,6,8z"/>
		<path style="fill:#B9DF73;" d="M10,10c-0.6,0-1,0.4-1,1v4c0,0.6,0.4,1,1,1s1-0.4,1-1v-4C11,10.4,10.6,10,10,10z"/>
		<path style="fill:#7FC400;" d="M14,8c-0.6,0-1,0.4-1,1v6c0,0.6,0.4,1,1,1s1-0.4,1-1V9C15,8.4,14.6,8,14,8z"/>
	</g>
</g>
</svg>
