<svg version="1.1"  xmlns="http://www.w3.org/2000/svg" xmlns:xlink="http://www.w3.org/1999/xlink" x="0px" y="0px"
	 viewBox="0 0 16 16" enable-background="new 0 0 16 16" xml:space="preserve">
<g id="refresh_16_1_">
	<path d="M14.991,9.042c-0.529-0.159-1.086,0.146-1.243,0.673C12.997,12.238,10.633,14,8,14c-1.718,0-3.338-0.752-4.46-2H5
		c0.552,0,1-0.448,1-1c0-0.552-0.448-1-1-1H1c-0.552,0-1,0.448-1,1v4c0,0.552,0.448,1,1,1s1-0.448,1-1v-1.726
		C3.499,14.973,5.682,16,8,16c3.512,0,6.663-2.35,7.664-5.715C15.822,9.756,15.521,9.199,14.991,9.042z"/>
	<path d="M15,0c-0.552,0-1,0.448-1,1v1.726C12.501,1.027,10.318,0,8,0C4.488,0,1.337,2.35,0.336,5.715
		C0.178,6.244,0.479,6.801,1.009,6.958c0.53,0.157,1.087-0.145,1.243-0.673C3.003,3.762,5.367,2,8,2c1.718,0,3.338,0.752,4.46,2H11
		c-0.552,0-1,0.448-1,1c0,0.552,0.448,1,1,1h4c0.552,0,1-0.448,1-1V1C16,0.448,15.552,0,15,0z"/>
</g>
</svg>
