<svg version="1.1"  xmlns="http://www.w3.org/2000/svg" xmlns:xlink="http://www.w3.org/1999/xlink" x="0px" y="0px"
	 viewBox="0 0 16 16" enable-background="new 0 0 16 16" xml:space="preserve">
<g id="zoom_to_fit_16_1_">
	<path d="M5,0H1C0.448,0,0,0.448,0,1v4c0,0.552,0.448,1,1,1h1c0.552,0,1-0.448,1-1V3h2c0.552,0,1-0.448,1-1V1C6,0.448,5.552,0,5,0z"
		/>
	<path d="M5,13H3v-2c0-0.552-0.448-1-1-1H1c-0.552,0-1,0.448-1,1v4c0,0.552,0.448,1,1,1h4c0.552,0,1-0.448,1-1v-1
		C6,13.448,5.552,13,5,13z"/>
	<path d="M11,0c-0.552,0-1,0.448-1,1v1c0,0.552,0.448,1,1,1h2v2c0,0.552,0.448,1,1,1h1c0.552,0,1-0.448,1-1V1c0-0.552-0.448-1-1-1
		H11z"/>
	<path d="M15,10h-1c-0.552,0-1,0.448-1,1v2h-2c-0.552,0-1,0.448-1,1v1c0,0.552,0.448,1,1,1h4c0.552,0,1-0.448,1-1v-4
		C16,10.448,15.552,10,15,10z"/>
</g>
</svg>
