<svg xmlns="http://www.w3.org/2000/svg" viewBox="298 388 16 16"><path d="M313 394.5h-2.3c-.1-.3-.2-.5-.3-.8l1.6-1.6c.4-.4.4-1 0-1.4l-.7-.7c-.4-.4-1-.4-1.4 0l-1.6 1.6c-.3-.1-.5-.3-.8-.3V389c0-.6-.4-1-1-1h-1c-.6 0-1 .4-1 1v2.3c-.3 0-.5.2-.8.3l-1.6-1.6c-.4-.4-1-.4-1.4 0l-.7.7c-.4.4-.4 1 0 1.4l1.6 1.6c-.1.3-.3.5-.3.8H299c-.6 0-1 .4-1 1v1c0 .6.4 1 1 1h2.3c.1.3.2.5.3.8l-1.6 1.6c-.4.4-.4 1 0 1.4l.7.7c.4.4 1 .4 1.4 0l1.6-1.6c.3.1.5.2.8.3v2.3c0 .6.4 1 1 1h1c.6 0 1-.4 1-1v-2.3c.3-.1.5-.2.8-.3l1.6 1.6c.4.4 1 .4 1.4 0l.7-.7c.4-.4.4-1 0-1.4l-1.6-1.6c.1-.3.2-.5.3-.8h2.3c.6 0 1-.4 1-1v-1c0-.6-.4-1-1-1zm-5 1.5c0 1.1-.9 2-2 2s-2-.9-2-2 .9-2 2-2 2 .9 2 2z"/></svg>