<svg version="1.1"  xmlns="http://www.w3.org/2000/svg" xmlns:xlink="http://www.w3.org/1999/xlink" x="0px" y="0px"
	 viewBox="0 0 16 16" enable-background="new 0 0 16 16" xml:space="preserve">
<g id="exit_16">
	<path d="M7.293,4.293c-0.391,0.391-0.391,1.024,0,1.414L8.586,7H1C0.448,7,0,7.448,0,8s0.448,1,1,1h7.586l-1.293,1.293
		c-0.391,0.391-0.391,1.024,0,1.414c0.391,0.391,1.024,0.391,1.414,0l3-3c0.391-0.391,0.391-1.024,0-1.414l-3-3
		C8.317,3.902,7.683,3.902,7.293,4.293z"/>
	<g>
		<path d="M15,0H4C3.448,0,3,0.448,3,1v3c0,0.552,0.448,1,1,1s1-0.448,1-1V2h9v13c0,0.552,0.448,1,1,1s1-0.448,1-1V1
			C16,0.448,15.552,0,15,0z"/>
		<path d="M4,11c-0.552,0-1,0.448-1,1v3c0,0.552,0.448,1,1,1s1-0.448,1-1v-3C5,11.448,4.552,11,4,11z"/>
	</g>
</g>
</svg>
