<svg xmlns="http://www.w3.org/2000/svg" viewBox="0 0 162 62"><path d="M45.5 14h-12v4h4v30h4V18h4zm-26.2 2.1v15c0 1.1.9 2 2 2h6v11h-4v-7h-4v9c0 1.1.9 2 2 2h8c1.1 0 2-.9 2-2v-15c0-1.1-.9-2-2-2h-6v-11h4v7h4v-9c0-1.1-.9-2-2-2h-8c-1.1 0-2 .9-2 2zM57.1 48h4l-4-34h-7l-4 34h4l.9-8h5.1l1 8zm-5.6-12l2.1-17.8 2 17.8h-4.1zm23-18v-4h-12v34h4V33h6v-4h-6V18zm14 0v-4h-12v34h4V33h6v-4h-6V18zM96.5 14v34h4V33h6c1.1 0 2-.9 2-2V16c0-1.1-.9-2-2-2h-10zm8 15h-4V18h4v11zm6-15h4v34h-4zm6 2v30c0 1.1.9 2 2 2h8c1.1 0 2-.9 2-2v-9h-4v7h-4V18h4v7h4v-9c0-1.1-.9-2-2-2h-8c-1.1 0-2 .9-2 2zm27-2h-4l-5 14.1V14h-4v34h4V33.8l5 14.2h4l-6-17z"/><path class="st0" d="M6.1 44.7s-1-.7-2-1.5-1.9-1.6-1.9-1.6-.1-.4-.2-1.1c-.1-.7-.2-1.6-.3-2.5-.1-.9-.1-1.8-.2-2.5v-1.1s.9.9 1.8 1.7c.9.8 1.8 1.7 1.8 1.7s0 .4.1 1.1c.1.7.2 1.5.3 2.4.2 1.7.6 3.4.6 3.4zm4-4.1s-.7.9-1.4 1.9l-1.4 2S7 42.8 6.8 41c-.1-.9-.2-1.7-.3-2.4-.1-.6-.1-1.1-.1-1.1L8 35.7c.8-.8 1.6-1.7 1.6-1.7v1c0 .6.1 1.5.1 2.3.1.8.2 1.7.2 2.3.2.6.2 1 .2 1zM5 35.9s-.9-.8-1.8-1.7c-.9-.9-1.7-1.8-1.7-1.8v-3.6c0-.9.1-1.8.1-2.5s.1-1.1.1-1.1.8 1 1.6 1.9l1.6 1.8v3.5c0 1.8.1 3.5.1 3.5zm4.5-3.6s-.8.8-1.6 1.7l-1.6 1.8s-.1-1.7-.1-3.5v-3.5s.9-.8 1.8-1.7l1.8-1.6s0 .4-.1 1c0 .6-.1 1.5-.1 2.3v2.3c-.1.8-.1 1.2-.1 1.2zM5 27.1s-.8-.9-1.6-1.9c-.8-1-1.5-2-1.5-2s0-.5.1-1.1c.1-.7.2-1.6.3-2.5.2-1.8.6-3.6.6-3.6s.7 1.1 1.3 2.1l1.4 2s-.1.4-.1 1.1c-.1.7-.2 1.5-.3 2.4-.1 1.8-.2 3.5-.2 3.5zM9.8 24s-.9.7-1.8 1.5l-1.8 1.6s.1-1.7.2-3.5c.1-.9.2-1.7.3-2.4.1-.6.1-1.1.1-1.1s1-.7 1.9-1.4c1-.7 2-1.3 2-1.3s-.3 1.6-.5 3.3c-.1.8-.2 1.6-.3 2.3 0 .6-.1 1-.1 1zm-3.9-5.7s-.7-1-1.3-2.1c-.7-1-1.3-2.1-1.3-2.1s.4-1.8.9-3.6S5.3 7 5.3 7s.5 1.2 1 2.3c.5 1.1 1.1 2.2 1.1 2.2s-.5 1.7-.9 3.4c-.2.9-.4 1.7-.5 2.4 0 .6-.1 1-.1 1zm5.2-2.4s-1 .6-2 1.3l-2 1.4s.1-.4.2-1.1c.1-.6.3-1.5.5-2.3l.8-3.4s1-.6 2.1-1.2 2.1-1 2.1-1-.5 1.5-1 3.1c-.3 1.6-.7 3.2-.7 3.2zM11.7 61.4s-1.2-.4-2.3-.8c-1.2-.4-2.3-1-2.3-1s-.8-1.7-1.4-3.5c-.7-1.8-1.2-3.6-1.2-3.6s1.1.7 2.2 1.3c1.1.6 2.2 1.1 2.2 1.1s.6 1.7 1.3 3.3c.6 1.6 1.5 3.2 1.5 3.2zm2.6-5.1l-.8 2.2c-.4 1.1-.7 2.3-.7 2.3s-.8-1.5-1.6-3.1c-.7-1.6-1.3-3.2-1.3-3.2l1-2.2c.6-1.1 1.1-2.1 1.1-2.1s.5 1.6 1 3.1c.7 1.6 1.3 3 1.3 3zM8.2 53.3s-1.1-.6-2.1-1.2C5 51.5 4 50.8 4 50.8s-.5-1.8-.8-3.6c-.2-.9-.3-1.8-.5-2.5-.1-.7-.2-1.1-.2-1.1s1 .8 2 1.5l2 1.4.8 3.4c.3 1.7.9 3.4.9 3.4zm3.5-4.6s-.6 1-1.2 2.1c-.6 1-1.1 2.1-1.1 2.1s-.5-1.6-1-3.3l-.8-3.4s.7-1 1.3-2c.7-1 1.4-1.9 1.4-1.9s.1.4.2 1 .2 1.4.4 2.2l.8 3.2zM8.3 10.8s-.2-1.4-.4-2.9-.2-3-.2-3 1.1-1 2.3-2c.6-.5 1.2-.9 1.6-1.2.4-.3.7-.5.7-.5v2.9c0 1.4.1 2.8.1 2.8s-1.1.9-2.1 1.9c-1 .9-2 2-2 2zM155.5 44.5l-1.4-2c-.7-1-1.4-1.9-1.4-1.9s.1-.4.1-1c.1-.6.1-1.4.2-2.3.1-.8.1-1.7.1-2.3v-1l1.6 1.8 1.6 1.8s0 .4-.1 1.1c-.1.6-.2 1.5-.3 2.4-.1 1.7-.4 3.4-.4 3.4zm5.1-2.9s-.9.8-1.9 1.6c-1 .8-2 1.5-2 1.5s.3-1.7.5-3.5c.1-.9.2-1.8.3-2.4.1-.7.1-1.1.1-1.1s.9-.8 1.8-1.7c.9-.8 1.8-1.7 1.8-1.7v1.1c0 .7-.1 1.6-.2 2.5-.1.9-.2 1.8-.3 2.5 0 .8-.1 1.2-.1 1.2zm-4.1-5.7l-1.6-1.8c-.8-.9-1.6-1.7-1.6-1.7v-3.3c0-.8-.1-1.7-.1-2.3 0-.6-.1-1-.1-1l1.8 1.6c.9.8 1.8 1.7 1.8 1.7v3.5c-.1 1.5-.2 3.3-.2 3.3zm4.8-3.4s-.8.9-1.7 1.8c-.9.9-1.8 1.7-1.8 1.7s.1-1.8.1-3.5V29l1.6-1.8c.8-.9 1.6-1.9 1.6-1.9s0 .5.1 1.1c0 .7.1 1.6.1 2.5v3.6zm-4.8-5.3l-1.8-1.6c-.9-.8-1.8-1.5-1.8-1.5s0-.4-.1-1-.2-1.4-.3-2.3c-.2-1.6-.5-3.3-.5-3.3s1 .6 2 1.3c1 .7 1.9 1.4 1.9 1.4s.1.4.1 1.1c.1.6.2 1.5.3 2.4.2 1.7.2 3.5.2 3.5zm4.4-3.9s-.7 1-1.5 2-1.6 1.9-1.6 1.9-.1-1.8-.3-3.5c-.1-.9-.2-1.8-.3-2.4-.1-.7-.1-1.1-.1-1.1l1.4-2c.7-1 1.3-2.1 1.3-2.1s.4 1.8.6 3.6c.1.9.2 1.8.3 2.5.2.6.2 1.1.2 1.1zm-5.3-4.7l-2-1.4c-1-.7-2-1.3-2-1.3s-.3-1.6-.8-3.2c-.4-1.6-1-3.1-1-3.1s1.1.5 2.1 1c1.1.5 2.1 1.2 2.1 1.2s.5 1.7.8 3.4c.2.8.4 1.7.5 2.3.2.6.3 1.1.3 1.1zm3.9-4.5s-.6 1.1-1.3 2.1c-.7 1.1-1.3 2.1-1.3 2.1s-.1-.4-.2-1.1c-.1-.7-.3-1.5-.5-2.4-.4-1.7-.9-3.4-.9-3.4s.6-1.1 1.1-2.2c.5-1.1 1-2.3 1-2.3s.6 1.8 1.1 3.6c.6 1.8 1 3.6 1 3.6zM150 60.8s-.3-1.2-.7-2.3l-.8-2.2s.7-1.4 1.2-3c.6-1.5 1-3.1 1-3.1s.6 1 1.1 2.1l1 2.2s-.6 1.6-1.3 3.2c-.7 1.6-1.5 3.1-1.5 3.1zm5.7-1.2s-1.2.5-2.3 1c-1.2.4-2.3.8-2.3.8s.9-1.6 1.6-3.2c.7-1.6 1.3-3.3 1.3-3.3s1.1-.5 2.2-1.1c1.1-.6 2.2-1.3 2.2-1.3s-.5 1.8-1.2 3.6-1.5 3.5-1.5 3.5zM153.4 52.9s-.5-1.1-1.1-2.1c-.6-1.1-1.2-2.1-1.2-2.1s.4-1.6.7-3.2c.2-.8.3-1.6.4-2.2.1-.6.2-1 .2-1s.7.9 1.4 1.9c.7 1 1.3 2 1.3 2s-.3 1.7-.8 3.4c-.4 1.6-.9 3.3-.9 3.3zm5.5-2.2s-1.1.7-2.1 1.3c-1.1.6-2.1 1.2-2.1 1.2s.6-1.7 1-3.4l.8-3.4 2-1.4c1-.7 2-1.5 2-1.5s-.1.5-.2 1.1c-.1.7-.3 1.6-.5 2.5-.5 1.8-.9 3.6-.9 3.6zM154.5 10.8s-1-1.1-2-2.1-2.1-1.9-2.1-1.9.1-1.4.1-2.8V1.1s.3.2.7.5c.5.3 1 .8 1.6 1.2 1.2.9 2.3 2 2.3 2l-.2 3-.4 3z"/></svg>
