<svg version="1.1"  xmlns="http://www.w3.org/2000/svg" xmlns:xlink="http://www.w3.org/1999/xlink" x="0px" y="0px"
	 viewBox="0 0 16 16" enable-background="new 0 0 16 16" xml:space="preserve">
<path id="search_16_1_" d="M15.707,13.586l-4.543-4.543C11.692,8.15,12,7.112,12,6c0-3.314-2.686-6-6-6S0,2.686,0,6s2.686,6,6,6
	c1.112,0,2.15-0.308,3.043-0.836l4.543,4.543c0.391,0.391,1.024,0.391,1.414,0L15.707,15C16.098,14.609,16.098,13.976,15.707,13.586
	z M6,9C4.343,9,3,7.657,3,6s1.343-3,3-3s3,1.343,3,3S7.657,9,6,9z"/>
</svg>
