<svg version="1.1"  xmlns="http://www.w3.org/2000/svg" xmlns:xlink="http://www.w3.org/1999/xlink" x="0px" y="0px"
	 viewBox="0 0 16 16" enable-background="new 0 0 16 16" xml:space="preserve">
<path id="tip_jar_16" d="M12,3.141V2c0.552,0,1-0.448,1-1s-0.448-1-1-1H4C3.448,0,3,0.448,3,1s0.448,1,1,1v1.141
	C2.278,3.587,1,5.138,1,7v7c0,1.105,0.895,2,2,2h10c1.105,0,2-0.895,2-2V7C15,5.138,13.722,3.587,12,3.141z M8,13
	c-1.5-1.992-4-1.875-4-4c0-1.125,0.875-2,2-2s2,1,2,1s0.875-1,2-1s2,0.875,2,2C12,11.125,9.5,11.008,8,13z"/>
</svg>
