<svg version="1.1"  xmlns="http://www.w3.org/2000/svg" xmlns:xlink="http://www.w3.org/1999/xlink" x="0px" y="0px"
	 viewBox="0 0 24 24" style="enable-background:new 0 0 24 24;" xml:space="preserve">
<g id="tools_24">
	<g>
		<polygon points="7.4,3.1 0,0 3.1,7.4 5.6,9.9 9.9,5.6 		"/>
		<path d="M18.4,14.1l-4.2,4.2l4.8,4.8c1.2,1.2,3.1,1.2,4.2,0c1.2-1.2,1.2-3.1,0-4.2L18.4,14.1z"/>
	</g>
	<path d="M23.2,3l-4.5,4.5l-2.1-2.1L21,0.8C20.1,0.3,19.1,0,18,0c-3.3,0-6,2.7-6,6c0,0.5,0.1,1,0.2,1.5L0.9,18.9
		c-1.2,1.2-1.2,3.1,0,4.2c1.2,1.2,3.1,1.2,4.2,0l11.3-11.3c0.5,0.1,1,0.2,1.5,0.2c3.3,0,6-2.7,6-6C24,4.9,23.7,3.9,23.2,3z"/>
</g>
</svg>
