<?xml version="1.0" encoding="utf-8"?>
<!-- Generator: Adobe Illustrator 19.1.0, SVG Export Plug-In . SVG Version: 6.00 Build 0)  -->
<svg version="1.1"  xmlns="http://www.w3.org/2000/svg" xmlns:xlink="http://www.w3.org/1999/xlink" x="0px" y="0px"
	 viewBox="0 0 12 12" style="enable-background:new 0 0 12 12;" xml:space="preserve">
<path id="deselect_12" d="M6,1C3.2,1,1,3.2,1,6s2.2,5,5,5s5-2.2,5-5S8.8,1,6,1z M6,2.9c0.5,0,1,0.1,1.4,0.4L3.2,7.4
	C3,7,2.9,6.5,2.9,6C2.9,4.3,4.3,2.9,6,2.9z M6,9.1C5.5,9.1,5,9,4.6,8.8l4.2-4.2C9,5,9.1,5.5,9.1,6C9.1,7.7,7.7,9.1,6,9.1z"/>
</svg>
