<?xml version="1.0" encoding="utf-8"?>
<!-- Generator: Adobe Illustrator 19.1.0, SVG Export Plug-In . SVG Version: 6.00 Build 0)  -->
<svg version="1.1"  xmlns="http://www.w3.org/2000/svg" xmlns:xlink="http://www.w3.org/1999/xlink" x="0px" y="0px"
	 viewBox="0 0 24 24" style="enable-background:new 0 0 24 24;" xml:space="preserve">
<g id="reviews_24">
	<g>
		<path d="M20,8h-2c0,3.3-2.7,6-6,6H9.8l-1.5,1.5C8.9,17,10.3,18,12,18h3l4,4v-4h1c2.2,0,4-1.8,4-4v-2C24,9.8,22.2,8,20,8z"/>
	</g>
	<path d="M12,2H4C1.8,2,0,3.8,0,6v2c0,2.2,1.8,4,4,4h1v4l4-4h3c2.2,0,4-1.8,4-4V6C16,3.8,14.2,2,12,2z"/>
</g>
</svg>
