<svg version="1.1"  xmlns="http://www.w3.org/2000/svg" xmlns:xlink="http://www.w3.org/1999/xlink" x="0px" y="0px"
	 viewBox="0 0 128 128" enable-background="new 0 0 128 128" xml:space="preserve">
<g id="stats_128">
	<path d="M20,128h-8c-2.209,0-4-1.791-4-4V92c0-2.209,1.791-4,4-4h8c2.209,0,4,1.791,4,4v32C24,126.209,22.209,128,20,128z"/>
	<path d="M52,128h-8c-2.209,0-4-1.791-4-4V68c0-2.209,1.791-4,4-4h8c2.209,0,4,1.791,4,4v56C56,126.209,54.209,128,52,128z"/>
	<path d="M84,128h-8c-2.209,0-4-1.791-4-4V84c0-2.209,1.791-4,4-4h8c2.209,0,4,1.791,4,4v40C88,126.209,86.209,128,84,128z"/>
	<path d="M116,128h-8c-2.209,0-4-1.791-4-4V68c0-2.209,1.791-4,4-4h8c2.209,0,4,1.791,4,4v56C120,126.209,118.209,128,116,128z"/>
	<path d="M126.828,6.817l-5.657-5.657c-1.531-1.531-3.983-1.54-5.551-0.07l-0.033,0L80.564,34.412L52.795,13.585l-0.015,0.024
		c-1.337-1.003-2.98-1.62-4.78-1.62c-2.209,0-4.209,0.896-5.657,2.343L1.172,55.504c-1.562,1.562-1.562,4.095,0,5.657l5.657,5.657
		c1.562,1.562,4.095,1.562,5.657,0l35.122-35.122l27.597,20.698l0.015-0.024c1.337,1.003,2.98,1.62,4.78,1.62
		c2.169,0,4.13-0.871,5.571-2.273l0.013,0l41.172-39.171l0-0.023c0.022-0.021,0.051-0.027,0.072-0.048
		C128.391,10.912,128.391,8.38,126.828,6.817z"/>
</g>
</svg>
