<svg version="1.1"  xmlns="http://www.w3.org/2000/svg" xmlns:xlink="http://www.w3.org/1999/xlink" x="0px" y="0px"
	 viewBox="0 0 16 16" enable-background="new 0 0 16 16" xml:space="preserve">
<g id="view_selected_16_1_">
	<g>
		<path d="M15,0H5C4.448,0,4,0.448,4,1v1h9c0.552,0,1,0.448,1,1v9h1c0.552,0,1-0.448,1-1V1C16,0.448,15.552,0,15,0z"/>
	</g>
	<path d="M11,4H1C0.448,4,0,4.448,0,5v10c0,0.552,0.448,1,1,1h10c0.552,0,1-0.448,1-1V5C12,4.448,11.552,4,11,4z M9.854,8.377
		l-4.5,4.477c-0.195,0.194-0.512,0.194-0.707,0l-2.5-2.487c-0.195-0.194-0.195-0.509,0-0.704l0.53-0.528
		c0.195-0.194,0.512-0.194,0.707,0L5,10.744l3.616-3.598c0.195-0.194,0.512-0.194,0.707,0l0.53,0.528
		C10.049,7.868,10.049,8.183,9.854,8.377z"/>
</g>
</svg>
