<?xml version="1.0" encoding="utf-8"?>
<!-- Generator: Adobe Illustrator 19.1.0, SVG Export Plug-In . SVG Version: 6.00 Build 0)  -->
<svg version="1.1"  xmlns="http://www.w3.org/2000/svg" xmlns:xlink="http://www.w3.org/1999/xlink" x="0px" y="0px"
	 viewBox="0 0 32 32" style="enable-background:new 0 0 32 32;" xml:space="preserve">
<path id="rotten_tomatoes_32" d="M27.5,10h1.9C27,6.8,22.8,4.6,18,4.1V2c0-1.1-0.9-2-2-2s-2,0.9-2,2v2.1C9.2,4.6,5,6.8,2.5,10h1.9
	C1.7,12.3,0,15.5,0,19c0,7.2,7.2,13,16,13s16-5.8,16-13C32,15.5,30.3,12.3,27.5,10z M16,28c-6.6,0-12-4-12-9c0-3,2-5.7,5-7.3V15
	l4.4-3.6L16,16l2.6-4.6L23,15v-3.3c3,1.6,5,4.3,5,7.3C28,24,22.6,28,16,28z"/>
</svg>
