<svg version="1.1"  xmlns="http://www.w3.org/2000/svg" xmlns:xlink="http://www.w3.org/1999/xlink" x="0px" y="0px"
	 viewBox="0 0 64 64" enable-background="new 0 0 64 64" xml:space="preserve">
<path id="quality_64_1_" d="M60,8H4c-2.209,0-4,1.791-4,4v32c0,2.209,1.791,4,4,4h23v4h-6c-1.105,0-2,0.895-2,2c0,1.105,0.895,2,2,2
	h22c1.105,0,2-0.895,2-2c0-1.105-0.895-2-2-2h-6v-4h23c2.209,0,4-1.791,4-4V12C64,9.791,62.209,8,60,8z M22,14h12v10
	c0,1.105,0.895,2,2,2h22v6H22V14z M58,22H38v-8h20V22z M6,42V14h12v20c0,1.105,0.895,2,2,2h38v6H6z"/>
</svg>
