<svg version="1.1" id="Layer_1" xmlns="http://www.w3.org/2000/svg" xmlns:xlink="http://www.w3.org/1999/xlink" x="0px" y="0px"
	 viewBox="0 0 32 32" style="enable-background:new 0 0 32 32;" xml:space="preserve">
<g id="stats_32_color">
	<path style="fill:#A3DD24;" d="M5,32H3c-0.6,0-1-0.4-1-1v-8c0-0.6,0.4-1,1-1h2c0.6,0,1,0.4,1,1v8C6,31.6,5.6,32,5,32z"/>
	<path style="fill:#7FC400;" d="M13,32h-2c-0.6,0-1-0.4-1-1V17c0-0.6,0.4-1,1-1h2c0.6,0,1,0.4,1,1v14C14,31.6,13.6,32,13,32z"/>
	<path style="fill:#A3DD24;" d="M21,32h-2c-0.6,0-1-0.4-1-1V21c0-0.6,0.4-1,1-1h2c0.6,0,1,0.4,1,1v10C22,31.6,21.6,32,21,32z"/>
	<path style="fill:#7FC400;" d="M29,32h-2c-0.6,0-1-0.4-1-1V17c0-0.6,0.4-1,1-1h2c0.6,0,1,0.4,1,1v14C30,31.6,29.6,32,29,32z"/>
	<path style="fill:#2E9A01;" d="M31.7,1.7l-1.4-1.4c-0.4-0.4-1-0.4-1.4,0l0,0l-8.8,8.3l-6.9-5.2l0,0C12.9,3.2,12.5,3,12,3
		c-0.6,0-1.1,0.2-1.4,0.6L0.3,13.9c-0.4,0.4-0.4,1,0,1.4l1.4,1.4c0.4,0.4,1,0.4,1.4,0l8.8-8.8l6.9,5.2l0,0c0.3,0.3,0.7,0.4,1.2,0.4
		s1-0.2,1.4-0.6l0,0l10.3-9.8l0,0l0,0C32.1,2.7,32.1,2.1,31.7,1.7z"/>
</g>
</svg>
