<svg version="1.1"  xmlns="http://www.w3.org/2000/svg" xmlns:xlink="http://www.w3.org/1999/xlink" x="0px" y="0px"
	 viewBox="0 0 16 16" enable-background="new 0 0 16 16" xml:space="preserve">
<g id="full_screen_16_1_">
	<path d="M15,0h-4c-0.552,0-1,0.448-1,1c0,0.552,0.448,1,1,1h1.586L9.793,4.793C9.612,4.974,9.5,5.224,9.5,5.5c0,0.552,0.448,1,1,1
		c0.276,0,0.526-0.112,0.707-0.293L14,3.414V5c0,0.552,0.448,1,1,1s1-0.448,1-1V1C16,0.448,15.552,0,15,0z"/>
	<path d="M15,10c-0.552,0-1,0.448-1,1v1.586l-2.793-2.793C11.026,9.612,10.776,9.5,10.5,9.5c-0.552,0-1,0.448-1,1
		c0,0.276,0.112,0.526,0.293,0.707L12.586,14H11c-0.552,0-1,0.448-1,1c0,0.552,0.448,1,1,1h4c0.552,0,1-0.448,1-1v-4
		C16,10.448,15.552,10,15,10z"/>
	<path d="M3.414,2H5c0.552,0,1-0.448,1-1c0-0.552-0.448-1-1-1H1C0.448,0,0,0.448,0,1v4c0,0.552,0.448,1,1,1s1-0.448,1-1V3.414
		l2.793,2.793C4.974,6.388,5.224,6.5,5.5,6.5c0.552,0,1-0.448,1-1c0-0.276-0.112-0.526-0.293-0.707L3.414,2z"/>
	<path d="M5.5,9.5c-0.276,0-0.526,0.112-0.707,0.293L2,12.586V11c0-0.552-0.448-1-1-1s-1,0.448-1,1v4c0,0.552,0.448,1,1,1h4
		c0.552,0,1-0.448,1-1c0-0.552-0.448-1-1-1H3.414l2.793-2.793C6.388,11.026,6.5,10.776,6.5,10.5C6.5,9.948,6.052,9.5,5.5,9.5z"/>
</g>
</svg>
