<svg version="1.1"  xmlns="http://www.w3.org/2000/svg" xmlns:xlink="http://www.w3.org/1999/xlink" x="0px" y="0px"
	 viewBox="0 0 32 32" enable-background="new 0 0 32 32" xml:space="preserve">
<g id="stats_32">
	<path d="M5,32H3c-0.552,0-1-0.448-1-1v-8c0-0.552,0.448-1,1-1h2c0.552,0,1,0.448,1,1v8C6,31.552,5.552,32,5,32z"/>
	<path d="M13,32h-2c-0.552,0-1-0.448-1-1V17c0-0.552,0.448-1,1-1h2c0.552,0,1,0.448,1,1v14C14,31.552,13.552,32,13,32z"/>
	<path d="M21,32h-2c-0.552,0-1-0.448-1-1V21c0-0.552,0.448-1,1-1h2c0.552,0,1,0.448,1,1v10C22,31.552,21.552,32,21,32z"/>
	<path d="M29,32h-2c-0.552,0-1-0.448-1-1V17c0-0.552,0.448-1,1-1h2c0.552,0,1,0.448,1,1v14C30,31.552,29.552,32,29,32z"/>
	<path d="M31.707,1.704L30.293,0.29c-0.383-0.383-0.996-0.385-1.388-0.018l-0.008,0l-8.756,8.33l-6.942-5.207l-0.004,0.006
		C12.861,3.151,12.45,2.997,12,2.997c-0.552,0-1.052,0.224-1.414,0.586L0.293,13.876c-0.391,0.391-0.391,1.024,0,1.414l1.414,1.414
		c0.391,0.391,1.024,0.391,1.414,0l8.781-8.781l6.899,5.174l0.004-0.006c0.334,0.251,0.745,0.405,1.195,0.405
		c0.542,0,1.033-0.218,1.393-0.568l0.003,0l10.293-9.793l0-0.006c0.005-0.005,0.013-0.007,0.018-0.012
		C32.098,2.728,32.098,2.095,31.707,1.704z"/>
</g>
</svg>
