<svg version="1.1"  xmlns="http://www.w3.org/2000/svg" xmlns:xlink="http://www.w3.org/1999/xlink" x="0px" y="0px"
	 viewBox="0 0 16 16" enable-background="new 0 0 16 16" xml:space="preserve">
<path id="increase_16" d="M13.707,5.293l-5-5c-0.391-0.391-1.024-0.391-1.414,0l-5,5c-0.391,0.391-0.391,1.024,0,1.414L3,7.414
	c0.391,0.391,1.024,0.391,1.414,0L6,5.828V15c0,0.552,0.448,1,1,1h2c0.552,0,1-0.448,1-1V5.828l1.586,1.586
	c0.391,0.391,1.024,0.391,1.414,0l0.707-0.707C14.098,6.317,14.098,5.683,13.707,5.293z"/>
</svg>
