<svg version="1.1"  xmlns="http://www.w3.org/2000/svg" xmlns:xlink="http://www.w3.org/1999/xlink" x="0px" y="0px" viewBox="0 0 32 32" enable-background="new 0 0 32 32" xml:space="preserve">
	<g>
		<circle cx="26" cy="22" r="6"/>
		<path d="M2,25c-1.105,0-2,0.895-2,2v3c0,1.105,0.895,2,2,2s2-0.895,2-2v-3C4,25.895,3.105,25,2,25z"/>
		<path d="M2,16c-1.105,0-2,0.895-2,2v3c0,1.105,0.895,2,2,2s2-0.895,2-2v-3C4,16.895,3.105,16,2,16z"/>
		<path d="M2,14c-1.104,0-2-0.896-2-2c0-2.403,1.087-4.646,1.211-4.895c0.493-0.987,1.693-1.389,2.684-0.895
			c0.986,0.493,1.387,1.691,0.897,2.678l0,0C4.571,9.336,4,10.768,4,12C4,13.104,3.104,14,2,14z"/>
		<path d="M26,14c-1.104,0-2-0.896-2-2c0-1.232-0.571-2.664-0.792-3.111c-0.486-0.989-0.082-2.188,0.905-2.677
			c0.987-0.49,2.183-0.091,2.676,0.894C26.913,7.354,28,9.597,28,12C28,13.104,27.104,14,26,14z"/>
		<path d="M20.998,6C20.581,6,20.16,5.87,19.8,5.6c-1.624-1.218-3.277-1.658-3.294-1.662c-1.065-0.277-1.711-1.364-1.439-2.431
			c0.273-1.067,1.35-1.714,2.419-1.447c0.244,0.062,2.457,0.647,4.715,2.34c0.884,0.663,1.062,1.917,0.399,2.8
			C22.207,5.724,21.606,6,20.998,6z"/>
		<path d="M7.002,6C6.394,6,5.793,5.724,5.4,5.2C4.737,4.316,4.916,3.062,5.8,2.4c2.258-1.693,4.471-2.279,4.715-2.34
			c1.07-0.267,2.157,0.383,2.426,1.456c0.268,1.069-0.381,2.152-1.447,2.423C11.439,3.953,9.806,4.396,8.2,5.6
			C7.84,5.87,7.419,6,7.002,6z"/>
	</g>
</svg>
