<svg version="1.1" id="Layer_1" xmlns="http://www.w3.org/2000/svg" xmlns:xlink="http://www.w3.org/1999/xlink" x="0px" y="0px"
	 viewBox="0 0 64 64" style="enable-background:new 0 0 64 64;" xml:space="preserve">
<g id="cast_64">
	<path style="fill:#010101;" d="M4,46c0-1.1-0.9-2-2-2s-2,0.9-2,2s0.9,2,2,2S4,47.1,4,46z M8,46c0-3.3-2.7-6-6-6c-1.1,0-2-0.9-2-2
		s0.9-2,2-2c5.5,0,10,4.5,10,10c0,1.1-0.9,2-2,2S8,47.1,8,46z"/>
	<path style="fill:#010101;" d="M60,8H4c-2.2,0-4,1.8-4,4v18c0,1.1,0.9,2,2,2c7.7,0,14,6.3,14,14c0,1.1,0.9,2,2,2h9v4h-6
		c-1.1,0-2,0.9-2,2s0.9,2,2,2h22c1.1,0,2-0.9,2-2s-0.9-2-2-2h-6v-4h23c2.2,0,4-1.8,4-4V12C64,9.8,62.2,8,60,8z M58,42H22.3
		C20.3,34,14,27.7,6,25.7V14h52V42z"/>
</g>
</svg>
