<svg version="1.1"  xmlns="http://www.w3.org/2000/svg" xmlns:xlink="http://www.w3.org/1999/xlink" x="0px" y="0px"
	 viewBox="0 0 12 12" enable-background="new 0 0 12 12" xml:space="preserve">
<path id="loads_12_1_" d="M11,0c-0.552,0-1,0.448-1,1v0.537C8.909,0.554,7.506,0,6,0C2.691,0,0,2.691,0,6s2.691,6,6,6
	c1.905,0,3.654-0.875,4.8-2.399c0.331-0.441,0.242-1.068-0.199-1.4C10.159,7.87,9.531,7.958,9.2,8.399C8.437,9.417,7.27,10,6,10
	c-2.206,0-4-1.794-4-4s1.794-4,4-4c0.989,0,1.908,0.363,2.631,1H8C7.448,3,7,3.448,7,4s0.448,1,1,1h3c0.552,0,1-0.448,1-1V1
	C12,0.448,11.552,0,11,0z"/>
</svg>
