<svg version="1.1"  xmlns="http://www.w3.org/2000/svg" xmlns:xlink="http://www.w3.org/1999/xlink" x="0px" y="0px"
	 viewBox="0 0 64 64" enable-background="new 0 0 64 64" xml:space="preserve">
<path id="phone_64_1_" d="M45,0H19c-3.314,0-6,2.686-6,6v52c0,3.314,2.686,6,6,6h26c3.314,0,6-2.686,6-6V6C51,2.686,48.314,0,45,0z
	 M32,3h6c1.105,0,2,0.895,2,2s-0.895,2-2,2h-6c-1.105,0-2-0.895-2-2S30.895,3,32,3z M26,3c1.105,0,2,0.895,2,2s-0.895,2-2,2
	s-2-0.895-2-2S24.895,3,26,3z M32,62c-1.657,0-3-1.343-3-3s1.343-3,3-3s3,1.343,3,3S33.657,62,32,62z M45,54H19V10h26V54z"/>
</svg>
