<svg version="1.1"  xmlns="http://www.w3.org/2000/svg" xmlns:xlink="http://www.w3.org/1999/xlink" x="0px" y="0px"
	 viewBox="0 0 24 24" style="enable-background:new 0 0 24 24;" xml:space="preserve">
<g id="stats_24">
	<path d="M5.3,24H3.7C3.3,24,3,23.7,3,23.2v-5.9c0-0.4,0.4-0.8,0.8-0.8h1.4c0.4,0,0.7,0.3,0.7,0.8v5.9C6,23.7,5.7,24,5.3,24z"/>
	<path d="M10.3,24H8.7C8.3,24,8,23.7,8,23.2V12.7C8,12.3,8.4,12,8.8,12h1.4c0.4,0,0.7,0.3,0.7,0.7v10.5C11,23.7,10.7,24,10.3,24z"/>
	<path d="M20.2,24h-1.5c-0.4,0-0.8-0.3-0.8-0.8V12.7c0-0.4,0.4-0.7,0.8-0.7h1.4c0.4,0,0.8,0.3,0.8,0.7v10.5C21,23.7,20.7,24,20.2,24
		z"/>
	<path d="M15.3,24h-1.5c-0.4,0-0.7-0.3-0.7-0.8v-7.4c0-0.4,0.4-0.7,0.8-0.7h1.4c0.4,0,0.7,0.3,0.7,0.7v7.4C16,23.7,15.7,24,15.3,24z
		"/>
	<path d="M23.7,1.3l-1-1c-0.4-0.4-1-0.4-1.4,0l-6.4,6.4L9.7,2.3c-0.4-0.4-1-0.4-1.4,0l-8,8c-0.4,0.4-0.4,1,0,1.4l1,1
		c0.4,0.4,1,0.4,1.4,0l6.4-6.4l5.2,4.4c0.4,0.4,1,0.4,1.4,0l8-8C24.1,2.3,24.1,1.7,23.7,1.3z"/>
</g>
</svg>
