<svg version="1.1"  xmlns="http://www.w3.org/2000/svg" xmlns:xlink="http://www.w3.org/1999/xlink" x="0px" y="0px"
	 viewBox="0 0 16 16" enable-background="new 0 0 16 16" xml:space="preserve">
<path id="duration_graph_16_1_" d="M13.601,4.814l0.763-0.763c0.391-0.391,0.391-1.024,0-1.414c-0.391-0.391-1.024-0.391-1.414,0
	l-0.763,0.763C11.271,2.714,10.185,2.249,9,2.08V1c0-0.552-0.448-1-1-1S7,0.448,7,1v1.08C3.609,2.566,1,5.474,1,9
	c0,3.866,3.134,7,7,7s7-3.134,7-7C15,7.428,14.475,5.982,13.601,4.814z M11.536,12.536L8,9V4c2.761,0,5,2.239,5,5
	C13,10.381,12.44,11.631,11.536,12.536z"/>
</svg>
