<svg version="1.1"  xmlns="http://www.w3.org/2000/svg" xmlns:xlink="http://www.w3.org/1999/xlink" x="0px" y="0px"
	 viewBox="0 0 16 16" enable-background="new 0 0 16 16" xml:space="preserve">
<g id="upload_16_1_">
	<path d="M13.781,7.25C13.912,6.854,14,6.439,14,6c0-2.209-1.791-4-4-4C8.247,2,6.774,3.135,6.233,4.704C5.784,4.27,5.174,4,4.5,4
		C3.119,4,2,5.119,2,6.5c0,0.273,0.055,0.531,0.135,0.776C0.88,7.808,0,9.051,0,10.5C0,12.433,1.567,14,3.5,14H7v-3.586
		l-0.293,0.293c-0.391,0.391-1.024,0.391-1.414,0c-0.391-0.391-0.391-1.024,0-1.414l2-2c0.391-0.391,1.024-0.391,1.414,0l2,2
		c0.391,0.391,0.391,1.024,0,1.414c-0.391,0.391-1.024,0.391-1.414,0L9,10.414V14h3.5c1.933,0,3.5-1.567,3.5-3.5
		C16,9.02,15.079,7.762,13.781,7.25z"/>
</g>
</svg>
