<?xml version="1.0" encoding="utf-8"?>
<!-- Generator: Adobe Illustrator 21.0.0, SVG Export Plug-In . SVG Version: 6.00 Build 0)  -->
<!DOCTYPE svg PUBLIC "-//W3C//DTD SVG 1.1//EN" "http://www.w3.org/Graphics/SVG/1.1/DTD/svg11.dtd">
<svg version="1.1" id="Layer_1" xmlns="http://www.w3.org/2000/svg" xmlns:xlink="http://www.w3.org/1999/xlink" x="0px" y="0px"
	 viewBox="0 0 32 32" style="enable-background:new 0 0 32 32;" xml:space="preserve">
<circle cx="16" cy="16" r="16"/>
<path style="fill:#FFFFFF;" d="M20.5,9.3h-1.9h-1.9v13.4h1.9V17h1.9c1.1,0,1.9-0.9,1.9-1.9v-3.8C22.4,10.2,21.5,9.3,20.5,9.3z
	 M20.5,15h-1.9v-3.8h1.9V15z"/>
<path style="fill:#FFFFFF;" d="M15.4,13.1v-1.9c0-1.1-0.9-1.9-1.9-1.9h-1.9c-1.1,0-1.9,0.9-1.9,1.9V15c0,1.1,0.9,1.9,1.9,1.9h1.9
	v3.8h-1.9v-1.9H9.7v1.9c0,1.1,0.9,1.9,1.9,1.9h1.9c1.1,0,1.9-0.9,1.9-1.9V17c0-1.1-0.9-1.9-1.9-1.9h-1.9v-3.8h1.9v1.9L15.4,13.1
	L15.4,13.1z"/>
<path style="fill:#FFFFFF;" d="M5.2,14.9c-0.5,0.4-0.9,0.8-1.4,1.3c-0.4-0.5-0.9-1-1.3-1.5c0.1-1,0.3-2.1,0.7-3.1
	c0.3,0.6,0.5,1.2,0.9,1.8c0.5-0.4,1.1-0.7,1.6-0.9C5.4,13.3,5.3,14.1,5.2,14.9z"/>
<path style="fill:#FFFFFF;" d="M5.4,18.4c-0.3,0.5-0.6,1.1-0.9,1.6c-0.6-0.3-1.1-0.6-1.7-1.1c-0.2-1-0.3-2.1-0.3-3.1
	c0.4,0.5,0.9,1,1.4,1.4c0.4-0.5,0.8-1,1.3-1.4C5.1,16.8,5.2,17.6,5.4,18.4z"/>
<path style="fill:#FFFFFF;" d="M6.7,21.7c-0.2,0.6-0.3,1.2-0.3,1.9c-0.6-0.1-1.3-0.2-1.9-0.5c-0.5-0.9-1-1.8-1.3-2.8
	C3.8,20.7,4.4,21,5,21.2c0.2-0.6,0.5-1.2,0.7-1.7C5.9,20.2,6.3,20.9,6.7,21.7z"/>
<path style="fill:#FFFFFF;" d="M9,24.3c0,0.6,0.1,1.2,0.3,1.9c-0.6,0.1-1.3,0.2-2,0.2c-0.8-0.7-1.5-1.4-2.1-2.3
	c0.7,0.2,1.3,0.2,2,0.3c0-0.6,0.1-1.3,0.2-1.9C7.8,23.2,8.4,23.8,9,24.3z"/>
<path style="fill:#FFFFFF;" d="M6.1,11.5c-0.6,0.2-1.2,0.5-1.7,0.8c-0.3-0.6-0.5-1.2-0.7-1.9c0.4-1,1-1.9,1.6-2.7
	c0,0.7,0.1,1.3,0.3,2c0.6-0.2,1.2-0.3,1.8-0.4C6.9,10.1,6.4,10.8,6.1,11.5z"/>
<path style="fill:#FFFFFF;" d="M7,6.6C6.7,7.3,6.4,8.1,6.1,8.8c0.6-0.4,1.3-0.8,2-1.1C8.4,7,8.8,6.4,9.2,5.8C8.5,6,7.8,6.3,7,6.6z"
	/>
<path style="fill:#FFFFFF;" d="M29.5,14.7c-0.4,0.6-0.8,1.1-1.3,1.5c-0.4-0.5-0.9-0.9-1.4-1.3c-0.1-0.8-0.3-1.7-0.5-2.4
	c0.6,0.3,1.1,0.6,1.6,0.9c0.3-0.6,0.6-1.2,0.9-1.8C29.1,12.6,29.4,13.6,29.5,14.7z"/>
<path style="fill:#FFFFFF;" d="M29.2,19c-0.5,0.4-1.1,0.8-1.7,1.1c-0.3-0.6-0.6-1.1-0.9-1.6c0.2-0.8,0.3-1.7,0.3-2.5
	c0.4,0.4,0.9,0.9,1.3,1.4c0.5-0.4,1-0.9,1.4-1.4C29.5,17,29.4,18,29.2,19z"/>
<path style="fill:#FFFFFF;" d="M27.6,23.1c-0.7,0.2-1.3,0.4-1.9,0.5c-0.1-0.6-0.2-1.3-0.3-1.9c0.4-0.7,0.8-1.5,1.1-2.3
	c0.3,0.5,0.5,1.1,0.7,1.7c0.6-0.2,1.2-0.5,1.8-0.9C28.5,21.2,28.1,22.2,27.6,23.1z"/>
<path style="fill:#FFFFFF;" d="M24.7,26.4c-0.7,0-1.4-0.1-2-0.2c0.1-0.6,0.2-1.3,0.3-1.9c0.6-0.5,1.2-1.2,1.7-1.8
	c0.1,0.6,0.2,1.2,0.2,1.9c0.6,0,1.3-0.1,2-0.3C26.2,24.9,25.5,25.7,24.7,26.4z"/>
<path style="fill:#FFFFFF;" d="M28.3,10.4c-0.2,0.7-0.4,1.3-0.7,1.9c-0.6-0.3-1.1-0.6-1.7-0.8c-0.3-0.8-0.8-1.5-1.3-2.1
	c0.6,0.1,1.2,0.2,1.8,0.4c0.1-0.6,0.2-1.3,0.3-2C27.4,8.6,27.9,9.5,28.3,10.4z"/>
<path style="fill:#FFFFFF;" d="M23.9,7.7c0.7,0.3,1.3,0.6,2,1.1c-0.2-0.7-0.5-1.5-0.9-2.2c-0.7-0.3-1.5-0.6-2.2-0.8
	C23.2,6.4,23.6,7.1,23.9,7.7z"/>
</svg>
