<svg version="1.1"  xmlns="http://www.w3.org/2000/svg" xmlns:xlink="http://www.w3.org/1999/xlink" x="0px" y="0px" viewBox="0 0 64 64" style="enable-background:new 0 0 64 64;" xml:space="preserve">
	<path id="SVGID_1_" d="M56,50H8c-2.2,0-4,1.8-4,4c0,4.4,3.6,8,8,8h40c4.4,0,8-3.6,8-8C60,51.8,58.2,50,56,50z M58,34H40l-9.6,12
		H58c3.3,0,6-2.7,6-6S61.3,34,58,34z M6,34c-3.3,0-6,2.7-6,6s2.7,6,6,6h11.6L8,34H6z M34,34L24,46L14,34H34z M32,2C14,2,4,12,4,26
		c0,2.2,1.8,4,4,4h48c2.2,0,4-1.8,4-4C60,12,50,2,32,2z"/>
</svg>
