<svg version="1.1"  xmlns="http://www.w3.org/2000/svg" xmlns:xlink="http://www.w3.org/1999/xlink" x="0px" y="0px"
	 viewBox="0 0 32 32" style="enable-background:new 0 0 32 32;" xml:space="preserve">
<g id="drama_32">
	<g>
		<path d="M30,0H14c-1.1,0-2,0.9-2,2v4h8c1.1,0,2,0.9,2,2v8c2.8,0,5,1.8,5,4h-5v4c5.5,0,10-4.5,10-10V2C32,0.9,31.1,0,30,0z M27,14
			c-1.1,0-2-0.9-2-2c0-1.1,0.9-2,2-2s2,0.9,2,2C29,13.1,28.1,14,27,14z"/>
	</g>
	<path d="M18,8H2c-1.1,0-2,0.9-2,2v12c0,5.5,4.5,10,10,10s10-4.5,10-10V10C20,8.9,19.1,8,18,8z M3,20c0-1.1,0.9-2,2-2s2,0.9,2,2
		c0,1.1-0.9,2-2,2S3,21.1,3,20z M10,28c-2.8,0-5-1.8-5-4h10C15,26.2,12.8,28,10,28z M15,22c-1.1,0-2-0.9-2-2c0-1.1,0.9-2,2-2
		s2,0.9,2,2C17,21.1,16.1,22,15,22z"/>
</g>
</svg>
