<svg version="1.1"  xmlns="http://www.w3.org/2000/svg" xmlns:xlink="http://www.w3.org/1999/xlink" x="0px" y="0px" viewBox="0 0 64 64" style="enable-background:new 0 0 64 64;" xml:space="preserve">
	<path id="SVGID_1_" d="M39,28c7.2,0,13-5.8,13-13S46.2,2,39,2S26,7.8,26,15S31.8,28,39,28z M26,15c0-7.2-5.8-13-13-13S0,7.8,0,15
		s5.8,13,13,13S26,22.2,26,15z M60,28c-1,0-1.9,0.4-2.6,1l0,0L48,37.2V32c0-2.2-1.8-4-4-4h-5H13H8c-2.2,0-4,1.8-4,4v26
		c0,2.2,1.8,4,4,4h36c2.2,0,4-1.8,4-4v-5.2l9.4,8.2l0,0c0.7,0.6,1.6,1,2.6,1c2.2,0,4-1.8,4-4V32C64,29.8,62.2,28,60,28z"/>
</svg>
