<svg width="48px" height="48px" viewBox="7 7 38 38" xmlns="http://www.w3.org/2000/svg">
    <g transform="translate(6.000000, 6.000000)" fill="#000000">
        <g transform="translate(18.000000, 18.000000)">
            <path d="M8.82712832,16.0512468 C12.8311928,16.0512468 16.0771283,12.8053112 16.0771283,8.80124681 C16.0771283,4.79718238 12.8311928,1.55124681 8.82712832,1.55124681 C4.82306388,1.55124681 1.57712832,4.79718238 1.57712832,8.80124681 C1.57712832,12.8053112 4.82306388,16.0512468 8.82712832,16.0512468 L8.82712832,16.0512468 Z M8.82712832,17.0512468 L8.82712832,17.0512468 C4.27077913,17.0512468 0.57712832,13.357596 0.57712832,8.80124681 C0.57712832,4.24489763 4.27077913,0.551246812 8.82712832,0.551246812 C13.3834775,0.551246812 17.0771283,4.24489763 17.0771283,8.80124681 C17.0771283,13.357596 13.3834775,17.0512468 8.82712832,17.0512468 L8.82712832,17.0512468 Z" id="Oval-58"></path>
            <path d="M8.06937686,4.60044366 L8.06937686,8.63525713 C8.06937686,8.7690806 8.12302241,8.89731902 8.21831104,8.99128071 L10.718311,11.4564672 C10.9149374,11.6503555 11.2315121,11.6481359 11.4254004,11.4515095 C11.6192887,11.2548831 11.6170691,10.9383084 11.4204427,10.7444201 L8.92044267,8.27923355 L9.06937686,8.63525713 L9.06937686,4.60044366 C9.06937686,4.32430128 8.84551923,4.10044366 8.56937686,4.10044366 C8.29323448,4.10044366 8.06937686,4.32430128 8.06937686,4.60044366 L8.06937686,4.60044366 Z" id="Path-876"></path>
        </g>
        <path d="M17.0771242,33.0771262 C17.7700267,33.0771262 18.4575902,33.0330522 19.1369803,32.9457049 L19.0094627,31.9538686 C18.372334,32.0357825 17.7273631,32.0771262 17.0771242,32.0771262 L17.0771242,33.0771262 L17.0771242,33.0771262 Z M33.0758464,17.281376 C33.0768944,17.1813086 33.0768944,17.1813086 33.0771237,17.0810524 C33.0771242,16.452302 33.041284,15.8312804 32.9700126,15.2161834 L31.9766587,15.3312836 C32.0435019,15.9081634 32.0771242,16.4907542 32.0771237,17.0809319 C32.0769084,17.1749294 32.0769084,17.1749294 32.0759247,17.2688588 L33.0758464,17.281376 L33.0758464,17.281376 Z M32.5986923,13.1785954 C32.4310033,12.5088937 32.2202165,11.8523231 31.9679481,11.2123101 L31.0376102,11.5790134 C31.2739981,12.178737 31.4715088,12.7939546 31.6286397,13.4214904 L32.5986923,13.1785954 L32.5986923,13.1785954 Z M31.0835689,9.33692677 C30.7497732,8.73414702 30.3773079,8.15358258 29.9687654,7.59881749 L29.1635489,8.19179843 C29.5466132,8.71196644 29.8958219,9.25628044 30.2087458,9.82136931 L31.0835689,9.33692677 L31.0835689,9.33692677 Z M28.6055544,5.98226866 C28.1279084,5.48607172 27.6188065,5.02093632 27.0816049,4.59000061 L26.4558706,5.37003685 C26.9596717,5.77417915 27.4371392,6.21041211 27.8851085,6.67577978 L28.6055544,5.98226866 L28.6055544,5.98226866 Z M25.4197699,3.42167898 C24.8324467,3.06211716 24.2223529,2.74073889 23.5930829,2.45981783 L23.1854357,3.37295736 C23.7752162,3.63624937 24.3470744,3.93748631 24.8976411,4.27454567 L25.4197699,3.42167898 L25.4197699,3.42167898 Z M21.6176419,1.73067708 C20.9586248,1.53598893 20.2861437,1.38383668 19.6034531,1.27552121 L19.4467535,2.26316752 C20.0865937,2.36468436 20.7167822,2.5072677 21.3343244,2.68970327 L21.6176419,1.73067708 L21.6176419,1.73067708 Z M17.4858311,1.08224773 C17.3524851,1.07890238 17.2189322,1.07719426 17.085192,1.07712823 C16.5204888,1.07712619 15.9662024,1.10557215 15.4158297,1.16237056 L15.5184843,2.15708761 C16.0347039,2.10381381 16.5547257,2.07712631 17.0849434,2.07712816 C17.2102418,2.0771901 17.3355987,2.07879338 17.4607513,2.08193318 L17.4858311,1.08224773 L17.4858311,1.08224773 Z M13.3743009,1.50787036 C12.7024335,1.66707948 12.0432688,1.8695161 11.4002116,2.11361077 L11.7550901,3.04852321 C12.3576599,2.81979691 12.9753076,2.63011063 13.6048806,2.48092381 L13.3743009,1.50787036 L13.3743009,1.50787036 Z M9.50809057,2.9772577 C8.90124844,3.3036832 8.31619133,3.66905547 7.75650936,4.07082588 L8.33966583,4.88318574 C8.86442789,4.50648275 9.41293535,4.163936 9.98181273,3.85793205 L9.50809057,2.9772577 L9.50809057,2.9772577 Z M6.13006547,5.40821556 C5.62794198,5.87945807 5.15646497,6.3825452 4.71880535,6.91414914 L5.49082955,7.54974227 C5.90128357,7.05118365 6.34346766,6.57935339 6.81439429,6.13738912 L6.13006547,5.40821556 L6.13006547,5.40821556 Z M3.52820867,8.5629077 C3.16123451,9.14569535 2.83215221,9.75170477 2.54328342,10.3773389 L3.45117952,10.7965341 C3.72192968,10.2101415 4.03039913,9.64209092 4.37441939,9.0957561 L3.52820867,8.5629077 L3.52820867,8.5629077 Z M1.78947291,12.3421652 C1.58632451,12.9987817 1.4255895,13.6693064 1.3086132,14.3504564 L2.29418536,14.5197122 C2.40381404,13.8813471 2.55443568,13.2530116 2.7447958,12.6377293 L1.78947291,12.3421652 L1.78947291,12.3421652 Z M1.08864036,16.4645798 C1.08111405,16.6644178 1.07727112,16.8647484 1.07712832,17.065505 C1.0771241,17.565562 1.0990282,18.0529172 1.14295878,18.5380538 L2.1388839,18.4478698 C2.09767586,17.9927989 2.07712434,17.535538 2.07712819,17.0658647 C2.0772621,16.8777719 2.08086889,16.6897515 2.0879319,16.5022151 L1.08864036,16.4645798 L1.08864036,16.4645798 Z M1.46258849,20.5833133 C1.61325709,21.257145 1.8072618,21.9187043 2.04308025,22.5646111 L2.9824323,22.2216567 C2.76146262,21.6164207 2.57967651,20.996527 2.43849003,20.365102 L1.46258849,20.5833133 L1.46258849,20.5833133 Z M2.90623022,24.5126067 C3.22678522,25.1223177 3.5864691,25.7105937 3.98277055,26.2738449 L4.80061829,25.6984102 C4.42905226,25.1703147 4.09184762,24.6188043 3.79135509,24.0472531 L2.90623022,24.5126067 L2.90623022,24.5126067 Z M5.26960602,27.8746065 C5.73450123,28.382718 6.23164342,28.8605844 6.75773164,29.3050005 L7.4030513,28.5410878 C6.9096597,28.1242924 6.44340249,27.6761135 6.00739171,27.1995715 L5.26960602,27.8746065 L5.26960602,27.8746065 Z M8.44214833,30.5492466 C9.02167345,30.9214405 9.62473992,31.2559522 10.2477495,31.5504262 L10.6750821,30.6463317 C10.091135,30.3703211 9.52582828,30.0567541 8.98253808,29.7078318 L8.44214833,30.5492466 L8.44214833,30.5492466 Z M12.1487705,32.3035881 C12.8028566,32.5151468 13.4712956,32.6844265 14.1507778,32.810037 L14.3325599,31.8266982 C13.6957847,31.7089826 13.0694192,31.5503579 12.4565153,31.3521191 L12.1487705,32.3035881 L12.1487705,32.3035881 Z M16.2613721,33.0566794 C16.5275521,33.0700534 16.7946564,33.0768804 17.0625258,33.0771197 L17.0634194,32.0771201 C16.8119889,32.0768955 16.5613187,32.0704885 16.3115529,32.0579392 L16.2613721,33.0566794 L16.2613721,33.0566794 Z" id="Oval-31" transform="translate(17.077126, 17.077127) rotate(4.000000) translate(-17.077126, -17.077127) "></path>
    </g>
</svg>
