<svg version="1.1"  xmlns="http://www.w3.org/2000/svg" xmlns:xlink="http://www.w3.org/1999/xlink" x="0px" y="0px"
	 viewBox="0 0 16 16" enable-background="new 0 0 16 16" xml:space="preserve">
<g id="view_all_16">
	<path d="M6,7H1C0.448,7,0,6.552,0,6V1c0-0.552,0.448-1,1-1h5c0.552,0,1,0.448,1,1v5C7,6.552,6.552,7,6,7z"/>
	<path d="M10,7h5c0.552,0,1-0.448,1-1V1c0-0.552-0.448-1-1-1h-5C9.448,0,9,0.448,9,1v5C9,6.552,9.448,7,10,7z"/>
	<path d="M6,16H1c-0.552,0-1-0.448-1-1v-5c0-0.552,0.448-1,1-1h5c0.552,0,1,0.448,1,1v5C7,15.552,6.552,16,6,16z"/>
	<path d="M10,16h5c0.552,0,1-0.448,1-1v-5c0-0.552-0.448-1-1-1h-5c-0.552,0-1,0.448-1,1v5C9,15.552,9.448,16,10,16z"/>
</g>
</svg>
