<svg version="1.1"  xmlns="http://www.w3.org/2000/svg" xmlns:xlink="http://www.w3.org/1999/xlink" x="0px" y="0px"
	 viewBox="0 0 16 16" style="enable-background:new 0 0 16 16;" xml:space="preserve">
<g id="tools_16">
	<g>
		<polygon points="4.9,2.1 0,0 2.1,4.9 3.8,6.6 6.6,3.8 		"/>
		<path d="M12.2,9.4l-2.8,2.8l3.2,3.2c0.8,0.8,2,0.8,2.8,0c0.8-0.8,0.8-2,0-2.8L12.2,9.4z"/>
	</g>
	<path d="M15.4,2l-3,3L11,3.6l3-3C13.4,0.2,12.7,0,12,0C9.8,0,8,1.8,8,4c0,0.4,0.1,0.7,0.1,1l-7.6,7.6c-0.8,0.8-0.8,2,0,2.8
		c0.8,0.8,2,0.8,2.8,0L11,7.9C11.3,7.9,11.6,8,12,8c2.2,0,4-1.8,4-4C16,3.3,15.8,2.6,15.4,2z"/>
</g>
</svg>
