<svg version="1.1"  xmlns="http://www.w3.org/2000/svg" xmlns:xlink="http://www.w3.org/1999/xlink" x="0px" y="0px"
	 viewBox="0 0 16 16" enable-background="new 0 0 16 16" xml:space="preserve">
<g id="watch_later_16">
	<path d="M8,0C3.582,0,0,3.582,0,8s3.582,8,8,8s8-3.582,8-8S12.418,0,8,0z M8,14c-3.314,0-6-2.686-6-6s2.686-6,6-6s6,2.686,6,6
		S11.314,14,8,14z"/>
	<path d="M8.5,4h-1L7,8c0,0.552,0.448,1,1,1s1-0.448,1-1L8.5,4z"/>
	<path d="M10.475,11.182l0.707-0.707L8.707,7.293c-0.391-0.391-1.024-0.391-1.414,0s-0.391,1.024,0,1.414L10.475,11.182z"/>
</g>
</svg>
