<svg version="1.1"  xmlns="http://www.w3.org/2000/svg" xmlns:xlink="http://www.w3.org/1999/xlink" x="0px" y="0px"
	 viewBox="0 0 12 12" enable-background="new 0 0 12 12" xml:space="preserve">
<path id="start_over_12" d="M1,0c0.552,0,1,0.448,1,1v0.537C3.091,0.554,4.494,0,6,0c3.309,0,6,2.691,6,6s-2.691,6-6,6
	c-1.905,0-3.654-0.875-4.8-2.399C0.869,9.159,0.958,8.532,1.399,8.2C1.841,7.87,2.469,7.958,2.8,8.399C3.563,9.417,4.73,10,6,10
	c2.206,0,4-1.794,4-4S8.206,2,6,2C5.011,2,4.092,2.363,3.369,3H4c0.552,0,1,0.448,1,1S4.552,5,4,5H1C0.448,5,0,4.552,0,4l0-3
	C0,0.448,0.448,0,1,0z"/>
</svg>
