<svg version="1.1"  xmlns="http://www.w3.org/2000/svg" xmlns:xlink="http://www.w3.org/1999/xlink" x="0px" y="0px"
	 viewBox="0 0 16 16" enable-background="new 0 0 16 16" xml:space="preserve">
<g id="list_16">
	<path d="M15,7H1C0.448,7,0,7.448,0,8c0,0.552,0.448,1,1,1h14c0.552,0,1-0.448,1-1C16,7.448,15.552,7,15,7z"/>
	<path d="M15,12H1c-0.552,0-1,0.448-1,1c0,0.552,0.448,1,1,1h14c0.552,0,1-0.448,1-1C16,12.448,15.552,12,15,12z"/>
	<path d="M1,4h14c0.552,0,1-0.448,1-1c0-0.552-0.448-1-1-1H1C0.448,2,0,2.448,0,3C0,3.552,0.448,4,1,4z"/>
</g>
</svg>
