<svg version="1.1"  xmlns="http://www.w3.org/2000/svg" xmlns:xlink="http://www.w3.org/1999/xlink" x="0px" y="0px"
	 viewBox="0 0 96 96" enable-background="new 0 0 96 96" xml:space="preserve">
<path id="phone_96" d="M69,0H27c-4.418,0-8,3.582-8,8v80c0,4.418,3.582,8,8,8h42c4.418,0,8-3.582,8-8V8C77,3.582,73.418,0,69,0z
	 M47,4h12c1.657,0,3,1.343,3,3s-1.343,3-3,3H47c-1.657,0-3-1.343-3-3S45.343,4,47,4z M37,4c1.657,0,3,1.343,3,3s-1.343,3-3,3
	s-3-1.343-3-3S35.343,4,37,4z M48,93c-2.209,0-4-1.791-4-4c0-2.209,1.791-4,4-4s4,1.791,4,4C52,91.209,50.209,93,48,93z M69,82H27
	V14h42V82z"/>
</svg>
