<svg version="1.1" xmlns="http://www.w3.org/2000/svg" xmlns:xlink="http://www.w3.org/1999/xlink" x="0px" y="0px"
	 viewBox="0 0 32 32" style="enable-background:new 0 0 32 32;" xml:space="preserve">
<g id="staff_pick_color_32">
	<circle cx="16" cy="16" r="16"/>
	<g>
		<path style="fill:#FFFFFF;" d="M21,4v2.2c3.6,1.8,6,5.5,6,9.8c0,6.1-4.9,11-11,11S5,22.1,5,16c0-4.3,2.4-8,6-9.8V4
			c-4.7,2-8,6.6-8,12c0,7.2,5.8,13,13,13s13-5.8,13-13C29,10.6,25.7,6,21,4z"/>
	</g>
	<path style="fill:#FFFFFF;" d="M16,2c-1.7,0-3,1.3-3,3s1.3,3,3,3s3-1.3,3-3S17.7,2,16,2z M15.7,6.6c-0.7,0-0.7-2.1-1.2-2.1
		c-0.1,0-0.3,0.2-0.3,0.2L14,4.5c0,0,0.8-0.8,1.1-0.8c0.7,0,0.5,1.9,0.8,1.9c0.2,0,1-1.2,0.3-1.2c-0.1,0-0.2,0.1-0.2,0.1
		c0.2-0.5,0.5-0.8,1-0.8c0.3,0,0.5,0.3,0.5,0.7C17.7,5,16.3,6.6,15.7,6.6z"/>
	<path style="fill:#FFFFFF;" d="M21,10h-2h-2v14h2v-6h2c1.1,0,2-0.9,2-2v-4C23,10.9,22.1,10,21,10z M21,16h-2v-4h2V16z"/>
	<path style="fill:#FFFFFF;" d="M16,14v-2c0-1.1-0.9-2-2-2h-2c-1.1,0-2,0.9-2,2v4c0,1.1,0.9,2,2,2h2v4h-2v-2h-2v2c0,1.1,0.9,2,2,2h2
		c1.1,0,2-0.9,2-2v-4c0-1.1-0.9-2-2-2h-2v-4h2v2H16z"/>
</g>
</svg>
