<svg version="1.1" id="Layer_1" x="0px" y="0px" viewBox="0 0 16 16" style="enable-background:new 0 0 16 16;" xml:space="preserve">
<g>
	<path class="st0" fill="#7FC400" d="M11.7,4.7l2.7-1.6C13,1.4,11.1,0.3,9,0.1v3.1C10.1,3.4,11,3.9,11.7,4.7z"/>
	<path class="st1" fill="#FFB21D" d="M13,8c0,0.6-0.1,1.1-0.3,1.6l2.6,1.5c0.4-1,0.7-2.1,0.7-3.1c0-1.1-0.2-2.1-0.7-3.1l-2.6,1.5
		C12.9,6.9,13,7.4,13,8z"/>
	<path class="st2" fill="#FF4D4D" d="M9,12.8v3.1c2.1-0.3,4-1.4,5.3-3.1l-2.7-1.6C11,12.1,10.1,12.6,9,12.8z"/>
	<path class="st3" fill="#675088" d="M4.3,11.3l-2.7,1.6C3,14.6,4.9,15.7,7,15.9v-3.1C5.9,12.6,5,12.1,4.3,11.3z"/>
	<path class="st4" fill="#436284" d="M3,8c0-0.6,0.1-1.1,0.3-1.6L0.7,4.9C0.2,5.9,0,6.9,0,8s0.2,2.1,0.7,3.1l2.6-1.5C3.1,9.1,3,8.6,3,8z"/>
	<path class="st5" fill="#00ADEF" d="M7,3.2V0.1C4.9,0.3,3,1.4,1.7,3.1l2.7,1.6C5,3.9,5.9,3.4,7,3.2z"/>
</g>
</svg>
