<?xml version="1.0" encoding="utf-8"?>
<!-- Generator: Adobe Illustrator 19.0.0, SVG Export Plug-In . SVG Version: 6.00 Build 0)  -->
<svg version="1.1"  xmlns="http://www.w3.org/2000/svg" xmlns:xlink="http://www.w3.org/1999/xlink" x="0px" y="0px"
	 viewBox="0 0 16 16" style="enable-background:new 0 0 16 16;" xml:space="preserve">
<g id="reviews_16">
	<path d="M8,1H3C1.3,1,0,2.3,0,4v1c0,1.7,1.3,3,3,3v3l3-3h2c1.7,0,3-1.3,3-3V4C11,2.3,9.7,1,8,1z"/>
	<g>
		<path d="M13,5c0,2.8-2.2,5-5,5H6.8l-1,1c0.5,0.6,1.3,1,2.2,1h2l3,3v-3c1.7,0,3-1.3,3-3V8C16,6.3,14.7,5,13,5z"/>
	</g>
</g>
</svg>
