<?xml version="1.0" encoding="utf-8"?>
<!-- Generator: Adobe Illustrator 19.0.0, SVG Export Plug-In . SVG Version: 6.00 Build 0)  -->
<svg version="1.1"  xmlns="http://www.w3.org/2000/svg" xmlns:xlink="http://www.w3.org/1999/xlink" x="0px" y="0px"
	 viewBox="0 0 16 16" style="enable-background:new 0 0 16 16;" xml:space="preserve">
<path id="file_16" d="M13.7,4.7L9.3,0.3C9.1,0.1,8.9,0,8.6,0H3C2.4,0,2,0.4,2,1v14c0,0.6,0.4,1,1,1h10c0.6,0,1-0.4,1-1V5.4
	C14,5.1,13.9,4.9,13.7,4.7z M12,14H4V2h2v5c0,0.6,0.4,1,1,1h5V14z M8,6V2l4,4H8z"/>
</svg>
