<svg version="1.1"  xmlns="http://www.w3.org/2000/svg" xmlns:xlink="http://www.w3.org/1999/xlink" x="0px" y="0px"
	 viewBox="0 0 32 32" enable-background="new 0 0 32 32" xml:space="preserve">
<path id="travel_32" d="M32,20.557v-2.003c0-0.345-0.178-0.665-0.47-0.848L18.896,9.81C18.96,8.153,19,6.795,19,6c0-3-1.343-6-3-6
	s-3,3-3,6c0,0.796,0.04,2.153,0.104,3.81L0.47,17.706C0.178,17.889,0,18.209,0,18.554v2.003c0,0.698,0.697,1.181,1.351,0.936
	l12.072-4.527c0.164,3.358,0.339,7.064,0.453,9.191l-3.516,2.93c-0.228,0.19-0.36,0.471-0.36,0.768v1.144
	c0,0.683,0.669,1.165,1.316,0.949L16,30.387l4.684,1.561C21.331,32.164,22,31.682,22,30.999v-1.144c0-0.297-0.132-0.578-0.36-0.768
	l-3.516-2.93c0.114-2.127,0.289-5.833,0.453-9.191l12.072,4.527C31.303,21.738,32,21.255,32,20.557z"/>
</svg>
