<svg version="1.1"  xmlns="http://www.w3.org/2000/svg" xmlns:xlink="http://www.w3.org/1999/xlink" x="0px" y="0px" viewBox="0 0 64 64" style="enable-background:new 0 0 64 64;" xml:space="preserve">
	<path id="SVGID_1_" d="M14,12c-1.2,0-2.4-0.6-3.2-1.6c-1.3-1.8-1-4.3,0.8-5.6c4.5-3.4,8.9-4.6,9.4-4.7c2.1-0.5,4.3,0.8,4.8,2.9
		c0.5,2.1-0.8,4.3-2.9,4.8c-0.1,0-3.4,0.9-6.6,3.3C15.7,11.7,14.8,12,14,12z M42,12c-0.8,0-1.7-0.3-2.4-0.8C36.4,8.8,33,7.9,33,7.9
		c-2.1-0.6-3.4-2.7-2.9-4.9c0.5-2.1,2.7-3.4,4.8-2.9c0.5,0.1,4.9,1.3,9.4,4.7c1.8,1.3,2.1,3.8,0.8,5.6C44.4,11.4,43.2,12,42,12z
		 M52,28c-2.2,0-4-1.8-4-4c0-2.5-1.1-5.3-1.6-6.2c-1-2-0.2-4.4,1.8-5.4c2-1,4.4-0.2,5.4,1.8c0.2,0.5,2.4,5,2.4,9.8
		C56,26.2,54.2,28,52,28z M4,28c-2.2,0-4-1.8-4-4c0-4.8,2.2-9.3,2.4-9.8c1-2,3.4-2.8,5.4-1.8c2,1,2.8,3.4,1.8,5.4
		C9.1,18.7,8,21.5,8,24C8,26.2,6.2,28,4,28z M4,32c-2.2,0-4,1.8-4,4v6c0,2.2,1.8,4,4,4s4-1.8,4-4v-6C8,33.8,6.2,32,4,32z M4,50
		c-2.2,0-4,1.8-4,4v6c0,2.2,1.8,4,4,4s4-1.8,4-4v-6C8,51.8,6.2,50,4,50z M40,44c0-6.6,5.4-12,12-12s12,5.4,12,12s-5.4,12-12,12
		S40,50.6,40,44z"/>
</svg>
