<svg version="1.1"  xmlns="http://www.w3.org/2000/svg" xmlns:xlink="http://www.w3.org/1999/xlink" x="0px" y="0px"
	 viewBox="0 0 24 24" enable-background="new 0 0 24 24" xml:space="preserve">
<g id="download_24">
	<path d="M20.921,9.498C20.968,9.186,21,8.87,21,8.545C21,4.93,17.978,2,14.25,2c-2.701,0-5.024,1.542-6.103,3.764
		C7.631,5.454,7.026,5.273,6.375,5.273C4.511,5.273,3,6.738,3,8.545c0,0.324,0.05,0.636,0.141,0.931C1.32,10.035,0,11.686,0,13.636
		C0,16.046,2.015,18,4.5,18H6c0-1.657,1.343-3,3-3v-3c0-1.105,0.895-2,2-2h2c1.105,0,2,0.895,2,2v3c1.657,0,3,1.343,3,3h1.5
		c2.485,0,4.5-1.954,4.5-4.364C24,11.708,22.709,10.075,20.921,9.498z"/>
	<path d="M15.854,17.646l-0.707-0.707c-0.195-0.195-0.512-0.195-0.707,0L13,18.379V12.5c0-0.276-0.224-0.5-0.5-0.5h-1
		c-0.276,0-0.5,0.224-0.5,0.5v5.879l-1.439-1.439c-0.195-0.195-0.512-0.195-0.707,0l-0.707,0.707c-0.195,0.195-0.195,0.512,0,0.707
		l3.5,3.5c0.195,0.195,0.512,0.195,0.707,0l3.5-3.5C16.049,18.158,16.049,17.842,15.854,17.646z"/>
</g>
</svg>
