<svg version="1.1" id="Layer_1" xmlns="http://www.w3.org/2000/svg" xmlns:xlink="http://www.w3.org/1999/xlink" x="0px" y="0px"
	 viewBox="0 0 32 32" style="enable-background:new 0 0 32 32;" xml:space="preserve">
<path d="M16,0C11.3,0,7,2,4,5.4V1c0-0.6-0.4-1-1-1H1C0.4,0,0,0.4,0,1v10c0,0.6,0.4,1,1,1h10c0.6,0,1-0.4,1-1V9c0-0.6-0.4-1-1-1H7.1
	c2.2-2.5,5.5-4,8.9-4c7.1,0,12.8,6.2,11.9,13.5c-0.5,4.5-3.6,8.3-7.9,9.8c-6.4,2.3-13-1.2-15.2-7c-0.2-0.5-0.7-0.7-1.2-0.6l-1.9,0.6
	C1.1,20.4,0.8,21,1,21.5c2.8,7.5,11.1,12.2,19.4,9.8c6.2-1.8,10.8-7.2,11.5-13.6C32.9,8.1,25.4,0,16,0"/>
</svg>
