<svg version="1.1"  xmlns="http://www.w3.org/2000/svg" xmlns:xlink="http://www.w3.org/1999/xlink" x="0px" y="0px"
	 viewBox="0 0 16 16" style="enable-background:new 0 0 16 16;" xml:space="preserve">
<g id="sales_16">
	<path d="M12,2v10.3l-1-0.7l-3,2l-3-2l-1,0.7V2H12 M3,0C2.4,0,2,0.4,2,1v15l3-2l3,2l3-2l3,2V1c0-0.6-0.4-1-1-1H3z"/>
	<path d="M10,4H6C5.4,4,5,4.4,5,5s0.4,1,1,1h4c0.6,0,1-0.4,1-1S10.6,4,10,4z"/>
	<path d="M10,8H6C5.4,8,5,8.4,5,9c0,0.6,0.4,1,1,1h4c0.6,0,1-0.4,1-1C11,8.4,10.6,8,10,8z"/>
</g>
</svg>
