<?xml version="1.0" encoding="utf-8"?>
<!-- Generator: Adobe Illustrator 19.1.0, SVG Export Plug-In . SVG Version: 6.00 Build 0)  -->
<svg version="1.1"  xmlns="http://www.w3.org/2000/svg" xmlns:xlink="http://www.w3.org/1999/xlink" x="0px" y="0px"
	 viewBox="0 0 32 32" style="enable-background:new 0 0 32 32;" xml:space="preserve">
<g id="reviews_32">
	<path d="M16,2H6C2.7,2,0,4.7,0,8v2c0,3.3,2.7,6,6,6v6l6-6h4c3.3,0,6-2.7,6-6V8C22,4.7,19.3,2,16,2z"/>
	<g>
		<path d="M26,10c0,5.5-4.5,10-10,10h-2.3l-2.1,2.1c1.1,1.2,2.7,1.9,4.4,1.9h4l6,6v-6c3.3,0,6-2.7,6-6v-2C32,12.7,29.3,10,26,10z"/>
	</g>
</g>
</svg>
