<svg version="1.1"  xmlns="http://www.w3.org/2000/svg" xmlns:xlink="http://www.w3.org/1999/xlink" x="0px" y="0px"
	 viewBox="0 0 32 32" style="enable-background:new 0 0 32 32;" xml:space="preserve">
<path id="collections_32" d="M32,16c0-0.4-0.2-0.8-0.5-1l0,0l-3.6-3.1l3.3-1.3l0,0c0.5-0.2,0.8-0.7,0.8-1.2c0-0.4-0.2-0.8-0.5-1l0,0
	l-9.3-8l0,0C22,0.1,21.7,0,21.3,0c-0.2,0-0.3,0-0.5,0.1l0,0l-20,8l0,0C0.3,8.3,0,8.8,0,9.3c0,0.4,0.2,0.8,0.5,1l0,0l3.6,3.1
	l-3.3,1.3l0,0C0.3,15,0,15.4,0,16c0,0.4,0.2,0.8,0.5,1l0,0l3.6,3.1l-3.3,1.3l0,0C0.3,21.6,0,22.1,0,22.7c0,0.4,0.2,0.8,0.5,1l0,0
	l9.3,8l0,0c0.2,0.2,0.5,0.3,0.9,0.3c0.2,0,0.3,0,0.5-0.1l0,0l20-8l0,0c0.5-0.2,0.8-0.7,0.8-1.2c0-0.4-0.2-0.8-0.5-1l0,0l-3.6-3.1
	l3.3-1.3l0,0C31.7,17,32,16.6,32,16z M21.1,2.9l7,6l-17.2,6.9l-7-6L21.1,2.9z M28.1,22.2l-17.2,6.9l-7-6l2.5-1L9.8,25l0,0
	c0.2,0.2,0.5,0.3,0.9,0.3c0.2,0,0.3,0,0.5-0.1l0,0l13.9-5.6L28.1,22.2z M10.9,22.5l-7-6l2.5-1l3.4,2.9l0,0c0.2,0.2,0.5,0.3,0.9,0.3
	c0.2,0,0.3,0,0.5-0.1l0,0L25.1,13l3,2.6L10.9,22.5z"/>
</svg>
