<svg version="1.1"  xmlns="http://www.w3.org/2000/svg" xmlns:xlink="http://www.w3.org/1999/xlink" x="0px" y="0px" viewBox="0 0 32 32" style="enable-background:new 0 0 32 32;" xml:space="preserve">
	<path id="SVGID_1_" d="M30,13h-4.5c-0.2-0.6-0.4-1.1-0.7-1.6L28,8.2c0.8-0.8,0.8-2,0-2.8L26.6,4c-0.8-0.8-2-0.8-2.8,0l-3.2,3.2
		c-0.5-0.3-1-0.5-1.6-0.7V2c0-1.1-0.9-2-2-2h-2c-1.1,0-2,0.9-2,2v4.5c-0.6,0.2-1.1,0.4-1.6,0.7L8.2,4c-0.8-0.8-2-0.8-2.8,0L4,5.4
		c-0.8,0.8-0.8,2,0,2.8l3.2,3.2c-0.3,0.5-0.5,1-0.7,1.6H2c-1.1,0-2,0.9-2,2v2c0,1.1,0.9,2,2,2h4.5c0.2,0.6,0.4,1.1,0.7,1.6L4,23.8
		c-0.8,0.8-0.8,2,0,2.8L5.4,28c0.8,0.8,2,0.8,2.8,0l3.2-3.2c0.5,0.3,1,0.5,1.6,0.7V30c0,1.1,0.9,2,2,2h2c1.1,0,2-0.9,2-2v-4.5
		c0.6-0.2,1.1-0.4,1.6-0.7l3.2,3.2c0.8,0.8,2,0.8,2.8,0l1.4-1.4c0.8-0.8,0.8-2,0-2.8l-3.2-3.2c0.3-0.5,0.5-1,0.7-1.6H30
		c1.1,0,2-0.9,2-2v-2C32,13.9,31.1,13,30,13 M20,16c0,2.2-1.8,4-4,4s-4-1.8-4-4s1.8-4,4-4S20,13.8,20,16"/>
</svg>
