<svg version="1.1"  xmlns="http://www.w3.org/2000/svg" xmlns:xlink="http://www.w3.org/1999/xlink" x="0px" y="0px" viewBox="0 0 64 64" style="enable-background:new 0 0 64 64;" xml:space="preserve">
	<path id="SVGID_1_" d="M64,34c0-5.8-4.4-10.9-12.1-14.3C50.7,9.8,42.3,2,32,2S13.3,9.8,12.1,19.7C4.4,23.1,0,28.2,0,34
		c0,6,4.8,11.2,12.4,14.4l-2.3,7c-0.4,1,0.2,2.2,1.3,2.5C11.6,58,11.8,58,12,58c0.8,0,1.6-0.5,1.9-1.4l2.3-6.8
		c4.1,1.2,8.8,2,13.8,2.2V60c0,1.1,0.9,2,2,2c1.1,0,2-0.9,2-2v-8.1c5.1-0.2,9.7-0.9,13.8-2.2l2.3,6.8c0.3,0.8,1.1,1.4,1.9,1.4
		c0.2,0,0.4,0,0.6-0.1c1-0.3,1.6-1.5,1.3-2.5l-2.3-7C59.2,45.2,64,40,64,34 M32,10c6.6,0,12,5.4,12,12c0,1-4.3,4-12,4s-12-3-12-4
		C20,15.4,25.4,10,32,10 M32,44C17.1,44,8,38.2,8,34c0-2.2,2.4-4.5,6.2-6.4C17.4,31.5,24,34,32,34s14.6-2.5,17.8-6.4
		c3.8,1.9,6.2,4.2,6.2,6.4C56,38.2,46.9,44,32,44"/>
</svg>
