<svg version="1.1"  xmlns="http://www.w3.org/2000/svg" xmlns:xlink="http://www.w3.org/1999/xlink" x="0px" y="0px" viewBox="0 0 16 16" style="enable-background:new 0 0 16 16;" xml:space="preserve">
	<path id="SVGID_1_" d="M8,16c-4.4,0-8-3.6-8-8s3.6-8,8-8s8,3.6,8,8c0,1.5-0.3,2.6-0.9,3.4c-0.6,0.8-1.4,1.2-2.3,1.2
		c-1.1,0-2-0.6-2.5-1.4c-0.9,0.6-2.1,1.1-3.5,0.8c-2-0.4-3.2-2.3-2.9-4.3C4.3,5.4,6.7,3.4,11.1,4C11.6,4.1,12,4.5,12,5v4v0v1
		c0,0.5,1,0.9,1.5,0.2C13.7,9.9,14,9.3,14,8c0-3.3-2.7-6-6-6C4.7,2,2,4.7,2,8c0,3.3,2.7,6,6,6c0.9,0,1.8-0.2,2.6-0.6
		c0.5-0.2,1.1,0,1.3,0.5c0.2,0.5,0,1.1-0.5,1.3C10.4,15.7,9.2,16,8,16 M9.5,5.9C7.1,5.9,6.1,6.9,5.9,8c-0.2,0.8,0.3,1.8,1.3,2
		c1.5,0.3,2.5-0.8,2.8-1.3V5.9C9.8,5.9,9.7,5.9,9.5,5.9"/>
</svg>
