<svg version="1.1"  xmlns="http://www.w3.org/2000/svg" xmlns:xlink="http://www.w3.org/1999/xlink" x="0px" y="0px"
	 viewBox="0 0 16 16" enable-background="new 0 0 16 16" xml:space="preserve">
<g id="embed_url_16">
	<path d="M2.414,8l2.293-2.293c0.391-0.391,0.391-1.024,0-1.414c-0.391-0.391-1.024-0.391-1.414,0l-3,3
		c-0.391,0.391-0.391,1.024,0,1.414l3,3c0.391,0.391,1.024,0.391,1.414,0c0.391-0.391,0.391-1.024,0-1.414L2.414,8z"/>
	<path d="M15.707,7.293l-3-3c-0.391-0.391-1.024-0.391-1.414,0c-0.391,0.391-0.391,1.024,0,1.414L13.586,8l-2.293,2.293
		c-0.391,0.391-0.391,1.024,0,1.414c0.391,0.391,1.024,0.391,1.414,0l3-3C16.098,8.317,16.098,7.683,15.707,7.293z"/>
	<path d="M9.197,2.02C8.656,1.911,8.128,2.262,8.02,2.803l-2,10c-0.109,0.541,0.242,1.069,0.783,1.177
		c0.541,0.109,1.069-0.242,1.177-0.783l2-10C10.089,2.656,9.738,2.128,9.197,2.02z"/>
</g>
</svg>
