<svg version="1.1"  xmlns="http://www.w3.org/2000/svg" xmlns:xlink="http://www.w3.org/1999/xlink" x="0px" y="0px" viewBox="0 0 64 64" style="enable-background:new 0 0 64 64;" xml:space="preserve">
	<path id="SVGID_1_" d="M60,48.4V42c0-6.6-5.4-12-12-12c-4.2,0-7.8,2.1-10,5.4V15c0-2.8,2.2-5,5-5c2.6,0,4.6,1.9,4.9,4.4
		c-2.3,0.8-3.9,3-3.9,5.6c0,3.3,2.7,6,6,6s6-2.7,6-6c0-2.6-1.7-4.8-4-5.6V12c0-6.6-5.4-12-12-12S28,5.4,28,12v18
		c0-6.6-5.4-12-12-12S4,23.4,4,30v6.4c-2.3,0.8-4,3-4,5.6c0,3.3,2.7,6,6,6s6-2.7,6-6c0-2.6-1.7-4.8-4-5.6V33c0-2.8,2.2-5,5-5
		s5,2.2,5,5v25c0,3.3,6.3,6,14,6s14-2.7,14-6V45c0-2.8,2.2-5,5-5s5,2.2,5,5v3.4c-2.3,0.8-4,3-4,5.6c0,3.3,2.7,6,6,6s6-2.7,6-6
		C64,51.4,62.3,49.2,60,48.4"/>
</svg>
