<svg version="1.1"  xmlns="http://www.w3.org/2000/svg" xmlns:xlink="http://www.w3.org/1999/xlink" x="0px" y="0px"
	 viewBox="0 0 32 32" style="enable-background:new 0 0 32 32;" xml:space="preserve">
<path id="language_32_1_" d="M31.9,30.6L31.9,30.6l-8-20l0,0C23.8,10.3,23.4,10,23,10h-2.5c-0.4,0-0.8,0.3-0.9,0.6l0,0l0,0
	c0,0,0,0,0,0l-3,7.1c-1.2-0.3-2.4-0.7-3.4-1.3c2-2.3,3.4-5.2,3.8-8.4H19c0.6,0,1-0.4,1-1V5c0-0.6-0.4-1-1-1h-7V1c0-0.6-0.4-1-1-1H9
	C8.4,0,8,0.4,8,1v3H1C0.4,4,0,4.4,0,5v2c0,0.6,0.4,1,1,1h11.8c-0.4,2.2-1.4,4.3-2.8,5.9C9.2,13,8.5,12,8,10.8
	c-0.3-0.6-1-0.8-1.5-0.4l-1.7,1.2c-0.4,0.3-0.5,0.8-0.3,1.2c0.6,1.3,1.4,2.5,2.4,3.6C5.2,17.4,3.1,18,1,18c-0.6,0-1,0.4-1,1v2
	c0,0.6,0.4,1,1,1c3.3,0,6.4-1,9-2.8c1.5,1,3.2,1.8,5,2.3l-3.9,9.1l0,0C11,30.7,11,30.9,11,31c0,0.6,0.4,1,1,1h2.5
	c0.4,0,0.8-0.3,0.9-0.6l0,0l0,0c0,0,0,0,0,0l2.3-5.4h7.7l2.1,5.4l0,0c0.1,0.4,0.5,0.6,0.9,0.6H31c0.6,0,1-0.4,1-1
	C32,30.9,32,30.7,31.9,30.6z M19.4,22l2.3-5.3l2.1,5.3H19.4z"/>
</svg>
