<svg version="1.1"  xmlns="http://www.w3.org/2000/svg" xmlns:xlink="http://www.w3.org/1999/xlink" x="0px" y="0px"
	 viewBox="0 0 12 12" enable-background="new 0 0 12 12" xml:space="preserve">
<path id="search_12" d="M11.707,10.293L7.434,6.02C7.785,5.425,8,4.741,8,4c0-2.209-1.791-4-4-4S0,1.791,0,4s1.791,4,4,4
	c0.741,0,1.425-0.215,2.02-0.566l4.273,4.273c0.391,0.391,1.024,0.391,1.414,0C12.098,11.317,12.098,10.683,11.707,10.293z M2,4
	c0-1.105,0.895-2,2-2s2,0.895,2,2S5.105,6,4,6S2,5.105,2,4z"/>
</svg>
