<svg version="1.1"  xmlns="http://www.w3.org/2000/svg" xmlns:xlink="http://www.w3.org/1999/xlink" x="0px" y="0px"
	 viewBox="0 0 32 32" enable-background="new 0 0 32 32" xml:space="preserve">
<path id="stream_32" d="M27.894,15.31C27.957,14.881,28,14.446,28,14c0-4.971-4.029-9-9-9c-3.601,0-6.699,2.12-8.138,5.175
	C10.175,9.75,9.368,9.5,8.5,9.5C6.015,9.5,4,11.515,4,14c0,0.445,0.067,0.874,0.187,1.28C1.76,16.049,0,18.318,0,21
	c0,3.314,2.686,6,6,6h20c3.314,0,6-2.686,6-6C32,18.349,30.279,16.104,27.894,15.31z M13,22v-8l8,4L13,22z"/>
</svg>
