<?xml version="1.0" encoding="utf-8"?>
<!-- Generator: Adobe Illustrator 19.0.0, SVG Export Plug-In . SVG Version: 6.00 Build 0)  -->
<svg version="1.1"  xmlns="http://www.w3.org/2000/svg" xmlns:xlink="http://www.w3.org/1999/xlink" x="0px" y="0px"
	 viewBox="0 0 16 16" style="enable-background:new 0 0 16 16;" xml:space="preserve">
<path id="delete_16" d="M10.5,8l4.3-4.3c0.3-0.3,0.3-0.9,0-1.2l-1.2-1.2c-0.3-0.3-0.9-0.3-1.2,0L8,5.5L3.7,1.3
	c-0.3-0.3-0.9-0.3-1.2,0L1.3,2.5c-0.3,0.3-0.3,0.9,0,1.2L5.5,8l-4.3,4.3c-0.3,0.3-0.3,0.9,0,1.2l1.2,1.2c0.3,0.3,0.9,0.3,1.2,0
	L8,10.5l4.3,4.3c0.3,0.3,0.9,0.3,1.2,0l1.2-1.2c0.3-0.3,0.3-0.9,0-1.2L10.5,8z"/>
</svg>
