<svg version="1.1"  xmlns="http://www.w3.org/2000/svg" xmlns:xlink="http://www.w3.org/1999/xlink" x="0px" y="0px"
	 viewBox="0 0 16 16" enable-background="new 0 0 16 16" xml:space="preserve">
<path id="tip_16" d="M7.27,0.043C4.65,0.352,2.478,2.434,2.074,5.042C1.701,7.452,2.766,9.641,4.54,10.893
	C4.818,11.09,5,11.394,5,11.734V13c0,1.657,1.343,3,3,3s3-1.343,3-3v-1.269c0-0.339,0.181-0.641,0.458-0.836
	C12.995,9.811,14,8.025,14,6C14,2.446,10.91-0.386,7.27,0.043z M7,11V7h2v4H7z M10,9.447V7c0-0.552-0.448-1-1-1H7
	C6.448,6,6,6.448,6,7v2.447C4.556,8.613,3.679,6.911,4.11,5.05c0.333-1.437,1.498-2.604,2.935-2.939C9.663,1.501,12,3.483,12,6
	C12,7.475,11.193,8.758,10,9.447z"/>
</svg>
