<svg version="1.1"  xmlns="http://www.w3.org/2000/svg" xmlns:xlink="http://www.w3.org/1999/xlink" x="0px" y="0px" viewBox="0 0 16 16" style="enable-background:new 0 0 16 16;" xml:space="preserve">
	<path id="SVGID_1_" d="M7.9,15.1c-1.5,0-3-0.3-4.3-1.1c-1-0.6-1.8-1.3-2.3-2.4C1,11.1,0.9,10.5,1,9.9c0-0.1,0-0.2-0.1-0.3
		C0.2,9.2-0.1,8.6,0,7.9c0.1-0.8,0.8-1.5,1.6-1.5c0.4,0,0.9,0.1,1.2,0.4c0.1,0.1,0.2,0.1,0.3,0c0.8-0.5,1.6-0.9,2.6-1.1
		c0.6-0.1,1.2-0.2,1.8-0.2c0.2,0,0.2-0.1,0.3-0.2C7.9,4.4,8,3.7,8.2,3c0.1-0.6,0.2-1.1,0.3-1.7C8.6,1,8.8,0.9,9.1,1
		c0.9,0.2,1.8,0.4,2.7,0.6c0.1,0,0.1-0.1,0.2-0.1c0.4-0.5,0.9-0.7,1.4-0.5c0.5,0.2,0.9,0.7,0.9,1.2c0,0.6-0.4,1.1-1,1.2
		c-0.5,0.1-1.1-0.1-1.4-0.6c-0.1-0.1-0.1-0.2-0.1-0.4c0-0.2-0.1-0.2-0.3-0.3C10.8,2,10,1.9,9.3,1.7c-0.1,0-0.2,0-0.2,0.1
		C8.9,2.7,8.8,3.5,8.6,4.4C8.5,4.6,8.5,4.9,8.4,5.2c0,0.1,0.1,0.1,0.2,0.2C9,5.4,9.5,5.5,10,5.6c1,0.2,2,0.6,2.9,1.2
		c0.1,0.1,0.2,0.1,0.3,0c0.9-0.7,2.2-0.4,2.7,0.7c0.3,0.8,0.1,1.7-0.7,2.2C15,9.7,15,9.8,15,10c0.1,1-0.3,1.9-0.9,2.7
		c-0.7,0.9-1.7,1.5-2.8,1.9C10.2,15,9.1,15.1,7.9,15.1 M5.3,10.6c0.7,0,1.2-0.6,1.2-1.2c0-0.7-0.6-1.2-1.2-1.2C4.6,8.2,4,8.7,4,9.4
		C4,10,4.6,10.6,5.3,10.6 M10.7,10.6c0.7,0,1.2-0.6,1.2-1.2c0-0.7-0.5-1.2-1.2-1.2c-0.6,0-1.2,0.5-1.2,1.2
		C9.5,10,10.1,10.6,10.7,10.6 M8,13.6c0.5-0.1,1-0.1,1.5-0.2c0.5-0.1,1-0.3,1.4-0.7c0.2-0.2,0.2-0.3,0.1-0.5
		c-0.1-0.1-0.3-0.1-0.5,0c-0.2,0.2-0.5,0.3-0.7,0.4c-0.4,0.1-0.9,0.2-1.3,0.3c-0.9,0.1-1.7,0-2.5-0.4c-0.2-0.1-0.3-0.2-0.4-0.3
		c-0.2-0.1-0.3-0.1-0.4,0c-0.1,0.1-0.1,0.3,0.1,0.4c0.2,0.1,0.4,0.3,0.6,0.4C6.4,13.4,7.2,13.5,8,13.6"/>
</svg>
