<svg version="1.1"  xmlns="http://www.w3.org/2000/svg" xmlns:xlink="http://www.w3.org/1999/xlink" x="0px" y="0px"
	 viewBox="0 0 32 32" enable-background="new 0 0 32 32" xml:space="preserve">
<path id="decrease_32" d="M27.414,21.414l-10,10c-0.781,0.781-2.047,0.781-2.828,0l-10-10c-0.781-0.781-0.781-2.047,0-2.828
	l2.121-2.121c0.781-0.781,2.047-0.781,2.828,0L12,18.929V2c0-1.105,0.895-2,2-2h4c1.105,0,2,0.895,2,2v16.929l2.464-2.464
	c0.781-0.781,2.047-0.781,2.828,0l2.121,2.121C28.195,19.367,28.195,20.633,27.414,21.414z"/>
</svg>
