<svg version="1.1"  xmlns="http://www.w3.org/2000/svg" xmlns:xlink="http://www.w3.org/1999/xlink" x="0px" y="0px"
	 viewBox="0 0 64 64" enable-background="new 0 0 64 64" xml:space="preserve">
<g id="upload_64">
	<path d="M55.788,30.62C55.913,29.762,56,28.892,56,28c0-9.941-8.059-18-18-18c-7.202,0-13.398,4.24-16.276,10.35
		C20.35,19.5,18.735,19,17,19c-4.971,0-9,4.029-9,9c0,0.89,0.134,1.748,0.375,2.56C3.52,32.098,0,36.636,0,42
		c0,6.627,5.373,12,12,12h16V41.071l-2.464,2.464c-0.781,0.781-2.047,0.781-2.828,0l-2.121-2.121c-0.781-0.781-0.781-2.047,0-2.828
		l10-10c0.781-0.781,2.047-0.781,2.828,0l10,10c0.781,0.781,0.781,2.047,0,2.828l-2.121,2.121c-0.781,0.781-2.047,0.781-2.828,0
		L36,41.071V54h16c6.627,0,12-5.373,12-12C64,36.698,60.557,32.207,55.788,30.62z"/>
</g>
</svg>
