<svg version="1.1"  xmlns="http://www.w3.org/2000/svg" xmlns:xlink="http://www.w3.org/1999/xlink" x="0px" y="0px"
	 viewBox="0 0 16 16" enable-background="new 0 0 16 16" xml:space="preserve">
<path id="decrease_16" d="M13.707,10.707l-5,5c-0.391,0.391-1.024,0.391-1.414,0l-5-5c-0.391-0.391-0.391-1.024,0-1.414L3,8.586
	c0.391-0.391,1.024-0.391,1.414,0L6,10.172V1c0-0.552,0.448-1,1-1h2c0.552,0,1,0.448,1,1v9.172l1.586-1.586
	c0.391-0.391,1.024-0.391,1.414,0l0.707,0.707C14.098,9.683,14.098,10.317,13.707,10.707z"/>
</svg>
