<svg version="1.1"  xmlns="http://www.w3.org/2000/svg" xmlns:xlink="http://www.w3.org/1999/xlink" x="0px" y="0px"
	 viewBox="0 0 64 64" enable-background="new 0 0 64 64" xml:space="preserve">
<g id="sad_face_64">
	<path d="M32,0C14.327,0,0,14.327,0,32c0,17.673,14.327,32,32,32s32-14.327,32-32C64,14.327,49.673,0,32,0z M32,58.24
		C17.531,58.24,5.76,46.469,5.76,32S17.531,5.76,32,5.76S58.24,17.531,58.24,32S46.469,58.24,32,58.24z"/>
	<path d="M19,51c0,0,3-8,13-8s13,8,13,8H19z"/>
	<circle cx="18" cy="37" r="4"/>
	<circle cx="46" cy="37" r="4"/>
</g>
</svg>
