<svg version="1.1"  xmlns="http://www.w3.org/2000/svg" xmlns:xlink="http://www.w3.org/1999/xlink" x="0px" y="0px"
	 viewBox="0 0 12 12" enable-background="new 0 0 12 12" xml:space="preserve">
<g id="link_12">
	<path d="M5,3H3C1.343,3,0,4.343,0,6s1.343,3,3,3c0.276,0,0.5-0.224,0.5-0.5S3.276,8,3,8C1.897,8,1,7.103,1,6s0.897-2,2-2h2
		c1.103,0,2,0.897,2,2c0,0.276,0.224,0.5,0.5,0.5S8,6.276,8,6C8,4.343,6.657,3,5,3z"/>
	<path d="M9,3C8.724,3,8.5,3.224,8.5,3.5S8.724,4,9,4c1.103,0,2,0.897,2,2s-0.897,2-2,2H7C5.897,8,5,7.103,5,6
		c0-0.276-0.224-0.5-0.5-0.5S4,5.724,4,6c0,1.657,1.343,3,3,3h2c1.657,0,3-1.343,3-3S10.657,3,9,3z"/>
</g>
</svg>
