<svg version="1.1"  xmlns="http://www.w3.org/2000/svg" xmlns:xlink="http://www.w3.org/1999/xlink" x="0px" y="0px"
	 viewBox="0 0 32 32" enable-background="new 0 0 32 32" xml:space="preserve">
<path id="narrative_32" d="M16,4.968C12.405,1.374,8.003,0.202,2.067,0.001C0.939-0.037,0,0.875,0,2.003l0,23.537
	c0,1.073,0.85,1.949,1.921,1.994c4.727,0.196,8.86,1.203,12.943,4.105c0.677,0.481,1.594,0.481,2.271,0
	c4.083-2.902,8.217-3.908,12.943-4.105C31.15,27.49,32,26.613,32,25.541V2.003c0-1.129-0.939-2.04-2.067-2.002
	C23.997,0.202,19.595,1.374,16,4.968z M4,3.968c3,0,8,2,10,4v18.528c-2.948-1.934-6.788-3-10-3V3.968z M28,23.496
	c-3.212,0-7.052,1.066-10,3V7.968c2-2,7-4,10-4V23.496z"/>
</svg>
