<svg version="1.1"  xmlns="http://www.w3.org/2000/svg" xmlns:xlink="http://www.w3.org/1999/xlink" x="0px" y="0px" viewBox="0 0 32 32" style="enable-background:new 0 0 32 32;" xml:space="preserve">
	<path id="action_and_adventure_32_c" d="M30,19H15.9l-2-6H19c1.1,0,2-0.9,2-2V4c0-1.1-0.9-2-2-2s-2,0.9-2,2v5h-5.4
		C12.5,8.3,13,7.2,13,6c0-2.2-1.8-4-4-4S5,3.8,5,6c0,1.6,0.9,2.9,2.2,3.6l-6,2.6C0.5,12.5,0,13.2,0,14v6c0,1.1,0.9,2,2,2s2-0.9,2-2
		v-4.7l1.9-0.8l2.4,7.3l-4.8,4.8C3,27.2,2.8,28,3.2,28.8C3.5,29.5,4.2,30,5,30h10c1.1,0,2-0.9,2-2s-0.9-2-2-2H9.8l3-3H30
		c1.1,0,2-0.9,2-2S31.1,19,30,19z"/>
</svg>
