<?xml version="1.0" encoding="UTF-8"?>
<svg width="20px" height="20px" viewBox="0 0 20 20" version="1.1" xmlns="http://www.w3.org/2000/svg" xmlns:xlink="http://www.w3.org/1999/xlink">
    <!-- Generator: Sketch 44.1 (41455) - http://www.bohemiancoding.com/sketch -->
    <title>kebab</title>
    <desc>Created with Sketch.</desc>
    <defs></defs>
    <g id="Exportable" stroke="none" stroke-width="1" fill="none" fill-rule="evenodd">
        <g id="kebab" fill="#1A2E3B">
            <path d="M2.5,10 C2.5,9.17157288 3.16579723,8.5 4,8.5 C4.82842712,8.5 5.5,9.16579723 5.5,10 C5.5,10.8284271 4.83420277,11.5 4,11.5 C3.17157288,11.5 2.5,10.8342028 2.5,10 Z M8.5,10 C8.5,9.17157288 9.16579723,8.5 10,8.5 C10.8284271,8.5 11.5,9.16579723 11.5,10 C11.5,10.8284271 10.8342028,11.5 10,11.5 C9.17157288,11.5 8.5,10.8342028 8.5,10 Z M14.5,10 C14.5,9.17157288 15.1657972,8.5 16,8.5 C16.8284271,8.5 17.5,9.16579723 17.5,10 C17.5,10.8284271 16.8342028,11.5 16,11.5 C15.1715729,11.5 14.5,10.8342028 14.5,10 Z"></path>
        </g>
    </g>
</svg>