<svg id="Layer_1" xmlns="http://www.w3.org/2000/svg" viewBox="0 0 16.48 16.48"><title>Link</title><path d="M16.24,13a1,1,0,0,1-.71-1.71l2.12-2.12a2,2,0,0,0-2.83-2.83L12.71,8.46a1,1,0,0,1-1.41-1.41l2.12-2.12a4,4,0,0,1,5.66,5.66l-2.12,2.12A1,1,0,0,1,16.24,13Z" transform="translate(-3.76 -3.76)" fill="#1a2e3b"/><path d="M7.76,20.24a4,4,0,0,1-2.83-6.83l2.12-2.12a1,1,0,0,1,1.41,1.41L6.34,14.83a2,2,0,0,0,2.83,2.83l2.12-2.12a1,1,0,0,1,1.41,1.41l-2.12,2.12A4,4,0,0,1,7.76,20.24Z" transform="translate(-3.76 -3.76)" fill="#1a2e3b"/><path d="M10.59,14.41a1,1,0,0,1-.71-1.71l2.83-2.83a1,1,0,1,1,1.41,1.41l-2.83,2.83A1,1,0,0,1,10.59,14.41Z" transform="translate(-3.76 -3.76)" fill="#1a2e3b"/></svg>