<?xml version="1.0" encoding="UTF-8"?>
<svg width="24px" height="24px" viewBox="0 0 24 24" version="1.1" xmlns="http://www.w3.org/2000/svg" xmlns:xlink="http://www.w3.org/1999/xlink">
    <!-- Generator: Sketch 46.2 (44496) - http://www.bohemiancoding.com/sketch -->
    <title>Icon/Dark/Link</title>
    <desc>Created with Sketch.</desc>
    <defs></defs>
    <g id="2px-24-Grid" stroke="none" stroke-width="1" fill="none" fill-rule="evenodd">
        <g id="Icon/Dark/Link" fill="#231F20">
            <path d="M18.7990686,5.20091821 C20.4003105,6.80214248 20.4003105,9.3987501 18.7990686,10.9999744 L17.3495449,12.4494821 C16.9487219,12.8503008 16.2998191,12.8503008 15.9000212,12.4494821 C15.4991982,12.0496886 15.4991982,11.3997679 15.9000212,10.9999744 L17.2675351,9.63145042 C17.9902467,8.90874676 18.1696432,7.74627024 17.5740468,6.91592987 C16.816481,5.85903984 15.3300529,5.77088024 14.4494724,6.65042597 L12.9999487,8.09993373 C12.6001508,8.50075236 11.950223,8.50075236 11.5504251,8.09993373 C11.149602,7.70014022 11.149602,7.0512446 11.5504251,6.65042597 L12.9999487,5.20091821 C14.6011906,3.59969393 17.1978267,3.59969393 18.7990686,5.20091821 Z M11.0000513,15.8992974 C11.4008743,15.4984788 12.049777,15.4984788 12.4495749,15.8992974 C12.850398,16.3001161 12.850398,16.9490117 12.4495749,17.3488052 L11.0000513,18.798313 C9.39880939,20.4005623 6.80217326,20.4005623 5.2009314,18.798313 C3.59968953,17.1970887 3.59968953,14.6015062 5.2009314,13.0002819 L6.65045508,11.549749 C7.05127811,11.1499555 7.70018086,11.1499555 8.10100389,11.549749 C8.50080179,11.9505677 8.50080179,12.5994633 8.10100389,13.0002819 L6.73246491,14.3677807 C6.00975331,15.0904844 5.83035682,16.2529609 6.42595318,17.0833013 C7.18351895,18.1401913 8.67097218,18.2283509 9.55052757,17.3488052 L11.0000513,15.8992974 Z M12.7249156,9.82520017 C13.1257386,9.42438155 13.7746414,9.42438155 14.1744393,9.82520017 C14.5752623,10.2260188 14.5752623,10.8749144 14.1744393,11.2747079 L11.2753919,14.1747486 C10.8745689,14.5745421 10.2256661,14.5745421 9.82586824,14.1747486 C9.42504522,13.7739299 9.42504522,13.1250343 9.82586824,12.7242157 L12.7249156,9.82520017 Z" id="Combined-Shape"></path>
        </g>
    </g>
</svg>
