<svg id="Layer_1" xmlns="http://www.w3.org/2000/svg" viewBox="0 0 20 14"><title>List</title><g id="Group"><path id="Rectangle-16" d="M8,5H21a1,1,0,0,1,1,1h0a1,1,0,0,1-1,1H8A1,1,0,0,1,7,6H7A1,1,0,0,1,8,5Z" transform="translate(-2 -5)" fill="#1a2e3b"/><path id="Rectangle-16-2" d="M8,11H21a1,1,0,0,1,1,1h0a1,1,0,0,1-1,1H8a1,1,0,0,1-1-1H7A1,1,0,0,1,8,11Z" transform="translate(-2 -5)" fill="#1a2e3b"/><path id="Rectangle-16-3" d="M8,17H21a1,1,0,0,1,1,1h0a1,1,0,0,1-1,1H8a1,1,0,0,1-1-1H7A1,1,0,0,1,8,17Z" transform="translate(-2 -5)" fill="#1a2e3b"/><rect id="Rectangle" width="2" height="2" fill="#1a2e3b"/><rect id="Rectangle-2" y="6" width="2" height="2" fill="#1a2e3b"/><rect id="Rectangle-3" y="12" width="2" height="2" fill="#1a2e3b"/></g></svg>