<?xml version="1.0" encoding="UTF-8"?>
<svg width="20px" height="20px" viewBox="0 0 20 20" version="1.1" xmlns="http://www.w3.org/2000/svg" xmlns:xlink="http://www.w3.org/1999/xlink">
    <!-- Generator: Sketch 44.1 (41455) - http://www.bohemiancoding.com/sketch -->
    <title>list</title>
    <desc>Created with Sketch.</desc>
    <defs></defs>
    <g id="Exportable" stroke="none" stroke-width="1" fill="none" fill-rule="evenodd">
        <g id="list" fill="#1A2E3B">
            <g id="Group" transform="translate(1.000000, 3.000000)">
                <path d="M17.0014977,8 C17.5529553,8 18,7.55613518 18,7 L18,7 C18,6.44771525 17.5525106,6 17.0014977,6 L5.99850233,6 C5.44704472,6 5,6.44386482 5,7 L5,7 C5,7.55228475 5.44748943,8 5.99850233,8 L17.0014977,8 Z" id="Path"></path>
                <path d="M17.0014977,13 C17.5529553,13 18,12.5561352 18,12 L18,12 C18,11.4477153 17.5525106,11 17.0014977,11 L5.99850233,11 C5.44704472,11 5,11.4438648 5,12 L5,12 C5,12.5522847 5.44748943,13 5.99850233,13 L17.0014977,13 Z" id="Path"></path>
                <path d="M5,2 C5,2.55228475 5.44748943,3 5.99850233,3 L17.0014977,3 C17.5529553,3 18,2.55613518 18,2 L18,2 C18,1.44771525 17.5525106,1 17.0014977,1 L5.99850233,1 C5.44704472,1 5,1.44386482 5,2 L5,2 Z" id="Path"></path>
                <circle id="Oval-6" cx="1.5" cy="2" r="1.5"></circle>
                <circle id="Oval-6" cx="1.5" cy="7" r="1.5"></circle>
                <circle id="Oval-6" cx="1.5" cy="12" r="1.5"></circle>
            </g>
        </g>
    </g>
</svg>