<?xml version="1.0" encoding="UTF-8"?>
<svg width="20px" height="20px" viewBox="0 0 20 20" version="1.1" xmlns="http://www.w3.org/2000/svg" xmlns:xlink="http://www.w3.org/1999/xlink">
    <!-- Generator: Sketch 44.1 (41455) - http://www.bohemiancoding.com/sketch -->
    <title>lock</title>
    <desc>Created with Sketch.</desc>
    <defs></defs>
    <g id="Exportable" stroke="none" stroke-width="1" fill="none" fill-rule="evenodd">
        <g id="lock" fill-rule="nonzero" fill="#1A2E3B">
            <path d="M5.5,8 L5.5,4.49961492 C5.5,2.01454622 7.51977567,0 10,0 C12.4852814,0 14.5,2.01470566 14.5,4.49961492 L14.5,8 L15.7752686,8 C17.0039538,8 18,9.00247329 18,10.2289849 L18,17.7710151 C18,19.0020495 16.9991283,20 15.7752686,20 L4.22473145,20 C2.9960462,20 2,18.9975267 2,17.7710151 L2,10.2289849 C2,8.99795053 3.00087166,8 4.22473145,8 L5.5,8 Z M3.5,10.2289849 L3.5,17.7710151 C3.5,18.1717712 3.8271439,18.5 4.22473145,18.5 L15.7752686,18.5 C16.1722291,18.5 16.5,18.1720937 16.5,17.7710151 L16.5,10.2289849 C16.5,9.82822875 16.1728561,9.5 15.7752686,9.5 L4.22473145,9.5 C3.8277709,9.5 3.5,9.82790629 3.5,10.2289849 Z M7,8 L13,8 L13,4.49961492 C13,2.84309823 11.6568197,1.5 10,1.5 C8.34616709,1.5 7,2.84500783 7,4.49961492 L7,8 Z" id="Combined-Shape"></path>
        </g>
    </g>
</svg>