<?xml version="1.0" encoding="utf-8"?>
<!-- Generator: Adobe Illustrator 21.1.0, SVG Export Plug-In . SVG Version: 6.00 Build 0)  -->
<svg version="1.1" id="Layer_1" xmlns="http://www.w3.org/2000/svg" xmlns:xlink="http://www.w3.org/1999/xlink" x="0px" y="0px"
	 viewBox="0 0 16 20" style="enable-background:new 0 0 16 20;" xml:space="preserve">
<style type="text/css">
	.st0{fill:#1A2E3B;}
</style>
<path class="st0" d="M13,8V5c0-2.8-2.2-5-5-5S3,2.2,3,5v3c-1.7,0-3,1.3-3,3v6c0,1.7,1.3,3,3,3h10c1.7,0,3-1.3,3-3v-6
	C16,9.3,14.7,8,13,8z M5,5c0-1.7,1.3-3,3-3s3,1.3,3,3v3H5V5z M14,17c0,0.6-0.4,1-1,1H3c-0.6,0-1-0.4-1-1v-6c0-0.6,0.4-1,1-1h10
	c0.6,0,1,0.4,1,1V17z"/>
</svg>
