<?xml version="1.0" encoding="UTF-8"?>
<svg width="20px" height="20px" viewBox="0 0 20 20" version="1.1" xmlns="http://www.w3.org/2000/svg" xmlns:xlink="http://www.w3.org/1999/xlink">
    <!-- Generator: Sketch 44.1 (41455) - http://www.bohemiancoding.com/sketch -->
    <title>pin</title>
    <desc>Created with Sketch.</desc>
    <defs></defs>
    <g id="Exportable" stroke="none" stroke-width="1" fill="none" fill-rule="evenodd">
        <g id="pin" fill-rule="nonzero" fill="#1A2F3B">
            <path d="M13.2545932,11.8701299 L17.9790026,7.19480519 L18.6089239,7.81818182 C18.9238845,8.12987013 19.4488189,8.12987013 19.7637795,7.81818182 C20.0787402,7.50649351 20.0787402,6.98701299 19.7637795,6.67532468 L19.1338583,6.05194805 L17.9790026,4.90909091 L13.2545932,0.233766234 C12.9396325,-0.0779220779 12.4146982,-0.0779220779 12.0997375,0.233766234 C11.7847769,0.545454545 11.7847769,1.06493506 12.0997375,1.37662338 L12.7296588,2 L12.7296588,2 L8.11023622,6.77922078 C6.64041995,5.53246753 4.33070866,5.53246753 2.96587927,6.98701299 L1.28608924,8.64935065 C0.971128609,8.96103896 0.971128609,9.37662338 1.28608924,9.68831169 L5.27559055,13.6363636 L0.236220472,18.6233766 C-0.0787401575,18.9350649 -0.0787401575,19.4545455 0.236220472,19.7662338 C0.551181102,20.0779221 1.07611549,20.0779221 1.39107612,19.7662338 L6.43044619,14.7792208 L10.4199475,18.7272727 C10.7349081,19.038961 11.2598425,19.038961 11.5748031,18.7272727 L13.2545932,17.0649351 C14.5144357,15.6103896 14.6194226,13.3246753 13.2545932,11.8701299 Z M10.839895,17.0649351 L2.96587927,9.16883117 L4.12073491,8.02597403 C4.96062992,7.19480519 6.43044619,7.19480519 7.27034121,8.02597403 L8.11023622,8.96103896 L8.6351706,8.44155844 L8.6351706,8.44155844 L13.8845144,3.24675325 L16.824147,6.15584416 L12.0997375,10.8311688 L12.0997375,10.8311688 L11.0498688,11.8701299 L11.9947507,12.8051948 C12.8346457,13.6363636 12.8346457,15.0909091 11.9947507,15.9220779 L10.839895,17.0649351 Z" id="Shape"></path>
        </g>
    </g>
</svg>