<?xml version="1.0" encoding="UTF-8"?>
<svg width="20px" height="20px" viewBox="0 0 20 20" version="1.1" xmlns="http://www.w3.org/2000/svg" xmlns:xlink="http://www.w3.org/1999/xlink">
    <!-- Generator: Sketch 44.1 (41455) - http://www.bohemiancoding.com/sketch -->
    <title>review</title>
    <desc>Created with Sketch.</desc>
    <defs></defs>
    <g id="Exportable" stroke="none" stroke-width="1" fill="none" fill-rule="evenodd">
        <g id="review">
            <g id="Group" transform="translate(0.000000, 0.500000)">
                <path d="M18.0092,-0.0001 L1.9912,-0.0001 C0.8982,-0.0001 0.0002,0.8949 0.0002,1.9999 L0.0002,14.0549 C0.0002,15.1599 0.8912,16.0549 1.9912,16.0549 L14.7372,16.0549 L18.4352,18.7479 C18.7412,18.9929 19.0262,19.1089 19.2672,19.1089 C19.7072,19.1089 20.0002,18.7179 20.0002,18.0059 L20.0002,13.2109 L20.0002,1.9999 C20.0002,0.8939 19.1082,-0.0001 18.0092,-0.0001 M18.0092,1.4999 C18.2802,1.4999 18.5002,1.7239 18.5002,1.9999 L18.5002,13.2109 L18.5002,16.9399 L15.6202,14.8419 L15.2252,14.5549 L14.7372,14.5549 L1.9912,14.5549 C1.7202,14.5549 1.5002,14.3299 1.5002,14.0549 L1.5002,1.9999 C1.5002,1.7289 1.7252,1.4999 1.9912,1.4999 L18.0092,1.4999" id="Fill-1" fill="#1A2E3B"></path>
                <path d="M14,5.3047 L5,5.3047 C4.586,5.3047 4.25,5.6407 4.25,6.0547 C4.25,6.4687 4.586,6.8047 5,6.8047 L14,6.8047 C14.414,6.8047 14.75,6.4687 14.75,6.0547 C14.75,5.6407 14.414,5.3047 14,5.3047" id="Fill-4" fill="#182E3A"></path>
                <path d="M12,9.3047 L5,9.3047 C4.586,9.3047 4.25,9.6407 4.25,10.0547 C4.25,10.4687 4.586,10.8047 5,10.8047 L12,10.8047 C12.414,10.8047 12.75,10.4687 12.75,10.0547 C12.75,9.6407 12.414,9.3047 12,9.3047" id="Fill-6" fill="#182E3A"></path>
            </g>
        </g>
    </g>
</svg>