<?xml version="1.0" encoding="UTF-8"?>
<svg width="20px" height="20px" viewBox="0 0 20 20" version="1.1" xmlns="http://www.w3.org/2000/svg" xmlns:xlink="http://www.w3.org/1999/xlink">
    <!-- Generator: Sketch 44.1 (41455) - http://www.bohemiancoding.com/sketch -->
    <title>search</title>
    <desc>Created with Sketch.</desc>
    <defs></defs>
    <g id="Exportable" stroke="none" stroke-width="1" fill="none" fill-rule="evenodd">
        <g id="search" fill-rule="nonzero" fill="#1A2D3A">
            <path d="M15.5705951,14.5099349 L19.7820489,18.7213888 C20.0749422,19.014282 20.0749422,19.4891557 19.7820489,19.7820489 C19.4891557,20.0749422 19.014282,20.0749422 18.7213888,19.7820489 L14.5099349,15.5705951 C12.9742255,16.8662129 10.9900656,17.6470588 8.82352941,17.6470588 C3.95042868,17.6470588 -5.91645679e-31,13.6966301 -5.91645679e-31,8.82352941 C-5.91645679e-31,3.95042868 3.95042868,5.91645679e-31 8.82352941,5.91645679e-31 C13.6966301,5.91645679e-31 17.6470588,3.95042868 17.6470588,8.82352941 C17.6470588,10.9900656 16.8662129,12.9742255 15.5705951,14.5099349 Z M8.82352941,16.1470588 C12.868203,16.1470588 16.1470588,12.868203 16.1470588,8.82352941 C16.1470588,4.7788558 12.868203,1.5 8.82352941,1.5 C4.7788558,1.5 1.5,4.7788558 1.5,8.82352941 C1.5,12.868203 4.7788558,16.1470588 8.82352941,16.1470588 Z" id="Combined-Shape"></path>
        </g>
    </g>
</svg>