<?xml version="1.0" encoding="UTF-8"?>
<svg width="20px" height="20px" viewBox="0 0 20 20" version="1.1" xmlns="http://www.w3.org/2000/svg" xmlns:xlink="http://www.w3.org/1999/xlink">
    <!-- Generator: Sketch 44.1 (41455) - http://www.bohemiancoding.com/sketch -->
    <title>stats</title>
    <desc>Created with Sketch.</desc>
    <defs></defs>
    <g id="Exportable" stroke="none" stroke-width="1" fill="none" fill-rule="evenodd">
        <g id="stats" fill="#1A2E3B">
            <path d="M2.4707,8.007 L7.5377,3.298 C7.6057,3.235 7.7237,3.235 7.7827,3.292 L11.1907,6.578 C11.9027,7.265 13.0657,7.314 13.8457,6.696 L18.4177,3.078 C18.7967,2.778 18.8607,2.227 18.5607,1.848 C18.2617,1.469 17.7107,1.405 17.3317,1.705 L12.7597,5.324 C12.6627,5.401 12.4827,5.393 12.4057,5.319 L8.9977,2.032 C8.2657,1.327 7.0917,1.324 6.3467,2.016 L1.2797,6.725 C0.9257,7.054 0.9047,7.608 1.2337,7.962 C1.5627,8.316 2.1167,8.336 2.4707,8.007" id="Fill-1"></path>
            <path d="M7.7917,18.433 L7.7917,18.433 C7.3227,18.433 6.9417,18.052 6.9417,17.583 L6.9417,9.283 C6.9417,8.814 7.3227,8.433 7.7917,8.433 L7.7917,8.433 C8.2607,8.433 8.6417,8.814 8.6417,9.283 L8.6417,17.583 C8.6417,18.052 8.2607,18.433 7.7917,18.433" id="Fill-4"></path>
            <path d="M3.625,18.433 L3.625,18.433 C3.156,18.433 2.775,18.052 2.775,17.583 L2.775,12.283 C2.775,11.814 3.156,11.433 3.625,11.433 L3.625,11.433 C4.094,11.433 4.475,11.814 4.475,12.283 L4.475,17.583 C4.475,18.052 4.094,18.433 3.625,18.433" id="Fill-6"></path>
            <path d="M11.9584,18.433 L11.9584,18.433 C11.4894,18.433 11.1084,18.052 11.1084,17.583 L11.1084,12.283 C11.1084,11.814 11.4894,11.433 11.9584,11.433 L11.9584,11.433 C12.4274,11.433 12.8084,11.814 12.8084,12.283 L12.8084,17.583 C12.8084,18.052 12.4274,18.433 11.9584,18.433" id="Fill-8"></path>
            <path d="M16.125,18.433 L16.125,18.433 C15.656,18.433 15.275,18.052 15.275,17.583 L15.275,9.283 C15.275,8.814 15.656,8.433 16.125,8.433 L16.125,8.433 C16.594,8.433 16.975,8.814 16.975,9.283 L16.975,17.583 C16.975,18.052 16.594,18.433 16.125,18.433" id="Fill-10"></path>
        </g>
    </g>
</svg>