<svg id="Layer_1" xmlns="http://www.w3.org/2000/svg" viewBox="0 0 17 17"><title>Stats</title><path d="M6,20a1,1,0,0,1-1-1V14a1,1,0,0,1,2,0v5A1,1,0,0,1,6,20Z" transform="translate(-3 -3)" fill="#1a2e3b"/><path d="M10,20a1,1,0,0,1-1-1V11a1,1,0,1,1,2,0v8A1,1,0,0,1,10,20Z" transform="translate(-3 -3)" fill="#1a2e3b"/><path d="M14,20a1,1,0,0,1-1-1V14a1,1,0,0,1,2,0v5A1,1,0,0,1,14,20Z" transform="translate(-3 -3)" fill="#1a2e3b"/><path d="M18,20a1,1,0,0,1-1-1V12a1,1,0,0,1,2,0v7A1,1,0,0,1,18,20Z" transform="translate(-3 -3)" fill="#1a2e3b"/><path d="M14,10a1,1,0,0,1-.71-.29L9,5.41,4.71,9.71A1,1,0,0,1,3.29,8.29l5-5a1,1,0,0,1,1.41,0L14,7.59l4.29-4.29a1,1,0,0,1,1.41,1.41l-5,5A1,1,0,0,1,14,10Z" transform="translate(-3 -3)" fill="#1a2e3b"/></svg>