<svg id="Layer_1" xmlns="http://www.w3.org/2000/svg" viewBox="0 0 18 20"><title>Trash</title><path d="M20,5H16V4a2,2,0,0,0-2-2H10A2,2,0,0,0,8,4V5H4A1,1,0,0,0,4,7H5V20a2,2,0,0,0,2,2H17a2,2,0,0,0,2-2V7h1a1,1,0,0,0,0-2ZM10,4h4V5H10Zm7,16H7V7H17Z" transform="translate(-3 -2)" fill="#1a2e3b"/><path d="M10.5,11a.5.5,0,0,0-.5.5v4a.5.5,0,1,0,1,0v-4A.5.5,0,0,0,10.5,11Z" transform="translate(-3 -2)" fill="#1a2e3b"/><path d="M13.5,11a.5.5,0,0,0-.5.5v4a.5.5,0,1,0,1,0v-4A.5.5,0,0,0,13.5,11Z" transform="translate(-3 -2)" fill="#1a2e3b"/></svg>