<svg id="Layer_1" xmlns="http://www.w3.org/2000/svg" viewBox="0 0 18 20"><title>Trash@2x</title><path d="M10.5,16a.5.5,0,0,1-.5-.5v-4a.5.5,0,0,1,1,0v4A.5.5,0,0,1,10.5,16Z" transform="translate(-3 -2)" fill="#1a2e3b"/><path d="M13.5,16a.5.5,0,0,1-.5-.5v-4a.5.5,0,0,1,1,0v4A.5.5,0,0,1,13.5,16Z" transform="translate(-3 -2)" fill="#1a2e3b"/><path d="M20,6H17V4a2,2,0,0,0-2-2H9A2,2,0,0,0,7,4V6H4A1,1,0,0,0,4,8H5V20a2,2,0,0,0,2,2H17a2,2,0,0,0,2-2V8h1a1,1,0,0,0,0-2ZM9,4h6V6H9Zm8,16H7V8H17Z" transform="translate(-3 -2)" fill="#1a2e3b"/></svg>