<?xml version="1.0" encoding="utf-8"?>
<!-- Generator: Adobe Illustrator 21.1.0, SVG Export Plug-In . SVG Version: 6.00 Build 0)  -->
<svg version="1.1" id="Layer_1" xmlns="http://www.w3.org/2000/svg" xmlns:xlink="http://www.w3.org/1999/xlink" x="0px" y="0px"
	 viewBox="0 0 20 20" style="enable-background:new 0 0 20 20;" xml:space="preserve">
<style type="text/css">
	.st0{fill:#00ACED;}
</style>
<path id="Fill-3" class="st0" d="M6.3,18.3C13.8,18.3,18,12,18,6.6c0-0.2,0-0.4,0-0.5c0.8-0.6,1.5-1.3,2-2.1
	c-0.7,0.3-1.5,0.5-2.4,0.6c0.8-0.5,1.5-1.3,1.8-2.3c-0.8,0.5-1.7,0.8-2.6,1C16.1,2.5,15,2,13.8,2c-2.3,0-4.1,1.8-4.1,4.1
	c0,0.3,0,0.6,0.1,0.9C6.4,6.9,3.4,5.2,1.4,2.8C1,3.4,0.8,4.1,0.8,4.8c0,1.4,0.7,2.7,1.8,3.4C2,8.2,1.4,8,0.8,7.7c0,0,0,0,0,0.1
	c0,2,1.4,3.6,3.3,4c-0.3,0.1-0.7,0.1-1.1,0.1c-0.3,0-0.5,0-0.8-0.1c0.5,1.6,2,2.8,3.8,2.9c-1.4,1.1-3.2,1.8-5.1,1.8
	c-0.3,0-0.7,0-1-0.1C1.8,17.6,4,18.3,6.3,18.3"/>
</svg>
