<?xml version="1.0" encoding="utf-8"?>
<svg viewBox="0 0 710 488" xmlns="http://www.w3.org/2000/svg"><path d="M621.25 199.636C621.25 89.378 531.85 0 421.562 0 341.666 0 272.928 47.025 241.01 114.798c-15.25-9.442-33.163-14.98-52.414-14.98-55.144 0-99.844 44.69-99.844 99.818 0 9.87 1.487 19.387 4.156 28.4C39.05 245.08 0 295.426 0 354.91 0 428.41 59.603 488 133.125 488h443.75C650.397 488 710 428.412 710 354.91c0-58.805-38.192-108.61-91.102-126.215 1.39-9.51 2.352-19.158 2.352-29.06z" stroke="#FFF" stroke-width="4" stroke-linecap="square" stroke-dasharray="20" fill-rule="evenodd" vector-effect="non-scaling-stroke"/></svg>
