<?xml version="1.0" encoding="UTF-8"?>
<svg width="20px" height="20px" viewBox="0 0 20 20" version="1.1" xmlns="http://www.w3.org/2000/svg" xmlns:xlink="http://www.w3.org/1999/xlink">
    <!-- Generator: Sketch 44.1 (41455) - http://www.bohemiancoding.com/sketch -->
    <title>videos</title>
    <desc>Created with Sketch.</desc>
    <defs>
        <polygon id="path-1" points="0 16 0 0 8.49995 0 16.9999 0 16.9999 16 4.44075657e-16 16"></polygon>
    </defs>
    <g id="Exportable" stroke="none" stroke-width="1" fill="none" fill-rule="evenodd">
        <g id="videos">
            <g id="Group-3" transform="translate(0.000000, 0.500000)">
                <mask id="mask-2" fill="white">
                    <use xlink:href="#path-1"></use>
                </mask>
                <g id="Clip-2"></g>
                <path d="M14.9999,0 L1.9999,0 C0.8959,0 -0.0001,0.8965 -0.0001,2.002 L-0.0001,13.998 C-0.0001,15.1055 0.8954,16 1.9999,16 L14.9999,16 C16.1039,16 16.9999,15.1035 16.9999,13.998 L16.9999,2.002 C16.9999,0.8945 16.1044,0 14.9999,0 M14.9999,1.5 C15.2759,1.5 15.4999,1.7255 15.4999,2.002 L15.4999,13.998 C15.4999,14.2745 15.2759,14.5 14.9999,14.5 L1.9999,14.5 C1.7244,14.5 1.4999,14.2745 1.4999,13.998 L1.4999,2.002 C1.4999,1.7255 1.7244,1.5 1.9999,1.5 L14.9999,1.5" id="Fill-1" fill="#182E3A" mask="url(#mask-2)"></path>
            </g>
            <path d="M6.8225,6.2014 L6.8225,10.8154 L10.7605,8.5119 L6.8225,6.2014 Z M6.546,12.4939 C6.3365,12.4939 6.135,12.4419 5.9535,12.3379 C5.5525,12.1079 5.3225,11.6679 5.3225,11.1294 L5.3225,5.8909 C5.3225,5.3519 5.552,4.9109 5.952,4.6819 C6.352,4.4529 6.847,4.4769 7.31,4.7484 L11.7685,7.3599 C12.23,7.6304 12.4945,8.0494 12.4945,8.5104 C12.4945,8.9714 12.2295,9.3904 11.7685,9.6604 L7.3105,12.2719 C7.058,12.4199 6.7965,12.4939 6.546,12.4939 L6.546,12.4939 Z" id="Fill-4" fill="#192E3B"></path>
            <path d="M18.5,17.4978 C18.5,17.7748 18.2755,17.9998 18,17.9998 L3.071,17.9998 C3.2945,18.8623 4.0695,19.4998 5,19.4998 L18,19.4998 C19.104,19.4998 20,18.6038 20,17.4978 L20,7.4963 C20,6.2343 19.4135,5.1108 18.5,4.3783 L18.5,17.4978 Z" id="Fill-6" fill="#192E3B"></path>
        </g>
    </g>
</svg>