<svg id="Layer_1" xmlns="http://www.w3.org/2000/svg" viewBox="0 0 20 20"><title>all-videos</title><path d="M16,4V16H4V4H16m0-2H4A2,2,0,0,0,2,4V16a2,2,0,0,0,2,2H16a2,2,0,0,0,2-2V4a2,2,0,0,0-2-2Z" transform="translate(-2 -2)" fill="#1a2e3b"/><path d="M7.6,7.51c0-.55.39-.77.86-.5l4.28,2.5a.54.54,0,0,1,0,1L8.46,13.08c-.47.28-.86.07-.86-.49Z" transform="translate(-2 -2)" fill="#192e3b" fill-rule="evenodd"/><path d="M18,22a4,4,0,0,0,4-4V7a2,2,0,0,0-2-2V18a2,2,0,0,1-2,2H5a2,2,0,0,0,2,2Z" transform="translate(-2 -2)" fill="#192e3b" fill-rule="evenodd"/></svg>