<?xml version="1.0" encoding="UTF-8"?>
<svg width="20px" height="20px" viewBox="0 0 20 20" version="1.1" xmlns="http://www.w3.org/2000/svg" xmlns:xlink="http://www.w3.org/1999/xlink">
    <!-- Generator: Sketch 45.2 (43514) - http://www.bohemiancoding.com/sketch -->
    <title>Artboard</title>
    <desc>Created with Sketch.</desc>
    <defs></defs>
    <g id="Page-1" stroke="none" stroke-width="1">
        <g id="Artboard">
            <g id="Group-2" transform="translate(0.000000, 0.500000)">
                <g id="Group-7">
                    <path d="M18.5,3.87854862 C19.4145614,4.61090739 20,5.73526718 20,6.99620271 L20,15.9905224 C20,17.652611 18.6660385,19 16.9998738,19 L5.00010618,19 C4.06673745,19 3.28269367,18.3613524 3.0620156,17.5 L16.5,17.5 C17.6045695,17.5 18.5,16.6045695 18.5,15.5 L18.5,3.87854862 Z" id="Combined-Shape"></path>
                    <path d="M1.5,1.99406028 L1.5,14.0059397 C1.5,14.2768459 1.72369563,14.5 2.00010618,14.5 L14.9998938,14.5 C15.2800299,14.5 15.5,14.2802836 15.5,14.0059397 L15.5,1.99406028 C15.5,1.72315406 15.2763044,1.5 14.9998938,1.5 L2.00010618,1.5 C1.7199701,1.5 1.5,1.71971641 1.5,1.99406028 Z M0,1.99406028 C0,0.892771196 0.890058413,0 2.00010618,0 L14.9998938,0 C16.104522,0 17,0.894513756 17,1.99406028 L17,14.0059397 C17,15.1072288 16.1099416,16 14.9998938,16 L2.00010618,16 C0.895478039,16 0,15.1054862 0,14.0059397 L0,1.99406028 Z" id="Rectangle-7"></path>
                </g>
                <path d="M6.5,10.5130445 L10.8189684,7.85521779 L6.5,5.19739111 L6.5,10.5130445 Z M11.9511007,6.79064489 C12.5390481,7.15245866 12.7223656,7.92239219 12.3605518,8.51033957 C12.2579976,8.67699012 12.1177512,8.8172365 11.9511007,8.91979068 L6.90512178,12.0250085 C6.31717441,12.3868222 5.54724087,12.2035047 5.1854271,11.6155574 C5.06419041,11.4185477 5,11.1917603 5,10.9604356 L5,4.75 C5,4.05964406 5.55964406,3.5 6.25,3.5 C6.48132472,3.5 6.70811216,3.56419041 6.90512178,3.6854271 L11.9511007,6.79064489 Z" id="Rectangle-2"></path>
            </g>
        </g>
    </g>
</svg>
