<svg id="instagram_logo" xmlns="http://www.w3.org/2000/svg" viewBox="0 0 100 100"><defs><style>.cls-1{fill:#231f20;}</style></defs><title>instagram</title><path class="cls-1" d="M50,0C36.4,0,34.6.1,29.3,0.4A37,37,0,0,0,17.2,2.5,24.6,24.6,0,0,0,8.4,8.4a24.6,24.6,0,0,0-5.9,8.8A37,37,0,0,0,.4,29.3C0.1,34.6,0,36.4,0,50S0.1,65.4.4,70.7A37,37,0,0,0,2.5,82.8a24.6,24.6,0,0,0,5.9,8.8,24.6,24.6,0,0,0,8.8,5.9,37,37,0,0,0,12.1,2.1c5.3,0.2,7.1.4,20.7,0.4s15.4-.1,20.7-0.4a37,37,0,0,0,12.1-2.1A26.9,26.9,0,0,0,97.5,82.8a37,37,0,0,0,2.1-12.1c0.2-5.3.4-7.1,0.4-20.7s-0.1-15.4-.4-20.7a37,37,0,0,0-2.1-12.1,24.6,24.6,0,0,0-5.9-8.8,24.6,24.6,0,0,0-8.8-5.9A37,37,0,0,0,70.7.4C65.4,0.1,63.6,0,50,0Zm0,9c13.4,0,14.8.2,20.1,0.4s7.6,0.9,9.4,1.6a15.6,15.6,0,0,1,5.7,3.9,15.6,15.6,0,0,1,3.9,5.7c0.7,1.8,1.3,4.5,1.6,9.4S91,36.6,91,50s-0.2,14.8-.4,20.1-0.9,7.6-1.6,9.4a15.6,15.6,0,0,1-3.9,5.7,15.6,15.6,0,0,1-5.7,3.9c-1.8.7-4.5,1.3-9.4,1.6S63.4,91,50,91s-14.8-.2-20.1-0.4-7.6-.9-9.4-1.6a15.6,15.6,0,0,1-5.7-3.9,15.6,15.6,0,0,1-3.9-5.7c-0.7-1.8-1.3-4.5-1.6-9.4S9,63.4,9,50s0.2-14.8.4-20.1,0.9-7.6,1.6-9.4a15.6,15.6,0,0,1,3.9-5.7,15.6,15.6,0,0,1,5.7-3.9c1.8-.7,4.5-1.3,9.4-1.6S36.6,9,50,9Zm26.8,8.4a5.9,5.9,0,0,0-6.1,5.9,6.1,6.1,0,0,0,6.1,6.1,5.9,5.9,0,0,0,5.9-6.1A5.8,5.8,0,0,0,76.8,17.4ZM50,24.4A25.6,25.6,0,1,0,75.6,50,25.5,25.5,0,0,0,50,24.4Zm0,9A16.6,16.6,0,1,1,33.4,50,16.6,16.6,0,0,1,50,33.4Z"/></svg>