<svg xmlns="http://www.w3.org/2000/svg" viewBox="0 0 32 32"><path d="M15.8 30.3c-3-.1-6-.7-8.7-2.2-2-1.1-3.7-2.7-4.6-4.8-.4-1.2-.6-2.3-.5-3.5 0-.3 0-.4-.3-.5-1.3-.8-1.9-2-1.7-3.5.2-1.7 1.6-2.9 3.2-3.1.9-.1 1.7.2 2.4.7.2.2.4.2.6 0 1.6-1.1 3.3-1.7 5.1-2.2 1.2-.3 2.3-.5 3.5-.5.4 0 .5-.2.5-.5.3-1.4.6-2.9.9-4.3.2-1.1.5-2.2.7-3.3.1-.6.5-.8 1-.7 1.8.4 3.6.8 5.4 1.1.1 0 .3-.1.4-.2.8-1 1.8-1.3 2.9-1 1.1.4 1.8 1.3 1.8 2.5s-.8 2.1-2 2.4c-1 .3-2.2-.2-2.7-1.2-.1-.2-.3-.5-.3-.7 0-.4-.3-.5-.5-.5-1.4-.3-2.9-.6-4.3-.9-.3-.1-.3 0-.4.3-.3 1.7-.7 3.3-1.1 5-.1.6-.2 1.1-.3 1.7-.1.3.1.3.3.3.9.1 1.9.2 2.8.4 2.1.4 4 1.2 5.7 2.3.2.2.4.1.6 0 1.9-1.4 4.5-.7 5.4 1.4.7 1.6.1 3.4-1.4 4.4-.2.2-.2.4-.2.7.2 2.1-.6 3.9-1.9 5.5-1.5 1.8-3.4 3-5.6 3.8-2.1.7-4.3 1.1-6.7 1.1m-5.3-9.1c1.3 0 2.4-1.1 2.4-2.4 0-1.5-1.2-2.4-2.4-2.4-1.4 0-2.4 1-2.4 2.5 0 1.2 1.1 2.3 2.4 2.3m11 0c1.3 0 2.4-1.1 2.4-2.5s-1.1-2.4-2.4-2.4c-1.3 0-2.4 1-2.4 2.5-.1 1.3 1 2.4 2.4 2.4m-5.5 6c1-.1 2-.2 3-.5 1-.2 1.9-.6 2.7-1.3.3-.3.4-.6.2-.9-.3-.3-.6-.2-1 0-.5.3-1 .7-1.5.8-.9.3-1.7.5-2.6.5-1.7.2-3.4-.1-5-.8-.3-.1-.6-.4-.8-.6-.3-.2-.7-.2-.9.1-.2.3-.2.6.1.8.4.3.7.6 1.1.8 1.5.7 3.1 1 4.7 1.1"/></svg>