<svg xmlns="http://www.w3.org/2000/svg" viewBox="0 0 32 32"><path d="M32 17c0-2.9-2.2-5.5-6.1-7.1-.5-5-4.8-8.9-9.9-8.9S6.6 4.9 6.1 9.9C2.2 11.5 0 14.1 0 17c0 3 2.4 5.6 6.2 7.2L5 27.7c-.2.5.1 1.1.6 1.3H6c.4 0 .8-.3.9-.7L8 24.9c2 .6 4.4 1 6.9 1.1v4c0 .6.4 1 1 1s1-.4 1-1v-4c2.5-.1 4.9-.5 6.9-1.1l1.1 3.4c.1.4.5.7.9.7.1 0 .2 0 .3-.1.5-.2.8-.7.6-1.3l-1.2-3.5C29.6 22.6 32 20 32 17zM16 5c3.3 0 6 2.7 6 6 0 .5-2.1 2-6 2s-6-1.5-6-2c0-3.3 2.7-6 6-6zm0 17c-7.4 0-12-2.9-12-5 0-1.1 1.2-2.3 3.1-3.2C8.7 15.7 12 17 16 17s7.3-1.3 8.9-3.2c1.9.9 3.1 2.1 3.1 3.2 0 2.1-4.6 5-12 5z"/></svg>