<svg xmlns="http://www.w3.org/2000/svg" viewBox="0 0 64 64"><path d="M19.414 44.172L7.243 32l12.172-12.172a2 2 0 0 0 0-2.828L18 15.586a2 2 0 0 0-2.828 0L.879 29.879A2.99 2.99 0 0 0 0 32c0 .829.336 1.579.879 2.122l14.293 14.293a2 2 0 0 0 2.828 0L19.414 47a2 2 0 0 0 0-2.828zM44.586 44.172L56.757 32 44.586 19.828a2 2 0 0 1 0-2.828L46 15.586a2 2 0 0 1 2.828 0l14.293 14.293A2.99 2.99 0 0 1 64 32c0 .829-.336 1.579-.879 2.122L48.828 48.414a2 2 0 0 1-2.828 0L44.586 47a2 2 0 0 1 0-2.828zM39.224 8.578l-1.934-.511v.001l-.012-.005a1.999 1.999 0 0 0-2.43 1.424h-.001l-.003.012-.001.003v.003l-11.49 43.472-.001.003a2 2 0 0 0 1.423 2.442l1.934.511v-.001l.012.005a1.999 1.999 0 0 0 2.43-1.424h.001l.003-.012.001-.003v-.003l11.488-43.473.001-.003a1.997 1.997 0 0 0-1.421-2.441z"/></svg>