<svg xmlns="http://www.w3.org/2000/svg" viewBox="0 0 12 12"><path d="M11.25 0h-3a.75.75 0 0 0 0 1.5h1.189L7.345 3.595a.75.75 0 0 0 1.06 1.06L10.5 2.561V3.75a.75.75 0 0 0 1.5 0v-3a.75.75 0 0 0-.75-.75zM11.25 7.5a.75.75 0 0 0-.75.75v1.189L8.405 7.345a.75.75 0 0 0-1.06 1.06L9.439 10.5H8.25a.75.75 0 0 0 0 1.5h3a.75.75 0 0 0 .75-.75v-3a.75.75 0 0 0-.75-.75zM2.561 1.5H3.75a.75.75 0 0 0 0-1.5h-3A.75.75 0 0 0 0 .75v3a.75.75 0 0 0 1.5 0V2.561l2.095 2.095a.75.75 0 0 0 1.06-1.06L2.561 1.5zM4.125 7.125a.745.745 0 0 0-.53.22L1.5 9.439V8.25a.75.75 0 0 0-1.5 0v3c0 .414.336.75.75.75h3a.75.75 0 0 0 0-1.5H2.561l2.095-2.095a.752.752 0 0 0-.531-1.28z"/></svg>