<svg xmlns="http://www.w3.org/2000/svg" viewBox="0 0 16 16"><path d="M2.2 5.2c-.5 0-1 .4-1 1v4.1c0 .5.4 1 1 1 .5 0 1-.4 1-1V6.2c0-.6-.4-1-1-1zm1.4.2v6.4c0 .6.5 1.1 1.1 1.1h.7V15c0 .5.4 1 1 1 .5 0 1-.4 1-1v-2.2h1.3V15c0 .5.4 1 1 1 .5 0 1-.4 1-1v-2.2h.7c.6 0 1.1-.5 1.1-1.1V5.4H3.6zm11.2.8c0-.5-.4-1-1-1-.5 0-1 .4-1 1v4.1c0 .5.4 1 1 1 .5 0 1-.4 1-1V6.2zm-4.6-4.8l.6-1.2c0-.1 0-.2-.1-.2s-.2 0-.2.1l-.6 1.2C9.4 1 8.7.9 8 .9s-1.4.2-1.9.4L5.4.1c0-.1-.1-.1-.2-.1s-.1.1-.1.2l.7 1.2C4.5 2.2 3.6 3.5 3.6 5h8.8c.1-1.6-.9-2.9-2.2-3.6zM6 3.4c-.2 0-.4-.2-.4-.4s.2-.4.4-.4.4.2.4.4-.2.4-.4.4zm4.1 0c-.2 0-.4-.2-.4-.4s.2-.4.4-.4.4.2.4.4-.2.4-.4.4z"/></svg>