<svg xmlns="http://www.w3.org/2000/svg" viewBox="0 0 32 32"><path d="M5 22c-.245 0-.483.024-.717.06l-.112.112L0 32l9.828-4.172.112-.112c.036-.233.06-.471.06-.716a5 5 0 0 0-5-5zM22 5c-.245 0-.483.024-.717.06L6.292 20.051a5 5 0 0 1 5.657 5.657L26.94 10.717c.036-.234.06-.472.06-.717a5 5 0 0 0-5-5zM30.828 1.172a4 4 0 0 0-5.657 0l-1.88 1.88a5 5 0 0 1 5.658 5.656l1.88-1.88a3.998 3.998 0 0 0-.001-5.656z"/><g><path d="M14.672 8.843L6.414.586a2 2 0 0 0-2.828 0l-3 3a2 2 0 0 0 0 2.828l1.361 1.361 2.842-2.842 1.414 1.414-2.842 2.842 2.121 2.121 2.842-2.842 1.414 1.414-2.842 2.842 1.947 1.947 5.829-5.828zM31.414 25.586l-8.257-8.257-5.828 5.828 1.947 1.947 2.874-2.874 1.414 1.414-2.874 2.874 2.121 2.121 2.874-2.874 1.414 1.414-2.874 2.874 1.361 1.361a2 2 0 0 0 2.828 0l3-3a2 2 0 0 0 0-2.828z"/></g></svg>