<svg xmlns="http://www.w3.org/2000/svg" viewBox="0 0 16 16"><path d="M7.9 15.1c-1.5 0-3-.3-4.3-1.1-1-.6-1.8-1.3-2.3-2.4-.3-.5-.4-1.1-.3-1.7 0-.1 0-.2-.1-.3-.7-.4-1-1-.9-1.7.1-.8.8-1.5 1.6-1.5.4 0 .9.1 1.2.4.1.1.2.1.3 0 .8-.5 1.6-.9 2.6-1.1.6-.1 1.2-.2 1.8-.2.2 0 .2-.1.3-.2.1-.9.2-1.6.4-2.3.1-.6.2-1.1.3-1.7.1-.3.3-.4.6-.3l2.7.6c.1 0 .1-.1.2-.1.4-.5.9-.7 1.4-.5.5.2.9.7.9 1.2 0 .6-.4 1.1-1 1.2-.5.1-1.1-.1-1.4-.6-.1-.1-.1-.2-.1-.4s-.1-.2-.3-.3c-.7-.1-1.5-.2-2.2-.4-.1 0-.2 0-.2.1-.2.9-.3 1.7-.5 2.6-.1.2-.1.5-.2.8 0 .1.1.1.2.2.4 0 .9.1 1.4.2 1 .2 2 .6 2.9 1.2.1.1.2.1.3 0 .9-.7 2.2-.4 2.7.7.3.8.1 1.7-.7 2.2-.2 0-.2.1-.2.3.1 1-.3 1.9-.9 2.7-.7.9-1.7 1.5-2.8 1.9-1.1.4-2.2.5-3.4.5m-2.6-4.5c.7 0 1.2-.6 1.2-1.2 0-.7-.6-1.2-1.2-1.2-.7 0-1.3.5-1.3 1.2 0 .6.6 1.2 1.3 1.2m5.4 0c.7 0 1.2-.6 1.2-1.2 0-.7-.5-1.2-1.2-1.2-.6 0-1.2.5-1.2 1.2 0 .6.6 1.2 1.2 1.2m-2.7 3c.5-.1 1-.1 1.5-.2s1-.3 1.4-.7c.2-.2.2-.3.1-.5-.1-.1-.3-.1-.5 0-.2.2-.5.3-.7.4-.4.1-.9.2-1.3.3-.9.1-1.7 0-2.5-.4-.2-.1-.3-.2-.4-.3-.2-.1-.3-.1-.4 0-.1.1-.1.3.1.4.2.1.4.3.6.4.5.4 1.3.5 2.1.6"/></svg>