<svg xmlns="http://www.w3.org/2000/svg" viewBox="0 0 96 96"><path d="M83.682 45.93C83.87 44.643 84 43.338 84 42c0-14.912-12.088-27-27-27-10.803 0-20.097 6.359-24.413 15.525A13.419 13.419 0 0 0 25.5 28.5C18.044 28.5 12 34.544 12 42c0 1.335.201 2.622.562 3.84C5.28 48.146 0 54.955 0 63c0 9.941 8.059 18 18 18h24V61.607l-3.697 3.697a3 3 0 0 1-4.243 0l-3.182-3.182a3 3 0 0 1 0-4.243l15-15a3 3 0 0 1 4.243 0l15 15a3 3 0 0 1 0 4.243l-3.182 3.182a3 3 0 0 1-4.243 0L54 61.607V81h24c9.941 0 18-8.059 18-18 0-7.953-5.164-14.689-12.318-17.07z"/></svg>