<svg xmlns="http://www.w3.org/2000/svg" viewBox="0 0 16 16"><path d="M5.5 11H5v-1c0-1.1-.9-2-2-2s-2 .9-2 2v1H.5c-.3 0-.5.2-.5.5v4c0 .3.2.5.5.5h5c.3 0 .5-.2.5-.5v-4c0-.3-.2-.5-.5-.5zM2 10c0-.6.4-1 1-1s1 .4 1 1v1H2v-1z"/><path d="M8 0C3.8 0 .4 3.2 0 7.3.6 6.6 1.4 6.2 2.3 6c.2-.4.4-.8.7-1.3 0 .2.2.3.4.3h1.4c.1 0 .3-.1.4-.1l.7-.7c0-.1.2-.2.3-.2h1.3c.3 0 .5.2.5.5v2.2c0 .2-.1.4-.3.4l-1.4.7c.3.4.4.8.6 1.2H7c.6 0 1 .4 1 1v6c4.4 0 8-3.6 8-8s-3.6-8-8-8zm0 2.5c0 .3-.2.5-.5.5H6.2c-.1 0-.3-.1-.3-.1l-.4-.4C6.3 2.2 7.1 2 8 2v.5zm2 2c0-.3.2-.5.5-.5h1.1c.2 0 .4-.1.5-.3.7.7 1.3 1.6 1.6 2.6l-.6.6s-.2.1-.3.1h-1.6c-.1 0-.3-.1-.4-.1l-.7-.7c0-.1-.1-.3-.1-.4V4.5zm.2 9.1l-.9-.4c-.2-.1-.3-.3-.3-.5v-2.4c0-.2.1-.4.3-.4l1.6-.8c.1-.1.1-.1.2-.1h1.8c.1 0 .1 0 .2.1l.7.4c-.4 1.8-1.8 3.4-3.6 4.1z"/></svg>