<svg xmlns="http://www.w3.org/2000/svg" viewBox="0 0 32 32"><path d="M32 15.6c0 8.6-7 15.6-15.7 15.6-2.8 0-5.3-.7-7.6-1.9L0 32l2.8-8.4c-1.4-2.3-2.3-5.1-2.3-8C.6 7 7.6 0 16.3 0 25 0 32 7 32 15.6M16.3 2.5C9 2.5 3.1 8.4 3.1 15.6c0 2.9.9 5.5 2.5 7.7L4 28.1l5-1.6c2.1 1.4 4.6 2.2 7.3 2.2 7.3 0 13.2-5.9 13.2-13.1S23.6 2.5 16.3 2.5m7.9 16.7c-.1-.2-.4-.3-.7-.4-.4-.2-2.3-1.1-2.6-1.2-.4-.1-.6-.2-.9.2-.3.4-1 1.2-1.2 1.5-.2.3-.4.3-.8.1-.4-.2-1.6-.6-3.1-1.9-1.1-1-1.9-2.3-2.1-2.6-.2-.4 0-.6.2-.8.2-.2.4-.4.6-.7.2-.2.3-.4.4-.6.1-.3.1-.5 0-.7-.1-.2-.9-2.1-1.2-2.8-.3-.8-.6-.6-.9-.6h-.7c-.3 0-.7.1-1 .5s-1.3 1.3-1.3 3.2c0 1.9 1.4 3.7 1.6 4 .2.3 2.7 4.2 6.6 5.8 3.9 1.5 3.9 1 4.6 1 .7-.1 2.3-.9 2.6-1.8 0-1.3 0-2.1-.1-2.2"/></svg>