<svg xmlns="http://www.w3.org/2000/svg" viewBox="0 0 24 24"><path fill="#010101" d="M11.2 9C10 9 9 10 9 11.2s1 2.2 2.2 2.2 2.2-1 2.2-2.2S12.5 9 11.2 9m3.8 9h-3c-3.3 0-6-2.7-6-6s2.7-6 6-6h3c3.3 0 6 2.7 6 6s-2.7 6-6 6m9-6c0-5-4-9-9-9h-2.4L10 .4C9.8.2 9.4 0 9 0c-.8 0-1.5.7-1.5 1.5v2.7c-2.3 1.3-3.9 3.6-4.4 6.3H1.5c-.8 0-1.5.7-1.5 1.5v3c0 .8.7 1.5 1.5 1.5h2.7c.8 1.4 1.9 2.5 3.3 3.3v2.7c0 .8.7 1.5 1.5 1.5h1.5c.8 0 1.5-.7 1.5-1.5V21h3v1.5c0 .8.7 1.5 1.5 1.5H18c.8 0 1.5-.7 1.5-1.5v-2.7c2.7-1.6 4.5-4.5 4.5-7.8"/></svg>