<svg xmlns="http://www.w3.org/2000/svg" viewBox="0 0 96 96"><path d="M15 96H9a3 3 0 0 1-3-3V69a3 3 0 0 1 3-3h6a3 3 0 0 1 3 3v24a3 3 0 0 1-3 3zM39 96h-6a3 3 0 0 1-3-3V51a3 3 0 0 1 3-3h6a3 3 0 0 1 3 3v42a3 3 0 0 1-3 3zM63 96h-6a3 3 0 0 1-3-3V63a3 3 0 0 1 3-3h6a3 3 0 0 1 3 3v30a3 3 0 0 1-3 3zM87 96h-6a3 3 0 0 1-3-3V51a3 3 0 0 1 3-3h6a3 3 0 0 1 3 3v42a3 3 0 0 1-3 3zM95.121 5.113L90.879.87C89.731-.278 87.892-.285 86.716.817h-.025L60.423 25.809l-20.827-15.62-.012.018A5.938 5.938 0 0 0 36 8.992a5.985 5.985 0 0 0-4.243 1.757L.879 41.628a3 3 0 0 0 0 4.243l4.243 4.243a3 3 0 0 0 4.243 0l26.342-26.342 20.698 15.523.012-.018a5.946 5.946 0 0 0 3.585 1.215 5.968 5.968 0 0 0 4.178-1.705h.01L95.067 9.409v-.017c.016-.016.038-.02.054-.036a3 3 0 0 0 0-4.243z"/></svg>