<svg data-name="Layer 1" xmlns="http://www.w3.org/2000/svg" viewBox="0 0 156 130"><path d="M153 2a1 1 0 0 1 1 1v124a1 1 0 0 1-1 1H3a1 1 0 0 1-1-1V3a1 1 0 0 1 1-1h150m0-2H3a3 3 0 0 0-3 3v124a3 3 0 0 0 3 3h150a3 3 0 0 0 3-3V3a3 3 0 0 0-3-3z"/><path d="M85 87H10a1 1 0 0 1-1-1V10a1 1 0 0 1 1-1h75a1 1 0 0 1 1 1v76a1 1 0 0 1-1 1zM145.91 46H92a1 1 0 0 1-1-1V10a1 1 0 0 1 1-1h54a1 1 0 0 1 1 1v35.12a1.08 1.08 0 0 1-1.09.88zM145.91 87H92a1 1 0 0 1-1-1V52a1 1 0 0 1 1-1h54a1 1 0 0 1 1 1v34a1.07 1.07 0 0 1-1.09 1z" fill="#d6d6d6"/></svg>