<svg version="1.1" id="Layer_1" xmlns="http://www.w3.org/2000/svg" x="0" y="0" viewBox="0 0 154 133" xml:space="preserve"><style>.st0{fill:#010101}.st5{fill:#fff}</style><path class="st0" d="M126.1 132.9H3c-1.6 0-3-1.4-3-3V28c0-1.7 1.3-3 3-3h123c1.6 0 3 1.4 3 3v102c0 1.6-1.3 2.9-2.9 2.9zM3 26.9c-.5 0-1 .5-1 1v102c0 .6.4 1 1 1h123c.5 0 1-.5 1-1V28c0-.6-.4-1-1-1H3z"/><path d="M7 106h90v8H7zm113.3-8.9H76c-.5 0-1-.5-1-1v-27c0-.6.4-1 1-1h45c.5 0 1 .5 1 1v26.3c0 1-.8 1.7-1.7 1.7z" fill="#b3bfc8"/><path class="st0" d="M120.3 98.1H76c-1.1 0-2-.9-2-2v-27c0-1.1.9-2 2-2h45c1.1 0 2 .9 2 2v26.3c0 1.5-1.2 2.7-2.7 2.7zM76 69.1v27h44.3c.3 0 .7-.3.7-.7V69.1H76z"/><path d="M120.3 62.1H76c-.5 0-1-.5-1-1v-27c0-.6.4-1 1-1h45c.5 0 1 .5 1 1v26.3c0 1-.8 1.7-1.7 1.7z" fill="#e3e8e9"/><path class="st0" d="M120.3 63.1H76c-1.1 0-2-.9-2-2v-27c0-1.1.9-2 2-2h45c1.1 0 2 .9 2 2v26.3c0 1.5-1.2 2.7-2.7 2.7zM76 34.1v27h44.3c.3 0 .7-.3.7-.7V34.1H76z"/><path d="M68 97.1H8c-.6 0-1-.4-1-1v-62c0-.6.4-1 1-1h60c.6 0 1 .4 1 1v62c0 .6-.4 1-1 1z" fill="#1db5e9"/><path d="M68 98.1H8c-1.1 0-2-.9-2-2v-62c0-1.1.9-2 2-2h60c1.1 0 2 .9 2 2v62c0 1.1-.9 2-2 2zm-60-64v62h60v-62H8z" fill="#231f20"/><circle class="st5" cx="128" cy="26.1" r="25.9"/><circle class="st5" cx="128" cy="26.1" r="26"/><path class="st0" d="M128.3 52.1v-2c1.1 0 2.2-.1 3.3-.3l.3 2c-1.3.2-2.5.3-3.6.3zm-3.6-.2c-1.2-.1-2.3-.4-3.5-.7l.5-1.9c1 .3 2.1.5 3.2.6l-.2 2zm10.5-.8l-.6-1.9c1-.3 2.1-.7 3.1-1.1l.8 1.8c-1 .4-2.1.9-3.3 1.2zm-17.3-1c-1.1-.5-2.1-1-3.2-1.6l1-1.7c.9.6 1.9 1 2.9 1.5l-.7 1.8zm23.8-1.9l-1.1-1.7c.9-.6 1.8-1.2 2.7-1.9l1.3 1.5c-.9.8-1.9 1.5-2.9 2.1zm-29.9-1.7c-.9-.7-1.8-1.5-2.6-2.4l1.4-1.4c.8.8 1.6 1.5 2.4 2.2l-1.2 1.6zm35.3-2.8l-1.5-1.4c.7-.8 1.4-1.7 2-2.5l1.6 1.1c-.5 1-1.3 1.9-2.1 2.8zm-40.2-2.3c-.7-1-1.3-2-1.9-3l1.8-.9c.5 1 1.1 1.9 1.7 2.8l-1.6 1.1zm44.3-3.5l-1.8-.9c.5-1 .9-2 1.3-3l1.9.7c-.4 1.1-.9 2.2-1.4 3.2zm-47.6-2.8c-.4-1.1-.7-2.2-1-3.4l2-.4c.2 1.1.5 2.1.9 3.1l-1.9.7zm49.9-3.9l-2-.4c.2-1.1.4-2.1.4-3.2l2 .1c0 1.2-.2 2.4-.4 3.5zm-51.4-3c-.1-.7-.1-1.4-.1-2.1v-1.4l2 .1v1.3c0 .7 0 1.3.1 2l-2 .1zm49.8-3.9c-.1-1.1-.2-2.2-.5-3.2l2-.4c.2 1.1.4 2.3.5 3.5l-2 .1zm-47.5-2.7l-2-.4c.2-1.2.5-2.3.9-3.4l1.9.6c-.3 1-.6 2.1-.8 3.2zm46.2-3.6c-.4-1-.8-2-1.3-3l1.8-.9c.5 1 1 2.1 1.4 3.2l-1.9.7zm-44.1-2.6l-1.8-.9c.5-1.1 1.1-2.1 1.8-3.1l1.7 1.1c-.6 1-1.2 1.9-1.7 2.9zm41.1-3.2c-.6-.9-1.3-1.7-2.1-2.5l1.5-1.4c.8.9 1.6 1.8 2.2 2.7l-1.6 1.2zM110.2 10l-1.5-1.3c.8-.9 1.6-1.7 2.5-2.5l1.3 1.5c-.8.7-1.6 1.5-2.3 2.3zm32.9-2.5c-.8-.7-1.7-1.3-2.7-1.9l1-1.7c1 .6 2 1.3 2.9 2l-1.2 1.6zm-27.9-1.7l-1.1-1.7c1-.6 2-1.2 3.1-1.7l.8 1.8c-1 .5-1.9 1-2.8 1.6zm22.3-1.7c-1-.4-2-.8-3.1-1.1l.5-1.9c1.1.3 2.3.7 3.3 1.2l-.7 1.8zm-16.4-1l-.6-1.9c1.1-.3 2.3-.6 3.5-.8l.3 2c-1.1.2-2.2.4-3.2.7zm10.2-.8c-1.1-.1-2.2-.2-3.3-.2h-.5v-2h.5c1.2 0 2.4.1 3.5.2l-.2 2zm3.7 22.8h-6v-6h-2v6h-6v2h6v6h2v-6h6z"/></svg>