<svg data-name="Layer 1" xmlns="http://www.w3.org/2000/svg" viewBox="0 0 96 64"><defs><linearGradient id="a" x1="-178.61" y1="136.69" x2="-178.61" y2="135.59" gradientTransform="matrix(96 0 0 -64 17195 8760)" gradientUnits="userSpaceOnUse"><stop offset="0" stop-color="#00adef"/><stop offset="1" stop-color="#006cef"/></linearGradient></defs><rect width="96" height="64" rx="3" ry="3" fill="url(#a)"/><g fill="#fff" data-name="Brand/Vimeo-Logo/Full/Light"><path d="M31.74 19.51c0 1.26-.95 3-2.68 5.18s-3.3 3.43-4.54 3.43c-.76 0-1.41-.69-1.94-2.09-.35-1.28-.71-2.56-1.06-3.83s-.82-2.1-1.27-2.1a4.3 4.3 0 0 0-1 .61l-.62-.78c.65-.56 1.29-1.13 1.92-1.69a4.27 4.27 0 0 1 1.95-1.16q1.53-.15 1.89 2.07c.25 1.59.43 2.58.53 3 .29 1.32.62 2 1 2s.69-.43 1.24-1.29a5.08 5.08 0 0 0 .89-2c.08-.73-.22-1.11-.89-1.11a2.52 2.52 0 0 0-1 .22c.65-2.09 1.88-3.1 3.7-3.05 1.36 0 2 .91 1.91 2.6"/><path d="M37.29 13.25a2 2 0 0 1-.74 1.39 2.66 2.66 0 0 1-1.89.75c-1.12 0-1.66-.48-1.62-1.45a2 2 0 0 1 .9-1.45 3 3 0 0 1 1.93-.69 1.32 1.32 0 0 1 1 .48 1.37 1.37 0 0 1 .38 1zm2.57 10.34a9.79 9.79 0 0 1-2.27 2.79 6.11 6.11 0 0 1-4 1.69 1.71 1.71 0 0 1-1.4-.58 2.14 2.14 0 0 1-.42-1.49 13.38 13.38 0 0 1 .61-3c.38-1.34.57-2.05.57-2.15 0-.5-.18-.76-.53-.76a3.39 3.39 0 0 0-1 .61l-.68-.78 1.89-1.69a4.17 4.17 0 0 1 1.89-1.16 1.46 1.46 0 0 1 1.43.56 2.43 2.43 0 0 1 .34 1.7c-.26 1.18-.53 2.67-.83 4.49 0 .83.29 1.25.92 1.25a3.33 3.33 0 0 0 1.47-.86 12.29 12.29 0 0 0 1.45-1.35z"/><path d="M58.3 23.59a9.79 9.79 0 0 1-2.3 2.79 6.11 6.11 0 0 1-4 1.69c-1.28 0-1.9-.7-1.86-2.09a10.27 10.27 0 0 1 .37-2.24 10.12 10.12 0 0 0 .37-2c0-.73-.21-1.1-.68-1.1s-1.13.6-1.84 1.8a8 8 0 0 0-1.21 3.67 4.35 4.35 0 0 0 .31 1.89 4.22 4.22 0 0 1-2.88-.67 2.56 2.56 0 0 1-.68-2.13 8 8 0 0 1 .29-1.86 7 7 0 0 0 .29-1.66c0-.71-.22-1.07-.8-1.07s-1 .55-1.59 1.66a8.38 8.38 0 0 0-1 3.46 6 6 0 0 0 .26 2.27 3.69 3.69 0 0 1-2.88-.84 3.09 3.09 0 0 1-.64-2.3 16.66 16.66 0 0 1 .27-2.1 16.66 16.66 0 0 0 .27-2.1c0-.35 0-.52-.27-.52a3.32 3.32 0 0 0-1 .58l-.71-.78c.1-.08.72-.64 1.86-1.69a4.32 4.32 0 0 1 1.68-1.16 1.3 1.3 0 0 1 1.24.62 2.72 2.72 0 0 1 .48 1.59 2.44 2.44 0 0 1-.06.55 5.45 5.45 0 0 1 1-1.16 5.23 5.23 0 0 1 3-1.31 2.21 2.21 0 0 1 2.07.67 2.75 2.75 0 0 1 .47 1.83l.45-.38A7.6 7.6 0 0 1 50 18.24a4.41 4.41 0 0 1 2.27-.87 2.21 2.21 0 0 1 2 .66 2.61 2.61 0 0 1 .47 1.83 12.86 12.86 0 0 1-.4 2.36A14.82 14.82 0 0 0 54 24a1.56 1.56 0 0 0 .12.85c.1.15.33.23.71.23a3.28 3.28 0 0 0 1.47-.86 11.55 11.55 0 0 0 1.45-1.35z"/><path d="M62.67 20.53c0-.52-.19-.79-.65-.79A2.41 2.41 0 0 0 60.23 21a4 4 0 0 0-.95 2.3 1.7 1.7 0 0 0 0 .37A6.48 6.48 0 0 0 61.79 22a2.8 2.8 0 0 0 .88-1.5zm6.71 3A9 9 0 0 1 66 26.35a12.77 12.77 0 0 1-6.35 1.77 3.77 3.77 0 0 1-3.42-1.57 4.19 4.19 0 0 1-.7-2.55 6.5 6.5 0 0 1 2.12-4.48 7.41 7.41 0 0 1 5.44-2.32c1.93 0 3 .77 3.07 2.32.08 1-.48 2-1.66 3a9 9 0 0 1-4.75 2.17 1.82 1.82 0 0 0 1.59.73A12 12 0 0 0 66 24.39a12.81 12.81 0 0 0 2.84-1.55z"/><path d="M74.06 21.5a3.58 3.58 0 0 0-.23-1.44q-.24-.66-.72-.66a2.87 2.87 0 0 0-2.48 1.6 5.61 5.61 0 0 0-.89 2.8 2.44 2.44 0 0 0 .26 1.29 1 1 0 0 0 .92.64 2.69 2.69 0 0 0 2.27-1.54 5.5 5.5 0 0 0 .86-2.69m3.33.11a6.84 6.84 0 0 1-2 4.62 6.26 6.26 0 0 1-4.69 1.95 4.31 4.31 0 0 1-3.54-1.48 4.72 4.72 0 0 1-1-2.76A6 6 0 0 1 68 19.35 7 7 0 0 1 73.35 17a3.74 3.74 0 0 1 3.13 1.37 4.62 4.62 0 0 1 .91 3.22"/></g><g style="isolation:isolate" fill="#fff"><path d="M33.54 33.29a5.76 5.76 0 0 1 1.91.3 4 4 0 0 1 1.48.88 3.88 3.88 0 0 1 .94 1.42 5.58 5.58 0 0 1 0 3.78 3.88 3.88 0 0 1-.94 1.42 4 4 0 0 1-1.48.88 5.76 5.76 0 0 1-1.91.3h-5.48V49h-1.49V33.29zM33.21 41a3.87 3.87 0 0 0 2.53-.79 2.93 2.93 0 0 0 1-2.42 2.93 2.93 0 0 0-1-2.42 3.87 3.87 0 0 0-2.53-.79h-5.15V41zM48 33.29a6.85 6.85 0 0 1 1.83.24 4.58 4.58 0 0 1 1.52.74 3.65 3.65 0 0 1 1 1.28 4.18 4.18 0 0 1 .38 1.83A4.43 4.43 0 0 1 52 40a3.55 3.55 0 0 1-2.29 1.41 3.57 3.57 0 0 1 1.28.41 2.5 2.5 0 0 1 .82.76 2.87 2.87 0 0 1 .46 1.07 7.25 7.25 0 0 1 .19 1.3c0 .27 0 .59.05 1s0 .77.08 1.16a8.94 8.94 0 0 0 .21 1.1 2.21 2.21 0 0 0 .39.8h-1.63a1.9 1.9 0 0 1-.21-.54 4.54 4.54 0 0 1-.11-.66l-.06-.67v-.57c0-.56-.08-1.11-.14-1.66a4.82 4.82 0 0 0-.42-1.48 2.57 2.57 0 0 0-.92-1A2.77 2.77 0 0 0 48 42h-5.68v7h-1.5V33.29zm-.11 7.46a4 4 0 0 0 1.29-.21 3.34 3.34 0 0 0 1.08-.6A3 3 0 0 0 51 39a2.92 2.92 0 0 0 .27-1.29 3.08 3.08 0 0 0-.83-2.29 3.51 3.51 0 0 0-2.55-.83h-5.57v6.18zM55.52 38a7.81 7.81 0 0 1 1.38-2.6 6.71 6.71 0 0 1 2.32-1.81 7.58 7.58 0 0 1 3.25-.59 7.42 7.42 0 0 1 3.23.67 6.59 6.59 0 0 1 2.3 1.77A7.66 7.66 0 0 1 69.4 38a10.71 10.71 0 0 1 0 6.21 7.52 7.52 0 0 1-1.4 2.63 6.68 6.68 0 0 1-2.31 1.8 7.42 7.42 0 0 1-3.23.67 7.58 7.58 0 0 1-3.25-.67 6.81 6.81 0 0 1-2.32-1.8 7.67 7.67 0 0 1-1.38-2.59 10.71 10.71 0 0 1 0-6.21zm1.37 5.63A6.9 6.9 0 0 0 58 45.89a5.4 5.4 0 0 0 1.84 1.57 6.36 6.36 0 0 0 5.35 0A5.46 5.46 0 0 0 67 45.89a6.68 6.68 0 0 0 1-2.22 9.28 9.28 0 0 0 0-5.05 6.45 6.45 0 0 0-1-2.21 5.38 5.38 0 0 0-1.83-1.58 6.36 6.36 0 0 0-5.35 0A5.32 5.32 0 0 0 58 36.41a6.66 6.66 0 0 0-1.06 2.21 9.71 9.71 0 0 0-.34 2.53 9.81 9.81 0 0 0 .29 2.52z"/></g></svg>