<svg id="podcast_icon" data-name="podcast icon" xmlns="http://www.w3.org/2000/svg" viewBox="0 0 211 232.4"><defs><style>.cls-1{fill:#231f20;}</style></defs><title>podcast</title><circle class="cls-1" cx="105.5" cy="96.5" r="24.8"/><path class="cls-1" d="M105.4,131.8c14.7,0,26.3,5.7,26.3,21s-7.3,63.7-7.3,63.7-2,16-19,16-19-15-19-15-7.3-47.3-7.3-64S90.7,131.8,105.4,131.8Z"/><path class="cls-1" d="M105.5,0A105.5,105.5,0,0,0,73.6,206.1c-0.7-4.5-1.4-9.8-2.2-15.7a91.5,91.5,0,1,1,67.8.2c-0.8,5.9-1.6,11.3-2.2,15.6A105.5,105.5,0,0,0,105.5,0Z"/><path class="cls-1" d="M105.5,34.5a71.1,71.1,0,0,0-71,71c0,25.2,14.2,48.4,34.1,61-0.2-6.6-1.4-13.8-1.5-18.9a57,57,0,1,1,76.5.2c-0.1,5.1-1.3,12.2-1.5,18.9,20-12.6,34.4-35.8,34.4-61.2A71.1,71.1,0,0,0,105.5,34.5Z"/></svg>