<?xml version="1.0" encoding="utf-8"?>
<!-- Generator: Adobe Illustrator 22.0.1, SVG Export Plug-In . SVG Version: 6.00 Build 0)  -->
<svg version="1.1" id="Layer_1" xmlns="http://www.w3.org/2000/svg" xmlns:xlink="http://www.w3.org/1999/xlink" x="0px" y="0px"
	 viewBox="0 0 154 133" style="enable-background:new 0 0 154 133;" xml:space="preserve">
<style type="text/css">
	.st0{fill:#010101;}
	.st1{fill:#B3BFC8;}
	.st2{fill:#E3E8E9;}
	.st3{fill:#1DB5E9;}
	.st4{fill:#231F20;}
	.st5{fill:#FFFFFF;}
</style>
<path class="st0" d="M126.1,132.9H3c-1.6,0-3-1.4-3-3V28c0-1.7,1.3-3,3-3h123c1.6,0,3,1.4,3,3v102
	C129,131.6,127.7,132.9,126.1,132.9z M3,26.9c-0.5,0-1,0.5-1,1v102c0,0.6,0.4,1,1,1h123c0.5,0,1-0.5,1-1V28c0-0.6-0.4-1-1-1H3z"/>
<rect x="7" y="106" class="st1" width="90" height="8"/>
<g>
	<g>
		<path class="st1" d="M120.3,97.1H76c-0.5,0-1-0.5-1-1v-27c0-0.6,0.4-1,1-1h45c0.5,0,1,0.5,1,1v26.3
			C122,96.4,121.2,97.1,120.3,97.1z"/>
		<path class="st0" d="M120.3,98.1H76c-1.1,0-2-0.9-2-2v-27c0-1.1,0.9-2,2-2h45c1.1,0,2,0.9,2,2v26.3
			C123,96.9,121.8,98.1,120.3,98.1z M76,69.1l0,27l44.3,0c0.3,0,0.7-0.3,0.7-0.7V69.1L76,69.1z"/>
	</g>
	<g>
		<g>
			<path class="st2" d="M120.3,62.1H76c-0.5,0-1-0.5-1-1v-27c0-0.6,0.4-1,1-1h45c0.5,0,1,0.5,1,1v26.3
				C122,61.4,121.2,62.1,120.3,62.1z"/>
		</g>
		<path class="st0" d="M120.3,63.1H76c-1.1,0-2-0.9-2-2v-27c0-1.1,0.9-2,2-2h45c1.1,0,2,0.9,2,2v26.3
			C123,61.9,121.8,63.1,120.3,63.1z M76,34.1l0,27l44.3,0c0.3,0,0.7-0.3,0.7-0.7V34.1L76,34.1z"/>
	</g>
	<g>
		<path class="st3" d="M68,97.1H8c-0.6,0-1-0.4-1-1v-62c0-0.6,0.4-1,1-1h60c0.6,0,1,0.4,1,1v62C69,96.7,68.6,97.1,68,97.1z"/>
		<path class="st4" d="M68,98.1H8c-1.1,0-2-0.9-2-2v-62c0-1.1,0.9-2,2-2h60c1.1,0,2,0.9,2,2v62C70,97.2,69.1,98.1,68,98.1z M8,34.1
			v62h60l0-62H8z"/>
	</g>
</g>
<g>
	<g>
		<g>
			<circle class="st5" cx="128" cy="26.1" r="25.9"/>
			<circle class="st5" cx="128" cy="26.1" r="26"/>
		</g>
		<path class="st0" d="M128.3,52.1l0-2c1.1,0,2.2-0.1,3.3-0.3l0.3,2C130.6,52,129.4,52.1,128.3,52.1z M124.7,51.9
			c-1.2-0.1-2.3-0.4-3.5-0.7l0.5-1.9c1,0.3,2.1,0.5,3.2,0.6L124.7,51.9z M135.2,51.1l-0.6-1.9c1-0.3,2.1-0.7,3.1-1.1l0.8,1.8
			C137.5,50.3,136.4,50.8,135.2,51.1z M117.9,50.1c-1.1-0.5-2.1-1-3.2-1.6l1-1.7c0.9,0.6,1.9,1,2.9,1.5L117.9,50.1z M141.7,48.2
			l-1.1-1.7c0.9-0.6,1.8-1.2,2.7-1.9l1.3,1.5C143.7,46.9,142.7,47.6,141.7,48.2z M111.8,46.5c-0.9-0.7-1.8-1.5-2.6-2.4l1.4-1.4
			c0.8,0.8,1.6,1.5,2.4,2.2L111.8,46.5z M147.1,43.7l-1.5-1.4c0.7-0.8,1.4-1.7,2-2.5l1.6,1.1C148.7,41.9,147.9,42.8,147.1,43.7z
			 M106.9,41.4c-0.7-1-1.3-2-1.9-3l1.8-0.9c0.5,1,1.1,1.9,1.7,2.8L106.9,41.4z M151.2,37.9l-1.8-0.9c0.5-1,0.9-2,1.3-3l1.9,0.7
			C152.2,35.8,151.7,36.9,151.2,37.9z M103.6,35.1c-0.4-1.1-0.7-2.2-1-3.4l2-0.4c0.2,1.1,0.5,2.1,0.9,3.1L103.6,35.1z M153.5,31.2
			l-2-0.4c0.2-1.1,0.4-2.1,0.4-3.2l2,0.1C153.9,28.9,153.7,30.1,153.5,31.2z M102.1,28.2c-0.1-0.7-0.1-1.4-0.1-2.1
			c0-0.5,0-0.9,0-1.4l2,0.1c0,0.4,0,0.9,0,1.3c0,0.7,0,1.3,0.1,2L102.1,28.2z M151.9,24.3c-0.1-1.1-0.2-2.2-0.5-3.2l2-0.4
			c0.2,1.1,0.4,2.3,0.5,3.5L151.9,24.3z M104.4,21.6l-2-0.4c0.2-1.2,0.5-2.3,0.9-3.4l1.9,0.6C104.9,19.4,104.6,20.5,104.4,21.6z
			 M150.6,18c-0.4-1-0.8-2-1.3-3l1.8-0.9c0.5,1,1,2.1,1.4,3.2L150.6,18z M106.5,15.4l-1.8-0.9c0.5-1.1,1.1-2.1,1.8-3.1l1.7,1.1
			C107.6,13.5,107,14.4,106.5,15.4z M147.6,12.2c-0.6-0.9-1.3-1.7-2.1-2.5l1.5-1.4c0.8,0.9,1.6,1.8,2.2,2.7L147.6,12.2z M110.2,10
			l-1.5-1.3c0.8-0.9,1.6-1.7,2.5-2.5l1.3,1.5C111.7,8.4,110.9,9.2,110.2,10z M143.1,7.5c-0.8-0.7-1.7-1.3-2.7-1.9l1-1.7
			c1,0.6,2,1.3,2.9,2L143.1,7.5z M115.2,5.8l-1.1-1.7c1-0.6,2-1.2,3.1-1.7l0.8,1.8C117,4.7,116.1,5.2,115.2,5.8z M137.5,4.1
			c-1-0.4-2-0.8-3.1-1.1l0.5-1.9c1.1,0.3,2.3,0.7,3.3,1.2L137.5,4.1z M121.1,3.1l-0.6-1.9c1.1-0.3,2.3-0.6,3.5-0.8l0.3,2
			C123.2,2.6,122.1,2.8,121.1,3.1z M131.3,2.3c-1.1-0.1-2.2-0.2-3.3-0.2l-0.5,0l0-2l0.5,0c1.2,0,2.4,0.1,3.5,0.2L131.3,2.3z"/>
	</g>
	<polygon class="st0" points="135,25.1 129,25.1 129,19.1 127,19.1 127,25.1 121,25.1 121,27.1 127,27.1 127,33.1 129,33.1 
		129,27.1 135,27.1 	"/>
</g>
</svg>
