<svg id="Layer_1" data-name="Layer 1" xmlns="http://www.w3.org/2000/svg" viewBox="0 0 156 130"><title>albums_emptystate</title><path d="M153,2a1,1,0,0,1,1,1V127a1,1,0,0,1-1,1H3a1,1,0,0,1-1-1V3A1,1,0,0,1,3,2H153m0-2H3A3,3,0,0,0,0,3V127a3,3,0,0,0,3,3H153a3,3,0,0,0,3-3V3a3,3,0,0,0-3-3Z"/><path d="M85,87H10a1,1,0,0,1-1-1V10a1,1,0,0,1,1-1H85a1,1,0,0,1,1,1V86A1,1,0,0,1,85,87Z" fill="#d6d6d6"/><path d="M145.91,46H92a1,1,0,0,1-1-1V10a1,1,0,0,1,1-1h54a1,1,0,0,1,1,1V45.12A1.08,1.08,0,0,1,145.91,46Z" fill="#d6d6d6"/><path d="M145.91,87H92a1,1,0,0,1-1-1V52a1,1,0,0,1,1-1h54a1,1,0,0,1,1,1V86A1.07,1.07,0,0,1,145.91,87Z" fill="#d6d6d6"/></svg>