<?xml version="1.0" encoding="UTF-8"?>
<svg width="200px" height="96px" viewBox="0 0 200 96" version="1.1" xmlns="http://www.w3.org/2000/svg" xmlns:xlink="http://www.w3.org/1999/xlink">
    <!-- Generator: Sketch 52.2 (67145) - http://www.bohemiancoding.com/sketch -->
    <title>Icon/light</title>
    <desc>Created with Sketch.</desc>
    <g id="Explore" stroke="none" stroke-width="1" fill="none" fill-rule="evenodd">
        <g id="Album-—-Feature-—-Public-View-—-Light-—-CH" transform="translate(-620.000000, -558.000000)">
            <g id="Group-2" transform="translate(557.000000, 558.000000)">
                <g id="Icon/light" transform="translate(63.000000, 0.000000)">
                    <g id="Stars">
                        <polygon id="Fill-1" fill="#D6D6D6" points="191.902024 11.3555107 187.044534 12.9786535 191.902024 14.6009852 193.522267 19.4671691 195.1417 14.6009852 199.99919 12.9786535 199.99919 12.9778424 195.1417 11.3555107 193.522267 6.48932677"></polygon>
                        <path d="M163.963964,2.43349754 C163.963964,1.0902069 165.052223,0 166.393114,0 C167.734814,0 168.822264,1.0902069 168.822264,2.43349754 C168.822264,3.77759934 167.734814,4.86699507 166.393114,4.86699507 C165.052223,4.86699507 163.963964,3.77759934 163.963964,2.43349754" id="Fill-2" fill="#D6D6D6"></path>
                        <path d="M178.191903,34.9896388 C178.191903,30.4925353 174.530364,26.8236322 170.040486,26.8236322 C174.530364,26.8236322 178.191903,23.1547291 178.191903,18.6568144 C178.191903,23.1547291 181.854251,26.8236322 186.34332,26.8236322 C181.854251,26.8236322 178.191903,30.4925353 178.191903,34.9896388 Z" id="Stroke-4" stroke="#1A2E3B" stroke-width="1.62000002"></path>
                        <polygon id="Fill-7" fill="#1A2E3B" points="143.880972 4.21051856 144.868016 7.17695205 147.82915 8.16576322 144.868016 9.15457438 143.880972 12.1210079 142.893927 9.15457438 139.932794 8.16576322 142.893927 7.17695205"></polygon>
                        <polygon id="Fill-11" fill="#1A2E3B" points="172.203725 52.7260233 173.255547 54.6509199 175.177004 55.7046243 173.255547 56.7575176 172.203725 58.6824141 171.152713 56.7575176 169.230445 55.7046243 171.152713 54.6509199"></polygon>
                        <path d="M173.002632,60.2141791 C173.309514,60.521611 173.309514,61.020478 173.002632,61.328721 C172.694939,61.6361529 172.196964,61.6361529 171.890081,61.328721 C171.583198,61.020478 171.583198,60.521611 171.890081,60.2141791 C172.196964,59.9067473 172.694939,59.9067473 173.002632,60.2141791" id="Fill-14" fill="#1A2E3B"></path>
                        <path d="M41.8285425,7.5310665 C42.1354251,7.83849836 42.1354251,8.33736535 41.8285425,8.64560837 C41.5208502,8.95304023 41.0228745,8.95304023 40.7159919,8.64560837 C40.4091093,8.33736535 40.4091093,7.83849836 40.7159919,7.5310665 C41.0228745,7.22363465 41.5208502,7.22363465 41.8285425,7.5310665" id="Fill-14-Copy" fill="#E8EAEB"></path>
                        <polygon id="Fill-1" fill="#D6D6D6" points="4.85748988 25.14533 0 26.7684729 4.85748988 28.3908046 6.47773279 33.2569885 8.09716599 28.3908046 12.9546559 26.7684729 12.9546559 26.7676617 8.09716599 25.14533 6.47773279 20.2791461"></polygon>
                        <path d="M27.5303644,17.0344828 C27.5303644,15.6911921 28.6186235,14.6009852 29.9595142,14.6009852 C31.3012146,14.6009852 32.388664,15.6911921 32.388664,17.0344828 C32.388664,18.3785846 31.3012146,19.4679803 29.9595142,19.4679803 C28.6186235,19.4679803 27.5303644,18.3785846 27.5303644,17.0344828" id="Fill-2" fill="#1A2E3B"></path>
                        <path d="M30.0137652,49.590624 C30.0137652,45.0935205 26.3522267,41.4246174 21.8623482,41.4246174 C26.3522267,41.4246174 30.0137652,37.7557143 30.0137652,33.2577997 C30.0137652,37.7557143 33.6761134,41.4246174 38.1651822,41.4246174 C33.6761134,41.4246174 30.0137652,45.0935205 30.0137652,49.590624 Z" id="Stroke-4" stroke="#1A2E3B" stroke-width="1.62000002"></path>
                        <polygon id="Fill-11" fill="#E8EAEB" points="41.0299595 0 42.0817814 1.92489655 44.0032389 2.97860099 42.0817814 4.03149425 41.0299595 5.9563908 39.9789474 4.03149425 38.0566802 2.97860099 39.9789474 1.92489655"></polygon>
                    </g>
                    <g id="Video" transform="translate(47.747748, 24.428571)">
                        <polygon id="Stroke-2" stroke="#1A2E3B" stroke-width="3.24000004" fill="#EEF1F2" points="0 69.7602627 104.453441 69.7602627 104.453441 0 0 0"></polygon>
                        <path d="M27.5303644,55.9704433 L93.9271255,55.9704433 L27.5303644,55.9704433 Z" id="Fill-4" fill="#E8EAEB"></path>
                        <path d="M93.9271255,55.9704433 L27.5303644,55.9704433" id="Stroke-5" stroke="#1A2E3B" stroke-width="3.24000004"></path>
                        <polygon id="Fill-7" fill="#1A2E3B" points="21.0526316 54.7519842 10.5263158 48.6699507 10.5263158 60.8374384"></polygon>
                    </g>
                </g>
            </g>
        </g>
    </g>
</svg>