<?xml version="1.0" encoding="UTF-8"?>
<svg width="200px" height="96px" viewBox="0 0 200 96" version="1.1" xmlns="http://www.w3.org/2000/svg" xmlns:xlink="http://www.w3.org/1999/xlink">
    <!-- Generator: Sketch 52.2 (67145) - http://www.bohemiancoding.com/sketch -->
    <title>Icon/dark</title>
    <desc>Created with Sketch.</desc>
    <g id="Explore" stroke="none" stroke-width="1" fill="none" fill-rule="evenodd">
        <g id="Album-—-Feature-—-Public-View-—-Dark-—-CH" transform="translate(-620.000000, -558.000000)">
            <g id="Icon/dark" transform="translate(620.000000, 558.000000)">
                <g id="Stars">
                    <polygon id="Fill-1" fill="#E3E8E9" points="191.902024 11.235979 187.044534 12.8420361 191.902024 14.4472906 193.522267 19.2622516 195.1417 14.4472906 199.99919 12.8420361 199.99919 12.8412335 195.1417 11.235979 193.522267 6.42101806"></polygon>
                    <path d="M163.562753,2.40788177 C163.562753,1.07873103 164.651012,0 165.991903,0 C167.333603,0 168.421053,1.07873103 168.421053,2.40788177 C168.421053,3.73783514 167.333603,4.81576355 165.991903,4.81576355 C164.651012,4.81576355 163.562753,3.73783514 163.562753,2.40788177" id="Fill-2" fill="#E3E8E9"></path>
                    <path d="M178.191903,34.6213268 C178.191903,30.1715612 174.530364,26.5412782 170.040486,26.5412782 C174.530364,26.5412782 178.191903,22.9109951 178.191903,18.4604269 C178.191903,22.9109951 181.854251,26.5412782 186.34332,26.5412782 C181.854251,26.5412782 178.191903,30.1715612 178.191903,34.6213268 Z" id="Stroke-4" stroke="#8699A6" stroke-width="1.61999991"></path>
                    <polygon id="Fill-7" fill="#8699A6" points="143.880972 4.16619731 144.868016 7.10140519 147.82915 8.07980782 144.868016 9.05821044 143.880972 11.9934183 142.893927 9.05821044 139.932794 8.07980782 142.893927 7.10140519"></polygon>
                    <polygon id="Fill-11" fill="#E3E8E9" points="172.203725 52.1710125 173.255547 54.075647 175.177004 55.1182598 173.255547 56.16007 172.203725 58.0647045 171.152713 56.16007 169.230445 55.1182598 171.152713 54.075647"></polygon>
                    <path d="M173.002632,59.5803457 C173.309514,59.8845414 173.309514,60.3781572 173.002632,60.6831555 C172.694939,60.9873513 172.196964,60.9873513 171.890081,60.6831555 C171.583198,60.3781572 171.583198,59.8845414 171.890081,59.5803457 C172.196964,59.27615 172.694939,59.27615 173.002632,59.5803457" id="Fill-14" fill="#E3E8E9"></path>
                    <path d="M41.8285425,7.45179212 C42.1354251,7.75598785 42.1354251,8.24960361 41.8285425,8.55460197 C41.5208502,8.8587977 41.0228745,8.8587977 40.7159919,8.55460197 C40.4091093,8.24960361 40.4091093,7.75598785 40.7159919,7.45179212 C41.0228745,7.14759639 41.5208502,7.14759639 41.8285425,7.45179212" id="Fill-14-Copy" fill="#E3E8E9"></path>
                    <polygon id="Fill-1" fill="#E3E8E9" points="4.85748988 24.8806424 0 26.4866995 4.85748988 28.091954 6.47773279 32.9069149 8.09716599 28.091954 12.9546559 26.4866995 12.9546559 26.4858969 8.09716599 24.8806424 6.47773279 20.0656814"></polygon>
                    <path d="M27.5303644,16.8551724 C27.5303644,15.5260217 28.6186235,14.4472906 29.9595142,14.4472906 C31.3012146,14.4472906 32.388664,15.5260217 32.388664,16.8551724 C32.388664,18.1851258 31.3012146,19.2630542 29.9595142,19.2630542 C28.6186235,19.2630542 27.5303644,18.1851258 27.5303644,16.8551724" id="Fill-2" fill="#8699A6"></path>
                    <path d="M30.0137652,49.0686174 C30.0137652,44.6188519 26.3522267,40.9885688 21.8623482,40.9885688 C26.3522267,40.9885688 30.0137652,37.3582857 30.0137652,32.9077176 C30.0137652,37.3582857 33.6761134,40.9885688 38.1651822,40.9885688 C33.6761134,40.9885688 30.0137652,44.6188519 30.0137652,49.0686174 Z" id="Stroke-4" stroke="#8699A6" stroke-width="1.61999991"></path>
                    <polygon id="Fill-11" fill="#E3E8E9" points="41.0299595 0 42.0817814 1.90463448 44.0032389 2.94724729 42.0817814 3.98905747 41.0299595 5.89369195 39.9789474 3.98905747 38.0566802 2.94724729 39.9789474 1.90463448"></polygon>
                </g>
                <g id="Video" transform="translate(47.747748, 24.171429)">
                    <polygon id="Stroke-2" stroke="#657987" stroke-width="3.23999983" fill="#B3BFC8" points="0 69.76 104.453441 69.76 104.453441 0 0 0"></polygon>
                    <path d="M93.9271255,55.3812808 L27.5303644,55.3812808" id="Stroke-5" stroke="#657987" stroke-width="3.23999983"></path>
                    <polygon id="Fill-7" fill="#657987" points="21.0526316 54.1756475 10.5263158 48.1576355 10.5263158 60.1970443"></polygon>
                </g>
            </g>
        </g>
    </g>
</svg>