<svg id="Layer_1" xmlns="http://www.w3.org/2000/svg" viewBox="0 0 176 82"><path d="M87,2a40,40,0,1,0,40,40A40,40,0,0,0,87,2Zm18.41,58.41a2,2,0,0,1-2.82,0l-8-8a2,2,0,0,1-.48-.77,15.54,15.54,0,1,1,2.53-2.53,2,2,0,0,1,.77.48l8,8A2,2,0,0,1,105.41,60.41Z" fill="#8699a6"/><circle cx="84.5" cy="39.5" r="11.5" fill="#8699a6"/><path id="Fill-2" d="M22,26a3,3,0,1,1,3,3,3,3,0,0,1-3-3" fill="#8699a6"/><path id="Fill-2-Copy-2" d="M149,46.49A1.5,1.5,0,1,1,150.5,48a1.5,1.5,0,0,1-1.5-1.49" fill="#d6d6d6"/><path id="Fill-2-Copy-3" d="M129,2.49A1.5,1.5,0,1,1,130.5,4,1.5,1.5,0,0,1,129,2.49" fill="#d6d6d6"/><path id="Stroke-4" d="M143,74a3,3,0,0,0-3-3,3,3,0,0,0,3-3,3,3,0,0,0,3,3A3,3,0,0,0,143,74Z" fill="#657987"/><polygon id="Fill-7" points="37.78 3 39.23 7.31 43.56 8.75 39.23 10.19 37.78 14.49 36.34 10.19 32 8.75 36.34 7.31 37.78 3" fill="#e8eaeb"/><path id="Fill-10" d="M138.12,30.29a4.44,4.44,0,0,0-4-4,.1.1,0,0,1,0-.19,4.36,4.36,0,0,0,4-4,.09.09,0,0,1,.18,0,4.32,4.32,0,0,0,4,4,.1.1,0,0,1,0,.19,4.4,4.4,0,0,0-4,4,.09.09,0,0,1-.18,0" fill="#657987"/><path id="Fill-10-Copy" d="M27.12,75.29a4.44,4.44,0,0,0-4-4,.1.1,0,0,1,0-.19,4.36,4.36,0,0,0,4-4,.09.09,0,0,1,.18,0,4.32,4.32,0,0,0,4,4,.1.1,0,0,1,0,.19,4.4,4.4,0,0,0-4,4,.09.09,0,0,1-.18,0" fill="#657987"/><polygon id="Fill-12" points="4.88 42 6.09 45.63 9.75 46.85 6.09 48.06 4.88 51.69 3.66 48.06 0 46.85 3.66 45.63 4.88 42" fill="#d6d6d6"/><path id="Fill-14" d="M15,2.2l1.26.41a.85.85,0,0,1,.53.53l.42,1.25.42-1.25a.85.85,0,0,1,.53-.53l1.26-.41-1.26-.42a.85.85,0,0,1-.53-.53L17.21,0l-.42,1.25a.85.85,0,0,1-.53.53Z" fill="#8699a6"/><polygon id="Fill-16" points="155.67 5 156.97 7.36 159.34 8.65 156.97 9.94 155.67 12.3 154.37 9.94 152 8.65 154.37 7.36 155.67 5" fill="#657987"/><path id="Fill-18" d="M156.66,14.28a1,1,0,0,1,0,1.37,1,1,0,0,1-1.38-1.37,1,1,0,0,1,1.38,0" fill="#657987"/><path id="Fill-18-Copy-2" d="M162.66,64.28a1,1,0,0,1,0,1.37,1,1,0,0,1-1.38-1.37,1,1,0,0,1,1.38,0" fill="#657987"/><path id="Fill-18-Copy" d="M21.66,53.28a1,1,0,0,1,0,1.37,1,1,0,1,1-1.38-1.37,1,1,0,0,1,1.38,0" fill="#d6d6d6"/><polygon id="Fill-1" points="169.74 33.71 165.97 34.96 169.74 36.21 171 39.96 172.26 36.21 176.03 34.96 172.26 33.71 171 29.96 169.74 33.71" fill="#d6d6d6"/></svg>