<?xml version="1.0" encoding="UTF-8"?>
<svg width="96px" height="64px" viewBox="0 0 96 64" version="1.1" xmlns="http://www.w3.org/2000/svg" xmlns:xlink="http://www.w3.org/1999/xlink">
    <defs>
        <linearGradient x1="40.3523763%" y1="18.0664062%" x2="40.3523773%" y2="128.320312%" id="linearGradient-1">
            <stop stop-color="#00ADEF" offset="0%"></stop>
            <stop stop-color="#006CEF" offset="100%"></stop>
        </linearGradient>
    </defs>
    <g id="Page-1" stroke="none" stroke-width="1" fill="none" fill-rule="evenodd">
        <g id="VImeo-Plus-Logo">
            <g id="Plus-Logo">
                <rect id="Thumbnail" fill="url(#linearGradient-1)" x="0" y="0" width="96" height="64" rx="3"></rect>
                <g id="Brand/Vimeo-Logo/Full/Light" transform="translate(13.000000, 9.000000)" fill="#FFFFFF">
                    <g id="vimeo-logo" transform="translate(5.600000, 2.800000)">
                        <path d="M13.1447333,7.7063908 C13.0860667,8.96813136 12.1920667,10.6956847 10.4626,12.8885255 C8.6746,15.1788374 7.1618,16.3241905 5.92433333,16.3241905 C5.15793333,16.3241905 4.509,15.6269163 3.97913333,14.231711 C3.6254,12.9530246 3.27153333,11.6743383 2.91766667,10.3956519 C2.5242,9.00123481 2.1022,8.30317241 1.65086667,8.30317241 C1.55246667,8.30317241 1.2082,8.50731034 0.618733333,8.91374713 L6.66666666e-05,8.12806568 C0.649,7.56609524 1.28926667,7.00412479 1.91926667,6.44123481 C2.78473333,5.70415764 3.4346,5.31650575 3.8678,5.27735961 C4.89126667,5.18041379 5.52126667,5.8699376 5.7578,7.34593103 C6.01313333,8.93831199 6.19006667,9.92878818 6.28926667,10.3165714 C6.58446667,11.637688 6.90886667,12.2976552 7.26366667,12.2976552 C7.53886667,12.2976552 7.9522,11.8690181 8.50366667,11.0121379 C9.0542,10.1549951 9.3494,9.50290969 9.38913333,9.05483087 C9.46766667,8.31512644 9.17246667,7.94442036 8.50366667,7.94442036 C8.18873333,7.94442036 7.8642,8.01588177 7.53033333,8.15696552 C8.1766,6.07052874 9.41153333,5.0571954 11.2340667,5.11486371 C12.5855333,5.15400985 13.2224667,6.01785222 13.1447333,7.7063908" id="Fill-1"></path>
                        <path d="M18.6927067,1.4470936 C18.6729733,1.92998358 18.4269733,2.39343186 17.95404,2.8371757 C17.42244,3.33885057 16.79244,3.58975369 16.0641733,3.58975369 C14.9423067,3.58975369 14.4003067,3.10765189 14.44004,2.14252874 C14.4589733,1.64098522 14.75924,1.15809524 15.34004,0.694646962 C15.9209733,0.232118227 16.5655067,0 17.27484,0 C17.6881733,0 18.0325733,0.159868637 18.3087067,0.477898194 C18.58404,0.796715928 18.7117733,1.11973727 18.6927067,1.4470936 L18.6927067,1.4470936 Z M21.2617733,11.7933662 C20.7103067,12.8203612 19.9527067,13.7505419 18.9879067,14.5837767 C17.6683067,15.7077176 16.3497733,16.2698194 15.03124,16.2698194 C14.4201733,16.2698194 13.95244,16.0759278 13.62804,15.6881445 C13.3035067,15.3004926 13.15084,14.7972414 13.1707067,14.1764204 C13.18964,13.5372085 13.3915067,12.5484401 13.7755067,11.2109031 C14.15964,9.87349754 14.35204,9.15599343 14.35204,9.05904762 C14.35204,8.55566502 14.1741733,8.30318555 13.82044,8.30318555 C13.7021733,8.30318555 13.3673733,8.50732348 12.8159067,8.91376026 L12.13684,8.12807882 C12.7667067,7.56610837 13.3967067,7.00413793 14.0267067,6.44124795 C14.87324,5.70417077 15.50324,5.31638752 15.9175067,5.27737274 C16.56644,5.21957307 17.04364,5.407422 17.3491067,5.84275862 C17.6537733,6.27796388 17.76684,6.84256158 17.6891067,7.53812808 C17.43284,8.71737274 17.1565733,10.2145156 16.8615067,12.0304762 C16.84164,12.8620033 17.1471067,13.2769787 17.7771067,13.2769787 C18.05244,13.2769787 18.5443067,12.9904762 19.25364,12.4157635 C19.8439067,11.9378654 20.3263067,11.4882102 20.70084,11.0664039 L21.2617733,11.7933662 Z" id="Fill-3"></path>
                        <path d="M39.703,11.7933268 C39.1515333,12.8203218 38.3939333,13.7505025 37.429,14.5837373 C36.1096667,15.7078095 34.7908667,16.26978 33.4724667,16.26978 C32.1916667,16.26978 31.5722,15.5726371 31.6116667,14.1765123 C31.6307333,13.5558227 31.7542,12.8102069 31.9802,11.9379573 C32.2063333,11.0655764 32.3298,10.387087 32.3496667,9.90248933 C32.3695333,9.16620033 32.1424667,8.79720197 31.6678,8.79720197 C31.1544667,8.79720197 30.5426,9.39910673 29.8315333,10.6013399 C29.0807333,11.8621609 28.6751333,13.0839672 28.6164667,14.2666273 C28.5767333,15.1015698 28.6595333,15.7418325 28.865,16.1872841 C27.4911333,16.2264302 26.5287333,16.0028506 25.9799333,15.5181215 C25.4880667,15.0913235 25.2628667,14.3840657 25.3026,13.3943777 C25.3215333,12.773688 25.4182,12.1529984 25.5924667,11.5324401 C25.7659333,10.9117504 25.8626,10.3591067 25.8824667,9.87358949 C25.9222,9.15608539 25.6555333,8.79720197 25.0842,8.79720197 C24.5906,8.79720197 24.0580667,9.35063383 23.4868667,10.4559212 C22.9155333,11.5612085 22.5998,12.7158883 22.541,13.9181215 C22.5012667,15.004624 22.5720667,15.760486 22.7524667,16.1872841 C21.401,16.2264302 20.4414,15.9457077 19.8735333,15.3455107 C19.4024667,14.843179 19.1875333,14.0795665 19.2272667,13.0542791 C19.2462,12.5516847 19.3359333,11.8503383 19.4982,10.9507652 C19.6604667,10.0511921 19.751,9.35063383 19.7700667,8.84738259 C19.8088667,8.49966502 19.7199333,8.32534647 19.5042,8.32534647 C19.3859333,8.32534647 19.0511333,8.52173399 18.4998,8.91372085 L17.7912667,8.12817077 C17.8896667,8.05158621 18.5092667,7.48869622 19.6518,6.44120854 C20.4784667,5.68547783 21.0394,5.29769458 21.3346,5.27812151 C21.8463333,5.23910673 22.2596667,5.44731691 22.5747333,5.90314614 C22.8896667,6.35884401 23.0475333,6.88757964 23.0475333,7.48869622 C23.0475333,7.68258785 23.0278,7.86702135 22.989,8.04147126 C23.2840667,7.59588834 23.6283333,7.20731691 24.0227333,6.8774647 C24.9279333,6.10202956 25.9420667,5.66498522 27.0639333,5.56803941 C28.0287333,5.49066667 28.7174,5.71345813 29.1316667,6.23720197 C29.4655333,6.664 29.6226,7.27536289 29.6036667,8.07023974 C29.7418,7.95464039 29.8892667,7.82800657 30.0472667,7.69191461 C30.4995333,7.16830213 30.9422,6.75161905 31.3754,6.44120854 C32.1036667,5.9174647 32.8622,5.62675862 33.6492667,5.56803941 C34.5942,5.49066667 35.2732667,5.71266995 35.6867333,6.23470608 C36.0404667,6.65979639 36.1984667,7.26853202 36.1596667,8.06012479 C36.1396667,8.60160263 36.0068667,9.38899179 35.761,10.4228177 C35.5140667,11.4566437 35.3915333,12.0501412 35.3915333,12.2048867 C35.3718,12.6113235 35.4115333,12.8909951 35.5098,13.0457406 C35.6082,13.200486 35.8438,13.2769392 36.2183333,13.2769392 C36.4936667,13.2769392 36.9854,12.9904368 37.6948667,12.4157241 C38.2851333,11.9379573 38.7674,11.4881708 39.1420667,11.0664959 L39.703,11.7933268 Z" id="Fill-5"></path>
                        <path d="M44.0730533,8.7257931 C44.09212,8.2054647 43.8762533,7.94444663 43.42412,7.94444663 C42.8338533,7.94444663 42.23492,8.34497209 41.62572,9.14576026 C41.0163867,9.9466798 40.7014533,10.7135764 40.6823867,11.4464499 C40.6711867,11.4464499 40.6711867,11.5722956 40.6823867,11.8230673 C41.6454533,11.4761379 42.48092,10.9456946 43.18852,10.2314745 C43.75812,9.61433169 44.0531867,9.11173727 44.0730533,8.7257931 L44.0730533,8.7257931 Z M50.77652,11.7635599 C50.2051867,12.6937406 49.0834533,13.6230016 47.41012,14.5522627 C45.3234533,15.7341346 43.2066533,16.3242167 41.06132,16.3242167 C39.46652,16.3242167 38.3239867,15.8003415 37.63532,14.7539048 C37.14332,14.0362693 36.90692,13.1834614 36.9267867,12.1937734 C36.9458533,10.6234614 37.6551867,9.13052217 39.0531867,7.71403612 C40.5883867,6.16329721 42.39972,5.38694253 44.48652,5.38694253 C46.4159867,5.38694253 47.4394533,6.16145813 47.55772,7.70891297 C47.6362533,8.69518555 47.0847867,9.71114614 45.9042533,10.7561379 C44.6434533,11.8979442 43.0582533,12.6231987 41.14932,12.9325583 C41.5031867,13.4163678 42.0346533,13.6579442 42.7439867,13.6579442 C44.1610533,13.6579442 45.7066533,13.3033957 47.3807867,12.5925911 C48.5811867,12.0935435 49.52612,11.5747915 50.2155867,11.0375172 L50.77652,11.7635599 Z" id="Fill-7"></path>
                        <path d="M55.4557333,9.70357964 C55.4756,9.17904762 55.4014667,8.69773399 55.234,8.26068966 C55.0665333,7.82364532 54.8250667,7.60440066 54.5108,7.60440066 C53.5064,7.60440066 52.6796,8.13917898 52.0308,9.20794745 C51.4784,10.0828243 51.1832,11.0153695 51.1444,12.0058456 C51.1246667,12.4922824 51.2134667,12.9198686 51.4101333,13.288867 C51.6258667,13.7165846 51.9313333,13.9299179 52.3257333,13.9299179 C53.2112,13.9299179 53.9697333,13.4156322 54.5997333,12.3850903 C55.1312,11.5297865 55.4161333,10.6362562 55.4557333,9.70357964 M58.7928,9.81326765 C58.7136,11.5952053 58.0446667,13.1350411 56.7848,14.432381 C55.5248,15.7298522 53.9593333,16.3786535 52.0893333,16.3786535 C50.5342667,16.3786535 49.3528,15.8845977 48.546,14.8966174 C47.9557333,14.1612479 47.6304,13.2413136 47.5717333,12.137734 C47.4725333,10.4721839 48.0825333,8.94167488 49.4028,7.54738916 C50.8198667,5.9982266 52.6010667,5.22384236 54.7472,5.22384236 C56.1246667,5.22384236 57.168,5.67954023 57.8772,6.58922824 C58.5469333,7.42246305 58.8516,8.49701149 58.7928,9.81326765" id="Fill-9"></path>
                    </g>
                </g>
                <text id="PLUS" font-family="HelveticaNeue-Light, Helvetica Neue" font-size="22" font-weight="300" letter-spacing="0.400000006" fill="#FFFFFF">
                    <tspan x="20.098" y="49">PLU</tspan>
                    <tspan x="62.042" y="49">S</tspan>
                </text>
            </g>
        </g>
    </g>
</svg>