<svg id="Layer_1" xmlns="http://www.w3.org/2000/svg" viewBox="0 0 100 100"><path id="BG" d="M0,50A50,50,0,1,0,50,0,50,50,0,0,0,0,50" fill="#121212"/><g id="Exclusives"><polygon id="Fill-10" points="14.99 67.67 7.37 69.02 7.37 46.02 14.76 44.71 14.76 47.67 10.32 48.45 10.32 54.8 13.44 54.24 13.44 57.2 10.32 57.75 10.32 65.54 14.99 64.72 14.99 67.67" fill="#fff"/><polygon id="Fill-12" points="19.43 43.89 21.4 52.18 23.04 43.25 26.16 42.7 23.67 54.84 26.43 65.66 23.37 66.2 21.4 58.56 19.43 66.89 16.37 67.43 19.1 55.61 16.37 44.43 19.43 43.89" fill="#fff"/><path id="Fill-14" d="M33.56,48.3V44.36l-2.49.44V61.88l2.49-.44v-4l3-.52v5a2.45,2.45,0,0,1-2,2.28L30.08,65a1.62,1.62,0,0,1-2-1.59V44.33a2.53,2.53,0,0,1,2-2.32l4.47-.79a1.62,1.62,0,0,1,2,1.63v4.93Z" fill="#fff"/><polygon id="Fill-16" points="38.69 40.49 41.65 39.97 41.65 60.01 45.13 59.4 45.13 62.36 38.69 63.49 38.69 40.49" fill="#fff"/><path id="Fill-18" d="M50,38.49v20l2.5-.44V38.05l3-.52V58.59a2.45,2.45,0,0,1-2,2.29l-4.46.79a1.63,1.63,0,0,1-2-1.59V39Z" fill="#fff"/><path id="Fill-20" d="M61.08,52.61v4l2.5-.44V48.72l-3.49.62a1.61,1.61,0,0,1-2-1.59V39a2.33,2.33,0,0,1,2-2.32l4.47-.79a1.56,1.56,0,0,1,2,1.59v4.83l-3,.52V39.06l-2.5.44v6.71l3.48-.62a1.61,1.61,0,0,1,2,1.63v9.43a2.44,2.44,0,0,1-2,2.28l-4.47.79a1.62,1.62,0,0,1-2-1.59v-5Z" fill="#fff"/><polygon id="Fill-22" points="69.17 35.12 72.12 34.6 72.12 57.6 69.17 58.12 69.17 35.12" fill="#fff"/><polygon id="Fill-24" points="76.59 33.81 78.57 51.86 80.54 33.12 83.59 32.58 80.8 56.07 76.33 56.86 73.54 34.35 76.59 33.81" fill="#fff"/><polygon id="Fill-26" points="92.63 53.98 85.01 55.33 85.01 32.33 92.4 31.02 92.4 33.98 87.97 34.76 87.97 41.1 91.09 40.55 91.09 43.51 87.97 44.06 87.97 51.85 92.63 51.02 92.63 53.98" fill="#fff"/></g><path id="Fill-28" d="M55.43,6.26a1.55,1.55,0,0,0-1.57-1.78c-1.51-.05-2.53.8-3.07,2.55a2.05,2.05,0,0,1,.81-.18c.55,0,.8.31.73.93a4.28,4.28,0,0,1-.73,1.65c-.46.72-.8,1.08-1,1.08S50,10,49.77,8.84c-.08-.32-.23-1.15-.44-2.49s-.72-1.82-1.57-1.74a3.74,3.74,0,0,0-1.61,1L44.57,7l.51.66a3.31,3.31,0,0,1,.85-.52c.38,0,.73.59,1,1.76s.59,2.14.88,3.22,1,1.75,1.61,1.75q1.53,0,3.75-2.88a14.59,14.59,0,0,0,2-3.39,3.78,3.78,0,0,0,.19-1.35" fill="#fff"/><path d="M85.68,26.49a.52.52,0,0,1-.42-.22,42.81,42.81,0,0,0-27-18,.5.5,0,0,1,.19-1,43.81,43.81,0,0,1,27.6,18.38.5.5,0,0,1-.13.69A.51.51,0,0,1,85.68,26.49Z" fill="#fff"/><path d="M7.85,41.93H7.76a.51.51,0,0,1-.4-.59A43.44,43.44,0,0,1,40.87,7.46a.5.5,0,0,1,.6.38.52.52,0,0,1-.39.6A42.45,42.45,0,0,0,8.34,41.53.49.49,0,0,1,7.85,41.93Z" fill="#fff"/><path d="M50,93.5a43.53,43.53,0,0,1-36-19,.51.51,0,0,1,.14-.7.51.51,0,0,1,.69.13A42.51,42.51,0,0,0,91.48,59.3a.5.5,0,0,1,.6-.38.51.51,0,0,1,.38.6A43.78,43.78,0,0,1,50,93.5Z" fill="#fff"/></svg>