<svg viewBox="0 0 194 23" version="1.1" xmlns="http://www.w3.org/2000/svg" xmlns:xlink="http://www.w3.org/1999/xlink" fill="#000">
    <path d="M19.882 4.76c.905 0 1.688-.333 2.349-.998.588-.589.894-1.203.918-1.843.024-.434-.135-.863-.477-1.285C22.329.212 21.901 0 21.387 0c-.882 0-1.683.308-2.405.92-.723.615-1.096 1.256-1.12 1.92-.049 1.28.625 1.92 2.02 1.92m49.06 8.285c-.05 1.237-.404 2.421-1.065 3.555-.783 1.367-1.726 2.049-2.826 2.049-.49 0-.87-.283-1.139-.85-.244-.49-.355-1.057-.33-1.702a7.74 7.74 0 0 1 1.102-3.71c.806-1.417 1.834-2.126 3.083-2.126.39 0 .69.291.899.87.208.58.3 1.218.276 1.914m-18.366 2.81c-.014-.332-.014-.5 0-.5.023-.971.415-1.988 1.172-3.05.758-1.062 1.502-1.593 2.236-1.593.562 0 .83.346.807 1.036-.025.512-.392 1.178-1.1 1.997a8.23 8.23 0 0 1-3.115 2.11m17.485-8.75c-2.668 0-4.882 1.027-6.644 3.08-1.642 1.85-2.4 3.879-2.277 6.087.009.163.022.32.038.477-.091.042-.18.085-.275.126-2.081.943-4.003 1.413-5.764 1.413-.882 0-1.543-.32-1.983-.961 2.373-.411 4.344-1.373 5.911-2.887 1.468-1.385 2.154-2.732 2.056-4.04-.147-2.052-1.42-3.079-3.818-3.079-2.594 0-4.846 1.03-6.755 3.085-1.738 1.879-2.62 3.858-2.643 5.94-.007.35.01.686.05 1.01-.411.283-.722.427-.93.427-.467 0-.76-.102-.882-.307-.122-.205-.171-.576-.147-1.115 0-.205.153-.992.46-2.362.305-1.371.47-2.416.495-3.133.048-1.05-.148-1.857-.588-2.421-.514-.692-1.358-.987-2.533-.884-.978.078-1.921.464-2.827 1.158-.538.412-1.088.964-1.65 1.658-.197.18-.38.349-.552.502.023-1.054-.172-1.865-.587-2.43-.515-.695-1.371-.99-2.57-.888-1.395.129-2.656.708-3.781 1.736-.49.438-.919.953-1.285 1.544.048-.232.072-.476.072-.733 0-.797-.196-1.498-.588-2.103-.391-.604-.905-.88-1.541-.828-.367.026-1.064.54-2.092 1.542-1.42 1.389-2.19 2.135-2.313 2.237l.88 1.042c.686-.52 1.102-.78 1.25-.78.268 0 .378.23.33.691-.024.668-.137 1.597-.338 2.79a31.25 31.25 0 0 0-.272 1.913l-.032.029c-.882.762-1.494 1.142-1.836 1.142-.783 0-1.163-.55-1.138-1.653.367-2.408.71-4.393 1.029-5.957.096-.922-.044-1.67-.423-2.248-.38-.577-.973-.826-1.78-.75-.515.052-1.298.567-2.35 1.544a1974 1974 0 0 1-1.097 1.044c-.072-1.82-.862-2.756-2.375-2.803-2.266-.076-3.8 1.267-4.605 4.034a2.938 2.938 0 0 1 1.21-.282c.832 0 1.199.492 1.101 1.472-.049.595-.416 1.46-1.1 2.596-.686 1.136-1.2 1.704-1.542 1.704-.441 0-.844-.875-1.211-2.626-.124-.515-.344-1.828-.661-3.94-.294-1.957-1.077-2.87-2.35-2.742-.538.051-1.346.566-2.422 1.543C1.603 9.465.806 10.21 0 10.956l.77 1.042c.732-.54 1.16-.81 1.282-.81.561 0 1.086.925 1.575 2.774l1.32 5.087c.659 1.85 1.465 2.775 2.418 2.775 1.538 0 3.419-1.52 5.642-4.556 1.562-2.112 2.573-3.897 3.038-5.358.617-.479.998-.722 1.136-.722.44 0 .661.335.661 1.002 0 .129-.24 1.08-.716 2.853-.478 1.774-.729 3.085-.752 3.933-.025.823.165 1.49.568 2.004.403.514.985.771 1.744.771 1.64 0 3.279-.745 4.92-2.235.146-.135.287-.271.426-.41.13.577.352 1.053.675 1.42.705.796 1.898 1.168 3.578 1.116-.224-.566-.312-1.568-.262-3.009a11.656 11.656 0 0 1 1.175-4.59c.71-1.466 1.373-2.2 1.986-2.2.71 0 1.042.476.993 1.427-.025.644-.145 1.377-.36 2.2a10.892 10.892 0 0 0-.361 2.468c-.05 1.313.23 2.25.842 2.817.682.642 1.879.939 3.586.887-.255-.59-.358-1.44-.309-2.547.073-1.568.578-3.188 1.511-4.86.884-1.594 1.645-2.392 2.283-2.392.59 0 .872.49.847 1.465-.024.643-.178 1.543-.459 2.7-.28 1.156-.434 2.145-.458 2.968-.049 1.85.721 2.775 2.313 2.775 1.64 0 3.279-.745 4.92-2.235l.079-.076c.056.102.113.203.177.301.856 1.388 2.276 2.083 4.259 2.083 2.667 0 5.298-.783 7.892-2.35.292-.172.568-.345.832-.517.164.347.354.673.58.974 1.004 1.31 2.472 1.965 4.406 1.965 2.324 0 4.27-.86 5.837-2.58 1.566-1.721 2.398-3.763 2.496-6.126.073-1.745-.305-3.17-1.138-4.275-.882-1.206-2.179-1.81-3.891-1.81m26.382 11.88V5.086h1.613v13.542c0 1.57.712 1.808 1.328 1.808.214 0 .404-.023.404-.023v1.451s-.285.048-.593.048c-.997 0-2.752-.31-2.752-2.927zm5.033-11.876h1.685V5.086h-1.685V7.11zm.048 14.708h1.613V9.846h-1.613v11.97zm7.548 0l-4.578-11.971h1.708l3.32 8.782c.214.595.404 1.428.404 1.428h.047s.19-.81.427-1.428l3.298-8.782h1.684l-4.555 11.97h-1.755zm6.836-6.159c0-3.927 2.657-6.283 5.883-6.283 3.298 0 4.982 2.547 4.982 5.522 0 .285-.047.833-.047.833h-9.157c.071 3.07 2.159 4.735 4.626 4.735 2.182 0 3.63-1.451 3.63-1.451l.735 1.237s-1.732 1.666-4.413 1.666c-3.558 0-6.239-2.57-6.239-6.259zm1.732-1.261h7.496c-.095-2.499-1.613-3.665-3.392-3.665-1.993 0-3.724 1.261-4.104 3.665zm10.347 5.783l.878-1.166s1.328 1.451 3.558 1.451c1.281 0 2.396-.642 2.396-1.903 0-2.618-6.428-1.976-6.428-5.879 0-2.141 1.921-3.308 4.08-3.308 2.514 0 3.677 1.31 3.677 1.31l-.736 1.237s-1.02-1.095-2.989-1.095c-1.21 0-2.372.524-2.372 1.856 0 2.642 6.429 1.928 6.429 5.879 0 1.951-1.684 3.355-4.08 3.355-2.894 0-4.413-1.737-4.413-1.737zm11.036-2.718v-6.117h-1.566V9.99h1.59V6.538h1.589v3.45h2.989v1.357h-2.99v5.95c0 2.808 1.78 3.165 2.681 3.165.332 0 .546-.047.546-.047v1.451s-.261.048-.688.048c-1.376 0-4.151-.452-4.151-4.45zm6.599 4.355V9.846h1.59v2.118c0 .524-.048.952-.048.952h.047c.57-1.809 1.898-3.189 3.772-3.189.332 0 .64.071.64.071v1.595s-.284-.048-.593-.048c-1.684 0-2.941 1.333-3.463 3.094a7.92 7.92 0 0 0-.332 2.332v5.046h-1.613zm6.575-6.159c0-3.927 2.657-6.283 5.883-6.283 3.298 0 4.982 2.547 4.982 5.522 0 .285-.048.833-.048.833h-9.156c.071 3.07 2.158 4.735 4.626 4.735 2.182 0 3.63-1.451 3.63-1.451l.734 1.237s-1.731 1.666-4.412 1.666c-3.558 0-6.239-2.57-6.239-6.259zm1.732-1.261h7.496c-.095-2.499-1.613-3.665-3.392-3.665-1.993 0-3.724 1.261-4.104 3.665zm10.347 3.974c0-4.046 5.243-4.14 7.307-4.14h.664v-.31c0-2.309-1.257-3.094-2.965-3.094-1.97 0-3.369 1.142-3.369 1.142l-.759-1.237s1.566-1.357 4.246-1.357c2.87 0 4.46 1.595 4.46 4.594v7.663h-1.542v-1.31c0-.594.047-.999.047-.999h-.047s-.996 2.594-3.985 2.594c-1.993 0-4.057-1.166-4.057-3.546zm1.66-.095c0 1.119.878 2.26 2.658 2.26 2.277 0 3.653-2.379 3.653-4.45v-.523h-.688c-1.874 0-5.622.071-5.622 2.713zm10.158 3.54V9.847h1.59v1.785c0 .523-.048.952-.048.952h.048c.569-1.618 2.467-3.023 4.317-3.023 2.206 0 3.345 1.024 3.7 2.999h.048c.64-1.618 2.372-2.999 4.389-2.999 2.894 0 3.961 1.69 3.961 4.641v7.616h-1.613v-7.211c0-1.952-.403-3.57-2.586-3.57-1.826 0-3.32 1.618-3.771 3.38-.166.523-.214 1.094-.214 1.737v5.664h-1.613v-7.211c0-1.809-.26-3.57-2.514-3.57-1.946 0-3.416 1.69-3.915 3.522a6.99 6.99 0 0 0-.166 1.595v5.664h-1.613zM83.746 16.38a1.781 1.781 0 1 0 0-3.563 1.781 1.781 0 0 0 0 3.563"></path>
</svg>
