<svg id="Layer_1" xmlns="http://www.w3.org/2000/svg" viewBox="0 0 24 24"><title>Icon-info-circle</title><path d="M12,22A10,10,0,1,1,22,12,10,10,0,0,1,12,22ZM12,4a8,8,0,1,0,8,8A8,8,0,0,0,12,4Z" fill="#1a2e3b"/><rect x="11" y="11" width="2" height="6" fill="#1a2e3b"/><path d="M12,9a1,1,0,0,1-1-1,1.46,1.46,0,0,1,0-.2.63.63,0,0,1,.06-.18.77.77,0,0,1,.09-.18,1.48,1.48,0,0,1,.12-.15.92.92,0,0,1,.33-.21,1,1,0,0,1,1.09.21A1.05,1.05,0,0,1,13,8a.84.84,0,0,1-.08.38,1,1,0,0,1-.21.33l-.15.12-.18.09L12.2,9Z" fill="#1a2e3b"/></svg>