<svg id="Layer_1" xmlns="http://www.w3.org/2000/svg" viewBox="0 0 20 20"><title>Grid</title><path d="M8,11H5A3,3,0,0,1,2,8V5A3,3,0,0,1,5,2H8a3,3,0,0,1,3,3V8A3,3,0,0,1,8,11ZM5,4A1,1,0,0,0,4,5V8A1,1,0,0,0,5,9H8A1,1,0,0,0,9,8V5A1,1,0,0,0,8,4Z" transform="translate(-2 -2)" fill="#1a2e3b"/><path d="M19,11H16a3,3,0,0,1-3-3V5a3,3,0,0,1,3-3h3a3,3,0,0,1,3,3V8A3,3,0,0,1,19,11ZM16,4a1,1,0,0,0-1,1V8a1,1,0,0,0,1,1h3a1,1,0,0,0,1-1V5a1,1,0,0,0-1-1Z" transform="translate(-2 -2)" fill="#1a2e3b"/><path d="M8,22H5a3,3,0,0,1-3-3V16a3,3,0,0,1,3-3H8a3,3,0,0,1,3,3v3A3,3,0,0,1,8,22ZM5,15a1,1,0,0,0-1,1v3a1,1,0,0,0,1,1H8a1,1,0,0,0,1-1V16a1,1,0,0,0-1-1Z" transform="translate(-2 -2)" fill="#1a2e3b"/><path d="M19,22H16a3,3,0,0,1-3-3V16a3,3,0,0,1,3-3h3a3,3,0,0,1,3,3v3A3,3,0,0,1,19,22Zm-3-7a1,1,0,0,0-1,1v3a1,1,0,0,0,1,1h3a1,1,0,0,0,1-1V16a1,1,0,0,0-1-1Z" transform="translate(-2 -2)" fill="#1a2e3b"/></svg>