<svg xmlns="http://www.w3.org/2000/svg" width="36" height="22" viewBox="3 3 36 22" version="1.1">
  <polygon stroke="none" fill="#F7B600" fill-rule="evenodd" points="3.1 21.8 38.2 21.8 38.2 25 3.1 25 3.1 21.8"/>
  <polygon stroke="none" fill="#1A1F71" fill-rule="evenodd" points="3.1 6.2 38.2 6.2 38.2 3.1 3.1 3.1 3.1 6.2"/>
  <path d="M17.1 9.7L13.5 18.3 11.1 18.3 9.3 11.4C9.2 11 9.1 10.9 8.8 10.7 8.3 10.4 7.4 10.1 6.6 9.9L6.7 9.7 10.5 9.7C11 9.7 11.4 10 11.5 10.6L12.4 15.6 14.8 9.7 17.1 9.7 17.1 9.7 17.1 9.7Z" stroke="none" fill="#1A1F71" fill-rule="evenodd"/>
  <path d="M26.4 15.5C26.4 13.2 23.3 13.1 23.3 12.1 23.3 11.8 23.6 11.4 24.2 11.4 24.5 11.3 25.4 11.3 26.4 11.7L26.8 9.9C26.3 9.7 25.6 9.5 24.7 9.5 22.5 9.5 21 10.7 20.9 12.4 20.9 13.6 22.1 14.3 22.9 14.7 23.8 15.2 24.1 15.4 24.1 15.8 24.1 16.4 23.4 16.7 22.7 16.7 21.6 16.7 20.9 16.4 20.4 16.1L20 18C20.5 18.3 21.5 18.5 22.5 18.5 24.9 18.5 26.4 17.3 26.4 15.5L26.4 15.5 26.4 15.5Z" stroke="none" fill="#1A1F71" fill-rule="evenodd"/>
  <polygon stroke="none" fill="#1A1F71" fill-rule="evenodd" points="20.3 9.7 18.5 18.3 16.2 18.3 18.1 9.7 20.3 9.7"/>
  <path d="M32.3 18.3L34.3 18.3 32.5 9.7 30.6 9.7C30.2 9.7 29.8 9.9 29.7 10.3L26.3 18.3 28.6 18.3 29.1 17.1 32 17.1 32.3 18.3 32.3 18.3ZM29.8 15.3L30.9 12 31.6 15.3 29.8 15.3 29.8 15.3Z" stroke="none" fill="#1A1F71" fill-rule="evenodd"/>
</svg>
