<svg id="Layer_1" xmlns="http://www.w3.org/2000/svg" viewBox="0 0 100.1 81.4"><title>twitter</title><path d="M100,9.6a42,42,0,0,1-11.8,3.2,20.5,20.5,0,0,0,9-11.4,42.8,42.8,0,0,1-13,5A20.5,20.5,0,0,0,48.7,20.5a24.2,24.2,0,0,0,.5,4.7A58.1,58.1,0,0,1,6.9,3.8,20.1,20.1,0,0,0,4.1,14.1a20.6,20.6,0,0,0,9.1,17.1,19.7,19.7,0,0,1-9.3-2.6v0.3A20.6,20.6,0,0,0,20.4,49a19,19,0,0,1-5.4.7,17.2,17.2,0,0,1-3.9-.4A20.6,20.6,0,0,0,30.3,63.6,41.2,41.2,0,0,1,4.8,72.4a39.1,39.1,0,0,1-4.9-.3,58.4,58.4,0,0,0,31.5,9.2c37.7,0,58.4-31.3,58.4-58.4a24.4,24.4,0,0,0-.1-2.7A38.5,38.5,0,0,0,100,9.6h0Z" transform="translate(0.1 0.1)"/></svg>