<svg xmlns="http://www.w3.org/2000/svg" width="36" height="22" viewBox="3 3 36 22"><path fill="#F7B600" fill-rule="evenodd" d="M3.1 21.8h35.1V25H3.1v-3.2z"/><path fill="#1A1F71" fill-rule="evenodd" d="M3.1 6.2h35.1V3.1H3.1v3.1zM17.1 9.7l-3.6 8.6h-2.4l-1.8-6.9c-.1-.4-.2-.5-.5-.7-.5-.3-1.4-.6-2.2-.8l.1-.2h3.8c.5 0 .9.3 1 .9l.9 5 2.4-5.9h2.3zM26.4 15.5c0-2.3-3.1-2.4-3.1-3.4 0-.3.3-.7.9-.7.3-.1 1.2-.1 2.2.3l.4-1.8c-.5-.2-1.2-.4-2.1-.4-2.2 0-3.7 1.2-3.8 2.9 0 1.2 1.2 1.9 2 2.3.9.5 1.2.7 1.2 1.1 0 .6-.7.9-1.4.9-1.1 0-1.8-.3-2.3-.6L20 18c.5.3 1.5.5 2.5.5 2.4 0 3.9-1.2 3.9-3zM20.3 9.7l-1.8 8.6h-2.3l1.9-8.6h2.2zM32.3 18.3h2l-1.8-8.6h-1.9c-.4 0-.8.2-.9.6l-3.4 8h2.3l.5-1.2H32l.3 1.2zm-2.5-3l1.1-3.3.7 3.3h-1.8z"/></svg>