<svg version="1.1"  xmlns="http://www.w3.org/2000/svg" xmlns:xlink="http://www.w3.org/1999/xlink" x="0px" y="0px"
	 viewBox="0 0 16 16" enable-background="new 0 0 16 16" xml:space="preserve">
<g id="subscribe_16_1_">
	<path id="loads_16_2_" d="M15,0c-0.552,0-1,0.448-1,1v1.726C12.501,1.027,10.318,0,8,0C3.589,0,0,3.589,0,8s3.589,8,8,8
		c3.067,0,5.902-1.794,7.222-4.571c0.237-0.499,0.024-1.095-0.474-1.333c-0.501-0.237-1.097-0.024-1.333,0.474
		C12.425,12.654,10.3,14,8,14c-3.309,0-6-2.691-6-6s2.691-6,6-6c1.718,0,3.338,0.752,4.46,2H11c-0.552,0-1,0.448-1,1
		c0,0.552,0.448,1,1,1h4c0.552,0,1-0.448,1-1V1C16,0.448,15.552,0,15,0z"/>
	<polygon points="6,10.75 6,5.25 11.5,8 	"/>
</g>
</svg>
