<svg version="1.1"  xmlns="http://www.w3.org/2000/svg" xmlns:xlink="http://www.w3.org/1999/xlink" x="0px" y="0px"
	 viewBox="0 0 64 64" enable-background="new 0 0 64 64" xml:space="preserve">
<g id="download_64">
	<path id="increase_32_4_" d="M43.414,49.414l-10,10c-0.781,0.781-2.047,0.781-2.828,0l-10-10c-0.781-0.781-0.781-2.047,0-2.828
		l2.121-2.121c0.781-0.781,2.047-0.781,2.828,0L28,46.929V30c0-1.105,0.895-2,2-2h4c1.105,0,2,0.895,2,2v16.929l2.464-2.464
		c0.781-0.781,2.047-0.781,2.828,0l2.121,2.121C44.195,47.367,44.195,48.633,43.414,49.414z"/>
	<path d="M55.788,24.62C55.913,23.762,56,22.892,56,22c0-9.941-8.059-18-18-18c-7.202,0-13.398,4.24-16.276,10.35
		C20.35,13.5,18.735,13,17,13c-4.971,0-9,4.029-9,9c0,0.89,0.134,1.748,0.375,2.56C3.52,26.098,0,30.637,0,36
		c0,6.627,5.373,12,12,12h4c0-4.418,3.582-8,8-8V28c0-2.209,1.791-4,4-4h8c2.209,0,4,1.791,4,4v12c4.418,0,8,3.582,8,8h4
		c6.627,0,12-5.373,12-12C64,30.698,60.557,26.207,55.788,24.62z"/>
</g>
</svg>
