<svg version="1.1"  xmlns="http://www.w3.org/2000/svg" xmlns:xlink="http://www.w3.org/1999/xlink" x="0px" y="0px"
	 viewBox="0 0 12 12" enable-background="new 0 0 12 12" xml:space="preserve">
<g id="minimize_12">
	<path d="M4.5,6.75h-3c-0.414,0-0.75,0.336-0.75,0.75c0,0.414,0.336,0.75,0.75,0.75h1.189l-2.523,2.523l0.01,0.01
		C0.072,10.912,0,11.071,0,11.25C0,11.664,0.336,12,0.75,12c0.179,0,0.338-0.072,0.467-0.177l0.01,0.01L3.75,9.311V10.5
		c0,0.414,0.336,0.75,0.75,0.75s0.75-0.336,0.75-0.75v-3C5.25,7.086,4.914,6.75,4.5,6.75z"/>
	<path d="M7.5,5.25h3c0.414,0,0.75-0.336,0.75-0.75c0-0.414-0.336-0.75-0.75-0.75H9.311l2.523-2.523l-0.01-0.01
		C11.928,1.088,12,0.929,12,0.75C12,0.336,11.664,0,11.25,0c-0.179,0-0.338,0.072-0.467,0.177l-0.01-0.01L8.25,2.689V1.5
		c0-0.414-0.336-0.75-0.75-0.75S6.75,1.086,6.75,1.5v3C6.75,4.914,7.086,5.25,7.5,5.25z"/>
	<path d="M4.5,0.75c-0.414,0-0.75,0.336-0.75,0.75v1.189L1.227,0.166l-0.01,0.01C1.088,0.072,0.929,0,0.75,0C0.336,0,0,0.336,0,0.75
		c0,0.179,0.072,0.338,0.177,0.467l-0.01,0.01L2.689,3.75H1.5c-0.414,0-0.75,0.336-0.75,0.75c0,0.414,0.336,0.75,0.75,0.75h3
		c0.414,0,0.75-0.336,0.75-0.75v-3C5.25,1.086,4.914,0.75,4.5,0.75z"/>
	<path d="M11.834,10.773L9.311,8.25H10.5c0.414,0,0.75-0.336,0.75-0.75c0-0.414-0.336-0.75-0.75-0.75h-3
		c-0.414,0-0.75,0.336-0.75,0.75v3c0,0.414,0.336,0.75,0.75,0.75s0.75-0.336,0.75-0.75V9.311l2.523,2.523l0.01-0.01
		C10.912,11.928,11.071,12,11.25,12c0.414,0,0.75-0.336,0.75-0.75c0-0.179-0.072-0.338-0.177-0.467L11.834,10.773z"/>
</g>
</svg>
