<svg version="1.1"  xmlns="http://www.w3.org/2000/svg" xmlns:xlink="http://www.w3.org/1999/xlink" x="0px" y="0px"
	 viewBox="0 0 32 32" enable-background="new 0 0 32 32" xml:space="preserve">
<path id="increase_32" d="M27.414,10.586l-10-10c-0.781-0.781-2.047-0.781-2.828,0l-10,10c-0.781,0.781-0.781,2.047,0,2.828
	l2.121,2.121c0.781,0.781,2.047,0.781,2.828,0L12,13.071V30c0,1.105,0.895,2,2,2h4c1.105,0,2-0.895,2-2V13.071l2.464,2.464
	c0.781,0.781,2.047,0.781,2.828,0l2.121-2.121C28.195,12.633,28.195,11.367,27.414,10.586z"/>
</svg>
