<svg version="1.1"  xmlns="http://www.w3.org/2000/svg" xmlns:xlink="http://www.w3.org/1999/xlink" x="0px" y="0px"
	 viewBox="0 0 32 32" enable-background="new 0 0 32 32" xml:space="preserve">
<path id="deselect_32" d="M16,0C7.163,0,0,7.163,0,16c0,8.837,7.163,16,16,16s16-7.163,16-16C32,7.163,24.837,0,16,0z M16,6
	c1.572,0,3.055,0.375,4.38,1.024L7.024,20.38C6.375,19.055,6,17.572,6,16C6,10.486,10.486,6,16,6z M16,26
	c-1.572,0-3.055-0.375-4.38-1.024L24.976,11.62C25.625,12.945,26,14.428,26,16C26,21.514,21.514,26,16,26z"/>
</svg>
