<?xml version="1.0" encoding="utf-8"?>
<!-- Generator: Adobe Illustrator 17.1.0, SVG Export Plug-In . SVG Version: 6.00 Build 0)  -->
<!DOCTYPE svg PUBLIC "-//W3C//DTD SVG 1.1//EN" "http://www.w3.org/Graphics/SVG/1.1/DTD/svg11.dtd">
<svg version="1.1"  xmlns="http://www.w3.org/2000/svg" xmlns:xlink="http://www.w3.org/1999/xlink" x="0px" y="0px"
	 viewBox="0 0 16 16" enable-background="new 0 0 16 16" xml:space="preserve">
<g id="sad_face_16">
	<path d="M8,0C3.582,0,0,3.582,0,8c0,4.418,3.582,8,8,8s8-3.582,8-8C16,3.582,12.418,0,8,0z M8,14c-3.308,0-6-2.692-6-6s2.692-6,6-6
		s6,2.692,6,6S11.308,14,8,14z"/>
	<path d="M5,12c0,0,0.979-2,3-2c2,0,3,2,3,2H5z"/>
	<circle cx="5" cy="9" r="1"/>
	<circle cx="11" cy="9" r="1"/>
</g>
</svg>
