<svg version="1.1"  xmlns="http://www.w3.org/2000/svg" xmlns:xlink="http://www.w3.org/1999/xlink" x="0px" y="0px"
	 viewBox="0 0 32 32" style="enable-background:new 0 0 32 32;" xml:space="preserve">
<g id="staff_pick_32">
	<path d="M14.5,4.5c0.4,0,0.4,2.1,1.2,2.1c0.6,0,2-1.6,2-2.3c0-0.4-0.2-0.7-0.5-0.7c-0.5,0-0.8,0.3-1,0.8c0,0,0.1-0.1,0.2-0.1
		c0.7,0-0.1,1.2-0.3,1.2c-0.4,0-0.2-1.9-0.8-1.9c-0.3,0-1.1,0.8-1.1,0.8l0.2,0.2C14.2,4.6,14.5,4.5,14.5,4.5z"/>
	<rect x="19" y="12" width="2" height="4"/>
	<path d="M16,0C7.2,0,0,7.2,0,16s7.2,16,16,16s16-7.2,16-16S24.8,0,16,0z M16,2c1.7,0,3,1.3,3,3s-1.3,3-3,3s-3-1.3-3-3S14.3,2,16,2z
		 M21,10c1.1,0,2,0.9,2,2v4c0,1.1-0.9,2-2,2h-2v6h-2V10h2H21z M14,10c1.1,0,2,0.9,2,2v2h-2v-2h-2v4h2c1.1,0,2,0.9,2,2v4
		c0,1.1-0.9,2-2,2h-2c-1.1,0-2-0.9-2-2v-2h2v2h2v-4h-2c-1.1,0-2-0.9-2-2v-4c0-1.1,0.9-2,2-2H14z M16,29C8.8,29,3,23.2,3,16
		c0-5.4,3.3-10,8-12v2.2C7.4,8,5,11.7,5,16c0,6.1,4.9,11,11,11s11-4.9,11-11c0-4.3-2.4-8-6-9.8V4c4.7,2,8,6.6,8,12
		C29,23.2,23.2,29,16,29z"/>
</g>
</svg>
