<svg version="1.1"  xmlns="http://www.w3.org/2000/svg" xmlns:xlink="http://www.w3.org/1999/xlink" x="0px" y="0px"
	 viewBox="0 0 16 16" enable-background="new 0 0 16 16" xml:space="preserve">
<g id="bar_graph_16">
	<path d="M2,12c-0.552,0-1,0.448-1,1v2c0,0.552,0.448,1,1,1s1-0.448,1-1v-2C3,12.448,2.552,12,2,12z"/>
	<path d="M6,8C5.448,8,5,8.448,5,9v6c0,0.552,0.448,1,1,1s1-0.448,1-1V9C7,8.448,6.552,8,6,8z"/>
	<path d="M10,4C9.448,4,9,4.448,9,5v10c0,0.552,0.448,1,1,1s1-0.448,1-1V5C11,4.448,10.552,4,10,4z"/>
	<path d="M14,0c-0.552,0-1,0.448-1,1v14c0,0.552,0.448,1,1,1s1-0.448,1-1V1C15,0.448,14.552,0,14,0z"/>
</g>
</svg>
