<svg version="1.1"  xmlns="http://www.w3.org/2000/svg" xmlns:xlink="http://www.w3.org/1999/xlink" x="0px" y="0px"
	 viewBox="0 0 16 16" enable-background="new 0 0 16 16" xml:space="preserve">
<g id="devices_16_4_">
	<path d="M7,6H1C0.448,6,0,6.448,0,7v8c0,0.552,0.448,1,1,1h6c0.552,0,1-0.448,1-1V7C8,6.448,7.552,6,7,6z M6,14H2V8h4V14z"/>
	<g>
		<path d="M15,0H3C2.448,0,2,0.448,2,1v3h2V2h10v7h-4v5h3c0.552,0,1-0.448,1-1c0-0.552-0.448-1-1-1h-1v-1h3c0.552,0,1-0.448,1-1V1
			C16,0.448,15.552,0,15,0z"/>
	</g>
</g>
</svg>
