<?xml version="1.0" encoding="utf-8"?>
<svg version="1.1"  xmlns="http://www.w3.org/2000/svg" xmlns:xlink="http://www.w3.org/1999/xlink" x="0px" y="0px"
	 viewBox="0 0 12 12" style="enable-background:new 0 0 12 12;" xml:space="preserve">
<path id="delete_12_1_" d="M7.4,6l2.4-2.4C10,3.4,10,3,9.9,2.9L9.1,2.1C9,2,8.6,2,8.4,2.1L6,4.6L3.6,2.1C3.4,2,3,2,2.9,2.1L2.1,2.9
	C2,3,2,3.4,2.1,3.6L4.6,6L2.1,8.4C2,8.6,2,9,2.1,9.1l0.7,0.7C3,10,3.4,10,3.6,9.9L6,7.4l2.4,2.4C8.6,10,9,10,9.1,9.9l0.7-0.7
	C10,9,10,8.6,9.9,8.4L7.4,6z"/>
</svg>