<svg version="1.1"  xmlns="http://www.w3.org/2000/svg" xmlns:xlink="http://www.w3.org/1999/xlink" x="0px" y="0px"
	 viewBox="0 0 16 16" style="enable-background:new 0 0 16 16;" xml:space="preserve">
<g id="revenue_16">
	<path d="M16,8c0-3.3-2.7-6-6-6H8.4L6.7,0.3C6.5,0.1,6.3,0,6,0C5.4,0,5,0.4,5,1v1.8C3.5,3.7,2.4,5.2,2.1,7H1C0.4,7,0,7.4,0,8v2
		c0,0.6,0.4,1,1,1h1.8c0.5,0.9,1.3,1.7,2.2,2.2V15c0,0.6,0.4,1,1,1h1c0.6,0,1-0.4,1-1v-1h2v1c0,0.6,0.4,1,1,1h1c0.6,0,1-0.4,1-1
		v-1.8C14.8,12.2,16,10.2,16,8z M10,12H8c-2.2,0-4-1.8-4-4c0-2.2,1.8-4,4-4h2c2.2,0,4,1.8,4,4C14,10.2,12.2,12,10,12z"/>
	<circle cx="7.5" cy="7.5" r="1.5"/>
</g>
</svg>
