<svg version="1.1"  xmlns="http://www.w3.org/2000/svg" xmlns:xlink="http://www.w3.org/1999/xlink" x="0px" y="0px"
	 viewBox="0 0 64 64" enable-background="new 0 0 64 64" xml:space="preserve">
<g id="embed_url_64_1_">
	<path d="M19.414,44.172L7.243,32l12.172-12.172c0.781-0.781,0.781-2.047,0-2.828L18,15.586c-0.781-0.781-2.047-0.781-2.828,0
		L0.879,29.879C0.336,30.422,0,31.172,0,32c0,0.829,0.336,1.579,0.879,2.122l14.293,14.293c0.781,0.781,2.047,0.781,2.828,0
		L19.414,47C20.195,46.219,20.195,44.953,19.414,44.172z"/>
	<path d="M44.586,44.172L56.757,32L44.586,19.828c-0.781-0.781-0.781-2.047,0-2.828L46,15.586c0.781-0.781,2.047-0.781,2.828,0
		l14.293,14.293C63.664,30.422,64,31.172,64,32c0,0.829-0.336,1.579-0.879,2.122L48.828,48.414c-0.781,0.781-2.047,0.781-2.828,0
		L44.586,47C43.805,46.219,43.805,44.953,44.586,44.172z"/>
	<path d="M39.224,8.578L37.29,8.067l0,0.001c-0.004-0.001-0.008-0.003-0.012-0.005c-1.065-0.274-2.148,0.363-2.43,1.424l-0.001,0
		l-0.003,0.012c0,0.001-0.001,0.002-0.001,0.003c0,0.001,0,0.002,0,0.003L23.353,52.977v0v0l-0.001,0.003l0,0
		c-0.28,1.067,0.356,2.16,1.423,2.442l1.934,0.511l0-0.001c0.004,0.001,0.008,0.003,0.012,0.005c1.065,0.274,2.148-0.363,2.43-1.424
		l0.001,0l0.003-0.012c0-0.001,0.001-0.002,0.001-0.003c0-0.001,0-0.002,0-0.003l11.488-43.473v0v0l0.001-0.003l0,0
		C40.927,9.953,40.291,8.86,39.224,8.578z"/>
</g>
</svg>
