<svg version="1.1"  xmlns="http://www.w3.org/2000/svg" xmlns:xlink="http://www.w3.org/1999/xlink" x="0px" y="0px" viewBox="0 0 16 16" style="enable-background:new 0 0 16 16;" xml:space="preserve">
	<path id="SVGID_1_" d="M2.2,5.2c-0.5,0-1,0.4-1,1v4.1c0,0.5,0.4,1,1,1c0.5,0,1-0.4,1-1V6.2C3.2,5.6,2.8,5.2,2.2,5.2z M3.6,5.4v6.4
		c0,0.6,0.5,1.1,1.1,1.1h0.7V15c0,0.5,0.4,1,1,1c0.5,0,1-0.4,1-1v-2.2h1.3V15c0,0.5,0.4,1,1,1c0.5,0,1-0.4,1-1v-2.2h0.7
		c0.6,0,1.1-0.5,1.1-1.1V5.4H3.6z M14.8,6.2c0-0.5-0.4-1-1-1c-0.5,0-1,0.4-1,1v4.1c0,0.5,0.4,1,1,1c0.5,0,1-0.4,1-1V6.2z M10.2,1.4
		l0.6-1.2c0-0.1,0-0.2-0.1-0.2c-0.1,0-0.2,0-0.2,0.1L9.9,1.3C9.4,1,8.7,0.9,8,0.9c-0.7,0-1.4,0.2-1.9,0.4L5.4,0.1C5.4,0,5.3,0,5.2,0
		c-0.1,0-0.1,0.1-0.1,0.2l0.7,1.2C4.5,2.2,3.6,3.5,3.6,5h8.8C12.5,3.4,11.5,2.1,10.2,1.4z M6,3.4C5.8,3.4,5.6,3.2,5.6,3
		S5.8,2.6,6,2.6S6.4,2.8,6.4,3S6.2,3.4,6,3.4z M10.1,3.4C9.9,3.4,9.7,3.2,9.7,3s0.2-0.4,0.4-0.4s0.4,0.2,0.4,0.4S10.3,3.4,10.1,3.4z"
		/>
</svg>
