<svg version="1.1"  xmlns="http://www.w3.org/2000/svg" xmlns:xlink="http://www.w3.org/1999/xlink" x="0px" y="0px"
	 viewBox="0 0 16 16" enable-background="new 0 0 16 16" xml:space="preserve">
<g id="alert_16_2_">
	<path d="M10,14c0,1.105-0.895,2-2,2s-2-0.895-2-2H10z"/>
	<path d="M13.707,10.293C12.207,8.793,12,8,12,6c0-1.862-1.278-3.413-3-3.859V1c0-0.552-0.448-1-1-1S7,0.448,7,1v1.141
		C5.278,2.587,4,4.138,4,6c0,2-0.207,2.793-1.707,4.293c-0.391,0.391-0.391,1.024,0,1.414C2.488,11.902,2.744,12,3,12v0h10v0
		c0.256,0,0.512-0.098,0.707-0.293C14.098,11.317,14.098,10.683,13.707,10.293z"/>
</g>
</svg>
