<svg version="1.1"  xmlns="http://www.w3.org/2000/svg" xmlns:xlink="http://www.w3.org/1999/xlink" x="0px" y="0px"
 viewBox="0 0 32 32" style="enable-background:new 0 0 32 32;" xml:space="preserve">
	<path id="SVGID_1_" d="M15.8,30.3c-3-0.1-6-0.7-8.7-2.2c-2-1.1-3.7-2.7-4.6-4.8C2.1,22.1,1.9,21,2,19.8c0-0.3,0-0.4-0.3-0.5
		c-1.3-0.8-1.9-2-1.7-3.5c0.2-1.7,1.6-2.9,3.2-3.1c0.9-0.1,1.7,0.2,2.4,0.7c0.2,0.2,0.4,0.2,0.6,0c1.6-1.1,3.3-1.7,5.1-2.2
		c1.2-0.3,2.3-0.5,3.5-0.5c0.4,0,0.5-0.2,0.5-0.5c0.3-1.4,0.6-2.9,0.9-4.3c0.2-1.1,0.5-2.2,0.7-3.3c0.1-0.6,0.5-0.8,1-0.7
		c1.8,0.4,3.6,0.8,5.4,1.1c0.1,0,0.3-0.1,0.4-0.2c0.8-1,1.8-1.3,2.9-1c1.1,0.4,1.8,1.3,1.8,2.5c0,1.2-0.8,2.1-2,2.4
		c-1,0.3-2.2-0.2-2.7-1.2c-0.1-0.2-0.3-0.5-0.3-0.7c0-0.4-0.3-0.5-0.5-0.5c-1.4-0.3-2.9-0.6-4.3-0.9c-0.3-0.1-0.3,0-0.4,0.3
		c-0.3,1.7-0.7,3.3-1.1,5c-0.1,0.6-0.2,1.1-0.3,1.7c-0.1,0.3,0.1,0.3,0.3,0.3c0.9,0.1,1.9,0.2,2.8,0.4c2.1,0.4,4,1.2,5.7,2.3
		c0.2,0.2,0.4,0.1,0.6,0c1.9-1.4,4.5-0.7,5.4,1.4c0.7,1.6,0.1,3.4-1.4,4.4C30,19.4,30,19.6,30,19.9c0.2,2.1-0.6,3.9-1.9,5.5
		c-1.5,1.8-3.4,3-5.6,3.8C20.4,29.9,18.2,30.3,15.8,30.3 M10.5,21.2c1.3,0,2.4-1.1,2.4-2.4c0-1.5-1.2-2.4-2.4-2.4
		c-1.4,0-2.4,1-2.4,2.5C8.1,20.1,9.2,21.2,10.5,21.2 M21.5,21.2c1.3,0,2.4-1.1,2.4-2.5c0-1.4-1.1-2.4-2.4-2.4c-1.3,0-2.4,1-2.4,2.5
		C19,20.1,20.1,21.2,21.5,21.2 M16,27.2c1-0.1,2-0.2,3-0.5c1-0.2,1.9-0.6,2.7-1.3c0.3-0.3,0.4-0.6,0.2-0.9c-0.3-0.3-0.6-0.2-1,0
		c-0.5,0.3-1,0.7-1.5,0.8c-0.9,0.3-1.7,0.5-2.6,0.5c-1.7,0.2-3.4-0.1-5-0.8c-0.3-0.1-0.6-0.4-0.8-0.6c-0.3-0.2-0.7-0.2-0.9,0.1
		c-0.2,0.3-0.2,0.6,0.1,0.8c0.4,0.3,0.7,0.6,1.1,0.8C12.8,26.8,14.4,27.1,16,27.2"/>
</svg>
