<svg version="1.1"  xmlns="http://www.w3.org/2000/svg" xmlns:xlink="http://www.w3.org/1999/xlink" x="0px" y="0px" viewBox="0 0 64 64" style="enable-background:new 0 0 64 64;" xml:space="preserve">
	<path id="SVGID_1_" d="M62.8,1.2c-1.6-1.6-4.1-1.6-5.7,0L39.7,18.6c-1,4.2-4.1,7.6-8.2,8.8l0.1,0.1c-0.1-0.1-0.2-0.1-0.2-0.1
		l2.2,4.8l-0.5-0.1l0,0C32.7,32.1,32.4,32,32,32c-2.2,0-4,1.8-4,4v10.3l-6-1.8v-7.2l2.3,0.6c-0.2-0.6-0.3-1.3-0.3-2
		c0-2.3,0.9-4.3,2.5-5.7l-7.4-2.1l0,0C18.7,28.1,18.4,28,18,28c-2.2,0-4,1.8-4,4v10.1l-6.3-1.9l0,0C7.2,40.1,6.6,40,6,40
		c-3.3,0-6,2.7-6,6c0,2.7,1.8,5,4.3,5.7l0,0l40,12l0,0c0.5,0.2,1.1,0.3,1.7,0.3c3.3,0,6-2.7,6-6c0-2.7-1.8-5-4.3-5.7l0,0L36,48.7
		v-7.4l8.9,2.5l0,0c0.3,0.1,0.7,0.2,1.1,0.2c2.2,0,4-1.8,4-4c0-0.6-0.1-1.2-0.4-1.7l0,0l-5.8-12.5l19-19
		C64.4,5.3,64.4,2.7,62.8,1.2z M36,16c0-4.4-3.6-8-8-8c-4.4,0-8,3.6-8,8c0,4.4,3.6,8,8,8C32.4,24,36,20.4,36,16z M17.6,10L8.8,1.2
		c-1.6-1.6-4.1-1.6-5.7,0c-1.6,1.6-1.6,4.1,0,5.7l13.7,13.7C16.3,19.2,16,17.6,16,16C16,13.8,16.6,11.7,17.6,10z"/>
</svg>
