<svg version="1.1"  xmlns="http://www.w3.org/2000/svg" xmlns:xlink="http://www.w3.org/1999/xlink" x="0px" y="0px"
	 viewBox="0 0 32 32" style="enable-background:new 0 0 32 32;" xml:space="preserve">
<path id="quality_32" d="M30,4H2C0.9,4,0,4.9,0,6v16c0,1.1,0.9,2,2,2h11v2h-3c-0.6,0-1,0.4-1,1c0,0.6,0.4,1,1,1h12c0.6,0,1-0.4,1-1
	c0-0.6-0.4-1-1-1h-3v-2h11c1.1,0,2-0.9,2-2V6C32,4.9,31.1,4,30,4z M28,20H4V8h5v9c0,0.6,0.4,1,1,1h18V20z M28,16H11V8h5v5
	c0,0.6,0.4,1,1,1h11V16z M28,12H18V8h10V12z"/>
</svg>
