<svg data-name="Layer 1" xmlns="http://www.w3.org/2000/svg" viewBox="0 0 100.1 81.4"><path d="M100.1 9.7a42 42 0 0 1-11.8 3.2 20.5 20.5 0 0 0 9-11.4 42.8 42.8 0 0 1-13 5 20.5 20.5 0 0 0-35.5 14.1 24.2 24.2 0 0 0 .5 4.7A58.1 58.1 0 0 1 7 3.9a20.1 20.1 0 0 0-2.8 10.3 20.6 20.6 0 0 0 9.1 17.1A19.7 19.7 0 0 1 4 28.7v.3a20.6 20.6 0 0 0 16.5 20.1 19 19 0 0 1-5.4.7 17.2 17.2 0 0 1-3.9-.4 20.6 20.6 0 0 0 19.2 14.3 41.2 41.2 0 0 1-25.5 8.8 39.1 39.1 0 0 1-4.9-.3 58.4 58.4 0 0 0 31.5 9.2c37.7 0 58.4-31.3 58.4-58.4a24.4 24.4 0 0 0-.1-2.7 38.5 38.5 0 0 0 10.3-10.6z"/></svg>