<svg xmlns="http://www.w3.org/2000/svg" width="33" height="20" viewBox="0 0 33 20"><path d="M19.6 9.9c0 5.4-4.4 9.8-9.8 9.8S0 15.3 0 9.9 4.4.1 9.8.1s9.8 4.4 9.8 9.8" fill="#C00" fill-rule="evenodd"/><path d="M23 .1c-2.6 0-4.9 1-6.6 2.5-.4.4-.7.7-1 1.1h2c.3.3.5.7.7 1h-3.4c-.2.3-.4.7-.6 1.1h4.6c.2.3.3.6.4 1h-5.4c-.1.3-.2.7-.3 1h6c.1.7.2 1.4.2 2.1 0 1.1-.2 2.1-.5 3.1h-5.4c.1.4.2.7.4 1h4.6c-.2.4-.4.7-.6 1.1h-3.4c.2.3.4.7.7 1h2c-.3.4-.7.7-1 1.1 1.7 1.5 4 2.5 6.6 2.5 5.4 0 9.8-4.4 9.8-9.8S28.4.1 23 .1" fill="#F90" fill-rule="evenodd"/><path d="M7.5 11h-.2c-.6 0-.9.2-.9.6 0 .2.1.4.4.4.4 0 .7-.4.7-1zm.8 1.8h-.9l.1-.5c-.3.4-.7.5-1.2.5s-.9-.4-.9-1.1c0-.9.7-1.5 1.8-1.5h.5v-.3c0-.2-.2-.3-.7-.3-.5 0-.9.1-1.1.2 0-.1.2-.9.2-.9.5-.2.8-.3 1.2-.3.9 0 1.4.5 1.4 1.2 0 .2 0 .5-.1.8-.1.6-.3 1.9-.3 2.2zM4.9 12.8h-1L4.5 9l-1.4 3.8h-.7L2.3 9l-.6 3.8h-1l.8-5H3l.1 2.8.9-2.8h1.7l-.8 5M24.3 11H24c-.6 0-.9.2-.9.6 0 .2.2.4.4.4.4 0 .8-.4.8-1zm.8 1.8h-.9v-.5c-.3.4-.6.5-1.1.5-.6 0-1-.4-1-1.1 0-.9.7-1.5 1.9-1.5h.4v-.3c0-.2-.1-.3-.6-.3-.6 0-1 .1-1.2.2.1-.1.2-.9.2-.9.5-.2.9-.3 1.3-.3.9 0 1.4.5 1.4 1.2 0 .2-.1.5-.1.8-.1.6-.3 1.9-.3 2.2zM13 12.7c-.3.1-.5.1-.7.1-.6 0-.9-.3-.9-.8 0-.2.1-.7.2-1.1 0-.4.4-2.8.4-2.8h1.1l-.1.6h.6l-.1 1h-.7c-.1.8-.3 1.7-.3 1.9 0 .2.1.3.4.3.1 0 .2-.1.3-.1l-.2.9" fill="#006" fill-rule="evenodd"/><path d="M16.3 12.7c-.4.1-.7.1-1.1.1-1.2 0-1.8-.6-1.8-1.8 0-1.3.8-2.4 1.8-2.4.9 0 1.5.6 1.5 1.5 0 .3-.1.6-.2 1h-2.1c0 .6.3.8 1 .8.3 0 .7-.1 1-.2l-.1 1zm-.6-2.4c0-.1.1-.7-.5-.7-.3 0-.6.2-.7.7h1.2zM9 10c0 .5.2.9.8 1.1.4.2.5.3.5.5s-.2.3-.7.3c-.3 0-.6 0-.9-.1 0 0-.1.9-.2.9.3.1.5.1 1.2.1 1.1 0 1.6-.4 1.6-1.3 0-.6-.2-.9-.8-1.1-.4-.2-.5-.3-.5-.5s.2-.3.6-.3c.2 0 .5 0 .7.1l.2-1c-.3 0-.7-.1-1-.1-1.1 0-1.6.7-1.5 1.4M21.4 8.7c.3 0 .6.1 1 .3l.2-1.1c-.2 0-.7-.4-1.2-.4-.7 0-1.3.4-1.7 1-.7-.3-.9.2-1.2.6h-.3v-.4h-.9c-.2 1.3-.4 2.5-.6 3.8v.3h1c.2-1.2.3-1.9.4-2.4l.4-.2c0-.3.2-.3.6-.3-.1.2-.1.5-.1.8 0 1.3.7 2.1 1.9 2.1.3 0 .5 0 .9-.1l.2-1.1c-.4.1-.7.2-.9.2-.6 0-1-.4-1-1.2 0-1.1.5-1.9 1.3-1.9M30.4 7.8l-.2 1.4c-.3-.3-.6-.6-1-.6-.6 0-1 .4-1.4 1-.4-.1-.9-.3-.9-.3.1-.3.1-.5.1-.6h-1c-.1 1.3-.4 2.5-.5 3.8l-.1.3h1.1c.1-1 .2-1.7.3-2.4.4-.3.5-.6.9-.5-.1.3-.2.8-.2 1.3 0 1 .5 1.6 1.2 1.6.4 0 .7-.1 1-.4v.4h1l.8-5h-1.1zm-1.3 4c-.4 0-.5-.2-.5-.8 0-.8.3-1.3.8-1.3.4 0 .5.3.5.8 0 .8-.3 1.3-.8 1.3z" fill="#006" fill-rule="evenodd"/><path fill="#FFF" fill-rule="evenodd" d="M5.2 12.5h-1l.6-3.8-1.4 3.8h-.7l-.1-3.8-.6 3.8H1l.8-5h1.5l.1 3.1 1-3.1h1.7l-.9 5M7.8 10.7h-.2c-.6 0-.9.2-.9.6 0 .2.2.4.4.4.4 0 .7-.4.7-1zm.8 1.8h-.9l.1-.4c-.3.3-.7.4-1.2.4s-.9-.4-.9-1.1c0-.9.7-1.5 1.8-1.5H8v-.2c0-.3-.2-.4-.7-.4-.5 0-.9.1-1.1.2 0-.1.2-.9.2-.9.5-.2.8-.3 1.2-.3.9 0 1.4.5 1.4 1.2 0 .2 0 .5-.1.8-.1.6-.3 1.9-.3 2.2zM22.9 7.6l-.2 1.1c-.4-.2-.7-.2-1-.2-.7 0-1.3.7-1.3 1.8 0 .8.4 1.2 1 1.2.2 0 .5-.1.9-.2l-.2 1.1c-.4.1-.6.1-.9.1-1.2 0-1.9-.8-1.9-2.1 0-1.8 1-3 2.4-3 .5 0 1 .2 1.2.2M24.6 10.7h-.3c-.6 0-.9.2-.9.6 0 .2.2.4.4.4.5 0 .8-.4.8-1zm.8 1.8h-.9v-.4c-.3.3-.6.4-1.1.4-.6 0-1-.4-1-1.1 0-.9.7-1.5 1.9-1.5h.4c0-.1.1-.2.1-.2 0-.3-.2-.4-.7-.4-.5 0-1 .1-1.2.2.1-.1.2-.9.2-.9.5-.2.9-.3 1.3-.3.9 0 1.4.5 1.4 1.2 0 .2-.1.5-.1.8-.1.6-.3 1.9-.3 2.2zM13.3 12.4c-.3.1-.5.1-.7.1-.6 0-.9-.3-.9-.8 0-.2.1-.7.2-1.1 0-.4.4-2.8.4-2.8h1.1l-.1.6h.5l-.1 1h-.6c-.1.8-.3 1.7-.3 1.9 0 .2.1.3.4.3.1 0 .2-.1.3-.1l-.2.9M16.6 12.4c-.4.1-.7.1-1.1.1-1.2 0-1.8-.6-1.8-1.8 0-1.3.8-2.4 1.8-2.4.9 0 1.5.6 1.5 1.5 0 .3-.1.6-.2 1h-2.1c0 .6.3.8 1 .8.3 0 .7 0 1.1-.2l-.2 1zM16 10c0-.1.1-.7-.5-.7-.3 0-.6.2-.7.7H16zM9.3 9.7c0 .5.2.9.8 1.1.4.2.5.3.5.5s-.2.4-.6.4c-.4 0-.7-.1-1-.2l-.1.9c.2.1.4.1 1.1.1 1.1 0 1.6-.4 1.6-1.3 0-.6-.2-.9-.8-1.1-.4-.2-.4-.3-.4-.5s.1-.3.5-.3c.2 0 .5 0 .7.1l.2-1c-.3 0-.7-.1-.9-.1-1.2 0-1.6.7-1.6 1.4M31 12.5h-1v-.4c-.3.3-.6.4-1 .4-.7 0-1.2-.6-1.2-1.6 0-1.4.8-2.5 1.7-2.5.4 0 .7.2 1 .5l.2-1.4h1.1l-.8 5zm-1.6-1c.5 0 .9-.5.9-1.3 0-.5-.2-.8-.6-.8-.5 0-.8.6-.8 1.3 0 .6.2.8.5.8zM26.3 8.4c-.1 1.3-.4 2.6-.5 3.8l-.1.3h1.1c.4-2.5.4-3 1-2.9.1-.5.3-1 .4-1.2-.4-.1-.6.2-1 .6.1-.2.1-.4.1-.6h-1M17.6 8.4c-.2 1.3-.4 2.6-.6 3.8v.3h1c.4-2.5.5-3 1.1-2.9.1-.5.3-1 .4-1.2-.4-.1-.7.2-1 .6 0-.2.1-.4 0-.6h-.9"/></svg>