<svg xmlns="http://www.w3.org/2000/svg" viewBox="0 0 24 24"><path d="M5.3 24H3.7c-.4 0-.7-.3-.7-.8v-5.9c0-.4.4-.8.8-.8h1.4c.4 0 .7.3.7.8v5.9c.1.5-.2.8-.6.8zM10.3 24H8.7c-.4 0-.7-.3-.7-.8V12.7c0-.4.4-.7.8-.7h1.4c.4 0 .7.3.7.7v10.5c.1.5-.2.8-.6.8zM20.2 24h-1.5c-.4 0-.8-.3-.8-.8V12.7c0-.4.4-.7.8-.7h1.4c.4 0 .8.3.8.7v10.5c.1.5-.2.8-.7.8zM15.3 24h-1.5c-.4 0-.7-.3-.7-.8v-7.4c0-.4.4-.7.8-.7h1.4c.4 0 .7.3.7.7v7.4c0 .5-.3.8-.7.8z"/><path d="M23.7 1.3l-1-1c-.4-.4-1-.4-1.4 0l-6.4 6.4-5.2-4.4c-.4-.4-1-.4-1.4 0l-8 8c-.4.4-.4 1 0 1.4l1 1c.4.4 1 .4 1.4 0l6.4-6.4 5.2 4.4c.4.4 1 .4 1.4 0l8-8c.4-.4.4-1 0-1.4z"/></svg>