<svg xmlns="http://www.w3.org/2000/svg" viewBox="0 0 64 64"><path d="M55.788 30.62A18.11 18.11 0 0 0 56 28c0-9.941-8.059-18-18-18-7.202 0-13.398 4.24-16.276 10.35A8.949 8.949 0 0 0 17 19a9 9 0 0 0-9 9c0 .89.134 1.748.375 2.56C3.52 32.098 0 36.636 0 42c0 6.627 5.373 12 12 12h16V41.071l-2.464 2.464a2 2 0 0 1-2.828 0l-2.121-2.121a2 2 0 0 1 0-2.828l10-10a2 2 0 0 1 2.828 0l10 10a2 2 0 0 1 0 2.828l-2.121 2.121a2 2 0 0 1-2.828 0L36 41.071V54h16c6.627 0 12-5.373 12-12 0-5.302-3.443-9.793-8.212-11.38z"/></svg>