<svg xmlns="http://www.w3.org/2000/svg" viewBox="0 0 64 64"><path d="M14 12c-1.2 0-2.4-.6-3.2-1.6-1.3-1.8-1-4.3.8-5.6C16.1 1.4 20.5.2 21 .1c2.1-.5 4.3.8 4.8 2.9.5 2.1-.8 4.3-2.9 4.8-.1 0-3.4.9-6.6 3.3-.6.6-1.5.9-2.3.9zm28 0c-.8 0-1.7-.3-2.4-.8C36.4 8.8 33 7.9 33 7.9c-2.1-.6-3.4-2.7-2.9-4.9.5-2.1 2.7-3.4 4.8-2.9.5.1 4.9 1.3 9.4 4.7 1.8 1.3 2.1 3.8.8 5.6-.7 1-1.9 1.6-3.1 1.6zm10 16c-2.2 0-4-1.8-4-4 0-2.5-1.1-5.3-1.6-6.2-1-2-.2-4.4 1.8-5.4s4.4-.2 5.4 1.8c.2.5 2.4 5 2.4 9.8 0 2.2-1.8 4-4 4zM4 28c-2.2 0-4-1.8-4-4 0-4.8 2.2-9.3 2.4-9.8 1-2 3.4-2.8 5.4-1.8 2 1 2.8 3.4 1.8 5.4-.5.9-1.6 3.7-1.6 6.2 0 2.2-1.8 4-4 4zm0 4c-2.2 0-4 1.8-4 4v6c0 2.2 1.8 4 4 4s4-1.8 4-4v-6c0-2.2-1.8-4-4-4zm0 18c-2.2 0-4 1.8-4 4v6c0 2.2 1.8 4 4 4s4-1.8 4-4v-6c0-2.2-1.8-4-4-4zm36-6c0-6.6 5.4-12 12-12s12 5.4 12 12-5.4 12-12 12-12-5.4-12-12z"/></svg>