<svg xmlns="http://www.w3.org/2000/svg" viewBox="0 0 48 48"><path d="M7.5 48h-3A1.5 1.5 0 0 1 3 46.5v-12A1.5 1.5 0 0 1 4.5 33h3A1.5 1.5 0 0 1 9 34.5v12A1.5 1.5 0 0 1 7.5 48zM19.5 48h-3a1.5 1.5 0 0 1-1.5-1.5v-21a1.5 1.5 0 0 1 1.5-1.5h3a1.5 1.5 0 0 1 1.5 1.5v21a1.5 1.5 0 0 1-1.5 1.5zM31.5 48h-3a1.5 1.5 0 0 1-1.5-1.5v-15a1.5 1.5 0 0 1 1.5-1.5h3a1.5 1.5 0 0 1 1.5 1.5v15a1.5 1.5 0 0 1-1.5 1.5zM43.5 48h-3a1.5 1.5 0 0 1-1.5-1.5v-21a1.5 1.5 0 0 1 1.5-1.5h3a1.5 1.5 0 0 1 1.5 1.5v21a1.5 1.5 0 0 1-1.5 1.5zM47.561 2.556L45.44.435a1.495 1.495 0 0 0-2.082-.026h-.012L30.212 12.904l-10.413-7.81-.006.009a2.978 2.978 0 0 0-3.914.272L.439 20.814a1.5 1.5 0 0 0 0 2.121l2.121 2.121a1.5 1.5 0 0 0 2.121 0l13.171-13.171 10.349 7.762.006-.009a2.974 2.974 0 0 0 1.793.607c.813 0 1.549-.327 2.089-.852h.005L47.533 4.704v-.009c.008-.008.019-.01.027-.018a1.5 1.5 0 0 0 .001-2.121z"/></svg>