<svg xmlns="http://www.w3.org/2000/svg" viewBox="0 0 16 16"><path d="M10.895 6.224l-.367-.368c-.152-.152-.413-.138-.583.033L7.27 8.571 6.032 7.328a.39.39 0 0 0-.551 0l-.367.369a.391.391 0 0 0 0 .552l1.881 1.887a.389.389 0 0 0 .551 0l3.317-3.327c.169-.171.184-.433.032-.585z"/><path d="M13.906 3.173L9.094.303a2.133 2.133 0 0 0-2.188 0l-4.812 2.87A2.275 2.275 0 0 0 1 5.13v5.74c0 .807.417 1.553 1.094 1.957l4.812 2.87a2.133 2.133 0 0 0 2.188 0l4.812-2.87A2.275 2.275 0 0 0 15 10.87V5.13c0-.807-.417-1.553-1.094-1.957zM13 11l-5 3-5-3V5l5-3 5 3v6z"/></svg>