<svg xmlns="http://www.w3.org/2000/svg" viewBox="0 0 64 64"><path d="M32 0C14.3 0 0 14.3 0 32v4c0 6.6 5.4 12 12 12h2v12c0 2.2 1.8 4 4 4h2V52c0-1.1.9-2 2-2s2 .9 2 2v12h6V52c0-1.1.9-2 2-2s2 .9 2 2v12h6V52c0-1.1.9-2 2-2s2 .9 2 2v12h2c2.2 0 4-1.8 4-4V48h2c6.6 0 12-5.4 12-12v-4C64 14.3 49.7 0 32 0M16 38c-4.4 0-8-3.6-8-8s3.6-8 8-8 8 3.6 8 8-3.6 8-8 8m20 6h-8c-1.1 0-2-.9-2-2 0-.4.1-.8.4-1.1l4-6c.4-.5.9-.9 1.6-.9s1.3.4 1.6.9l4 6c.2.3.4.7.4 1.1 0 1.1-.9 2-2 2m12-6c-4.4 0-8-3.6-8-8s3.6-8 8-8 8 3.6 8 8-3.6 8-8 8"/></svg>