<svg xmlns="http://www.w3.org/2000/svg" viewBox="0 0 109.6 65.1"><path d="M99.3 41s10.3 1.2 10.3 12.3c0 5.4-3 11.8-10.3 11.8H40.5c-11.3 0-15.4-7.7-15.4-15.7C25.1 36.2 40 35.7 40 35.7s1.2-14.6 14.2-17.5c11.6-2.6 18.1 3.4 21.2 8.1 0 0 7-4 15-.5 4.7 2.1 9.3 7 8.9 15.2z"/><path d="M21.4 50c0-14.8 15.7-17 15.7-17s2-14.2 16.2-17.9c11-2.8 19.4 2.1 22.9 7.6 0 0 2.4-1.7 7.7-1.6-.5-4.8-3.9-15-15-19.4-12.7-4.9-23.7 1.2-28.8 10.5 0 0-7.8-5-17.1-.3-6.5 3.3-10.6 11.1-9.8 18.7 0 0-13.2 1-13.2 15.2 0 7.8 7 14.7 14.6 14.7h9.8c-2.4-3.7-3-7.5-3-10.5z"/></svg>