<svg xmlns="http://www.w3.org/2000/svg" viewBox="0 0 32 32"><circle cx="26" cy="22" r="6"/><path d="M2 25a2 2 0 0 0-2 2v3a2 2 0 1 0 4 0v-3a2 2 0 0 0-2-2zM2 16a2 2 0 0 0-2 2v3a2 2 0 1 0 4 0v-3a2 2 0 0 0-2-2zM2 14a2 2 0 0 1-2-2c0-2.403 1.087-4.646 1.211-4.895a2 2 0 0 1 3.581 1.783C4.571 9.336 4 10.768 4 12a2 2 0 0 1-2 2zM26 14a2 2 0 0 1-2-2c0-1.232-.571-2.664-.792-3.111a2.003 2.003 0 0 1 .905-2.677 1.997 1.997 0 0 1 2.676.894C26.913 7.354 28 9.597 28 12a2 2 0 0 1-2 2zM20.998 6a1.99 1.99 0 0 1-1.198-.4c-1.624-1.218-3.277-1.658-3.294-1.662a2.004 2.004 0 0 1-1.439-2.431A1.996 1.996 0 0 1 17.486.06c.244.062 2.457.647 4.715 2.34A2 2 0 0 1 20.998 6zM7.002 6A2 2 0 0 1 5.8 2.4C8.058.707 10.271.121 10.515.06a2 2 0 1 1 .979 3.879c-.055.014-1.688.457-3.294 1.661-.36.27-.781.4-1.198.4z"/></svg>