<svg xmlns="http://www.w3.org/2000/svg" viewBox="0 0 460.2 243.7"><path d="M237.5 72c-32.9 0-61.4 18.5-75.8 45.6-14.4-27.1-43-45.6-75.9-45.6-19.3 0-37.1 6.4-51.5 17.2V16.8C34.1 7.5 26.5 0 17.1 0 7.8 0 .2 7.5 0 16.8v142.4c.8 46.8 38.9 84.4 85.8 84.4 32.9 0 61.5-18.5 75.9-45.6 14.4 27.1 43 45.6 75.8 45.6 47.4 0 85.9-38.4 85.9-85.9 0-47.3-38.5-85.7-85.9-85.7M85.8 209.3c-28.4 0-51.5-23-51.5-51.5 0-28.4 23.1-51.5 51.5-51.5s51.5 23 51.5 51.5-23 51.5-51.5 51.5m151.7 0c-28.4 0-51.5-23-51.5-51.5 0-28.4 23.1-51.5 51.5-51.5s51.5 23 51.5 51.5-23 51.5-51.5 51.5"/><path d="M456.6 215l-46.7-57.2 46.7-57.4c5.9-7.6 4.2-18.1-3.9-23.7-8.2-5.7-19.6-4.2-25.9 3.1L386.6 129l-40.2-49.3c-6.3-7.3-17.8-8.8-25.9-3.1-8.1 5.6-9.8 16.2-3.9 23.7l46.6 57.4-46.6 57.3c-5.9 7.6-4.2 18.1 3.9 23.8 8.1 5.6 19.7 4.2 25.9-3.2l40.2-49.2 40.1 49.2c6.3 7.4 17.8 8.8 25.9 3.2 8.2-5.7 9.9-16.3 4-23.8"/></svg>