<svg xmlns="http://www.w3.org/2000/svg" viewBox="0 0 32 32"><circle cx="16" cy="16" r="16"/><path d="M21 4v2.2c3.6 1.8 6 5.5 6 9.8 0 6.1-4.9 11-11 11S5 22.1 5 16c0-4.3 2.4-8 6-9.8V4c-4.7 2-8 6.6-8 12 0 7.2 5.8 13 13 13s13-5.8 13-13c0-5.4-3.3-10-8-12z" fill="#fff"/><path d="M16 2c-1.7 0-3 1.3-3 3s1.3 3 3 3 3-1.3 3-3-1.3-3-3-3zm-.3 4.6c-.7 0-.7-2.1-1.2-2.1-.1 0-.3.2-.3.2l-.2-.2s.8-.8 1.1-.8c.7 0 .5 1.9.8 1.9.2 0 1-1.2.3-1.2-.1 0-.2.1-.2.1.2-.5.5-.8 1-.8.3 0 .5.3.5.7.2.6-1.2 2.2-1.8 2.2zM21 10h-4v14h2v-6h2c1.1 0 2-.9 2-2v-4c0-1.1-.9-2-2-2zm0 6h-2v-4h2v4zM16 14v-2c0-1.1-.9-2-2-2h-2c-1.1 0-2 .9-2 2v4c0 1.1.9 2 2 2h2v4h-2v-2h-2v2c0 1.1.9 2 2 2h2c1.1 0 2-.9 2-2v-4c0-1.1-.9-2-2-2h-2v-4h2v2h2z" fill="#fff"/></svg>