<svg xmlns="http://www.w3.org/2000/svg" viewBox="0 0 24 24"><path d="M20.921 9.498A6.37 6.37 0 0 0 21 8.545C21 4.93 17.978 2 14.25 2c-2.701 0-5.024 1.542-6.103 3.764a3.428 3.428 0 0 0-1.772-.491C4.511 5.273 3 6.738 3 8.545c0 .324.05.636.141.931C1.32 10.035 0 11.686 0 13.636 0 16.046 2.015 18 4.5 18H6a3 3 0 0 1 3-3v-3a2 2 0 0 1 2-2h2a2 2 0 0 1 2 2v3a3 3 0 0 1 3 3h1.5c2.485 0 4.5-1.954 4.5-4.364 0-1.928-1.291-3.561-3.079-4.138z"/><path d="M15.854 17.646l-.707-.707a.5.5 0 0 0-.707 0L13 18.379V12.5a.5.5 0 0 0-.5-.5h-1a.5.5 0 0 0-.5.5v5.879L9.561 16.94a.5.5 0 0 0-.707 0l-.707.707a.5.5 0 0 0 0 .707l3.5 3.5a.5.5 0 0 0 .707 0l3.5-3.5a.502.502 0 0 0 0-.708z"/></svg>