<svg xmlns="http://www.w3.org/2000/svg" viewBox="0 0 134 48"><g fill="#3D3E4B"><path d="M55.582 13.84c0-.662-1.855-3.81-5.07-3.81-1.07 0-1.69 1.946-1.69 3.065 0 1.533 2.398 4.01 4.74 3.936 2.27-.76 2.02-3.19 2.02-3.19z"/><path d="M108.562 15.084c1.195 0 2.102.25 2.72.87.206.207.247.373.247.497 0 .208-.166.332-.166.457s.165.25.37.25 1.938-1.658 1.938-2.61c0-1.286-1.896-1.7-2.802-1.7-2.184 0-5.234 1.202-9.355 2.362.577-1.244.907-2.197.907-2.86 0-1.243-3.35-3.93-5.123-3.93-.248 0-.616.217-.977.823-.17.284-1.73 3.646-3.71 7.83-2.02.25-4.203.415-6.51.415-1.565 0-.67-.87-1.114-.87-.496 0-1.767 2.9 1.112 2.9 1.813 0 3.71-.207 5.646-.58-1.29 2.813-2.57 5.727-3.5 8.383a9.593 9.593 0 0 0-1.662-.137c-.99 0-2.06.166-3.174.456-1.32-2.197-3.09-4.393-3.668-6.755.66-1.16 2.65-4.538-.247-4.538-1.03 0-3.772 1.503-3.772 4.734 0 .912.64 2.042.97 2.954l.042.112C75.62 26.56 71.13 36.042 65.847 36.95c4.41-2.983 8.17-11.994 8.17-13.65 0-1.617-3.09-4.89-5.4-4.89-2.513 0-6.398 7.074-8.335 11.176 2.02-4.433 3.792-7.955 3.792-8.287 0-1.244-3.74-3.34-5.51-3.34-.248 0-.436.222-.754.895-.187.395-2.37 5.082-4.823 10.363-2.68 4.947-4.943 7.33-6.058 7.33-.33 0-.372-.498-.372-.54 0-4.682 6.058-14.13 6.058-15.33 0-1.243-3.446-3.3-5.26-3.3-.246 0-.65.136-1.004.856-.347.706-5.687 9.82-5.687 14.42 0 2.816 3.503 5.51 5.646 5.51 1.217 0 2.646-1.257 3.95-2.83-1.502 3.567-2.628 6.73-2.628 8.258 0 2.735 3.833 4.558 4.822 4.558.536 0 1.32-.207 1.32-.83 0-5.84 12.332-26.38 13.94-26.38.124 0 .206.165.206.455 0 2.196-3.638 11.176-6.646 13.455-.536-.207-1.154-.373-1.813-.373a.882.882 0 0 0-.906.87c0 1.367 3.05 2.765 6.1 2.765 6.746 0 11.76-10.757 12.585-12.697.616 1.363 1.313 2.685 1.765 4.048-3.586 1.906-6.512 4.64-6.512 6.464 0 1.7 3.38 2.32 5.523 2.32 2.267 0 6.965-1.45 6.965-6.132 0-1.243-.452-2.445-1.07-3.646.865-.208 1.77-.333 2.678-.333.574 0 .995.1 1.306.244-.646 2.014-1.05 3.84-1.05 5.31 0 2.734 3.833 4.557 4.822 4.557.37 0 .907-.704.907-1.367 0-6.05 5.482-14.585 8.285-20.22 3.006-.87 5.726-1.576 7.704-1.576zM76.16 36.214c-1.03 0-1.485-.372-1.485-.952 0-1.16 1.896-3.232 4.616-4.848.083.456.166.912.166 1.326 0 2.735-1.65 4.475-3.297 4.475z"/><path d="M129.39 16.587c-1.03 0-2.31 1.12-2.64 3.978-1.483 1.533-4.203 5.842-6.057 9.364 1.896-4.27 4.45-8.288 4.45-8.826 0-1.243-3.442-3.27-5.214-3.27-.248 0-.76.108-1.05.826-.192.472-2.622 5.25-4.473 9.35 0 .003-.003.004-.004.006-.824 1.284-4.17 8.625-9.36 8.625-1.485 0-2.103-1.035-2.103-2.568 0-1.284.453-2.9 1.195-4.516.412.33 1.195.746 2.102.746 4.368 0 7.995-7.79 7.995-9.737 0-.704-.99-1.036-1.978-1.036-.742 0-1.443.165-1.73.455-1.114-1.077-2.845-2.113-4.864-2.113-2.802 0-8.614 8.95-8.614 14.543 0 3.895 5.646 5.718 7.542 5.718 3.632 0 6.375-2.785 8.057-5.167-.02.145-.03.28-.03.402 0 2.735 3.892 4.558 4.882 4.558.536 0 1.378-.207 1.378-.87v-.332c1-3.025 5.628-11.643 7.853-14.295.082 4.35 2.113 5.385 3.308 5.385 1.236 0 1.675-.87 1.675-1.036 0-.208-.09-.498-.295-.498-.206 0-.25.663-.746.663-.166 0-.745-.29-.745-1.077 0-3.522 4.285-5.22 4.285-6.422 0-1.492-3.338-2.86-4.82-2.86zm-19.28 6.38c-.865 4.226-3.708 6.215-4.615 6.215-.7 0-.866-.29-1.03-.373 1.4-2.694 3.502-5.18 5.646-5.843z"/></g><path fill="#3D3E4B" d="M10.527 6.516c.156-.053.304-.08.445-.082.125 0 .168.124.17.376.024 2.644-6.483 19.166-6.442 23.868.025 2.854 3.826 7.797 7.96 7.76 1.25-.01 3.67-1.785 6.36-4.58 1.527 2.758 5.42 4.912 7.13 5.017 7.02.43 21.18-24.156 21.105-32.677-.035-3.988-6.4-6.072-9.03-6.05-.585.006-.792.218-.79.512.004.378.384.836.927.832.668-.006 1.88.067 1.897 2.124.082 9.528-10.167 31.154-13.716 31.185-.668.007-.966-.662-.975-1.71-.022-2.394 1.36-6.856 2.62-10.56 1.856-2.746 3.09-5.024 3.08-6.03-.023-2.646-3.173-4.8-5.47-4.78-2.756.024-6.61 12.988-7.313 18.367-2.19 2.706-4.218 4.697-5.345 4.707-.5.004-.714-.497-.722-1.337-.038-4.365 5.436-18.183 5.4-22.422-.032-3.568-4.32-6.888-6.992-6.865-.102 0-.205.005-.31.012C6.267 4.458.18 10.59.21 14.112c.03 3.282 4.895 5.588 5.548 5.582.31-.003.82-.49.817-.836-.004-.484-1.034-.405-1.058-3.065C5.483 12 8.608 7.17 10.527 6.516z"/></svg>