<svg xmlns="http://www.w3.org/2000/svg" viewBox="0 0 64 64"><path d="M10 64H6c-1.1 0-2-.9-2-2V46c0-1.1.9-2 2-2h4c1.1 0 2 .9 2 2v16c0 1.1-.9 2-2 2z" fill="#a3dd24"/><path d="M26 64h-4c-1.1 0-2-.9-2-2V34c0-1.1.9-2 2-2h4c1.1 0 2 .9 2 2v28c0 1.1-.9 2-2 2z" fill="#7fc400"/><path d="M42 64h-4c-1.1 0-2-.9-2-2V42c0-1.1.9-2 2-2h4c1.1 0 2 .9 2 2v20c0 1.1-.9 2-2 2z" fill="#a3dd24"/><path d="M58 64h-4c-1.1 0-2-.9-2-2V34c0-1.1.9-2 2-2h4c1.1 0 2 .9 2 2v28c0 1.1-.9 2-2 2z" fill="#7fc400"/><path d="M63.4 3.4L60.6.6c-.8-.8-2-.8-2.8 0L40.3 17.2 26.4 6.8c-.7-.5-1.5-.8-2.4-.8-1.1 0-2.1.4-2.8 1.2L.6 27.8c-.8.8-.8 2 0 2.8l2.8 2.8c.8.8 2 .8 2.8 0l17.6-17.6 13.8 10.3c.7.5 1.5.8 2.4.8 1.1 0 2.1-.4 2.8-1.1L63.4 6.3c.8-.8.8-2.1 0-2.9z" fill="#2e9a01"/></svg>