<svg xmlns="http://www.w3.org/2000/svg" viewBox="0 0 32 32"><path d="M16 0C7.2 0 0 7.2 0 16s7.2 16 16 16 16-7.2 16-16S24.8 0 16 0zm-5.6 24.9l-.5 1.4c-2.3-1.4-4.1-3.5-5.1-6.1l.1.2c.3.5.8.9 1.4.9h1c.4 0 .8.2 1.1.5l1.5 1.5c.5.4.6 1.1.5 1.6zm4.3-12.2c0 .4-.2.8-.5 1.1l-1.7 1.7c-.3.3-.5.7-.5 1.1v.4c0 .9-.7 1.6-1.6 1.6h-.1c-.6 0-1.2-.3-1.4-.9l-.5-.9c-.2-.5-.8-.8-1.4-.8h-.7c-.6 0-1.2.3-1.4.9L4.4 18c-.1.1-.1.2-.1.4-.2-.8-.3-1.6-.3-2.4 0-2.9 1-5.5 2.7-7.5v.6c0 .9.7 1.6 1.6 1.6h.4c.4 0 .8-.2 1.1-.5l.4-.4c.3-.3.7-.5 1.1-.5h1.3c.4 0 .8.2 1.1.5l.4.4c.3.3.5.7.5 1.1v1.4zM16 4.4c0 .6-.3 1.2-.9 1.4l-.8.4c-.6.3-1.4.2-1.8-.3l-1-1c1.4-.6 2.9-.9 4.5-.9v.4zm5.3 6.5c0-.9.7-1.6 1.6-1.6.7 0 1.2-.4 1.5-1l.3-.6c1.2 1.2 2.1 2.7 2.6 4.3-.4 0-.8.2-1.1.5l-.4.4c-.3.3-.7.5-1.1.5h-1.3c-.4 0-.8-.2-1.1-.5l-.4-.4c-.3-.3-.5-.7-.5-1.1v-.5zM22.6 26c-.1-.5-.3-.9-.7-1.1l-2.6-1.7c-.4-.3-.7-.8-.7-1.3v-2.3c0-.5.3-1 .7-1.3l2.9-1.9c.3-.2.6-.3.9-.3h3.1c.2 0 .5.1.7.2l1 .5c-.1 3.7-2.2 7.2-5.3 9.2z"/></svg>