<svg xmlns="http://www.w3.org/2000/svg" viewBox="0 0 24 24"><path d="M12 0C5.4 0 0 5.4 0 12s5.4 12 12 12 12-5.4 12-12S18.6 0 12 0zm-1 9.6c0 .3-.1.5-.3.7l-1.4 1.4c-.2.2-.3.4-.3.7v.6c0 .6-.4 1-1 1h-.4c-.4 0-.7-.2-.9-.6l-.4-.9c-.2-.3-.5-.5-.9-.5h-.8c-.4 0-.7.2-.9.6l-.5 1c-.1.3-.1.6 0 .9l.5 1c.2.3.5.5.9.5h1c.3 0 .5.1.7.3l1.3 1.3c.3.3.4.7.2 1l-.7 2.1C4.1 19 2 15.7 2 12c0-2.8 1.2-5.3 3-7.1V7c0 .6.4 1 1 1h.6c.3 0 .5-.1.7-.3l.4-.4c.2-.2.4-.3.7-.3h1.2c.3 0 .5.1.7.3l.4.4c.2.2.3.4.3.7v1.2zm1-6.2c0 .4-.2.7-.6.9l-.8.4c-.4.2-.8.1-1.2-.2L7.9 2.9C9.1 2.3 10.5 2 12 2v1.4zM16 8c0-.6.4-1 1-1h.4c.4 0 .7-.2.9-.6l.7-1.5C20.2 6 21 7.4 21.5 9h-1.1c-.3 0-.5.1-.7.3l-.4.4c-.2.2-.4.3-.7.3h-1.2c-.3 0-.5-.1-.7-.3l-.4-.4c-.2-.2-.3-.4-.3-.7V8zm1 12.7v-1.1c0-.3-.2-.6-.4-.8l-2.1-1.4c-.3-.2-.4-.5-.4-.8v-1.9c0-.3.2-.6.4-.8l2.3-1.5c.2-.1.4-.2.6-.2h2.5c.2 0 .3 0 .4.1l1.7.7c-.4 3.3-2.3 6.1-5 7.7z"/></svg>