<svg xmlns="http://www.w3.org/2000/svg" viewBox="0 0 287.63 182.16"><path d="M116.08 81.44s27.22-2 27.22-33.94S121 0 92.82 0H0v178.38h92.82s56.66 1.79 56.66-52.65c0 0 2.52-44.29-33.4-44.29zM40.9 31.7h51.92s12.62 0 12.62 18.56S98 71.51 89.6 71.51H40.9V31.7zm49.53 115H40.9V99h51.92s18.81-.25 18.81 24.5c0 20.63-13.76 22.97-21.2 23.18zM225.06 45.38c-68.6 0-68.53 68.54-68.53 68.54s-4.71 68.19 68.54 68.19c0 0 61 3.49 61-47.44h-31.36s1 19.18-28.6 19.18c0 0-31.39 2.1-31.39-31h92.43s10.11-77.47-62.09-77.47zM253 99h-58.6s3.84-27.5 31.39-27.5S253 99 253 99zm-66.32-88.49h73.59v21.97h-73.59z"/></svg>