<svg xmlns="http://www.w3.org/2000/svg" viewBox="0 0 32 32"><path d="M31.9 30.6l-8-20c-.1-.3-.5-.6-.9-.6h-2.5c-.4 0-.8.3-.9.6l-3 7.1c-1.2-.3-2.4-.7-3.4-1.3 2-2.3 3.4-5.2 3.8-8.4h2c.6 0 1-.4 1-1V5c0-.6-.4-1-1-1h-7V1c0-.6-.4-1-1-1H9c-.6 0-1 .4-1 1v3H1c-.6 0-1 .4-1 1v2c0 .6.4 1 1 1h11.8c-.4 2.2-1.4 4.3-2.8 5.9-.8-.9-1.5-1.9-2-3.1-.3-.6-1-.8-1.5-.4l-1.7 1.2c-.4.3-.5.8-.3 1.2.6 1.3 1.4 2.5 2.4 3.6C5.2 17.4 3.1 18 1 18c-.6 0-1 .4-1 1v2c0 .6.4 1 1 1 3.3 0 6.4-1 9-2.8 1.5 1 3.2 1.8 5 2.3l-3.9 9.1c-.1.1-.1.3-.1.4 0 .6.4 1 1 1h2.5c.4 0 .8-.3.9-.6l2.3-5.4h7.7l2.1 5.4c.1.4.5.6.9.6H31c.6 0 1-.4 1-1 0-.1 0-.3-.1-.4zM19.4 22l2.3-5.3 2.1 5.3h-4.4z"/></svg>