<svg xmlns="http://www.w3.org/2000/svg" viewBox="0 0 20 20"><title>Enterprise</title><polygon points="4 6 6 6 6 4 4 4 4 6" fill="#1a2e3b" fill-rule="evenodd"/><polygon points="7 6 9 6 9 4 7 4 7 6" fill="#1a2e3b" fill-rule="evenodd"/><path d="M6,10H4.05A0,0,0,0,1,4,10V8.05a0,0,0,0,1,0-.05H6a0,0,0,0,1,0,.05V10A0,0,0,0,1,6,10" fill="#1a2e3b" fill-rule="evenodd"/><path d="M6,14H4.05A0,0,0,0,1,4,14v-1.9a0,0,0,0,1,0-.05H6a0,0,0,0,1,0,.05V14A0,0,0,0,1,6,14" fill="#1a2e3b" fill-rule="evenodd"/><path d="M13,14h-1.9A0,0,0,0,1,11,14v-1.9a0,0,0,0,1,.05-.05H13a0,0,0,0,1,.05.05V14A0,0,0,0,1,13,14" fill="#1a2e3b" fill-rule="evenodd"/><path d="M16,14h-1.9A0,0,0,0,1,14,14v-1.9a0,0,0,0,1,.05-.05H16a0,0,0,0,1,.05.05V14A0,0,0,0,1,16,14" fill="#1a2e3b" fill-rule="evenodd"/><path d="M18,18.07H9V10h9Zm-11,0H2V2h9V8H8.05a1,1,0,0,0-1,1ZM13,8V1a1,1,0,0,0-1-1H1A1,1,0,0,0,0,1V19a1,1,0,0,0,1,1H19a1,1,0,0,0,1-1V9a1,1,0,0,0-1-1Z" fill="#1a2e3b" fill-rule="evenodd"/></svg>