<svg id="Layer_1" xmlns="http://www.w3.org/2000/svg" viewBox="0 0 20 20"><path d="M1,5H12.18a3,3,0,0,0,5.64,0H19a1,1,0,0,0,0-2H17.82a3,3,0,0,0-5.64,0H1A1,1,0,0,0,1,5ZM15,3a1,1,0,1,1-1,1A1,1,0,0,1,15,3Z" fill="#1a2e3b"/><path d="M19,9H7.82A3,3,0,0,0,2.18,9H1a1,1,0,0,0,0,2H2.18a3,3,0,0,0,5.64,0H19a1,1,0,0,0,0-2ZM5,11a1,1,0,1,1,1-1A1,1,0,0,1,5,11Z" fill="#1a2e3b"/><path d="M19,15H17.82a3,3,0,0,0-5.64,0H1a1,1,0,0,0,0,2H12.18a3,3,0,0,0,5.64,0H19a1,1,0,0,0,0-2Zm-4,2a1,1,0,1,1,1-1A1,1,0,0,1,15,17Z" fill="#1a2e3b"/></svg>