<svg id="Layer_1" xmlns="http://www.w3.org/2000/svg" viewBox="0 0 20 20"><path d="M17.74,16.32a10,10,0,0,0,0-12.64l.47-.47a1,1,0,1,0-1.42-1.42l-.47.47a10,10,0,0,0-12.64,0l-.47-.47A1,1,0,0,0,1.79,3.21l.47.47a10,10,0,0,0,0,12.64l-.47.47a1,1,0,0,0,0,1.42,1,1,0,0,0,1.42,0l.47-.47a10,10,0,0,0,12.64,0l.47.47a1,1,0,0,0,1.42,0,1,1,0,0,0,0-1.42ZM18,10a7.92,7.92,0,0,1-1.69,4.9l-2.14-2.15a5,5,0,0,0,0-5.5L16.31,5.1A7.92,7.92,0,0,1,18,10ZM7,10a3,3,0,1,1,3,3A3,3,0,0,1,7,10Zm3-8a7.92,7.92,0,0,1,4.9,1.69L12.75,5.83a5,5,0,0,0-5.5,0L5.1,3.69A7.92,7.92,0,0,1,10,2ZM2,10A7.92,7.92,0,0,1,3.69,5.1L5.83,7.25a5,5,0,0,0,0,5.5L3.69,14.9A7.92,7.92,0,0,1,2,10Zm8,8a7.92,7.92,0,0,1-4.9-1.69l2.15-2.14a5,5,0,0,0,5.5,0l2.15,2.14A7.92,7.92,0,0,1,10,18Z" fill="#1a2e3b"/></svg>