<svg id="Layer_1" xmlns="http://www.w3.org/2000/svg" viewBox="0 0 20 20"><title>list</title><rect id="Rectangle" y="3" width="2" height="2" fill="#1a2e3b"/><rect id="Rectangle-2" y="9" width="2" height="2" fill="#1a2e3b"/><rect id="Rectangle-3" y="15" width="2" height="2" fill="#1a2e3b"/><path id="Rectangle-16" d="M6,3H19a1,1,0,0,1,1,1h0a1,1,0,0,1-1,1H6A1,1,0,0,1,5,4H5A1,1,0,0,1,6,3Z" fill="#1a2e3b"/><path id="Rectangle-16-2" d="M6,9H19a1,1,0,0,1,1,1h0a1,1,0,0,1-1,1H6a1,1,0,0,1-1-1H5A1,1,0,0,1,6,9Z" fill="#1a2e3b"/><path id="Rectangle-16-3" d="M6,15H19a1,1,0,0,1,1,1h0a1,1,0,0,1-1,1H6a1,1,0,0,1-1-1H5A1,1,0,0,1,6,15Z" fill="#1a2e3b"/></svg>