<svg id="Layer_1" xmlns="http://www.w3.org/2000/svg" viewBox="0 0 20 20"><path d="M17.44,3.83,11.6.4a3.33,3.33,0,0,0-3.14,0L2.56,3.83A3.41,3.41,0,0,0,1,6.57v6.86a3.41,3.41,0,0,0,1.56,2.74L8.43,19.6A3.08,3.08,0,0,0,10,20a3.18,3.18,0,0,0,1.57-.39l5.87-3.44A3.41,3.41,0,0,0,19,13.43V6.57A3.41,3.41,0,0,0,17.44,3.83Zm-8-1.71A1.13,1.13,0,0,1,10,2a1.19,1.19,0,0,1,.56.12l5.84,3.43a1.47,1.47,0,0,1,.57,1V9.26A1,1,0,0,0,16.59,9L8.08,4.13,8,4.11V3ZM8,6.4,14.3,10,8,13.66Zm-5,7V6.57a1.43,1.43,0,0,1,.57-1L6,4.14V14.82l-.9.52-1.53-.9A1.43,1.43,0,0,1,3,13.43Zm13.43,1-5.87,3.44a1.37,1.37,0,0,1-1.12,0L7.08,16.5l9.22-5.32.7.4v1.85A1.43,1.43,0,0,1,16.43,14.44Z" fill="#1a2e3b"/></svg>