<?xml version="1.0" encoding="UTF-8"?>
<svg viewBox="0 0 20 20" version="1.1" xmlns="http://www.w3.org/2000/svg" xmlns:xlink="http://www.w3.org/1999/xlink">
    <!-- Generator: Sketch 44.1 (41455) - http://www.bohemiancoding.com/sketch -->
    <title>pencil</title>
    <desc>Created with Sketch.</desc>
    <defs></defs>
    <g id="Exportable" stroke="none" stroke-width="1" fill="none" fill-rule="evenodd">
        <g id="pencil" fill-rule="nonzero" fill="#1A2E3B">
            <g id="Edit" transform="translate(1.000000, 1.000000)">
                <path d="M2.2,15.8 L6,14.8 L16,4.8 C16.2,4.6 16.2,4.3 16,4.1 L13.9,2 C13.7,1.8 13.4,1.8 13.2,2 L11.1,4.1 L13.9,6.9 L12.8,8 L10,5.2 L3.2,12 L2.2,15.8 Z M12.1,0.9 C12.9,0.1 14.1,0.1 14.9,0.9 L17.1,3 C17.9,3.8 17.9,5 17.1,5.8 L6.8,16.2 L1.2,17.7 C0.7,17.8 0.3,17.5 0.5,17 L1.9,11.3 L12.1,0.9 Z" id="Shape"></path>
            </g>
        </g>
    </g>
</svg>