<svg id="Layer_1" xmlns="http://www.w3.org/2000/svg" viewBox="0 0 20 20"><path d="M17.33,1H2.67A2.68,2.68,0,0,0,0,3.67v8.66A2.68,2.68,0,0,0,2.67,15H9v2H6a1,1,0,0,0,0,2h8a1,1,0,0,0,0-2H11V15h6.33A2.68,2.68,0,0,0,20,12.33V3.67A2.68,2.68,0,0,0,17.33,1ZM18,12.33a.67.67,0,0,1-.67.67H2.67A.67.67,0,0,1,2,12.33V3.67A.67.67,0,0,1,2.67,3H17.33a.67.67,0,0,1,.67.67Z" fill="#1a2e3b"/><path d="M8,11.5a1,1,0,0,1-.53-.15A1,1,0,0,1,7,10.5v-5a1,1,0,0,1,1.45-.89l5,2.5a1,1,0,0,1,0,1.78l-5,2.5A1,1,0,0,1,8,11.5ZM9,7.12V8.88L10.76,8Z" fill="#1a2e3b"/></svg>