<svg xmlns="http://www.w3.org/2000/svg" width="44" height="22" viewBox="0 0 44 22" version="1.1">
  <path d="M43.1 0.2L0.1 0.2 0.1 22 43.1 22 43 17.7C43.2 17.5 43.4 17.3 43.4 16.6 43.4 15.9 43.2 15.5 43.1 15.3" stroke="none" fill="#088EC0" fill-rule="evenodd"/>
  <path d="M4 6.9L3.2 4.9 2.3 6.9 4 6.9ZM22.2 6.1C22.1 6.2 21.9 6.2 21.6 6.2L20.2 6.2 20.2 5.1 21.7 5.1C21.9 5.1 22.1 5.1 22.2 5.1 22.4 5.2 22.5 5.4 22.5 5.6 22.5 5.8 22.4 6 22.2 6.1L22.2 6.1ZM32.7 6.9L31.9 4.9 31.1 6.9 32.7 6.9 32.7 6.9ZM13.2 9.1L11.9 9.1 11.9 5.1 10.2 9.1 9.1 9.1 7.3 5.1 7.3 9.1 4.9 9.1 4.4 7.9 1.9 7.9 1.4 9.1 0.1 9.1 2.3 4 4.1 4 6.1 8.8 6.1 4 8.1 4 9.7 7.4 11.2 4 13.2 4 13.2 9.1 13.2 9.1ZM18.1 9.1L14.1 9.1 14.1 4 18.1 4 18.1 5.1 15.3 5.1 15.3 6 18 6 18 7 15.3 7 15.3 8 18.1 8 18.1 9.1 18.1 9.1ZM23.8 5.4C23.8 6.2 23.3 6.6 23 6.7 23.2 6.8 23.5 7 23.6 7.1 23.7 7.4 23.8 7.6 23.8 8.1L23.8 9.1 22.5 9.1 22.5 8.4C22.5 8.1 22.6 7.7 22.3 7.4 22.2 7.3 21.9 7.2 21.5 7.2L20.2 7.2 20.2 9.1 19 9.1 19 4 21.7 4C22.4 4 22.8 4 23.2 4.2 23.6 4.5 23.8 4.8 23.8 5.4L23.8 5.4ZM25.8 9.1L24.5 9.1 24.5 4 25.8 4 25.8 9.1 25.8 9.1ZM40.1 9.1L38.4 9.1 36.1 5.3 36.1 9.1 33.6 9.1 33.1 7.9 30.6 7.9 30.2 9.1 28.8 9.1C28.2 9.1 27.4 8.9 27 8.5 26.6 8.1 26.3 7.5 26.3 6.6 26.3 5.8 26.5 5.1 27 4.6 27.4 4.2 28 4 28.8 4L30 4 30 5.1 28.9 5.1C28.4 5.1 28.2 5.2 27.9 5.4 27.7 5.6 27.6 6 27.6 6.5 27.6 7.1 27.7 7.5 27.9 7.7 28.1 7.9 28.4 8 28.8 8L29.3 8 31 4 32.8 4 34.9 8.8 34.9 4 36.7 4 38.8 7.5 38.8 4 40.1 4 40.1 9.1 40.1 9.1ZM0.1 10.1L2.2 10.1 2.6 8.9 3.7 8.9 4.1 10.1 8.2 10.1 8.2 9.2 8.6 10.1 10.7 10.1 11.1 9.2 11.1 10.1 21.2 10.1 21.2 8.2 21.4 8.2C21.5 8.2 21.5 8.2 21.5 8.5L21.5 10.1 26.8 10.1 26.8 9.6C27.2 9.9 27.8 10.1 28.7 10.1L30.9 10.1 31.4 8.9 32.4 8.9 32.9 10.1 37.1 10.1 37.1 9 37.8 10.1 41.2 10.1 41.2 3 37.8 3 37.8 3.8 37.3 3 33.9 3 33.9 3.8 33.4 3 28.8 3C28 3 27.3 3.1 26.8 3.4L26.8 3 23.5 3 23.5 3.4C23.2 3.1 22.7 3 22.2 3L10.4 3 9.6 4.8 8.8 3 5.1 3 5.1 3.8 4.7 3 1.6 3 0.1 6.4 0.1 10.1 0.1 10.1Z" stroke="none" fill="#FFFFFF" fill-rule="evenodd"/>
  <path d="M43.4 14.1L41.2 14.1C41 14.1 40.8 14.1 40.7 14.2 40.6 14.2 40.5 14.4 40.5 14.5 40.5 14.7 40.6 14.8 40.8 14.9 40.9 14.9 41 15 41.2 15L41.9 15C42.6 15 43 15.1 43.3 15.4 43.3 15.4 43.3 15.5 43.4 15.5L43.4 14.1ZM43.4 17.4C43.1 17.8 42.5 18.1 41.7 18.1L39.4 18.1 39.4 17 41.7 17C42 17 42.1 16.9 42.2 16.8 42.3 16.8 42.4 16.7 42.4 16.5 42.4 16.4 42.3 16.3 42.2 16.2 42.1 16.1 42 16.1 41.8 16.1 40.6 16 39.2 16.1 39.2 14.5 39.2 13.8 39.7 13 41 13L43.4 13 43.4 12 41.1 12C40.5 12 40 12.1 39.6 12.4L39.6 12 36.3 12C35.8 12 35.2 12.1 34.9 12.4L34.9 12 28.9 12 28.9 12.4C28.5 12.1 27.7 12 27.3 12L23.4 12 23.4 12.4C23 12 22.2 12 21.7 12L17.3 12 16.3 13.1 15.4 12 8.9 12 8.9 19.1 15.3 19.1 16.3 18 17.3 19.1 21.2 19.1 21.2 17.4 21.6 17.4C22.1 17.4 22.7 17.4 23.3 17.1L23.3 19.1 26.5 19.1 26.5 17.2 26.7 17.2C26.9 17.2 26.9 17.2 26.9 17.4L26.9 19.1 36.8 19.1C37.4 19.1 38.1 18.9 38.5 18.6L38.5 19.1 41.6 19.1C42.3 19.1 42.9 19 43.4 18.7L43.4 17.4 43.4 17.4ZM38.5 15.4C38.8 15.6 38.9 15.9 38.9 16.5 38.9 17.6 38.2 18.1 37 18.1L34.7 18.1 34.7 17 37 17C37.2 17 37.4 16.9 37.5 16.8 37.6 16.8 37.6 16.7 37.6 16.5 37.6 16.4 37.6 16.3 37.5 16.2 37.4 16.1 37.3 16.1 37.1 16.1 35.9 16 34.5 16.1 34.5 14.5 34.5 13.8 35 13 36.2 13L38.7 13 38.7 14.1 36.4 14.1C36.2 14.1 36.1 14.1 36 14.2 35.8 14.2 35.8 14.4 35.8 14.5 35.8 14.7 35.9 14.8 36 14.9 36.2 14.9 36.3 15 36.5 15L37.2 15C37.8 15 38.3 15.1 38.5 15.4L38.5 15.4ZM27.6 15.1C27.5 15.2 27.3 15.2 27 15.2L25.6 15.2 25.6 14 27 14C27.3 14 27.5 14 27.6 14.1 27.8 14.2 27.9 14.4 27.9 14.6 27.9 14.8 27.8 15 27.6 15.1L27.6 15.1ZM28.4 15.7C28.6 15.8 28.8 16 28.9 16.1 29.1 16.4 29.1 16.6 29.1 17.1L29.1 18.1 27.9 18.1 27.9 17.4C27.9 17.1 28 16.7 27.7 16.4 27.6 16.3 27.3 16.2 26.8 16.2L25.6 16.2 25.6 18.1 24.3 18.1 24.3 13 27.1 13C27.7 13 28.2 13 28.6 13.2 29 13.5 29.2 13.8 29.2 14.4 29.2 15.2 28.7 15.6 28.4 15.7L28.4 15.7ZM29.9 13L33.9 13 33.9 14 31.1 14 31.1 15 33.9 15 33.9 16 31.1 16 31.1 17 33.9 17 33.9 18.1 29.9 18.1 29.9 13 29.9 13ZM21.7 15.3L20.2 15.3 20.2 14 21.7 14C22.2 14 22.5 14.2 22.5 14.7 22.5 15.1 22.2 15.3 21.7 15.3L21.7 15.3ZM18.9 17.6L17.1 15.5 18.9 13.5 18.9 17.6 18.9 17.6ZM14.1 17L11.2 17 11.2 16 13.8 16 13.8 15 11.2 15 11.2 14 14.2 14 15.5 15.5 14.1 17 14.1 17ZM23.8 14.7C23.8 16.1 22.7 16.4 21.7 16.4L20.2 16.4 20.2 18.1 17.8 18.1 16.3 16.4 14.8 18.1 10 18.1 10 13 14.8 13 16.3 14.7 17.9 13 21.7 13C22.7 13 23.8 13.3 23.8 14.7L23.8 14.7Z" stroke="none" fill="#FFFFFF" fill-rule="evenodd"/>
</svg>
