<svg xmlns="http://www.w3.org/2000/svg" width="33" height="20" viewBox="0 0 33 20" version="1.1">
  <path d="M19.6 9.9C19.6 15.3 15.2 19.7 9.8 19.7 4.4 19.7 0 15.3 0 9.9 0 4.5 4.4 0.1 9.8 0.1 15.2 0.1 19.6 4.5 19.6 9.9" stroke="none" fill="#CC0000" fill-rule="evenodd"/>
  <path d="M23 0.1C20.4 0.1 18.1 1.1 16.4 2.6 16 3 15.7 3.3 15.4 3.7L17.4 3.7C17.7 4 17.9 4.4 18.1 4.7L14.7 4.7C14.5 5 14.3 5.4 14.1 5.8L18.7 5.8C18.9 6.1 19 6.4 19.1 6.8L13.7 6.8C13.6 7.1 13.5 7.5 13.4 7.8L19.4 7.8C19.5 8.5 19.6 9.2 19.6 9.9 19.6 11 19.4 12 19.1 13L13.7 13C13.8 13.4 13.9 13.7 14.1 14L18.7 14C18.5 14.4 18.3 14.7 18.1 15.1L14.7 15.1C14.9 15.4 15.1 15.8 15.4 16.1L17.4 16.1C17.1 16.5 16.7 16.8 16.4 17.2 18.1 18.7 20.4 19.7 23 19.7 28.4 19.7 32.8 15.3 32.8 9.9 32.8 4.5 28.4 0.1 23 0.1" stroke="none" fill="#FF9900" fill-rule="evenodd"/>
  <path d="M7.5 11C7.4 11 7.4 11 7.3 11 6.7 11 6.4 11.2 6.4 11.6 6.4 11.8 6.5 12 6.8 12 7.2 12 7.5 11.6 7.5 11L7.5 11ZM8.3 12.8L7.4 12.8 7.5 12.3C7.2 12.7 6.8 12.8 6.3 12.8 5.8 12.8 5.4 12.4 5.4 11.7 5.4 10.8 6.1 10.2 7.2 10.2 7.4 10.2 7.5 10.2 7.7 10.2 7.7 10.1 7.7 10 7.7 9.9 7.7 9.7 7.5 9.6 7 9.6 6.5 9.6 6.1 9.7 5.9 9.8 5.9 9.7 6.1 8.9 6.1 8.9 6.6 8.7 6.9 8.6 7.3 8.6 8.2 8.6 8.7 9.1 8.7 9.8 8.7 10 8.7 10.3 8.6 10.6 8.5 11.2 8.3 12.5 8.3 12.8L8.3 12.8Z" stroke="none" fill="#000066" fill-rule="evenodd"/>
  <polyline stroke="none" fill="#000066" fill-rule="evenodd" points="4.9 12.8 3.9 12.8 4.5 9 3.1 12.8 2.4 12.8 2.3 9 1.7 12.8 0.7 12.8 1.5 7.8 3 7.8 3.1 10.6 4 7.8 5.7 7.8 4.9 12.8"/>
  <path d="M24.3 11C24.2 11 24.1 11 24 11 23.4 11 23.1 11.2 23.1 11.6 23.1 11.8 23.3 12 23.5 12 23.9 12 24.3 11.6 24.3 11L24.3 11ZM25.1 12.8L24.2 12.8 24.2 12.3C23.9 12.7 23.6 12.8 23.1 12.8 22.5 12.8 22.1 12.4 22.1 11.7 22.1 10.8 22.8 10.2 24 10.2 24.1 10.2 24.2 10.2 24.4 10.2 24.4 10.1 24.4 10 24.4 9.9 24.4 9.7 24.3 9.6 23.8 9.6 23.2 9.6 22.8 9.7 22.6 9.8 22.7 9.7 22.8 8.9 22.8 8.9 23.3 8.7 23.7 8.6 24.1 8.6 25 8.6 25.5 9.1 25.5 9.8 25.5 10 25.4 10.3 25.4 10.6 25.3 11.2 25.1 12.5 25.1 12.8L25.1 12.8Z" stroke="none" fill="#000066" fill-rule="evenodd"/>
  <path d="M13 12.7C12.7 12.8 12.5 12.8 12.3 12.8 11.7 12.8 11.4 12.5 11.4 12 11.4 11.8 11.5 11.3 11.6 10.9 11.6 10.5 12 8.1 12 8.1L13.1 8.1 13 8.7 13.6 8.7 13.5 9.7 12.8 9.7C12.7 10.5 12.5 11.4 12.5 11.6 12.5 11.8 12.6 11.9 12.9 11.9 13 11.9 13.1 11.8 13.2 11.8L13 12.7" stroke="none" fill="#000066" fill-rule="evenodd"/>
  <path d="M16.3 12.7C15.9 12.8 15.6 12.8 15.2 12.8 14 12.8 13.4 12.2 13.4 11 13.4 9.7 14.2 8.6 15.2 8.6 16.1 8.6 16.7 9.2 16.7 10.1 16.7 10.4 16.6 10.7 16.5 11.1L14.4 11.1C14.4 11.7 14.7 11.9 15.4 11.9 15.7 11.9 16.1 11.8 16.4 11.7L16.3 12.7 16.3 12.7ZM15.7 10.3C15.7 10.2 15.8 9.6 15.2 9.6 14.9 9.6 14.6 9.8 14.5 10.3L15.7 10.3 15.7 10.3Z" stroke="none" fill="#000066" fill-rule="evenodd"/>
  <path d="M9 10C9 10.5 9.2 10.9 9.8 11.1 10.2 11.3 10.3 11.4 10.3 11.6 10.3 11.8 10.1 11.9 9.6 11.9 9.3 11.9 9 11.9 8.7 11.8 8.7 11.8 8.6 12.7 8.5 12.7 8.8 12.8 9 12.8 9.7 12.8 10.8 12.8 11.3 12.4 11.3 11.5 11.3 10.9 11.1 10.6 10.5 10.4 10.1 10.2 10 10.1 10 9.9 10 9.7 10.2 9.6 10.6 9.6 10.8 9.6 11.1 9.6 11.3 9.7L11.5 8.7C11.2 8.7 10.8 8.6 10.5 8.6 9.4 8.6 8.9 9.3 9 10" stroke="none" fill="#000066" fill-rule="evenodd"/>
  <path d="M21.4 8.7C21.7 8.7 22 8.8 22.4 9L22.6 7.9C22.4 7.9 21.9 7.5 21.4 7.5 20.7 7.5 20.1 7.9 19.7 8.5 19 8.2 18.8 8.7 18.5 9.1L18.2 9.1C18.2 9 18.2 8.9 18.2 8.7L17.3 8.7C17.1 10 16.9 11.2 16.7 12.5L16.7 12.8 17.7 12.8C17.9 11.6 18 10.9 18.1 10.4L18.5 10.2C18.5 9.9 18.7 9.9 19.1 9.9 19 10.1 19 10.4 19 10.7 19 12 19.7 12.8 20.9 12.8 21.2 12.8 21.4 12.8 21.8 12.7L22 11.6C21.6 11.7 21.3 11.8 21.1 11.8 20.5 11.8 20.1 11.4 20.1 10.6 20.1 9.5 20.6 8.7 21.4 8.7" stroke="none" fill="#000066" fill-rule="evenodd"/>
  <path d="M30.4 7.8L30.2 9.2C29.9 8.9 29.6 8.6 29.2 8.6 28.6 8.6 28.2 9 27.8 9.6 27.4 9.5 26.9 9.3 26.9 9.3L26.9 9.3C27 9 27 8.8 27 8.7L26 8.7C25.9 10 25.6 11.2 25.5 12.5L25.4 12.8 26.5 12.8C26.6 11.8 26.7 11.1 26.8 10.4 27.2 10.1 27.3 9.8 27.7 9.9 27.6 10.2 27.5 10.7 27.5 11.2 27.5 12.2 28 12.8 28.7 12.8 29.1 12.8 29.4 12.7 29.7 12.4L29.7 12.8 30.7 12.8 31.5 7.8 30.4 7.8 30.4 7.8ZM29.1 11.8C28.7 11.8 28.6 11.6 28.6 11 28.6 10.2 28.9 9.7 29.4 9.7 29.8 9.7 29.9 10 29.9 10.5 29.9 11.3 29.6 11.8 29.1 11.8L29.1 11.8Z" stroke="none" fill="#000066" fill-rule="evenodd"/>
  <polyline stroke="none" fill="#FFFFFF" fill-rule="evenodd" points="5.2 12.5 4.2 12.5 4.8 8.7 3.4 12.5 2.7 12.5 2.6 8.7 2 12.5 1 12.5 1.8 7.5 3.3 7.5 3.4 10.6 4.4 7.5 6.1 7.5 5.2 12.5"/>
  <path d="M7.8 10.7C7.7 10.7 7.7 10.7 7.6 10.7 7 10.7 6.7 10.9 6.7 11.3 6.7 11.5 6.9 11.7 7.1 11.7 7.5 11.7 7.8 11.3 7.8 10.7L7.8 10.7ZM8.6 12.5L7.7 12.5 7.8 12.1C7.5 12.4 7.1 12.5 6.6 12.5 6.1 12.5 5.7 12.1 5.7 11.4 5.7 10.5 6.4 9.9 7.5 9.9 7.7 9.9 7.8 9.9 8 9.9 8 9.8 8 9.7 8 9.7 8 9.4 7.8 9.3 7.3 9.3 6.8 9.3 6.4 9.4 6.2 9.5 6.2 9.4 6.4 8.6 6.4 8.6 6.9 8.4 7.2 8.3 7.6 8.3 8.5 8.3 9 8.8 9 9.5 9 9.7 9 10 8.9 10.3 8.8 10.9 8.6 12.2 8.6 12.5L8.6 12.5Z" stroke="none" fill="#FFFFFF" fill-rule="evenodd"/>
  <path d="M22.9 7.6L22.7 8.7C22.3 8.5 22 8.5 21.7 8.5 21 8.5 20.4 9.2 20.4 10.3 20.4 11.1 20.8 11.5 21.4 11.5 21.6 11.5 21.9 11.4 22.3 11.3L22.1 12.4C21.7 12.5 21.5 12.5 21.2 12.5 20 12.5 19.3 11.7 19.3 10.4 19.3 8.6 20.3 7.4 21.7 7.4 22.2 7.4 22.7 7.6 22.9 7.6" stroke="none" fill="#FFFFFF" fill-rule="evenodd"/>
  <path d="M24.6 10.7C24.5 10.7 24.4 10.7 24.3 10.7 23.7 10.7 23.4 10.9 23.4 11.3 23.4 11.5 23.6 11.7 23.8 11.7 24.3 11.7 24.6 11.3 24.6 10.7L24.6 10.7ZM25.4 12.5L24.5 12.5 24.5 12.1C24.2 12.4 23.9 12.5 23.4 12.5 22.8 12.5 22.4 12.1 22.4 11.4 22.4 10.5 23.1 9.9 24.3 9.9 24.4 9.9 24.6 9.9 24.7 9.9 24.7 9.8 24.8 9.7 24.8 9.7 24.8 9.4 24.6 9.3 24.1 9.3 23.6 9.3 23.1 9.4 22.9 9.5 23 9.4 23.1 8.6 23.1 8.6 23.6 8.4 24 8.3 24.4 8.3 25.3 8.3 25.8 8.8 25.8 9.5 25.8 9.7 25.7 10 25.7 10.3 25.6 10.9 25.4 12.2 25.4 12.5L25.4 12.5Z" stroke="none" fill="#FFFFFF" fill-rule="evenodd"/>
  <path d="M13.3 12.4C13 12.5 12.8 12.5 12.6 12.5 12 12.5 11.7 12.2 11.7 11.7 11.7 11.5 11.8 11 11.9 10.6 11.9 10.2 12.3 7.8 12.3 7.8L13.4 7.8 13.3 8.4 13.8 8.4 13.7 9.4 13.1 9.4C13 10.2 12.8 11.1 12.8 11.3 12.8 11.5 12.9 11.6 13.2 11.6 13.3 11.6 13.4 11.5 13.5 11.5L13.3 12.4" stroke="none" fill="#FFFFFF" fill-rule="evenodd"/>
  <path d="M16.6 12.4C16.2 12.5 15.9 12.5 15.5 12.5 14.3 12.5 13.7 11.9 13.7 10.7 13.7 9.4 14.5 8.3 15.5 8.3 16.4 8.3 17 8.9 17 9.8 17 10.1 16.9 10.4 16.8 10.8L14.7 10.8C14.7 11.4 15 11.6 15.7 11.6 16 11.6 16.4 11.6 16.8 11.4L16.6 12.4 16.6 12.4ZM16 10C16 9.9 16.1 9.3 15.5 9.3 15.2 9.3 14.9 9.5 14.8 10L16 10 16 10Z" stroke="none" fill="#FFFFFF" fill-rule="evenodd"/>
  <path d="M9.3 9.7C9.3 10.2 9.5 10.6 10.1 10.8 10.5 11 10.6 11.1 10.6 11.3 10.6 11.5 10.4 11.7 10 11.7 9.6 11.7 9.3 11.6 9 11.5 9 11.5 8.9 12.4 8.9 12.4 9.1 12.5 9.3 12.5 10 12.5 11.1 12.5 11.6 12.1 11.6 11.2 11.6 10.6 11.4 10.3 10.8 10.1 10.4 9.9 10.4 9.8 10.4 9.6 10.4 9.4 10.5 9.3 10.9 9.3 11.1 9.3 11.4 9.3 11.6 9.4L11.8 8.4C11.5 8.4 11.1 8.3 10.9 8.3 9.7 8.3 9.3 9 9.3 9.7" stroke="none" fill="#FFFFFF" fill-rule="evenodd"/>
  <path d="M31 12.5L30 12.5 30 12.1C29.7 12.4 29.4 12.5 29 12.5 28.3 12.5 27.8 11.9 27.8 10.9 27.8 9.5 28.6 8.4 29.5 8.4 29.9 8.4 30.2 8.6 30.5 8.9L30.7 7.5 31.8 7.5 31 12.5 31 12.5ZM29.4 11.5C29.9 11.5 30.3 11 30.3 10.2 30.3 9.7 30.1 9.4 29.7 9.4 29.2 9.4 28.9 10 28.9 10.7 28.9 11.3 29.1 11.5 29.4 11.5L29.4 11.5Z" stroke="none" fill="#FFFFFF" fill-rule="evenodd"/>
  <path d="M26.3 8.4C26.2 9.7 25.9 11 25.8 12.2L25.7 12.5 26.8 12.5C27.2 10 27.2 9.5 27.8 9.6 27.9 9.1 28.1 8.6 28.2 8.4 27.8 8.3 27.6 8.6 27.2 9 27.3 8.8 27.3 8.6 27.3 8.4L26.3 8.4" stroke="none" fill="#FFFFFF" fill-rule="evenodd"/>
  <path d="M17.6 8.4C17.4 9.7 17.2 11 17 12.2L17 12.5 18 12.5C18.4 10 18.5 9.5 19.1 9.6 19.2 9.1 19.4 8.6 19.5 8.4 19.1 8.3 18.8 8.6 18.5 9 18.5 8.8 18.6 8.6 18.5 8.4L17.6 8.4" stroke="none" fill="#FFFFFF" fill-rule="evenodd"/>
</svg>
