<svg version="1.1"  xmlns="http://www.w3.org/2000/svg" xmlns:xlink="http://www.w3.org/1999/xlink" x="0px" y="0px"
	 viewBox="0 0 16 16" enable-background="new 0 0 16 16" xml:space="preserve">
<path id="start_over_16" d="M1,0c0.552,0,1,0.448,1,1v1.726C3.499,1.027,5.682,0,8,0c4.411,0,8,3.589,8,8s-3.589,8-8,8
	c-3.067,0-5.902-1.794-7.222-4.571c-0.237-0.499-0.024-1.095,0.474-1.333c0.501-0.237,1.097-0.024,1.333,0.474
	C3.575,12.654,5.7,14,8,14c3.309,0,6-2.691,6-6s-2.691-6-6-6C6.282,2,4.662,2.752,3.54,4H5c0.552,0,1,0.448,1,1c0,0.552-0.448,1-1,1
	H1C0.448,6,0,5.552,0,5l0-4C0,0.448,0.448,0,1,0z"/>
</svg>
