<svg version="1.1"  xmlns="http://www.w3.org/2000/svg" xmlns:xlink="http://www.w3.org/1999/xlink" x="0px" y="0px"
	 viewBox="0 0 16 16" enable-background="new 0 0 16 16" xml:space="preserve">
<g id="donut_graph_16_1_">
	<path d="M8,16c-4.411,0-8-3.589-8-8s3.589-8,8-8c0.553,0,1,0.448,1,1S8.553,2,8,2C4.691,2,2,4.691,2,8s2.691,6,6,6
		c1.459,0,2.864-0.53,3.959-1.492c0.414-0.364,1.047-0.325,1.411,0.091c0.364,0.415,0.324,1.046-0.091,1.411
		C11.82,15.293,9.945,16,8,16z"/>
	<path d="M14.778,10.757c-0.083,0-0.168-0.01-0.252-0.032c-0.534-0.139-0.855-0.685-0.717-1.219C13.936,9.018,14,8.511,14,8
		c0-1.96-0.961-3.801-2.571-4.925c-0.453-0.316-0.563-0.939-0.248-1.392c0.315-0.454,0.94-0.566,1.393-0.248
		C14.719,2.933,16,5.387,16,8c0,0.681-0.086,1.356-0.255,2.008C15.629,10.458,15.223,10.757,14.778,10.757z"/>
</g>
</svg>
