<svg version="1.1"  xmlns="http://www.w3.org/2000/svg" xmlns:xlink="http://www.w3.org/1999/xlink" x="0px" y="0px"
	 viewBox="0 0 64 64" enable-background="new 0 0 64 64" xml:space="preserve">
<path id="source_url_64" d="M32,0C14.327,0,0,14.327,0,32c0,17.673,14.327,32,32,32s32-14.327,32-32C64,14.327,49.673,0,32,0z
	 M6.085,34h8.952c0.115,3.518,0.533,6.88,1.204,10H8.946C7.361,40.966,6.359,37.584,6.085,34z M34,16V6.307
	c3.337,1.031,6.253,4.603,8.243,9.693H34z M43.532,20c0.791,3.032,1.29,6.414,1.426,10H34V20H43.532z M30,6.307V16h-8.243
	C23.747,10.91,26.663,7.337,30,6.307z M30,20v10H19.042c0.137-3.586,0.636-6.968,1.426-10H30z M15.036,30H6.085
	c0.274-3.584,1.276-6.966,2.862-10h7.294C15.569,23.12,15.152,26.482,15.036,30z M19.042,34H30v10h-9.532
	C19.678,40.968,19.179,37.586,19.042,34z M30,48v9.693c-3.337-1.031-6.253-4.603-8.243-9.693H30z M34,57.693V48h8.243
	C40.253,53.09,37.337,56.663,34,57.693z M34,44V34h10.958c-0.137,3.586-0.636,6.968-1.426,10H34z M48.964,34h8.952
	c-0.274,3.584-1.276,6.966-2.862,10H47.76C48.431,40.88,48.848,37.518,48.964,34z M48.964,30c-0.115-3.518-0.533-6.88-1.204-10
	h7.294c1.585,3.034,2.588,6.416,2.862,10H48.964z M52.471,16H46.72c-0.821-2.672-1.841-5.098-3.023-7.209
	C47.126,10.526,50.12,12.998,52.471,16z M20.303,8.791c-1.182,2.111-2.202,4.537-3.023,7.209h-5.751
	C13.88,12.998,16.874,10.526,20.303,8.791z M11.529,48h5.751c0.821,2.672,1.842,5.098,3.023,7.209
	C16.874,53.474,13.88,51.002,11.529,48z M43.697,55.209c1.182-2.111,2.202-4.537,3.023-7.209h5.751
	C50.12,51.002,47.126,53.474,43.697,55.209z"/>
</svg>
