<svg version="1.1"  xmlns="http://www.w3.org/2000/svg" xmlns:xlink="http://www.w3.org/1999/xlink" x="0px" y="0px" viewBox="0 0 64 64" style="enable-background:new 0 0 64 64;" xml:space="preserve">
	<path id="SVGID_1_" d="M58.6,42c-0.2-0.1-0.4-0.3-0.6-0.4L36,29.6v-6.3c4.7-1.6,8-6.1,8-11.3c0-6.6-5.4-12-12-12S20,5.4,20,12
		c0,2.2,1.8,4,4,4s4-1.8,4-4c0-2.2,1.8-4,4-4s4,1.8,4,4s-1.8,4-4,4c-2.2,0-4,1.8-4,4v9.6l-22.1,12c-0.2,0.1-0.4,0.2-0.6,0.4
		C2,44.3,0,48,0,52c0,6.6,5.4,12,12,12h40c6.6,0,12-5.4,12-12C64,48,62,44.3,58.6,42 M52,56H12c-2.2,0-4-1.8-4-4
		c0-1.4,0.7-2.7,1.9-3.4c0.1,0,0.1-0.1,0.2-0.1L32,36.6l21.9,11.9c0.1,0,0.1,0.1,0.2,0.1c1.2,0.7,1.9,2,1.9,3.4
		C56,54.2,54.2,56,52,56"/>
</svg>
