<svg version="1.1"  xmlns="http://www.w3.org/2000/svg" xmlns:xlink="http://www.w3.org/1999/xlink" x="0px" y="0px"
	 viewBox="0 0 96 96" enable-background="new 0 0 96 96" xml:space="preserve">
<g id="upload_96">
	<path d="M83.682,45.93C83.87,44.643,84,43.338,84,42c0-14.912-12.088-27-27-27c-10.803,0-20.097,6.359-24.413,15.525
		C30.525,29.249,28.103,28.5,25.5,28.5C18.044,28.5,12,34.544,12,42c0,1.335,0.201,2.622,0.562,3.84C5.28,48.146,0,54.955,0,63
		c0,9.941,8.059,18,18,18h24V61.607l-3.697,3.697c-1.172,1.172-3.071,1.172-4.243,0l-3.182-3.182c-1.172-1.172-1.172-3.071,0-4.243
		l15-15c1.172-1.172,3.071-1.172,4.243,0l15,15c1.172,1.172,1.172,3.071,0,4.243l-3.182,3.182c-1.172,1.172-3.071,1.172-4.243,0
		L54,61.607V81h24c9.941,0,18-8.059,18-18C96,55.047,90.836,48.311,83.682,45.93z"/>
</g>
</svg>
