<svg version="1.1"  xmlns="http://www.w3.org/2000/svg" xmlns:xlink="http://www.w3.org/1999/xlink" x="0px" y="0px"
	 viewBox="0 0 12 12" enable-background="new 0 0 12 12" xml:space="preserve">
<path id="settings_12" fill-rule="evenodd" clip-rule="evenodd" d="M11.5,5H9.859C9.764,4.636,9.62,4.296,9.434,3.98l1.162-1.162
	c0.195-0.195,0.195-0.512,0-0.707L9.889,1.404c-0.195-0.195-0.512-0.195-0.707,0L8.02,2.566C7.704,2.38,7.364,2.236,7,2.141V0.5
	C7,0.224,6.776,0,6.5,0h-1C5.224,0,5,0.224,5,0.5v1.641C4.636,2.236,4.296,2.38,3.98,2.566L2.818,1.404
	c-0.195-0.195-0.512-0.195-0.707,0L1.404,2.111c-0.195,0.195-0.195,0.512,0,0.707L2.566,3.98C2.38,4.296,2.236,4.636,2.141,5H0.5
	C0.224,5,0,5.224,0,5.5v1C0,6.776,0.224,7,0.5,7h1.641C2.236,7.364,2.38,7.704,2.566,8.02L1.404,9.182
	c-0.195,0.195-0.195,0.512,0,0.707l0.707,0.707c0.195,0.195,0.512,0.195,0.707,0L3.98,9.434C4.296,9.62,4.636,9.764,5,9.859V11.5
	C5,11.776,5.224,12,5.5,12h1C6.776,12,7,11.776,7,11.5V9.859C7.364,9.764,7.704,9.62,8.02,9.434l1.162,1.162
	c0.195,0.195,0.512,0.195,0.707,0l0.707-0.707c0.195-0.195,0.195-0.512,0-0.707L9.434,8.02C9.62,7.704,9.764,7.364,9.859,7H11.5
	C11.776,7,12,6.776,12,6.5v-1C12,5.224,11.776,5,11.5,5z M4,6c0-1.105,0.895-2,2-2s2,0.895,2,2S7.105,8,6,8S4,7.105,4,6z"/>
</svg>
