<svg version="1.1"  xmlns="http://www.w3.org/2000/svg" xmlns:xlink="http://www.w3.org/1999/xlink" x="0px" y="0px"
	 viewBox="0 0 12 12" enable-background="new 0 0 12 12" xml:space="preserve">
<g id="refresh_12">
	<path d="M11,0c-0.552,0-1,0.448-1,1v0.518C8.905,0.557,7.481,0,6,0C4.095,0,2.346,0.874,1.2,2.399
		c-0.331,0.441-0.242,1.068,0.199,1.4C1.84,4.13,2.469,4.042,2.8,3.6C3.563,2.583,4.73,2,6,2c0.983,0,1.924,0.369,2.655,1H8
		C7.448,3,7,3.447,7,4s0.448,1,1,1h3c0.552,0,1-0.448,1-1V1C12,0.448,11.552,0,11,0z"/>
	<path d="M9.191,8.411C8.436,9.451,7.28,10.019,6.024,9.999c-0.99-0.024-1.908-0.385-2.628-1H4c0.552,0,1-0.448,1-1s-0.448-1-1-1H1
		c-0.552,0-1,0.448-1,1v3c0,0.552,0.448,1,1,1s1-0.448,1-1v-0.565c1.079,0.965,2.474,1.528,3.976,1.565C6.021,12,6.067,12,6.113,12
		c1.844,0,3.591-0.895,4.695-2.412c0.325-0.447,0.227-1.072-0.221-1.397C10.143,7.865,9.515,7.965,9.191,8.411z"/>
</g>
</svg>
