<svg version="1.1"  xmlns="http://www.w3.org/2000/svg" xmlns:xlink="http://www.w3.org/1999/xlink" x="0px" y="0px" viewBox="0 0 16 16" style="enable-background:new 0 0 16 16;" xml:space="preserve">
	<path id="SVGID_1_" d="M10.8,5.2L7.4,5.7C6.5,5.8,5.8,6.5,5.7,7.4l-0.5,3.5l3.5-0.5c0.9-0.1,1.6-0.8,1.7-1.7L10.8,5.2z M7.3,8.7
		c-0.4-0.4-0.4-1,0-1.4c0.4-0.4,1-0.4,1.4,0c0.4,0.4,0.4,1,0,1.4C8.3,9.1,7.7,9.1,7.3,8.7z M8,0C3.6,0,0,3.6,0,8s3.6,8,8,8
		s8-3.6,8-8S12.4,0,8,0 M8,14c-3.3,0-6-2.7-6-6s2.7-6,6-6s6,2.7,6,6S11.3,14,8,14"/>
</svg>
