<svg version="1.1"  xmlns="http://www.w3.org/2000/svg" xmlns:xlink="http://www.w3.org/1999/xlink" x="0px" y="0px"
	 viewBox="0 0 24 24" style="enable-background:new 0 0 24 24;" xml:space="preserve">
<path id="settings_24" d="M23,9.8h-3.3c-0.2-0.6-0.4-1.1-0.7-1.6l2.3-2.3c0.4-0.4,0.4-1,0-1.4l-1.8-1.8c-0.4-0.4-1-0.4-1.4,0L15.8,5
	c-0.5-0.3-1-0.5-1.6-0.7V1c0-0.6-0.4-1-1-1h-2.5c-0.6,0-1,0.4-1,1v3.3C9.2,4.5,8.7,4.7,8.2,5L5.8,2.6c-0.4-0.4-1-0.4-1.4,0L2.6,4.4
	c-0.4,0.4-0.4,1,0,1.4L5,8.2c-0.3,0.5-0.5,1-0.7,1.6H1c-0.6,0-1,0.4-1,1v2.5c0,0.6,0.4,1,1,1h3.3c0.2,0.6,0.4,1.1,0.7,1.6l-2.3,2.3
	c-0.4,0.4-0.4,1,0,1.4l1.8,1.8c0.4,0.4,1,0.4,1.4,0L8.2,19c0.5,0.3,1,0.5,1.6,0.7V23c0,0.6,0.4,1,1,1h2.5c0.6,0,1-0.4,1-1v-3.3
	c0.6-0.2,1.1-0.4,1.6-0.7l2.3,2.3c0.4,0.4,1,0.4,1.4,0l1.8-1.8c0.4-0.4,0.4-1,0-1.4L19,15.8c0.3-0.5,0.5-1,0.7-1.6H23
	c0.6,0,1-0.4,1-1v-2.5C24,10.2,23.6,9.8,23,9.8z M12,15c-1.7,0-3-1.3-3-3s1.3-3,3-3s3,1.3,3,3S13.7,15,12,15z"/>
</svg>
