<svg version="1.1"  xmlns="http://www.w3.org/2000/svg" xmlns:xlink="http://www.w3.org/1999/xlink" x="0px" y="0px" viewBox="0 0 16 16" style="enable-background:new 0 0 16 16;" xml:space="preserve">
	<path id="SVGID_1_" d="M16,7.8c0,4.3-3.5,7.8-7.9,7.8c-1.4,0-2.7-0.4-3.8-1L0,16l1.4-4.2c-0.7-1.2-1.1-2.6-1.1-4
		C0.3,3.5,3.8,0,8.1,0C12.5,0,16,3.5,16,7.8 M8.1,1.2c-3.6,0-6.6,2.9-6.6,6.6c0,1.4,0.5,2.8,1.3,3.8L2,14.1l2.5-0.8
		c1,0.7,2.3,1.1,3.6,1.1c3.6,0,6.6-2.9,6.6-6.6S11.8,1.2,8.1,1.2 M12.1,9.6c0-0.1-0.2-0.1-0.4-0.2c-0.2-0.1-1.1-0.6-1.3-0.6
		c-0.2-0.1-0.3-0.1-0.4,0.1C9.9,9,9.5,9.5,9.4,9.6C9.3,9.7,9.2,9.7,9,9.6C8.8,9.5,8.2,9.3,7.4,8.7c-0.6-0.5-1-1.1-1.1-1.3
		C6.2,7.2,6.3,7.1,6.4,7c0.1-0.1,0.2-0.2,0.3-0.3c0.1-0.1,0.1-0.2,0.2-0.3c0.1-0.1,0-0.2,0-0.3c0-0.1-0.4-1-0.6-1.4
		C6.1,4.2,6,4.3,5.9,4.3c-0.1,0-0.2,0-0.4,0c-0.1,0-0.3,0-0.5,0.2S4.3,5.1,4.3,6.1C4.3,7,5,7.9,5.1,8c0.1,0.1,1.3,2.1,3.3,2.9
		c2,0.8,2,0.5,2.3,0.5c0.4,0,1.1-0.5,1.3-0.9C12.2,10.1,12.2,9.7,12.1,9.6"/>
</svg>
