<svg version="1.1"  xmlns="http://www.w3.org/2000/svg" xmlns:xlink="http://www.w3.org/1999/xlink" x="0px" y="0px"
	 viewBox="0 0 16 16" enable-background="new 0 0 16 16" xml:space="preserve">
<path id="source_url_16" d="M8,0C3.582,0,0,3.582,0,8s3.582,8,8,8s8-3.582,8-8S12.418,0,8,0z M13.191,5h-2.483
	c-0.226-1.108-0.571-2.056-0.999-2.75C11.191,2.69,12.431,3.688,13.191,5z M14,8c0,0.702-0.127,1.374-0.349,2h-2.777
	C10.955,9.366,11,8.695,11,8s-0.045-1.366-0.126-2h2.777C13.873,6.626,14,7.298,14,8z M8,14c-0.487,0-1.246-1.105-1.675-3h3.349
	C9.246,12.895,8.487,14,8,14z M6.146,10C6.061,9.387,6,8.731,6,8s0.061-1.387,0.146-2h3.708C9.939,6.613,10,7.269,10,8
	s-0.061,1.387-0.146,2H6.146z M2,8c0-0.702,0.127-1.374,0.349-2h2.777C5.045,6.634,5,7.305,5,8s0.045,1.366,0.126,2H2.349
	C2.127,9.374,2,8.702,2,8z M8,2c0.487,0,1.246,1.105,1.675,3H6.325C6.754,3.105,7.513,2,8,2z M6.291,2.25
	C5.863,2.944,5.518,3.892,5.293,5H2.809C3.569,3.688,4.809,2.69,6.291,2.25z M2.809,11h2.483c0.226,1.108,0.571,2.056,0.999,2.75
	C4.809,13.31,3.569,12.312,2.809,11z M9.709,13.75c0.428-0.694,0.773-1.642,0.999-2.75h2.483
	C12.431,12.312,11.191,13.31,9.709,13.75z"/>
</svg>
