<svg version="1.1"  xmlns="http://www.w3.org/2000/svg" xmlns:xlink="http://www.w3.org/1999/xlink" x="0px" y="0px"
	 viewBox="0 0 16 16" style="enable-background:new 0 0 16 16;" xml:space="preserve">
<g id="detail_16">
	<path d="M3,4H1C0.4,4,0,3.6,0,3V1c0-0.6,0.4-1,1-1h2c0.6,0,1,0.4,1,1v2C4,3.6,3.6,4,3,4z"/>
	<path d="M3,10H1c-0.6,0-1-0.4-1-1V7c0-0.6,0.4-1,1-1h2c0.6,0,1,0.4,1,1v2C4,9.6,3.6,10,3,10z"/>
	<path d="M3,16H1c-0.6,0-1-0.4-1-1v-2c0-0.6,0.4-1,1-1h2c0.6,0,1,0.4,1,1v2C4,15.6,3.6,16,3,16z"/>
	<path d="M15,4H7C6.4,4,6,3.6,6,3V1c0-0.6,0.4-1,1-1h8c0.6,0,1,0.4,1,1v2C16,3.6,15.6,4,15,4z"/>
	<path d="M15,10H7c-0.6,0-1-0.4-1-1V7c0-0.6,0.4-1,1-1h8c0.6,0,1,0.4,1,1v2C16,9.6,15.6,10,15,10z"/>
	<path d="M15,16H7c-0.6,0-1-0.4-1-1v-2c0-0.6,0.4-1,1-1h8c0.6,0,1,0.4,1,1v2C16,15.6,15.6,16,15,16z"/>
</g>
</svg>
