<svg version="1.1"  xmlns="http://www.w3.org/2000/svg" xmlns:xlink="http://www.w3.org/1999/xlink" x="0px" y="0px"
	 viewBox="0 0 48 48" enable-background="new 0 0 48 48" xml:space="preserve">
<path id="quality_48_1_" d="M45,6H3C1.343,6,0,7.343,0,9v24c0,1.657,1.343,3,3,3h17v3h-4.5c-0.828,0-1.5,0.672-1.5,1.5
	s0.672,1.5,1.5,1.5h17c0.828,0,1.5-0.672,1.5-1.5S33.328,39,32.5,39H28v-3h17c1.657,0,3-1.343,3-3V9C48,7.343,46.657,6,45,6z M43,17
	H29v-6h14V17z M17,11h9v7.5c0,0.828,0.672,1.5,1.5,1.5H43v4H17V11z M5,31V11h9v14.5c0,0.828,0.672,1.5,1.5,1.5H43v4H5z"/>
</svg>
