<?xml version="1.0" encoding="utf-8"?>
<!-- Generator: Adobe Illustrator 19.0.0, SVG Export Plug-In . SVG Version: 6.00 Build 0)  -->
<svg version="1.1"  xmlns="http://www.w3.org/2000/svg" xmlns:xlink="http://www.w3.org/1999/xlink" x="0px" y="0px"
	 viewBox="0 0 24 24" style="enable-background:new 0 0 24 24;" xml:space="preserve">
<path id="delete_24" d="M15.5,12l6.1-6.1c0.5-0.5,0.5-1.3,0-1.8l-1.7-1.7c-0.5-0.5-1.3-0.5-1.8,0L12,8.5L5.9,2.4
	c-0.5-0.5-1.3-0.5-1.8,0L2.4,4.1c-0.5,0.5-0.5,1.3,0,1.8L8.5,12l-6.1,6.1c-0.5,0.5-0.5,1.3,0,1.8l1.7,1.7c0.5,0.5,1.3,0.5,1.8,0
	l6.1-6.1l6.1,6.1c0.5,0.5,1.3,0.5,1.8,0l1.7-1.7c0.5-0.5,0.5-1.3,0-1.8L15.5,12z"/>
</svg>
