<svg version="1.1" xmlns="http://www.w3.org/2000/svg" xmlns:xlink="http://www.w3.org/1999/xlink" x="0px" y="0px"
	 viewBox="0 0 16 16" enable-background="new 0 0 16 16" xml:space="preserve">
<g id="vod_recommendation_16_2_">
	<path d="M10.895,6.224l-0.367-0.368c-0.152-0.152-0.413-0.138-0.583,0.033L7.27,8.571L6.032,7.328
		c-0.152-0.152-0.399-0.152-0.551,0L5.114,7.697c-0.152,0.152-0.152,0.4,0,0.552l1.881,1.887c0.152,0.152,0.398,0.153,0.551,0
		l3.317-3.327C11.032,6.638,11.047,6.376,10.895,6.224z"/>
	<path d="M13.906,3.173l-4.812-2.87C8.755,0.101,8.378,0,8,0S7.245,0.101,6.906,0.303l-4.812,2.87C1.417,3.577,1,4.323,1,5.13v5.74
		c0,0.807,0.417,1.553,1.094,1.957l4.812,2.87C7.245,15.899,7.622,16,8,16s0.755-0.101,1.094-0.303l4.812-2.87
		C14.583,12.423,15,11.677,15,10.87V5.13C15,4.323,14.583,3.577,13.906,3.173z M13,11l-5,3l-5-3V5l5-3l5,3V11z"/>
</g>
</svg>
