<svg version="1.1"  xmlns="http://www.w3.org/2000/svg" xmlns:xlink="http://www.w3.org/1999/xlink" x="0px" y="0px"
	 viewBox="0 0 16 16" enable-background="new 0 0 16 16" xml:space="preserve">
<g id="stats_16">
	<path d="M0.999,10c-0.226,0-0.452-0.076-0.64-0.232C-0.064,9.415-0.122,8.784,0.231,8.36l5-6C5.572,1.95,6.175,1.88,6.6,2.2
		L9.906,4.68l4.387-4.387c0.391-0.391,1.023-0.391,1.414,0s0.391,1.023,0,1.414l-5,5C10.354,7.059,9.797,7.098,9.4,6.8L6.16,4.37
		L1.769,9.64C1.57,9.877,1.286,10,0.999,10z"/>
	<g id="bar_graph_16_2_">
		<path d="M2,12c-0.552,0-1,0.448-1,1v2c0,0.552,0.448,1,1,1s1-0.448,1-1v-2C3,12.448,2.552,12,2,12z"/>
		<path d="M6,8C5.448,8,5,8.448,5,9v6c0,0.552,0.448,1,1,1s1-0.448,1-1V9C7,8.448,6.552,8,6,8z"/>
		<path d="M10,10c-0.552,0-1,0.448-1,1v4c0,0.552,0.448,1,1,1s1-0.448,1-1v-4C11,10.448,10.552,10,10,10z"/>
		<path d="M14,8c-0.552,0-1,0.448-1,1v6c0,0.552,0.448,1,1,1s1-0.448,1-1V9C15,8.448,14.552,8,14,8z"/>
	</g>
</g>
</svg>
