<svg version="1.1"  xmlns="http://www.w3.org/2000/svg" xmlns:xlink="http://www.w3.org/1999/xlink" x="0px" y="0px" viewBox="0 0 64 64" style="enable-background:new 0 0 64 64;" xml:space="preserve">
	<path id="SVGID_1_" d="M56,12h-2l-2.9-5.8C50.4,4.9,49,4,47.5,4H36.5c-1.5,0-2.9,0.9-3.6,2.2L30,12H4c-2.2,0-4,1.8-4,4v40
		c0,2.2,1.8,4,4,4h8c2.2,0,4-1.8,4-4h40c4.4,0,8-3.6,8-8V20C64,15.6,60.4,12,56,12z M20,50c0,1.1-0.9,2-2,2s-2-0.9-2-2V18
		c0-1.1,0.9-2,2-2s2,0.9,2,2V50z M42,46c-6.6,0-12-5.4-12-12s5.4-12,12-12s12,5.4,12,12S48.6,46,42,46z M12,6c0-1.1-0.9-2-2-2H6
		C4.9,4,4,4.9,4,6v2h8V6z"/>
</svg>
