<svg version="1.1"  xmlns="http://www.w3.org/2000/svg" xmlns:xlink="http://www.w3.org/1999/xlink" x="0px" y="0px"
	 viewBox="0 0 64 64" enable-background="new 0 0 64 64" xml:space="preserve">
<path id="tablet_64_1_" d="M58,8H6c-3.314,0-6,2.686-6,6v36c0,3.314,2.686,6,6,6h52c3.314,0,6-2.686,6-6V14C64,10.686,61.314,8,58,8
	z M5,34c-1.105,0-2-0.895-2-2c0-1.105,0.895-2,2-2s2,0.895,2,2C7,33.105,6.105,34,5,34z M54,50H10V14h44V50z M59,35
	c-1.657,0-3-1.343-3-3s1.343-3,3-3s3,1.343,3,3S60.657,35,59,35z"/>
</svg>
