<svg version="1.1"  xmlns="http://www.w3.org/2000/svg" xmlns:xlink="http://www.w3.org/1999/xlink" x="0px" y="0px"
	 viewBox="0 0 128 128" enable-background="new 0 0 128 128" xml:space="preserve">
<g id="embed_url_64_2_">
	<path d="M38.829,88.344L14.485,64l24.343-24.344c1.562-1.562,1.562-4.095,0-5.657L36,31.171c-1.562-1.562-4.095-1.562-5.657,0
		L1.757,59.757C0.672,60.843,0,62.343,0,64c0,1.657,0.672,3.158,1.758,4.244l28.585,28.585c1.562,1.562,4.095,1.562,5.657,0
		l2.828-2.828C40.391,92.439,40.391,89.906,38.829,88.344z"/>
	<path d="M89.171,88.344L113.515,64L89.171,39.656c-1.562-1.562-1.562-4.095,0-5.657L92,31.171c1.562-1.562,4.095-1.562,5.657,0
		l28.586,28.586C127.328,60.843,128,62.343,128,64c0,1.657-0.672,3.158-1.758,4.244L97.657,96.829c-1.562,1.562-4.095,1.562-5.657,0
		l-2.828-2.828C87.609,92.439,87.609,89.906,89.171,88.344z"/>
	<path d="M78.447,17.155l-3.867-1.022l-0.001,0.003c-0.009-0.002-0.016-0.007-0.025-0.009c-2.129-0.548-4.297,0.726-4.86,2.847
		l-0.002-0.001l-0.006,0.024c0,0.002-0.002,0.004-0.002,0.006c0,0.002,0,0.004-0.001,0.005l-22.976,86.947v0v0l-0.001,0.005l0,0
		c-0.561,2.134,0.712,4.32,2.846,4.884l3.867,1.022l0.001-0.003c0.009,0.002,0.016,0.007,0.025,0.009
		c2.129,0.548,4.297-0.726,4.86-2.847l0.002,0.001l0.006-0.024c0-0.002,0.002-0.004,0.002-0.006c0-0.002,0-0.004,0.001-0.005
		l22.976-86.947v0v0l0.001-0.005l0,0C81.854,19.905,80.581,17.719,78.447,17.155z"/>
</g>
</svg>
