<svg version="1.1"  xmlns="http://www.w3.org/2000/svg" xmlns:xlink="http://www.w3.org/1999/xlink" x="0px" y="0px"
	 viewBox="0 0 32 32" style="enable-background:new 0 0 32 32;" xml:space="preserve">
<path id="sci_fi_and_fantasy_32_2_" d="M32,17c0-2.9-2.2-5.5-6.1-7.1C25.4,4.9,21.1,1,16,1S6.6,4.9,6.1,9.9C2.2,11.5,0,14.1,0,17
	c0,3,2.4,5.6,6.2,7.2l-1.2,3.5c-0.2,0.5,0.1,1.1,0.6,1.3C5.8,29,5.9,29,6,29c0.4,0,0.8-0.3,0.9-0.7l1.1-3.4c2,0.6,4.4,1,6.9,1.1v4
	c0,0.6,0.4,1,1,1s1-0.4,1-1v-4c2.5-0.1,4.9-0.5,6.9-1.1l1.1,3.4c0.1,0.4,0.5,0.7,0.9,0.7c0.1,0,0.2,0,0.3-0.1
	c0.5-0.2,0.8-0.7,0.6-1.3l-1.2-3.5C29.6,22.6,32,20,32,17z M16,5c3.3,0,6,2.7,6,6c0,0.5-2.1,2-6,2s-6-1.5-6-2C10,7.7,12.7,5,16,5z
	 M16,22c-7.4,0-12-2.9-12-5c0-1.1,1.2-2.3,3.1-3.2C8.7,15.7,12,17,16,17s7.3-1.3,8.9-3.2c1.9,0.9,3.1,2.1,3.1,3.2
	C28,19.1,23.4,22,16,22z"/>
</svg>
