<svg version="1.1"  xmlns="http://www.w3.org/2000/svg" xmlns:xlink="http://www.w3.org/1999/xlink" x="0px" y="0px"
	 viewBox="0 0 12 12" enable-background="new 0 0 12 12" xml:space="preserve">
<g id="full_screen_12">
	<path d="M11.25,0h-3C7.836,0,7.5,0.336,7.5,0.75c0,0.414,0.336,0.75,0.75,0.75h1.189L7.345,3.595
		c-0.136,0.136-0.22,0.323-0.22,0.53c0,0.414,0.336,0.75,0.75,0.75c0.207,0,0.395-0.084,0.53-0.22L10.5,2.561V3.75
		c0,0.414,0.336,0.75,0.75,0.75S12,4.164,12,3.75v-3C12,0.336,11.664,0,11.25,0z"/>
	<path d="M11.25,7.5c-0.414,0-0.75,0.336-0.75,0.75v1.189L8.405,7.345c-0.136-0.136-0.323-0.22-0.53-0.22
		c-0.414,0-0.75,0.336-0.75,0.75c0,0.207,0.084,0.395,0.22,0.53L9.439,10.5H8.25c-0.414,0-0.75,0.336-0.75,0.75
		C7.5,11.664,7.836,12,8.25,12h3c0.414,0,0.75-0.336,0.75-0.75v-3C12,7.836,11.664,7.5,11.25,7.5z"/>
	<path d="M2.561,1.5H3.75c0.414,0,0.75-0.336,0.75-0.75C4.5,0.336,4.164,0,3.75,0h-3C0.336,0,0,0.336,0,0.75v3
		C0,4.164,0.336,4.5,0.75,4.5S1.5,4.164,1.5,3.75V2.561l2.095,2.095c0.136,0.136,0.323,0.22,0.53,0.22c0.414,0,0.75-0.336,0.75-0.75
		c0-0.207-0.084-0.395-0.22-0.53L2.561,1.5z"/>
	<path d="M4.125,7.125c-0.207,0-0.395,0.084-0.53,0.22L1.5,9.439V8.25c0-0.414-0.336-0.75-0.75-0.75S0,7.836,0,8.25v3
		C0,11.664,0.336,12,0.75,12h3c0.414,0,0.75-0.336,0.75-0.75c0-0.414-0.336-0.75-0.75-0.75H2.561l2.095-2.095
		c0.136-0.136,0.22-0.323,0.22-0.53C4.875,7.461,4.539,7.125,4.125,7.125z"/>
</g>
</svg>
