<svg version="1.1"  xmlns="http://www.w3.org/2000/svg" xmlns:xlink="http://www.w3.org/1999/xlink" x="0px" y="0px"
	 viewBox="0 0 64 64" enable-background="new 0 0 64 64" xml:space="preserve">
<path id="deselect_64" d="M32,0C14.327,0,0,14.327,0,32c0,17.673,14.327,32,32,32s32-14.327,32-32C64,14.327,49.673,0,32,0z M32,12
	c3.144,0,6.11,0.75,8.76,2.048L14.048,40.76C12.75,38.11,12,35.144,12,32C12,20.972,20.972,12,32,12z M32,52
	c-3.144,0-6.11-0.75-8.76-2.048L49.952,23.24C51.25,25.89,52,28.856,52,32C52,43.028,43.028,52,32,52z"/>
</svg>
