<svg version="1.1"  xmlns="http://www.w3.org/2000/svg" xmlns:xlink="http://www.w3.org/1999/xlink" x="0px" y="0px"
	 viewBox="0 0 32 32" enable-background="new 0 0 32 32" xml:space="preserve">
<path id="comedy_32_1_" d="M30,24.184V21c0-3.314-2.686-6-6-6c-2.088,0-3.925,1.068-5,2.686V7.5C19,6.119,20.119,5,21.5,5
	c1.276,0,2.316,0.959,2.469,2.193C22.822,7.615,22,8.707,22,10c0,1.657,1.343,3,3,3s3-1.343,3-3c0-1.304-0.837-2.403-2-2.816V6
	c0-3.314-2.686-6-6-6s-6,2.686-6,6v9c0-3.314-2.686-6-6-6s-6,2.686-6,6v3.184C0.837,18.597,0,19.696,0,21c0,1.657,1.343,3,3,3
	s3-1.343,3-3c0-1.304-0.837-2.403-2-2.816V16.5C4,15.119,5.119,14,6.5,14S9,15.119,9,16.5V29c0,1.657,3.134,3,7,3s7-1.343,7-3v-6.5
	c0-1.381,1.119-2.5,2.5-2.5s2.5,1.119,2.5,2.5v1.684c-1.163,0.413-2,1.512-2,2.816c0,1.657,1.343,3,3,3s3-1.343,3-3
	C32,25.696,31.163,24.597,30,24.184z"/>
</svg>
