<svg version="1.1"  xmlns="http://www.w3.org/2000/svg" xmlns:xlink="http://www.w3.org/1999/xlink" x="0px" y="0px"
	 viewBox="0 0 32 32" style="enable-background:new 0 0 32 32;" xml:space="preserve">
<path id="globe_32" d="M16,0C7.2,0,0,7.2,0,16s7.2,16,16,16s16-7.2,16-16S24.8,0,16,0z M10.4,24.9l-0.5,1.4
	c-2.3-1.4-4.1-3.5-5.1-6.1l0.1,0.2c0.3,0.5,0.8,0.9,1.4,0.9h1c0.4,0,0.8,0.2,1.1,0.5l1.5,1.5C10.4,23.7,10.5,24.4,10.4,24.9z
	 M14.7,12.7c0,0.4-0.2,0.8-0.5,1.1l-1.7,1.7c-0.3,0.3-0.5,0.7-0.5,1.1v0.4c0,0.9-0.7,1.6-1.6,1.6h-0.1c-0.6,0-1.2-0.3-1.4-0.9
	l-0.5-0.9C8.2,16.3,7.6,16,7,16H6.3c-0.6,0-1.2,0.3-1.4,0.9L4.4,18c-0.1,0.1-0.1,0.2-0.1,0.4C4.1,17.6,4,16.8,4,16
	c0-2.9,1-5.5,2.7-7.5v0.6c0,0.9,0.7,1.6,1.6,1.6h0.4c0.4,0,0.8-0.2,1.1-0.5l0.4-0.4c0.3-0.3,0.7-0.5,1.1-0.5h1.3
	c0.4,0,0.8,0.2,1.1,0.5l0.4,0.4c0.3,0.3,0.5,0.7,0.5,1.1V12.7z M16,4.4c0,0.6-0.3,1.2-0.9,1.4l-0.8,0.4c-0.6,0.3-1.4,0.2-1.8-0.3
	l-1-1C12.9,4.3,14.4,4,16,4V4.4z M21.3,10.9c0-0.9,0.7-1.6,1.6-1.6h0c0.7,0,1.2-0.4,1.5-1l0.3-0.6c1.2,1.2,2.1,2.7,2.6,4.3
	c-0.4,0-0.8,0.2-1.1,0.5l-0.4,0.4c-0.3,0.3-0.7,0.5-1.1,0.5h-1.3c-0.4,0-0.8-0.2-1.1-0.5l-0.4-0.4c-0.3-0.3-0.5-0.7-0.5-1.1V10.9z
	 M22.6,26c-0.1-0.5-0.3-0.9-0.7-1.1l-2.6-1.7c-0.4-0.3-0.7-0.8-0.7-1.3v-2.3c0-0.5,0.3-1,0.7-1.3l2.9-1.9c0.3-0.2,0.6-0.3,0.9-0.3
	h3.1c0.2,0,0.5,0.1,0.7,0.2l1,0.5C27.8,20.5,25.7,24,22.6,26z"/>
</svg>
