<svg version="1.1"  xmlns="http://www.w3.org/2000/svg" xmlns:xlink="http://www.w3.org/1999/xlink" x="0px" y="0px"
	 viewBox="0 0 48 48" enable-background="new 0 0 48 48" xml:space="preserve">
<path id="phone_48" d="M34,0H14c-2.761,0-5,2.239-5,5v38c0,2.761,2.239,5,5,5h20c2.761,0,5-2.239,5-5V5C39,2.239,36.761,0,34,0z
	 M24,3h4c0.552,0,1,0.448,1,1s-0.448,1-1,1h-4c-0.552,0-1-0.448-1-1S23.448,3,24,3z M20,3c0.552,0,1,0.448,1,1s-0.448,1-1,1
	s-1-0.448-1-1S19.448,3,20,3z M24,46c-1.105,0-2-0.895-2-2c0-1.105,0.895-2,2-2s2,0.895,2,2C26,45.105,25.105,46,24,46z M34,40H14V8
	h20V40z"/>
</svg>
