<svg version="1.1"  xmlns="http://www.w3.org/2000/svg" xmlns:xlink="http://www.w3.org/1999/xlink" x="0px" y="0px" viewBox="0 0 64 64" style="enable-background:new 0 0 64 64;" xml:space="preserve">
	<path d="M62.8,51.2L46.3,34.7L34.7,46.3l3.9,3.9l5.7-5.7l2.8,2.8L41.4,53l4.2,4.2l5.7-5.7l2.8,2.8l-5.7,5.7l2.7,2.7
		c1.6,1.6,4.1,1.6,5.7,0l6-6C64.4,55.3,64.4,52.7,62.8,51.2z M29.3,17.7L12.8,1.2c-1.6-1.6-4.1-1.6-5.7,0l-6,6
		c-1.6,1.6-1.6,4.1,0,5.7l2.7,2.7l5.7-5.7l2.8,2.8l-5.7,5.7l4.2,4.2l5.7-5.7l2.8,2.8l-5.7,5.7l3.9,3.9L29.3,17.7z M61.7,2.3
		c-3.1-3.1-8.2-3.1-11.3,0l-3.8,3.8C47,6,47.5,6,48,6c5.5,0,10,4.5,10,10c0,0.5,0,1-0.1,1.4l3.8-3.8C64.8,10.5,64.8,5.5,61.7,2.3z
		 M44,10c-0.5,0-1,0-1.4,0.1l-30,30C13,40,13.5,40,14,40c5.5,0,10,4.5,10,10c0,0.5,0,1-0.1,1.4l30-30C54,21,54,20.5,54,20
		C54,14.5,49.5,10,44,10z M10,44c-0.5,0-1,0-1.4,0.1l-0.2,0.2L0,64l19.7-8.3l0.2-0.2C20,55,20,54.5,20,54C20,48.5,15.5,44,10,44z"
		/>
</svg>
