<svg version="1.1" xmlns="http://www.w3.org/2000/svg" xmlns:xlink="http://www.w3.org/1999/xlink" x="0px" y="0px"
	 viewBox="0 0 44 48" enable-background="new 0 0 44 48" xml:space="preserve">
<g id="_x31_x">
	<g>
		<polygon fill="#1EA8E0" points="32.154,23.762 44,30.037 44,30.518 32.154,24.242 		"/>
		<polygon fill="#3AC4F2" points="14.644,3.228 14.644,14.855 15.133,14.855 15.133,2.952 		"/>
		<polygon fill="#3AC4F2" points="14.889,32.834 3.831,38.665 4.252,38.904 14.889,33.315 		"/>
	</g>
	<path fill="#1EA8E0" d="M32.155,24.001L4.032,38.779l15.037,8.535c1.611,0.915,4.249,0.915,5.86,0.002l16.14-9.161
		C42.682,37.24,44,34.99,44,33.159v-2.881L32.155,24.001z"/>
	<path fill="#237FC0" d="M41.073,9.843L25.013,0.692c-1.609-0.918-4.249-0.923-5.863-0.009L14.889,3.09v11.765L44,30.278V14.842
		C44,13.011,42.682,10.762,41.073,9.843z"/>
	<path fill="#3AC4F2" d="M2.934,9.852C1.32,10.765,0,13.011,0,14.842v18.317c0,1.831,1.318,4.081,2.931,4.996l1.1,0.624
		l10.857-5.705V3.09L2.934,9.852z"/>
</g>
</svg>
