<svg version="1.1"  xmlns="http://www.w3.org/2000/svg" xmlns:xlink="http://www.w3.org/1999/xlink" x="0px" y="0px" viewBox="0 0 16 16" style="enable-background:new 0 0 16 16;" xml:space="preserve">
	<path id="SVGID_1_" d="M13,5h-2V3c0-1.7-1.3-3-3-3S5,1.3,5,3v2H3C1.3,5,0,6.3,0,8s1.3,3,3,3h2v2c0,1.7,1.3,3,3,3s3-1.3,3-3v-2h2
		c1.7,0,3-1.3,3-3S14.7,5,13,5 M13,9h-3c-0.6,0-1,0.4-1,1v3c0,0.6-0.4,1-1,1s-1-0.4-1-1v-3c0-0.6-0.4-1-1-1H3C2.4,9,2,8.6,2,8
		s0.4-1,1-1h3c0.6,0,1-0.4,1-1V3c0-0.6,0.4-1,1-1s1,0.4,1,1v3c0,0.6,0.4,1,1,1h3c0.6,0,1,0.4,1,1S13.6,9,13,9"/>
</svg>
