<svg version="1.1"  xmlns="http://www.w3.org/2000/svg" xmlns:xlink="http://www.w3.org/1999/xlink" x="0px" y="0px" viewBox="0 0 16 16" style="enable-background:new 0 0 16 16;" xml:space="preserve">
	<path id="SVGID_1_" d="M10.4,2.6c0.5-0.7,0.9-1.6,0.8-2.6c-0.8,0-1.8,0.5-2.4,1.2C8.3,1.8,7.9,2.8,8,3.7C8.9,3.8,9.8,3.2,10.4,2.6
		z M12.4,8.5c0-2,1.7-3,1.7-3.1c-0.9-1.4-2.4-1.6-2.9-1.6C9.9,3.7,8.7,4.6,8.1,4.6c-0.6,0-1.6-0.7-2.7-0.7c-1.3,0-2.6,0.8-3.3,2
		C0.7,8.4,1.8,12,3.2,14c0.7,1,1.5,2.1,2.5,2c1,0,1.4-0.6,2.6-0.6c1.2,0,1.6,0.6,2.6,0.6c1.1,0,1.8-1,2.4-2
		c0.8-1.1,1.1-2.2,1.1-2.3C14.5,11.7,12.4,10.9,12.4,8.5z"/>
</svg>
