<svg version="1.1"  xmlns="http://www.w3.org/2000/svg" xmlns:xlink="http://www.w3.org/1999/xlink" x="0px" y="0px"
	 viewBox="0 0 16 16" style="enable-background:new 0 0 16 16;" xml:space="preserve">
<path id="language_16" d="M15.9,14.6l-4-9C11.8,5.2,11.4,5,11,5s-0.8,0.2-0.9,0.6L8.6,9C7.9,8.9,7.2,8.7,6.5,8.3
	c1-1.2,1.7-2.7,1.9-4.3H9c0.6,0,1-0.4,1-1S9.6,2,9,2H6V1c0-0.6-0.4-1-1-1S4,0.4,4,1v1H1C0.4,2,0,2.4,0,3s0.4,1,1,1h5.4
	C6.2,5.2,5.7,6.2,5,7C4.6,6.6,4.3,6.1,4.1,5.6C3.8,5.1,3.2,4.9,2.7,5.1S2,5.9,2.3,6.4C2.6,7.1,3,7.7,3.5,8.3C2.7,8.7,1.8,9,1,9
	c-0.6,0-1,0.4-1,1s0.4,1,1,1c1.4,0,2.8-0.5,4-1.3c0.8,0.6,1.8,1,2.7,1.2l-1.7,3.7c-0.2,0.5,0,1.1,0.5,1.3c0.5,0.2,1.1,0,1.3-0.5
	C7.9,15.4,9,13,9,13c0,0,4,0,4,0l1.1,2.4c0.2,0.4,0.5,0.6,0.9,0.6c0.1,0,0.3,0,0.4-0.1C15.9,15.7,16.1,15.1,15.9,14.6z M9.9,11
	L11,8.5l1.1,2.5H9.9z"/>
</svg>
