<svg version="1.1"  xmlns="http://www.w3.org/2000/svg" xmlns:xlink="http://www.w3.org/1999/xlink" x="0px" y="0px"
	 viewBox="0 0 48 48" enable-background="new 0 0 48 48" xml:space="preserve">
<g id="stats_48">
	<path d="M7.5,48h-3C3.672,48,3,47.328,3,46.5v-12C3,33.672,3.672,33,4.5,33h3C8.328,33,9,33.672,9,34.5v12
		C9,47.328,8.328,48,7.5,48z"/>
	<path d="M19.5,48h-3c-0.828,0-1.5-0.672-1.5-1.5v-21c0-0.828,0.672-1.5,1.5-1.5h3c0.828,0,1.5,0.672,1.5,1.5v21
		C21,47.328,20.328,48,19.5,48z"/>
	<path d="M31.5,48h-3c-0.828,0-1.5-0.672-1.5-1.5v-15c0-0.828,0.672-1.5,1.5-1.5h3c0.828,0,1.5,0.672,1.5,1.5v15
		C33,47.328,32.328,48,31.5,48z"/>
	<path d="M43.5,48h-3c-0.828,0-1.5-0.672-1.5-1.5v-21c0-0.828,0.672-1.5,1.5-1.5h3c0.828,0,1.5,0.672,1.5,1.5v21
		C45,47.328,44.328,48,43.5,48z"/>
	<path d="M47.561,2.556l-2.121-2.121c-0.574-0.574-1.493-0.577-2.082-0.026l-0.012,0L30.212,12.904l-10.413-7.81l-0.006,0.009
		C19.291,4.727,18.675,4.496,18,4.496c-0.828,0-1.578,0.336-2.121,0.879L0.439,20.814c-0.586,0.586-0.586,1.536,0,2.121l2.121,2.121
		c0.586,0.586,1.536,0.586,2.121,0l13.171-13.171l10.349,7.762l0.006-0.009c0.501,0.376,1.117,0.607,1.793,0.607
		c0.813,0,1.549-0.327,2.089-0.852l0.005,0L47.533,4.704l0-0.009c0.008-0.008,0.019-0.01,0.027-0.018
		C48.146,4.092,48.146,3.142,47.561,2.556z"/>
</g>
</svg>
