<svg version="1.1"  xmlns="http://www.w3.org/2000/svg" xmlns:xlink="http://www.w3.org/1999/xlink" x="0px" y="0px"
	 viewBox="0 0 16 16" enable-background="new 0 0 16 16" xml:space="preserve">
<path id="date_16_1_" d="M15,2h-3V1c0-0.552-0.448-1-1-1s-1,0.448-1,1v1H6V1c0-0.552-0.448-1-1-1S4,0.448,4,1v1H1
	C0.448,2,0,2.448,0,3v12c0,0.552,0.448,1,1,1h14c0.552,0,1-0.448,1-1V3C16,2.448,15.552,2,15,2z M14,14H2V9h12V14z M14,7H2V4h2v1
	c0,0.552,0.448,1,1,1s1-0.448,1-1V4h4v1c0,0.552,0.448,1,1,1s1-0.448,1-1V4h2V7z"/>
</svg>
