<svg version="1.1"  xmlns="http://www.w3.org/2000/svg" xmlns:xlink="http://www.w3.org/1999/xlink" x="0px" y="0px"
	 viewBox="0 0 32 32" enable-background="new 0 0 32 32" xml:space="preserve">
<path id="source_url_32" d="M16,0C7.163,0,0,7.163,0,16c0,8.837,7.163,16,16,16s16-7.163,16-16C32,7.163,24.837,0,16,0z M3.051,17
	h3.978c0.061,1.758,0.277,3.441,0.632,5H4.479C3.686,20.483,3.188,18.792,3.051,17z M17,8V3.152C18.8,3.644,20.396,5.429,21.49,8H17
	z M22.194,10c0.431,1.516,0.703,3.207,0.779,5H17v-5H22.194z M15,3.152V8h-4.49C11.604,5.429,13.2,3.644,15,3.152z M15,10v5H9.028
	c0.075-1.793,0.347-3.484,0.779-5H15z M7.028,15H3.051c0.137-1.792,0.635-3.483,1.428-5H7.66C7.305,11.559,7.09,13.242,7.028,15z
	 M9.028,17H15v5H9.806C9.375,20.484,9.103,18.793,9.028,17z M15,24v4.848c-1.8-0.492-3.396-2.278-4.49-4.848H15z M17,28.848V24h4.49
	C20.396,26.571,18.8,28.356,17,28.848z M17,22v-5h5.972c-0.075,1.793-0.347,3.484-0.779,5H17z M24.972,17h3.978
	c-0.137,1.792-0.635,3.483-1.428,5H24.34C24.695,20.441,24.91,18.758,24.972,17z M24.972,15c-0.061-1.758-0.277-3.441-0.632-5h3.181
	c0.793,1.517,1.291,3.208,1.428,5H24.972z M26.226,8h-2.44c-0.397-1.218-0.875-2.342-1.432-3.33C23.855,5.516,25.168,6.652,26.226,8
	z M9.646,4.67C9.089,5.658,8.611,6.782,8.214,8H5.774C6.832,6.652,8.144,5.516,9.646,4.67z M5.774,24h2.439
	c0.397,1.218,0.875,2.342,1.432,3.33C8.144,26.484,6.832,25.348,5.774,24z M22.354,27.33c0.557-0.987,1.035-2.112,1.432-3.33h2.44
	C25.168,25.348,23.855,26.484,22.354,27.33z"/>
</svg>
