<svg version="1.1"  xmlns="http://www.w3.org/2000/svg" xmlns:xlink="http://www.w3.org/1999/xlink" x="0px" y="0px" viewBox="0 0 64 64" style="enable-background:new 0 0 64 64;" xml:space="preserve">
	<path id="SVGID_1_" d="M60,62.8l2.8-2.8c1.6-1.6,1.6-4.1,0-5.7L44.7,36.2C46.8,32.6,48,28.4,48,24C48,10.7,37.3,0,24,0
		S0,10.7,0,24s10.7,24,24,24c4.4,0,8.6-1.2,12.2-3.3l18.2,18.2C55.9,64.4,58.4,64.4,60,62.8 M24,36c-6.6,0-12-5.4-12-12
		c0-6.6,5.4-12,12-12c6.6,0,12,5.4,12,12C36,30.6,30.6,36,24,36"/>
</svg>
