<svg version="1.1"  xmlns="http://www.w3.org/2000/svg" xmlns:xlink="http://www.w3.org/1999/xlink" x="0px" y="0px" viewBox="0 0 64 64" style="enable-background:new 0 0 64 64;" xml:space="preserve">
	<path id="SVGID_1_" d="M32,0C14.3,0,0,14.3,0,32v4c0,6.6,5.4,12,12,12h2v12c0,2.2,1.8,4,4,4h2V52c0-1.1,0.9-2,2-2s2,0.9,2,2v12h6
		V52c0-1.1,0.9-2,2-2s2,0.9,2,2v12h6V52c0-1.1,0.9-2,2-2s2,0.9,2,2v12h2c2.2,0,4-1.8,4-4V48h2c6.6,0,12-5.4,12-12v-4
		C64,14.3,49.7,0,32,0 M16,38c-4.4,0-8-3.6-8-8s3.6-8,8-8s8,3.6,8,8S20.4,38,16,38 M36,44h-8c-1.1,0-2-0.9-2-2
		c0-0.4,0.1-0.8,0.4-1.1l0,0l4-6h0c0.4-0.5,0.9-0.9,1.6-0.9s1.3,0.4,1.6,0.9h0l4,6l0,0c0.2,0.3,0.4,0.7,0.4,1.1
		C38,43.1,37.1,44,36,44 M48,38c-4.4,0-8-3.6-8-8s3.6-8,8-8s8,3.6,8,8S52.4,38,48,38"/>
</svg>
