<svg version="1.1"  xmlns="http://www.w3.org/2000/svg" xmlns:xlink="http://www.w3.org/1999/xlink" x="0px" y="0px" viewBox="0 0 64 64" style="enable-background:new 0 0 64 64;" xml:space="preserve">
	<path id="SVGID_1_" d="M8,10v38c0,3.3,2.7,6,6,6h36c3.3,0,6-2.7,6-6V14h-4v32c0,2.2-1.8,4-4,4s-4-1.8-4-4V10H8z M50,62H14
		C6.3,62,0,55.7,0,48V10c0-4.4,3.6-8,8-8h36c3,0,5.5,1.6,6.9,4H56c4.4,0,8,3.6,8,8v34C64,55.7,57.7,62,50,62z M22,26h-8
		c-1.1,0-2-0.9-2-2v-8c0-1.1,0.9-2,2-2h8c1.1,0,2,0.9,2,2v8C24,25.1,23.1,26,22,26z M30,18h8c1.1,0,2-0.9,2-2s-0.9-2-2-2h-8
		c-1.1,0-2,0.9-2,2S28.9,18,30,18z M38,22h-8c-1.1,0-2,0.9-2,2s0.9,2,2,2h8c1.1,0,2-0.9,2-2S39.1,22,38,22z M38,30H14
		c-1.1,0-2,0.9-2,2s0.9,2,2,2h24c1.1,0,2-0.9,2-2S39.1,30,38,30z M38,38H14c-1.1,0-2,0.9-2,2s0.9,2,2,2h24c1.1,0,2-0.9,2-2
		S39.1,38,38,38z M38,46H14c-1.1,0-2,0.9-2,2s0.9,2,2,2h24c1.1,0,2-0.9,2-2S39.1,46,38,46z"/>
</svg>
