<svg version="1.1"  xmlns="http://www.w3.org/2000/svg" xmlns:xlink="http://www.w3.org/1999/xlink" x="0px" y="0px"
	 viewBox="0 0 24 24" style="enable-background:new 0 0 24 24;" xml:space="preserve">
<g id="globe_restricted_24">
	<path d="M9,17H8v-2c0-1.7-1.3-3-3-3s-3,1.3-3,3v2H1c-0.6,0-1,0.4-1,1v5c0,0.6,0.4,1,1,1h8c0.6,0,1-0.4,1-1v-5C10,17.4,9.6,17,9,17z
		 M4,17v-2c0-0.6,0.4-1,1-1s1,0.4,1,1v2H4z"/>
	<g>
		<path d="M12,0C5.4,0,0,5.4,0,12c0,0.6,0.1,1.2,0.2,1.8c0.3-1.2,1-2.2,1.9-2.8C2.3,8.6,3.4,6.5,5,4.9V7c0,0.6,0.4,1,1,1h0.6
			c0.3,0,0.5-0.1,0.7-0.3l0.4-0.4C7.9,7.1,8.1,7,8.4,7h1.2c0.3,0,0.5,0.1,0.7,0.3l0.4,0.4C10.9,7.9,11,8.1,11,8.4v1.2
			c0,0.3-0.1,0.5-0.3,0.7l-1.4,1.4c-0.1,0.1-0.2,0.2-0.2,0.4C9.6,12.9,10,13.9,10,15c1.1,0,2,0.9,2,2v7c6.6,0,12-5.4,12-12
			C24,5.4,18.6,0,12,0z M12,3.4c0,0.4-0.2,0.7-0.6,0.9l-0.8,0.4c-0.4,0.2-0.8,0.1-1.2-0.2L7.9,2.9C9.1,2.3,10.5,2,12,2V3.4z M16,8
			c0-0.6,0.4-1,1-1h0.4c0.4,0,0.7-0.2,0.9-0.6L19,4.9C20.2,6,21,7.4,21.5,9h-1.1c-0.3,0-0.5,0.1-0.7,0.3l-0.4,0.4
			c-0.2,0.2-0.4,0.3-0.7,0.3h-1.2c-0.3,0-0.5-0.1-0.7-0.3l-0.4-0.4C16.1,9.1,16,8.9,16,8.6V8z M17,20.7v-1.1c0-0.3-0.2-0.6-0.4-0.8
			l-2.1-1.4c-0.3-0.2-0.4-0.5-0.4-0.8v-1.9c0-0.3,0.2-0.6,0.4-0.8l2.3-1.5c0.2-0.1,0.4-0.2,0.6-0.2h2.5c0.2,0,0.3,0,0.4,0.1L22,13
			C21.6,16.3,19.7,19.1,17,20.7z"/>
	</g>
</g>
</svg>
