<svg version="1.1"  xmlns="http://www.w3.org/2000/svg" xmlns:xlink="http://www.w3.org/1999/xlink" x="0px" y="0px"
	 viewBox="0 0 64 64" enable-background="new 0 0 64 64" xml:space="preserve">
<path id="decrease_64" d="M54.828,42.828l-20,20c-1.562,1.562-4.095,1.562-5.657,0l-20-20c-1.562-1.562-1.562-4.095,0-5.657
	l3.536-3.536c1.562-1.562,4.095-1.562,5.657,0L25,40.272V4c0-2.209,1.791-4,4-4h6c2.209,0,4,1.791,4,4v36.272l6.636-6.636
	c1.562-1.562,4.095-1.562,5.657,0l3.536,3.536C56.391,38.734,56.391,41.266,54.828,42.828z"/>
</svg>
