<svg xmlns="http://www.w3.org/2000/svg" width="44" height="22" viewBox="0 0 44 22"><path d="M43.1.2H.1V22h43l-.1-4.3c.2-.2.4-.4.4-1.1 0-.7-.2-1.1-.3-1.3" fill="#088EC0" fill-rule="evenodd"/><path d="M4 6.9l-.8-2-.9 2H4zm18.2-.8c-.1.1-.3.1-.6.1h-1.4V5.1h2c.2.1.3.3.3.5s-.1.4-.3.5zm10.5.8l-.8-2-.8 2h1.6zM13.2 9.1h-1.3v-4l-1.7 4H9.1l-1.8-4v4H4.9l-.5-1.2H1.9l-.5 1.2H.1L2.3 4h1.8l2 4.8V4h2l1.6 3.4L11.2 4h2v5.1zm4.9 0h-4V4h4v1.1h-2.8V6H18v1h-2.7v1h2.8v1.1zm5.7-3.7c0 .8-.5 1.2-.8 1.3.2.1.5.3.6.4.1.3.2.5.2 1v1h-1.3v-.7c0-.3.1-.7-.2-1-.1-.1-.4-.2-.8-.2h-1.3v1.9H19V4h2.7c.7 0 1.1 0 1.5.2.4.3.6.6.6 1.2zm2 3.7h-1.3V4h1.3v5.1zm14.3 0h-1.7l-2.3-3.8v3.8h-2.5l-.5-1.2h-2.5l-.4 1.2h-1.4c-.6 0-1.4-.2-1.8-.6-.4-.4-.7-1-.7-1.9 0-.8.2-1.5.7-2 .4-.4 1-.6 1.8-.6H30v1.1h-1.1c-.5 0-.7.1-1 .3-.2.2-.3.6-.3 1.1 0 .6.1 1 .3 1.2.2.2.5.3.9.3h.5L31 4h1.8l2.1 4.8V4h1.8l2.1 3.5V4h1.3v5.1zm-40 1h2.1l.4-1.2h1.1l.4 1.2h4.1v-.9l.4.9h2.1l.4-.9v.9h10.1V8.2h.2c.1 0 .1 0 .1.3v1.6h5.3v-.5c.4.3 1 .5 1.9.5h2.2l.5-1.2h1l.5 1.2h4.2V9l.7 1.1h3.4V3h-3.4v.8l-.5-.8h-3.4v.8l-.5-.8h-4.6c-.8 0-1.5.1-2 .4V3h-3.3v.4c-.3-.3-.8-.4-1.3-.4H10.4l-.8 1.8L8.8 3H5.1v.8L4.7 3H1.6L.1 6.4v3.7zM43.4 14.1h-2.2c-.2 0-.4 0-.5.1-.1 0-.2.2-.2.3 0 .2.1.3.3.4.1 0 .2.1.4.1h.7c.7 0 1.1.1 1.4.4 0 0 0 .1.1.1v-1.4zm0 3.3c-.3.4-.9.7-1.7.7h-2.3V17h2.3c.3 0 .4-.1.5-.2.1 0 .2-.1.2-.3 0-.1-.1-.2-.2-.3-.1-.1-.2-.1-.4-.1-1.2-.1-2.6 0-2.6-1.6 0-.7.5-1.5 1.8-1.5h2.4v-1h-2.3c-.6 0-1.1.1-1.5.4V12h-3.3c-.5 0-1.1.1-1.4.4V12h-6v.4c-.4-.3-1.2-.4-1.6-.4h-3.9v.4c-.4-.4-1.2-.4-1.7-.4h-4.4l-1 1.1-.9-1.1H8.9v7.1h6.4l1-1.1 1 1.1h3.9v-1.7h.4c.5 0 1.1 0 1.7-.3v2h3.2v-1.9h.2c.2 0 .2 0 .2.2v1.7h9.9c.6 0 1.3-.2 1.7-.5v.5h3.1c.7 0 1.3-.1 1.8-.4v-1.3zm-4.9-2c.3.2.4.5.4 1.1 0 1.1-.7 1.6-1.9 1.6h-2.3V17H37c.2 0 .4-.1.5-.2.1 0 .1-.1.1-.3 0-.1 0-.2-.1-.3-.1-.1-.2-.1-.4-.1-1.2-.1-2.6 0-2.6-1.6 0-.7.5-1.5 1.7-1.5h2.5v1.1h-2.3c-.2 0-.3 0-.4.1-.2 0-.2.2-.2.3 0 .2.1.3.2.4.2 0 .3.1.5.1h.7c.6 0 1.1.1 1.3.4zm-10.9-.3c-.1.1-.3.1-.6.1h-1.4V14H27c.3 0 .5 0 .6.1.2.1.3.3.3.5s-.1.4-.3.5zm.8.6c.2.1.4.3.5.4.2.3.2.5.2 1v1h-1.2v-.7c0-.3.1-.7-.2-1-.1-.1-.4-.2-.9-.2h-1.2v1.9h-1.3V13h2.8c.6 0 1.1 0 1.5.2.4.3.6.6.6 1.2 0 .8-.5 1.2-.8 1.3zm1.5-2.7h4v1h-2.8v1h2.8v1h-2.8v1h2.8v1.1h-4V13zm-8.2 2.3h-1.5V14h1.5c.5 0 .8.2.8.7 0 .4-.3.6-.8.6zm-2.8 2.3l-1.8-2.1 1.8-2v4.1zm-4.8-.6h-2.9v-1h2.6v-1h-2.6v-1h3l1.3 1.5-1.4 1.5zm9.7-2.3c0 1.4-1.1 1.7-2.1 1.7h-1.5v1.7h-2.4l-1.5-1.7-1.5 1.7H10V13h4.8l1.5 1.7 1.6-1.7h3.8c1 0 2.1.3 2.1 1.7z" fill="#FFF" fill-rule="evenodd"/></svg>