<svg version="1.1"  xmlns="http://www.w3.org/2000/svg" xmlns:xlink="http://www.w3.org/1999/xlink" x="0px" y="0px"
	 viewBox="0 0 24 24" enable-background="new 0 0 24 24" xml:space="preserve">
<path id="collections_24" d="M24,12c0-0.304-0.143-0.567-0.357-0.751l0.008-0.009l-2.723-2.334l2.444-0.978L23.37,7.925
	C23.738,7.778,24,7.421,24,7c0-0.304-0.143-0.567-0.357-0.751L23.65,6.24l-7-6l-0.008,0.009C16.468,0.1,16.248,0,16,0
	c-0.131,0-0.255,0.029-0.37,0.075l-0.001-0.003l-15,6L0.63,6.075C0.262,6.222,0,6.579,0,7c0,0.304,0.143,0.567,0.357,0.751
	L0.35,7.76l2.723,2.334l-2.444,0.978l0.001,0.003C0.262,11.222,0,11.579,0,12c0,0.304,0.143,0.567,0.357,0.751L0.35,12.76
	l2.723,2.334l-2.444,0.978l0.001,0.003C0.262,16.222,0,16.579,0,17c0,0.304,0.143,0.567,0.357,0.751L0.35,17.76l7,6l0.008-0.009
	C7.532,23.9,7.752,24,8,24c0.131,0,0.255-0.029,0.37-0.075l0.001,0.004l15-6l-0.001-0.003C23.738,17.778,24,17.421,24,17
	c0-0.304-0.143-0.567-0.357-0.751l0.008-0.009l-2.723-2.334l2.444-0.978l-0.001-0.003C23.738,12.778,24,12.421,24,12z M15.809,2.154
	l5.286,4.531L8.191,11.846L2.905,7.315L15.809,2.154z M21.095,16.685L8.191,21.846l-5.286-4.531l1.882-0.753L7.35,18.76l0.008-0.009
	C7.532,18.9,7.752,19,8,19c0.131,0,0.255-0.029,0.37-0.075l0.001,0.004l10.461-4.184L21.095,16.685z M8.191,16.846l-5.286-4.531
	l1.882-0.753L7.35,13.76l0.008-0.009C7.532,13.9,7.752,14,8,14c0.131,0,0.255-0.029,0.37-0.075l0.001,0.004l10.461-4.184l2.263,1.94
	L8.191,16.846z"/>
</svg>
