<svg version="1.1"  xmlns="http://www.w3.org/2000/svg" xmlns:xlink="http://www.w3.org/1999/xlink" x="0px" y="0px"
	 viewBox="0 0 32 32" enable-background="new 0 0 32 32" xml:space="preserve">
	<g id="download_32">
		<path id="increase_32_3_" d="M21.707,24.707l-5,5c-0.391,0.391-1.024,0.391-1.414,0l-5-5c-0.391-0.391-0.391-1.024,0-1.414
			l1.061-1.061c0.391-0.391,1.024-0.391,1.414,0L14,23.464V15c0-0.552,0.448-1,1-1h2c0.552,0,1,0.448,1,1v8.464l1.232-1.232
			c0.391-0.391,1.024-0.391,1.414,0l1.061,1.061C22.098,23.683,22.098,24.317,21.707,24.707z"/>
		<g>
			<path d="M27.894,12.31C27.957,11.881,28,11.446,28,11c0-4.971-4.029-9-9-9c-3.601,0-6.699,2.12-8.138,5.175
				C10.175,6.75,9.368,6.5,8.5,6.5C6.015,6.5,4,8.515,4,11c0,0.445,0.067,0.874,0.187,1.28C1.76,13.049,0,15.318,0,18
				c0,3.314,2.686,6,6,6h1c0-2.419,1.718-4.436,4-4.899V15c0-2.209,1.791-4,4-4h2c2.209,0,4,1.791,4,4v4.101
				c2.282,0.463,4,2.48,4,4.899h1c3.314,0,6-2.686,6-6C32,15.349,30.279,13.104,27.894,12.31z"/>
		</g>
	</g>
</svg>
