<svg version="1.1"  xmlns="http://www.w3.org/2000/svg" xmlns:xlink="http://www.w3.org/1999/xlink" x="0px" y="0px"
	 viewBox="0 0 16 16" enable-background="new 0 0 16 16" xml:space="preserve">
<g id="preview_16">
	<path d="M15.707,13.293l-3.273-3.273C12.785,9.425,13,8.74,13,8c0-2.209-1.791-4-4-4S5,5.791,5,8c0,2.209,1.791,4,4,4
		c0.74,0,1.425-0.215,2.02-0.566l3.273,3.273c0.391,0.391,1.024,0.391,1.414,0C16.098,14.317,16.098,13.683,15.707,13.293z M9,10
		c-1.105,0-2-0.895-2-2s0.895-2,2-2s2,0.895,2,2S10.105,10,9,10z"/>
	<path d="M10,14H2V2h8c0.552,0,1-0.448,1-1s-0.448-1-1-1H1C0.448,0,0,0.448,0,1v14c0,0.552,0.448,1,1,1h9c0.552,0,1-0.448,1-1
		C11,14.448,10.552,14,10,14z"/>
</g>
</svg>
