<svg version="1.1"  xmlns="http://www.w3.org/2000/svg" xmlns:xlink="http://www.w3.org/1999/xlink" x="0px" y="0px"
	 viewBox="0 0 24 24" style="enable-background:new 0 0 24 24;" xml:space="preserve">
<g id="vod_staff_pick_24">
	<path d="M21.3,4.8l-7.6-4.3c-1.1-0.6-2.4-0.6-3.4,0L2.7,4.8C1.7,5.4,1,6.5,1,7.7v8.6c0,1.2,0.7,2.3,1.7,2.9l7.6,4.3
		c1.1,0.6,2.4,0.6,3.4,0l7.6-4.3c1.1-0.6,1.7-1.7,1.7-2.9V7.7C23,6.5,22.3,5.4,21.3,4.8z M20,16.5L12,21l-8-4.5v-9L12,3l8,4.5V16.5z
		"/>
	<path id="select_16_4_" d="M16.8,9l-0.6-0.6c-0.3-0.3-0.7-0.2-1,0.1L10.8,13l-2.1-2.1c-0.3-0.3-0.7-0.3-0.9,0l-0.6,0.6
		c-0.3,0.3-0.3,0.7,0,0.9l3.1,3.1c0.3,0.3,0.7,0.3,0.9,0l5.5-5.5C17.1,9.7,17.1,9.3,16.8,9z"/>
</g>
</svg>
