<svg version="1.1"  xmlns="http://www.w3.org/2000/svg" xmlns:xlink="http://www.w3.org/1999/xlink" x="0px" y="0px" viewBox="0 0 64 64" style="enable-background:new 0 0 64 64;" xml:space="preserve">
	<path id="SVGID_1_" d="M54,28c-2.2,0-4-1.8-4-4s1.8-4,4-4s4,1.8,4,4S56.2,28,54,28 M36,16H4c-2.2,0-4,1.8-4,4v24c0,11,9,20,20,20
		s20-9,20-20V20C40,17.8,38.2,16,36,16 M6,40c0-2.2,1.8-4,4-4s4,1.8,4,4s-1.8,4-4,4S6,42.2,6,40 M20,56c-5.5,0-10-3.6-10-8h20
		C30,52.4,25.5,56,20,56 M30,44c-2.2,0-4-1.8-4-4s1.8-4,4-4s4,1.8,4,4S32.2,44,30,44 M60,0H28c-2.2,0-4,1.8-4,4v8h16
		c2.2,0,4,1.8,4,4v16c5.5,0,10,3.6,10,8H44v8c11,0,20-9,20-20V4C64,1.8,62.2,0,60,0"/>
</svg>
