<svg version="1.1"  xmlns="http://www.w3.org/2000/svg" xmlns:xlink="http://www.w3.org/1999/xlink" x="0px" y="0px"
	 viewBox="0 0 32 32" style="enable-background:new 0 0 32 32;" xml:space="preserve">
<g id="sales_32_1_">
	<g id="sales_32">
		<path d="M24,4v20.5l-2-1.3l-6,4l-6-4l-2,1.3V4H24 M6,0C4.9,0,4,0.9,4,2v30l6-4l6,4l6-4l6,4V2c0-1.1-0.9-2-2-2H6z"/>
	</g>
	<path d="M21,20H11c-0.6,0-1-0.4-1-1v-2c0-0.6,0.4-1,1-1h10c0.6,0,1,0.4,1,1v2C22,19.6,21.6,20,21,20z"/>
	<path d="M21,12H11c-0.6,0-1-0.4-1-1V9c0-0.6,0.4-1,1-1h10c0.6,0,1,0.4,1,1v2C22,11.6,21.6,12,21,12z"/>
</g>
</svg>
