<svg version="1.1"  xmlns="http://www.w3.org/2000/svg" xmlns:xlink="http://www.w3.org/1999/xlink" x="0px" y="0px"
	 viewBox="0 0 16 16" enable-background="new 0 0 16 16" xml:space="preserve">
<g id="export_16_1_">
	<path d="M15,3H1C0.448,3,0,2.552,0,2V1c0-0.552,0.448-1,1-1h14c0.552,0,1,0.448,1,1v1C16,2.552,15.552,3,15,3z"/>
	<path d="M11.707,11.293c-0.391-0.391-1.024-0.391-1.414,0L9,12.586V6c0-0.552-0.448-1-1-1S7,5.448,7,6v6.586l-1.293-1.293
		c-0.391-0.391-1.024-0.391-1.414,0c-0.391,0.391-0.391,1.024,0,1.414l3,3c0.391,0.391,1.024,0.391,1.414,0l3-3
		C12.098,12.317,12.098,11.683,11.707,11.293z"/>
	<g>
		<path d="M5.184,5H1C0.448,5,0,5.448,0,6v1c0,0.552,0.448,1,1,1h4V6C5,5.647,5.072,5.314,5.184,5z"/>
		<path d="M11,8h4c0.552,0,1-0.448,1-1V6c0-0.552-0.448-1-1-1h-4.184C10.928,5.314,11,5.647,11,6V8z"/>
		<path d="M2.779,10H1c-0.552,0-1,0.448-1,1v1c0,0.552,0.448,1,1,1h1.184C2.072,12.686,2,12.353,2,12C2,11.228,2.3,10.532,2.779,10z
			"/>
		<path d="M13.816,13H15c0.552,0,1-0.448,1-1v-1c0-0.552-0.448-1-1-1h-1.779C13.7,10.532,14,11.228,14,12
			C14,12.353,13.928,12.686,13.816,13z"/>
	</g>
</g>
</svg>
