<svg version="1.1"  xmlns="http://www.w3.org/2000/svg" xmlns:xlink="http://www.w3.org/1999/xlink" x="0px" y="0px"
	 viewBox="0 0 16 16" enable-background="new 0 0 16 16" xml:space="preserve">
<g id="link_16">
	<path d="M4,12c-2.206,0-4-1.794-4-4s1.794-4,4-4h3c2.206,0,4,1.794,4,4c0,0.552-0.447,1-1,1S9,8.552,9,8c0-1.103-0.897-2-2-2H4
		C2.897,6,2,6.897,2,8s0.897,2,2,2c0.553,0,1,0.448,1,1S4.553,12,4,12z"/>
	<path d="M12,12H9c-2.206,0-4-1.794-4-4c0-0.552,0.447-1,1-1s1,0.448,1,1c0,1.103,0.897,2,2,2h3c1.103,0,2-0.897,2-2s-0.897-2-2-2
		c-0.553,0-1-0.448-1-1s0.447-1,1-1c2.206,0,4,1.794,4,4S14.206,12,12,12z"/>
</g>
</svg>
