<svg version="1.1"  xmlns="http://www.w3.org/2000/svg" xmlns:xlink="http://www.w3.org/1999/xlink" x="0px" y="0px"
	 viewBox="0 0 32 32" style="enable-background:new 0 0 32 32;" xml:space="preserve">
<g id="vod_staff_pick_32">
	<path id="select_16_2_" d="M21.8,12.4l-0.7-0.7c-0.3-0.3-0.8-0.3-1.2,0.1l-5.3,5.4l-2.5-2.5c-0.3-0.3-0.8-0.3-1.1,0l-0.7,0.7
		c-0.3,0.3-0.3,0.8,0,1.1l3.8,3.8c0.3,0.3,0.8,0.3,1.1,0l6.6-6.7C22.1,13.3,22.1,12.8,21.8,12.4z"/>
	<path d="M27.8,6.3l-9.6-5.7C17.5,0.2,16.8,0,16,0s-1.5,0.2-2.2,0.6L4.2,6.3C2.8,7.2,2,8.6,2,10.3v11.5c0,1.6,0.8,3.1,2.2,3.9
		l9.6,5.7c0.7,0.4,1.4,0.6,2.2,0.6s1.5-0.2,2.2-0.6l9.6-5.7c1.4-0.8,2.2-2.3,2.2-3.9V10.3C30,8.6,29.2,7.2,27.8,6.3z M26,22l-10,6
		L6,22V10l10-6l10,6V22z"/>
</g>
</svg>
