<svg version="1.1" id="Layer_1" xmlns="http://www.w3.org/2000/svg" xmlns:xlink="http://www.w3.org/1999/xlink" x="0px" y="0px"
	 viewBox="0 0 16 16" style="enable-background:new 0 0 16 16;" xml:space="preserve">
<g>
	<path d="M6,11c-0.6,0-1,0.4-1,1v3c0,0.6,0.4,1,1,1s1-0.4,1-1v-3C7,11.4,6.6,11,6,11z M10,9c-0.6,0-1,0.4-1,1v5c0,0.6,0.4,1,1,1
		s1-0.4,1-1v-5C11,9.4,10.6,9,10,9z M14,0c-0.6,0-1,0.4-1,1v14c0,0.6,0.4,1,1,1s1-0.4,1-1V1C15,0.4,14.6,0,14,0z M2,13
		c-0.6,0-1,0.4-1,1v1c0,0.6,0.4,1,1,1s1-0.4,1-1v-1C3,13.4,2.6,13,2,13z M5,0C2.8,0,1,1.8,1,4s1.8,4,4,4s4-1.8,4-4S7.2,0,5,0z M5,6
		C3.9,6,3,5.1,3,4s0.9-2,2-2s2,0.9,2,2S6.1,6,5,6"/>
</g>
</svg>
