<svg version="1.1" id="Layer_1" xmlns="http://www.w3.org/2000/svg" xmlns:xlink="http://www.w3.org/1999/xlink" x="0px" y="0px"
	 viewBox="0 0 96 96" style="enable-background:new 0 0 96 96;" xml:space="preserve">
<g id="stats_96_color">
	<path style="fill:#A3DD24;" d="M15,96H9c-1.7,0-3-1.3-3-3V69c0-1.7,1.3-3,3-3h6c1.7,0,3,1.3,3,3v24C18,94.7,16.7,96,15,96z"/>
	<path style="fill:#7FC400;" d="M39,96h-6c-1.7,0-3-1.3-3-3V51c0-1.7,1.3-3,3-3h6c1.7,0,3,1.3,3,3v42C42,94.7,40.7,96,39,96z"/>
	<path style="fill:#A3DD24;" d="M63,96h-6c-1.7,0-3-1.3-3-3V63c0-1.7,1.3-3,3-3h6c1.7,0,3,1.3,3,3v30C66,94.7,64.7,96,63,96z"/>
	<path style="fill:#7FC400;" d="M87,96h-6c-1.7,0-3-1.3-3-3V51c0-1.7,1.3-3,3-3h6c1.7,0,3,1.3,3,3v42C90,94.7,88.7,96,87,96z"/>
	<path style="fill:#2E9A01;" d="M95.1,5.1l-4.2-4.2c-1.1-1.1-3-1.2-4.2-0.1l0,0l-26.3,25L39.6,10.2l0,0C38.6,9.5,37.4,9,36,9
		c-1.7,0-3.2,0.7-4.2,1.8L0.9,41.6c-1.2,1.2-1.2,3.1,0,4.2L5.1,50c1.2,1.2,3.1,1.2,4.2,0l26.3-26.3l20.7,15.5l0,0
		c1,0.8,2.2,1.2,3.6,1.2c1.6,0,3.1-0.7,4.2-1.7l0,0l31-29.3l0,0c0,0,0,0,0.1,0C96.3,8.2,96.3,6.3,95.1,5.1z"/>
</g>
</svg>
