<svg version="1.1" xmlns="http://www.w3.org/2000/svg" xmlns:xlink="http://www.w3.org/1999/xlink" x="0px" y="0px"
	 viewBox="0 0 16 16" style="enable-background:new 0 0 16 16;" xml:space="preserve">
<g>
	<path style="fill:#3EC3F1;" d="M1.8,12.6L6,10.5v-5V0.8L2.1,3.2C1.4,3.6,1,4.3,1,5.1v5.7C1,11.5,1.3,12.2,1.8,12.6z"/>
</g>
<g>
	<path style="fill:#20A7E0;" d="M6,10.5l-4.2,2.1c0.1,0.1,0.2,0.2,0.3,0.2l4.8,2.9c0.7,0.4,1.5,0.4,2.2,0l4.8-2.9
		c0.7-0.4,1.1-1.2,1.1-2V6l-4,2L6,10.5z"/>
</g>
<g>
	<path style="fill:#247FC0;" d="M13.9,3.2L9.1,0.3c-0.7-0.4-1.5-0.4-2.2,0L6,0.8v4.7L11,8l4,2V5.1C15,4.3,14.6,3.6,13.9,3.2z"/>
</g>
</svg>
