<svg version="1.1"  xmlns="http://www.w3.org/2000/svg" xmlns:xlink="http://www.w3.org/1999/xlink" x="0px" y="0px" viewBox="0 0 32 32" style="enable-background:new 0 0 32 32;" xml:space="preserve">
	<path id="SVGID_1_" d="M26,10h-4V6c0-3.3-2.7-6-6-6s-6,2.7-6,6v4H6c-3.3,0-6,2.7-6,6s2.7,6,6,6h4v4c0,3.3,2.7,6,6,6s6-2.7,6-6v-4
		h4c3.3,0,6-2.7,6-6S29.3,10,26,10 M26,20h-5c-0.6,0-1,0.4-1,1v5c0,2.2-1.8,4-4,4s-4-1.8-4-4v-5c0-0.6-0.4-1-1-1H6
		c-2.2,0-4-1.8-4-4s1.8-4,4-4h5c0.6,0,1-0.4,1-1V6c0-2.2,1.8-4,4-4s4,1.8,4,4v5c0,0.6,0.4,1,1,1h5c2.2,0,4,1.8,4,4S28.2,20,26,20"
		/>
</svg>
