<svg version="1.1"  xmlns="http://www.w3.org/2000/svg" xmlns:xlink="http://www.w3.org/1999/xlink" x="0px" y="0px"
	 viewBox="0 0 64 64" enable-background="new 0 0 64 64" xml:space="preserve">
<g id="series_64">
	<path id="video_64_1_" d="M48,26c0-3.314-2.686-6-6-6H6c-3.314,0-6,2.686-6,6v24c0,3.314,2.686,6,6,6h36c3.314,0,6-2.686,6-6V26z
		 M18,45.5v-15L33,38L18,45.5z"/>
	<g>
		<path d="M58,8H22c-3.314,0-6,2.686-6,6v2h26c5.514,0,10,4.486,10,10v18h6c3.314,0,6-2.686,6-6V14C64,10.686,61.314,8,58,8z"/>
	</g>
</g>
</svg>
