<svg version="1.1"  xmlns="http://www.w3.org/2000/svg" xmlns:xlink="http://www.w3.org/1999/xlink" x="0px" y="0px"
	 viewBox="0 0 24 24" style="enable-background:new 0 0 24 24;" xml:space="preserve">
<path id="date_24" d="M22,3h-4V1.5C18,0.7,17.3,0,16.5,0S15,0.7,15,1.5V3H9V1.5C9,0.7,8.3,0,7.5,0S6,0.7,6,1.5V3H2C0.9,3,0,3.9,0,5
	v17c0,1.1,0.9,2,2,2h20c1.1,0,2-0.9,2-2V5C24,3.9,23.1,3,22,3z M21,21H3v-7h18V21z M21,11H3V6h3v1.5C6,8.3,6.7,9,7.5,9S9,8.3,9,7.5
	V6h6v1.5C15,8.3,15.7,9,16.5,9S18,8.3,18,7.5V6h3V11z"/>
</svg>
