<?xml version="1.0" encoding="utf-8"?>
<!-- Generator: Adobe Illustrator 17.1.0, SVG Export Plug-In . SVG Version: 6.00 Build 0)  -->
<!DOCTYPE svg PUBLIC "-//W3C//DTD SVG 1.1//EN" "http://www.w3.org/Graphics/SVG/1.1/DTD/svg11.dtd">
<svg version="1.1"  xmlns="http://www.w3.org/2000/svg" xmlns:xlink="http://www.w3.org/1999/xlink" x="0px" y="0px"
	 viewBox="0 0 16 16" enable-background="new 0 0 16 16" xml:space="preserve">
<path id="deselect_16_1_" d="M8,0C3.582,0,0,3.582,0,8s3.582,8,8,8s8-3.582,8-8S12.418,0,8,0z M8,3c0.832,0,1.605,0.223,2.296,0.583
	l-6.713,6.713C3.223,9.605,3,8.832,3,8C3,5.239,5.239,3,8,3z M8,13c-0.832,0-1.606-0.223-2.296-0.583l6.713-6.713
	C12.777,6.395,13,7.168,13,8C13,10.761,10.761,13,8,13z"/>
</svg>
