<svg version="1.1"  xmlns="http://www.w3.org/2000/svg" xmlns:xlink="http://www.w3.org/1999/xlink" x="0px" y="0px"
	 viewBox="0 0 32 32" enable-background="new 0 0 32 32" xml:space="preserve">
<path id="fashion_32" d="M29.324,21.021c-0.091-0.072-0.188-0.138-0.293-0.194L18,14.813v-3.156c2.328-0.825,4-3.05,4-5.657
	c0-3.309-2.691-6-6-6s-6,2.691-6,6c0,1.104,0.896,2,2,2s2-0.896,2-2c0-1.103,0.897-2,2-2s2,0.897,2,2s-0.897,2-2,2
	c-1.104,0-2,0.896-2,2v4.813L2.969,20.827c-0.104,0.056-0.199,0.12-0.288,0.191C0.997,22.137,0,23.981,0,26c0,3.309,2.691,6,6,6h20
	c3.309,0,6-2.691,6-6C32,23.983,31.005,22.14,29.324,21.021z M26,28H6c-1.103,0-2-0.897-2-2c0-0.693,0.362-1.329,0.97-1.698
	c0.033-0.021,0.065-0.042,0.097-0.063L16,18.278l10.933,5.96c0.032,0.022,0.064,0.043,0.098,0.063C27.638,24.671,28,25.307,28,26
	C28,27.103,27.103,28,26,28z"/>
</svg>
