<svg version="1.1"  xmlns="http://www.w3.org/2000/svg" xmlns:xlink="http://www.w3.org/1999/xlink" x="0px" y="0px" viewBox="0 0 64 64" style="enable-background:new 0 0 64 64;" xml:space="preserve">
	<path id="SVGID_1_" d="M32,9.9C24.8,2.7,16,0.4,4.1,0C1.9-0.1,0,1.7,0,4v47.1c0,2.1,1.7,3.9,3.8,4c9.5,0.4,17.7,2.4,25.9,8.2
		c1.4,1,3.2,1,4.5,0c8.2-5.8,16.4-7.8,25.9-8.2c2.1-0.1,3.8-1.8,3.8-4V4c0-2.3-1.9-4.1-4.1-4C48,0.4,39.2,2.7,32,9.9z M8,7.9
		c6,0,16,4,20,8V53c-5.9-3.9-13.6-6-20-6V7.9z M56,47c-6.4,0-14.1,2.1-20,6V15.9c4-4,14-8,20-8V47z"/>
</svg>
