<svg version="1.1"  xmlns="http://www.w3.org/2000/svg" xmlns:xlink="http://www.w3.org/1999/xlink" x="0px" y="0px"
	 viewBox="0 0 24 24" enable-background="new 0 0 24 24" xml:space="preserve">
<g id="upload_24">
	<path d="M20.921,11.498C20.968,11.186,21,10.87,21,10.545C21,6.93,17.978,4,14.25,4c-2.701,0-5.024,1.542-6.103,3.764
		C7.631,7.454,7.026,7.273,6.375,7.273C4.511,7.273,3,8.738,3,10.545c0,0.324,0.05,0.636,0.141,0.931C1.32,12.035,0,13.686,0,15.636
		C0,18.046,2.015,20,4.5,20H11v-5.379l-1.439,1.439c-0.195,0.195-0.512,0.195-0.707,0l-0.707-0.707
		c-0.195-0.195-0.195-0.512,0-0.707l3.5-3.5c0.195-0.195,0.512-0.195,0.707,0l3.5,3.5c0.195,0.195,0.195,0.512,0,0.707l-0.707,0.707
		c-0.195,0.195-0.512,0.195-0.707,0L13,14.621V20h6.5c2.485,0,4.5-1.954,4.5-4.364C24,13.708,22.709,12.075,20.921,11.498z"/>
</g>
</svg>
