<svg version="1.1"  xmlns="http://www.w3.org/2000/svg" xmlns:xlink="http://www.w3.org/1999/xlink" x="0px" y="0px"
	 viewBox="0 0 64 64" enable-background="new 0 0 64 64" xml:space="preserve">
<path id="increase_64" d="M54.828,21.172l-20-20c-1.562-1.562-4.095-1.562-5.657,0l-20,20c-1.562,1.562-1.562,4.095,0,5.657
	l3.536,3.536c1.562,1.562,4.095,1.562,5.657,0L25,23.728V60c0,2.209,1.791,4,4,4h6c2.209,0,4-1.791,4-4V23.728l6.636,6.636
	c1.562,1.562,4.095,1.562,5.657,0l3.536-3.536C56.391,25.266,56.391,22.734,54.828,21.172z"/>
</svg>
