<svg version="1.1"  xmlns="http://www.w3.org/2000/svg" xmlns:xlink="http://www.w3.org/1999/xlink" x="0px" y="0px" viewBox="0 0 64 64" style="enable-background:new 0 0 64 64;" xml:space="preserve">
	<path id="SVGID_1_" d="M61.6,25.7L61.6,25.7L61.6,25.7L61.6,25.7c1.4-0.6,2.4-2,2.4-3.7s-1-3.1-2.4-3.7v0l0,0c0,0,0,0,0,0l-28-12
		h0C33.1,6.1,32.6,6,32,6c-0.6,0-1.1,0.1-1.6,0.3h0l-28,12h0l0,0v0C1,18.9,0,20.3,0,22s1,3.1,2.4,3.7v0l0,0h0l28,12h0
		c0.5,0.2,1,0.3,1.6,0.3c0.6,0,1.1-0.1,1.6-0.3h0L56,28.1v12.5c-1.2,0.7-2,2-2,3.4v12c0,1.1,0.9,2,2,2h4c1.1,0,2-0.9,2-2V44
		c0-1.5-0.8-2.8-2-3.4V26.4L61.6,25.7z M32,22c-2.2,0-4-0.9-4-2s1.8-2,4-2s4,0.9,4,2S34.2,22,32,22z M33.6,41.7
		c-0.5,0.2-1,0.3-1.6,0.3c-0.6,0-1.1-0.1-1.6-0.3h0l-16.4-7V48c0,1.6,1,3.1,2.4,3.7l0,0l0,0l14,6h0c0.5,0.2,1,0.3,1.6,0.3
		c0.6,0,1.1-0.1,1.6-0.3h0l14-6l0,0l0,0c1.4-0.6,2.4-2,2.4-3.7V34.6L33.6,41.7L33.6,41.7z"/>
</svg>
