<svg version="1.1" xmlns="http://www.w3.org/2000/svg" xmlns:xlink="http://www.w3.org/1999/xlink" x="0px" y="0px"
	 viewBox="0 0 32 32" style="enable-background:new 0 0 32 32;" xml:space="preserve">
<g>
	<path style="fill:#3EC3F1;" d="M3.5,25.2L12,21V11V1.7L4.2,6.3C2.8,7.2,2,8.6,2,10.3v11.5C2,23.1,2.6,24.4,3.5,25.2z"/>
</g>
<g>
	<path style="fill:#20A7E0;" d="M12,21l-8.5,4.2c0.2,0.2,0.4,0.3,0.7,0.5l9.6,5.7c1.4,0.8,3,0.8,4.4,0l9.6-5.7
		c1.4-0.8,2.2-2.3,2.2-3.9V12l-8,4L12,21z"/>
</g>
<g >
	<path style="fill:#247FC0;" d="M27.8,6.3l-9.6-5.7c-1.4-0.8-3-0.8-4.4,0L12,1.7V11l10,5l8,4v-9.7C30,8.6,29.2,7.2,27.8,6.3z"/>
</g>
</svg>
