<svg version="1.1"  xmlns="http://www.w3.org/2000/svg" xmlns:xlink="http://www.w3.org/1999/xlink" x="0px" y="0px"
	 viewBox="0 0 16 16" style="enable-background:new 0 0 16 16;" xml:space="preserve">
<g id="resume_16_1_">
	<path id="resume_16" d="M1,0c0.6,0,1,0.4,1,1v1.7C3.5,1,5.7,0,8,0c4.4,0,8,3.6,8,8s-3.6,8-8,8c-3.1,0-5.9-1.8-7.2-4.6
		c-0.2-0.5,0-1.1,0.5-1.3c0.5-0.2,1.1,0,1.3,0.5C3.6,12.7,5.7,14,8,14c3.3,0,6-2.7,6-6s-2.7-6-6-6C6.3,2,4.7,2.8,3.5,4H5
		c0.6,0,1,0.4,1,1c0,0.6-0.4,1-1,1H1C0.4,6,0,5.6,0,5l0-4C0,0.4,0.4,0,1,0z"/>
	<path d="M8.5,4h-1L7,8c0,0.6,0.4,1,1,1s1-0.4,1-1L8.5,4z"/>
	<path d="M10.5,11.2l0.7-0.7L8.7,7.3c-0.4-0.4-1-0.4-1.4,0s-0.4,1,0,1.4L10.5,11.2z"/>
</g>
</svg>
