<svg version="1.1"  xmlns="http://www.w3.org/2000/svg" xmlns:xlink="http://www.w3.org/1999/xlink" x="0px" y="0px"
	 viewBox="-387 605 16 16" style="enable-background:new -387 605 16 16;" xml:space="preserve">
<path id="loads_16_3_" d="M-387,606v4c0,0.6,0.4,1,1,1h4c0.6,0,1-0.4,1-1s-0.4-1-1-1h-1.5c1.1-1.2,2.7-2,4.5-2c3.3,0,6,2.7,6,6
	s-2.7,6-6,6c-2.3,0-4.4-1.3-5.4-3.4c-0.2-0.5-0.8-0.7-1.3-0.5c-0.5,0.2-0.7,0.8-0.5,1.3c1.3,2.8,4.2,4.6,7.2,4.6c4.4,0,8-3.6,8-8
	s-3.6-8-8-8c-2.3,0-4.5,1-6,2.7V606c0-0.6-0.4-1-1-1S-387,605.4-387,606z"/>
</svg>
