<svg version="1.1" id="Layer_1" xmlns="http://www.w3.org/2000/svg" xmlns:xlink="http://www.w3.org/1999/xlink" x="0px" y="0px"
	 viewBox="0 0 48 48" style="enable-background:new 0 0 48 48;" xml:space="preserve">
<g id="stats_48_color">
	<path style="fill:#A3DD24;" d="M7.5,48h-3C3.7,48,3,47.3,3,46.5v-12C3,33.7,3.7,33,4.5,33h3C8.3,33,9,33.7,9,34.5v12
		C9,47.3,8.3,48,7.5,48z"/>
	<path style="fill:#7FC400;" d="M19.5,48h-3c-0.8,0-1.5-0.7-1.5-1.5v-21c0-0.8,0.7-1.5,1.5-1.5h3c0.8,0,1.5,0.7,1.5,1.5v21
		C21,47.3,20.3,48,19.5,48z"/>
	<path style="fill:#A3DD24;" d="M31.5,48h-3c-0.8,0-1.5-0.7-1.5-1.5v-15c0-0.8,0.7-1.5,1.5-1.5h3c0.8,0,1.5,0.7,1.5,1.5v15
		C33,47.3,32.3,48,31.5,48z"/>
	<path style="fill:#7FC400;" d="M43.5,48h-3c-0.8,0-1.5-0.7-1.5-1.5v-21c0-0.8,0.7-1.5,1.5-1.5h3c0.8,0,1.5,0.7,1.5,1.5v21
		C45,47.3,44.3,48,43.5,48z"/>
	<path style="fill:#2E9A01;" d="M47.6,2.6l-2.1-2.1c-0.6-0.6-1.5-0.6-2.1,0l0,0L30.2,12.9L19.8,5.1l0,0c-0.5-0.4-1.1-0.6-1.8-0.6
		c-0.8,0-1.6,0.3-2.1,0.9L0.4,20.8c-0.6,0.6-0.6,1.5,0,2.1L2.5,25c0.6,0.6,1.5,0.6,2.1,0l13.2-13.2l10.3,7.8l0,0
		c0.5,0.4,1.1,0.6,1.8,0.6c0.8,0,1.5-0.3,2.1-0.9l0,0L47.5,4.7l0,0l0,0C48.1,4.1,48.1,3.1,47.6,2.6z"/>
</g>
</svg>
