<svg version="1.1"  xmlns="http://www.w3.org/2000/svg" xmlns:xlink="http://www.w3.org/1999/xlink" x="0px" y="0px"
	 viewBox="0 0 32 32" enable-background="new 0 0 32 32" xml:space="preserve">
<g id="rent_32">
	<path d="M23,11H9c-0.552,0-1,0.448-1,1v8c0,0.552,0.448,1,1,1h14c0.552,0,1-0.448,1-1v-8C24,11.448,23.552,11,23,11z"/>
	<path d="M32,22V10c-2.761,0-5-2.239-5-5H5c0,2.761-2.239,5-5,5v12c2.761,0,5,2.239,5,5h22C27,24.239,29.239,22,32,22z M26,21
		c0,1.105-0.895,2-2,2H8c-1.105,0-2-0.895-2-2V11c0-1.105,0.895-2,2-2h16c1.105,0,2,0.895,2,2V21z"/>
</g>
</svg>
