<svg version="1.1"  xmlns="http://www.w3.org/2000/svg" xmlns:xlink="http://www.w3.org/1999/xlink" x="0px" y="0px"
	 viewBox="0 0 16 16" enable-background="new 0 0 16 16" xml:space="preserve">
<path id="collections_16" d="M16,8.5c0-0.316-0.156-0.586-0.385-0.769l0.01-0.012l-1.652-1.322l1.344-0.448l-0.004-0.012
	C15.709,5.804,16,5.441,16,5c0-0.316-0.156-0.586-0.385-0.769l0.01-0.012l-5-4l-0.01,0.012C10.444,0.094,10.236,0,10,0
	C9.889,0,9.787,0.03,9.687,0.063L9.684,0.051l-9,3l0.004,0.012C0.291,3.196,0,3.559,0,4c0,0.316,0.156,0.586,0.385,0.769
	l-0.01,0.012l1.652,1.322L0.684,6.551l0.004,0.012C0.291,6.696,0,7.059,0,7.5c0,0.316,0.156,0.586,0.385,0.769l-0.01,0.012
	l1.652,1.322l-1.344,0.448l0.004,0.012C0.291,10.196,0,10.559,0,11c0,0.316,0.156,0.586,0.385,0.769l-0.01,0.012l5,4l0.01-0.012
	C5.556,15.906,5.764,16,6,16c0.111,0,0.213-0.03,0.312-0.063l0.004,0.012l9-3l-0.004-0.012C15.709,12.804,16,12.441,16,12
	c0-0.316-0.156-0.586-0.385-0.769l0.01-0.012l-1.652-1.322l1.344-0.448l-0.004-0.012C15.709,9.304,16,8.941,16,8.5z M6.1,14.439
	L2.03,11.184l1.393-0.465l1.952,1.562l0.01-0.012C5.556,12.406,5.764,12.5,6,12.5c0.111,0,0.213-0.03,0.312-0.063l0.004,0.012
	l5.961-1.987l1.693,1.354L6.1,14.439z M6.1,10.939L2.03,7.684L3.424,7.22l1.952,1.562l0.01-0.012C5.556,8.906,5.764,9,6,9
	c0.111,0,0.213-0.03,0.312-0.063l0.004,0.012l5.961-1.987l1.693,1.354L6.1,10.939z M6.1,7.439L2.03,4.184l7.869-2.624l4.07,3.255
	L6.1,7.439z"/>
</svg>
