<?xml version="1.0" encoding="utf-8"?>
<svg xmlns="http://www.w3.org/2000/svg" version="1.1" viewBox="0 0 441 124.682"><g><path fill="#172322" d="M120.481,27.326c5.462,0,10.188-1.91,14.174-5.728c3.547-3.379,5.392-6.906,5.54-10.583c0.143-2.492-0.815-4.951-2.88-7.378C135.244,1.217,132.662,0,129.562,0c-5.32,0-10.155,1.767-14.511,5.288c-4.356,3.527-6.608,7.204-6.75,11.022C108.002,23.656,112.067,27.326,120.481,27.326z"/><path fill="#172322" d="M434.079,50.16c-5.319-6.925-13.145-10.395-23.475-10.395c-16.097,0-29.455,5.896-40.083,17.688c-9.902,10.614-14.478,22.265-13.733,34.944c0.049,0.932,0.132,1.84,0.229,2.738c-0.554,0.241-1.093,0.483-1.662,0.724c-12.556,5.411-24.147,8.11-34.775,8.11c-5.32,0-9.307-1.839-11.96-5.521c14.316-2.355,26.206-7.876,35.662-16.568c8.854-7.955,12.989-15.689,12.4-23.197c-0.887-11.78-8.562-17.676-23.034-17.676c-15.65,0-29.235,5.909-40.75,17.714c-10.484,10.783-15.805,22.148-15.947,34.103c-0.04,2.005,0.066,3.932,0.3,5.789c-2.477,1.632-4.352,2.456-5.613,2.456c-2.81,0-4.576-0.582-5.314-1.76c-0.737-1.178-1.035-3.308-0.887-6.401c0-1.178,0.919-5.695,2.771-13.565c1.845-7.87,2.841-13.864,2.99-17.987c0.291-6.025-0.894-10.66-3.547-13.896c-3.101-3.974-8.194-5.663-15.281-5.074c-5.902,0.447-11.592,2.66-17.054,6.647c-3.249,2.363-6.569,5.534-9.961,9.521c-1.185,1.036-2.291,2-3.327,2.88c0.143-6.051-1.036-10.705-3.54-13.954c-3.107-3.987-8.272-5.683-15.508-5.094c-8.415,0.738-16.02,4.065-22.809,9.967c-2.958,2.511-5.54,5.469-7.753,8.861c0.291-1.327,0.44-2.731,0.44-4.207c0-4.576-1.185-8.602-3.547-12.071s-5.462-5.055-9.301-4.757c-2.213,0.149-6.42,3.101-12.621,8.854c-8.569,7.974-13.216,12.259-13.954,12.841l5.313,5.98c4.136-2.984,6.647-4.479,7.534-4.479c1.618,0,2.285,1.327,1.994,3.975c-0.143,3.831-0.822,9.164-2.039,16.012c-0.754,4.243-1.298,7.904-1.638,10.988c-0.066,0.055-0.129,0.109-0.196,0.164c-5.32,4.375-9.009,6.556-11.074,6.556c-4.725,0-7.016-3.158-6.867-9.488c2.213-13.824,4.285-25.222,6.207-34.199c0.583-5.294-0.266-9.592-2.55-12.906c-2.291-3.314-5.87-4.744-10.737-4.304c-3.107,0.298-7.832,3.249-14.181,8.86c-2.205,2-4.41,3.996-6.615,5.993c-0.437-10.447-5.204-15.822-14.329-16.09c-13.669-0.44-22.931,7.275-27.779,23.158c2.504-1.074,4.938-1.618,7.301-1.618c5.016,0,7.229,2.822,6.64,8.453c-0.297,3.411-2.511,8.375-6.64,14.899c-4.136,6.523-7.236,9.786-9.301,9.786c-2.66,0-5.094-5.023-7.307-15.081c-0.745-2.951-2.071-10.491-3.987-22.614c-1.773-11.236-6.499-16.485-14.174-15.747c-3.249,0.298-8.123,3.249-14.614,8.86C9.669,53.318,4.867,57.597,0,61.875l4.641,5.98c4.42-3.094,7.003-4.647,7.741-4.647c3.385,0,6.55,5.313,9.501,15.929c2.653,9.733,5.307,19.468,7.961,29.202c3.974,10.621,8.841,15.929,14.588,15.929c9.281,0,20.627-8.719,34.038-26.154C87.892,85.987,93.99,75.74,96.8,67.354c3.72-2.748,6.018-4.146,6.853-4.146c2.653,0,3.987,1.922,3.987,5.754c0,0.738-1.443,6.2-4.324,16.381c-2.88,10.182-4.395,17.709-4.537,22.575c-0.149,4.726,0.997,8.557,3.43,11.508c2.434,2.952,5.941,4.428,10.524,4.428c9.89,0,19.779-4.278,29.675-12.835c0.881-0.772,1.738-1.557,2.573-2.352c0.783,3.312,2.124,6.045,4.07,8.15c4.259,4.569,11.456,6.706,21.592,6.408c-1.353-3.249-1.884-9.003-1.586-17.274c0.44-9.152,2.809-17.941,7.094-26.355s8.278-12.627,11.98-12.627c4.285,0,6.285,2.731,5.987,8.193c-0.149,3.696-0.874,7.903-2.175,12.628c-1.307,4.725-2.032,9.449-2.174,14.174c-0.298,7.534,1.392,12.919,5.081,16.168c4.116,3.689,11.334,5.392,21.638,5.094c-1.541-3.392-2.162-8.266-1.864-14.621c0.44-9.003,3.482-18.304,9.113-27.902c5.333-9.151,9.922-13.733,13.772-13.733c3.56,0,5.263,2.809,5.113,8.414c-0.148,3.688-1.074,8.854-2.771,15.494c-1.695,6.641-2.621,12.316-2.764,17.041c-0.297,10.628,4.35,15.936,13.955,15.936c9.889,0,19.779-4.278,29.675-12.835c0.164-0.144,0.316-0.293,0.479-0.438c0.34,0.586,0.688,1.168,1.068,1.732c5.165,7.967,13.734,11.954,25.695,11.954c16.09,0,31.966-4.492,47.616-13.488c1.756-0.99,3.422-1.979,5.017-2.97c0.986,1.991,2.138,3.866,3.502,5.591c6.052,7.521,14.912,11.281,26.575,11.281c14.025,0,25.767-4.938,35.216-14.815c9.449-9.876,14.466-21.598,15.061-35.163C441.387,64.684,439.102,56.503,434.079,50.16z M305.118,90.003c-0.084-1.909-0.084-2.867,0-2.867c0.143-5.579,2.505-11.417,7.074-17.514s9.062-9.146,13.488-9.146c3.392,0,5.01,1.987,4.867,5.948c-0.149,2.938-2.362,6.764-6.634,11.462C318.606,83.324,312.341,87.362,305.118,90.003z M415.918,73.868c-0.297,7.1-2.434,13.902-6.42,20.413c-4.725,7.845-10.414,11.76-17.055,11.76c-2.958,0-5.249-1.624-6.867-4.88c-1.476-2.809-2.142-6.064-1.993-9.767c0.291-7.54,2.505-14.64,6.647-21.3c4.866-8.136,11.067-12.207,18.601-12.207c2.356,0,4.168,1.67,5.424,4.997S416.067,69.875,415.918,73.868z"/></g></svg>