<svg width="20" height="20" viewBox="0 0 20 20" xmlns="http://www.w3.org/2000/svg"><path d="M18.5 4.379A3.984 3.984 0 0 1 20 7.496v8.995a2.999 2.999 0 0 1-3 3.009H5A2.001 2.001 0 0 1 3.062 18H16.5a2 2 0 0 0 2-2V4.379z"/><path d="M0 2.494C0 1.393.89.5 2 .5h13c1.105 0 2 .895 2 1.994v12.012c0 1.101-.89 1.994-2 1.994H2c-1.105 0-2-.895-2-1.994V2.494z"/><path d="M5.942 5.792c0-.555.386-.78.859-.503l4.458 2.612c.474.278.472.73 0 1.006l-4.458 2.612c-.474.277-.859.05-.859-.503V5.792z" fill="#FFF"/></svg>