<svg width="20" height="20" viewBox="0 0 20 20" xmlns="http://www.w3.org/2000/svg"><path d="M18.028 13.471l-7.58 4.638c-.233.143-.7.143-.933 0l-7.58-4.638 1.417-.864 5.38 3.292c.715.437 1.785.438 2.5 0l5.38-3.292 1.416.864zM8.732 12.4c.715.437 1.785.438 2.5 0l5.37-3.286 1.426.87-7.58 4.637c-.233.143-.7.143-.933 0l-7.58-4.638 1.426-.869L8.73 12.4zm.782-10.542c.235-.143.7-.143.936 0l7.578 4.625-7.58 4.638c-.233.143-.7.143-.933 0l-7.58-4.638 7.579-4.625zm9.485 6.96l-.958-.584.958-.587c.953-.582.953-1.747 0-2.329L11.23.577c-.714-.436-1.784-.437-2.498 0L.966 5.317C.012 5.9.012 7.063.965 7.647l.958.586-.957.584c-.954.582-.954 1.746-.001 2.33l.949.58-.948.58c-.954.581-.954 1.745-.001 2.328l7.767 4.753c.715.437 1.785.437 2.5 0l7.767-4.753c.953-.583.953-1.747 0-2.329l-.95-.579.95-.58c.953-.583.953-1.748 0-2.33z" fill="#1A2E3B" fill-rule="evenodd"/></svg>