<svg width="20" height="20" viewBox="0 0 20 20" xmlns="http://www.w3.org/2000/svg"><g fill-rule="nonzero" fill="#1A2E3B"><path d="M5 5.5v12.506a.5.5 0 0 0 .503.494h8.994c.281 0 .503-.221.503-.494V5.5H5zM4.75 4H6V2.001C6 .896 6.887 0 7.998 0h4.004A2 2 0 0 1 14 2.001V4h3.748a.75.75 0 1 1 0 1.5H16.5v12.506A1.996 1.996 0 0 1 14.497 20H5.503A2 2 0 0 1 3.5 18.006V5.5H2.252a.75.75 0 1 1 0-1.5H4.75zM7.5 4h5V2.001a.5.5 0 0 0-.498-.501H7.998a.495.495 0 0 0-.498.501V4z"/><path d="M7.75 10v4A.625.625 0 1 0 9 14v-4a.625.625 0 1 0-1.25 0zM10.875 10v4a.625.625 0 1 0 1.25 0v-4a.625.625 0 1 0-1.25 0z"/></g></svg>