<svg width="20" height="20" viewBox="0 0 20 20" xmlns="http://www.w3.org/2000/svg"><title>gear</title><g fill="#192E3B" fill-rule="evenodd"><path d="M11.002 0H8.998C7.898 0 7 .891 7 1.991v1.683a7.02 7.02 0 0 0-.978.565l-1.458-.842a2 2 0 0 0-2.723.735L.84 5.868a1.996 1.996 0 0 0 .725 2.725l1.458.843a7.015 7.015 0 0 0 0 1.128l-1.458.843a1.998 1.998 0 0 0-.725 2.725l1.002 1.736a2 2 0 0 0 2.723.735l1.458-.842c.31.213.636.403.978.565v1.683C7 19.102 7.894 20 8.998 20h2.004c1.1 0 1.998-.891 1.998-1.991v-1.683a7.02 7.02 0 0 0 .978-.565l1.458.842a2.001 2.001 0 0 0 2.723-.735l1.002-1.736a1.996 1.996 0 0 0-.725-2.725l-1.459-.843a7.013 7.013 0 0 0 0-1.128l1.46-.843a1.998 1.998 0 0 0 .724-2.725L18.16 4.132c-.37-.64-1.043-1-1.734-1-.336 0-.677.085-.989.265l-1.458.842A7.02 7.02 0 0 0 13 3.674V1.991A2 2 0 0 0 11.002 0m0 1.5c.27 0 .498.225.498.491V4.622l.856.407c.267.126.525.276.768.444l.781.54.823-.475 1.458-.842a.48.48 0 0 1 .24-.064c.14 0 .327.066.434.25l1.002 1.736a.5.5 0 0 1-.176.676l-1.459.843-.82.473.075.945a5.461 5.461 0 0 1 0 .89l-.075.945.82.473 1.46.843a.495.495 0 0 1 .175.676l-1.002 1.736a.504.504 0 0 1-.674.186l-1.458-.842-.823-.475-.78.54a5.432 5.432 0 0 1-.769.444l-.856.407V18.009a.495.495 0 0 1-.498.491H8.998a.501.501 0 0 1-.498-.491V15.378l-.856-.407a5.5 5.5 0 0 1-.769-.444l-.78-.54-.823.475-1.458.842a.482.482 0 0 1-.24.064.503.503 0 0 1-.434-.25l-1.002-1.736a.496.496 0 0 1 .176-.676l1.458-.843.821-.473-.075-.945a5.461 5.461 0 0 1 0-.89l.075-.945-.82-.473-1.459-.843a.497.497 0 0 1-.176-.676L3.14 4.882a.503.503 0 0 1 .674-.186l1.458.842.823.475.78-.54a5.5 5.5 0 0 1 .77-.444l.855-.407V1.991c0-.271.223-.491.498-.491h2.004"/><path d="M10 11.5a1.5 1.5 0 1 0-.001-3.001A1.5 1.5 0 0 0 10 11.5m0 1.5a3 3 0 1 1 0-6 3 3 0 0 1 0 6"/></g></svg>