<svg width="20" height="20" viewBox="0 0 20 20" xmlns="http://www.w3.org/2000/svg"><title>globe</title><g fill="#1A2E3B" fill-rule="evenodd"><path d="M12.754 1.213l-.03 3.764a1.391 1.391 0 0 1-1.4 1.375l-.643-.002v1.815a1.38 1.38 0 0 1-1.392 1.377H8.153v2.716l3.278-.001c.766 0 1.387.61 1.387 1.377v.185h1.416c.763 0 1.381.617 1.381 1.392v1.397c0 .769-.612 1.467-1.38 1.562l-5.38.66c-.763.094-1.382-.445-1.382-1.219v-2.17l-2.105-1.604c-.609-.464-1.102-1.456-1.102-2.221v-7.42h.057l.006-.813A9.583 9.583 0 0 1 10.211 1l.978.002c.534.028 1.057.1 1.565.21z"/><path d="M10 18.5a8.5 8.5 0 1 0 0-17 8.5 8.5 0 0 0 0 17zm0 1.5C4.477 20 0 15.523 0 10S4.477 0 10 0s10 4.477 10 10-4.477 10-10 10z" fill-rule="nonzero"/></g></svg>