<svg width="20" height="20" viewBox="0 0 20 20" xmlns="http://www.w3.org/2000/svg"><title>grid</title><g fill-rule="nonzero" fill="#1A2E3B"><path d="M2.5 3.5v3c0 .556.448 1 1 1h3c.556 0 1-.448 1-1v-3c0-.556-.448-1-1-1h-3c-.556 0-1 .448-1 1zM1 3.5C1 2.119 2.116 1 3.5 1h3C7.881 1 9 2.116 9 3.5v3C9 7.881 7.884 9 6.5 9h-3A2.497 2.497 0 0 1 1 6.5v-3zM2.5 13.5v3c0 .556.448 1 1 1h3c.556 0 1-.448 1-1v-3c0-.556-.448-1-1-1h-3c-.556 0-1 .448-1 1zm-1.5 0C1 12.119 2.116 11 3.5 11h3C7.881 11 9 12.116 9 13.5v3C9 17.881 7.884 19 6.5 19h-3A2.497 2.497 0 0 1 1 16.5v-3zM12.5 3.5v3c0 .556.448 1 1 1h3c.556 0 1-.448 1-1v-3c0-.556-.448-1-1-1h-3c-.556 0-1 .448-1 1zm-1.5 0C11 2.119 12.116 1 13.5 1h3C17.881 1 19 2.116 19 3.5v3C19 7.881 17.884 9 16.5 9h-3A2.497 2.497 0 0 1 11 6.5v-3zM12.5 13.5v3c0 .556.448 1 1 1h3c.556 0 1-.448 1-1v-3c0-.556-.448-1-1-1h-3c-.556 0-1 .448-1 1zm-1.5 0c0-1.381 1.116-2.5 2.5-2.5h3c1.381 0 2.5 1.116 2.5 2.5v3c0 1.381-1.116 2.5-2.5 2.5h-3a2.497 2.497 0 0 1-2.5-2.5v-3z"/></g></svg>