<svg width="20" height="20" viewBox="0 0 20 20" xmlns="http://www.w3.org/2000/svg"><title>heart</title><path d="M16.654 9.983l.574-.579c1.558-1.572 1.558-4.159 0-5.73a3.976 3.976 0 0 0-5.641 0L9.948 5.326 8.883 4.252l-.574-.579a3.976 3.976 0 0 0-5.64 0c-1.559 1.572-1.559 4.159 0 5.731l7.28 7.346 6.705-6.767zM9.948 3.196l.818-.81a5.477 5.477 0 0 1 7.527.232c2.137 2.156 2.137 5.685 0 7.842l-.573.578-7.772 7.843-8.345-8.421c-2.137-2.157-2.137-5.686 0-7.842a5.477 5.477 0 0 1 7.526-.233l.82.811z" fill-rule="nonzero" fill="#1A2E3B"/></svg>