<svg xmlns="http://www.w3.org/2000/svg" viewBox="0 0 20 16.01"><path d="M10 16.01a1 1 0 0 1-.81-.41 16.12 16.12 0 0 0-4.35-3.7C2.46 10.31 0 8.67 0 5.51a5.4 5.4 0 0 1 1.63-4A5.93 5.93 0 0 1 6 .01a5.62 5.62 0 0 1 4 1.88 5.81 5.81 0 0 1 4-1.88c2.89 0 6 2.1 6 5.5 0 3.16-2.46 4.8-4.84 6.38a16.14 16.14 0 0 0-4.35 3.7 1 1 0 0 1-.81.42zm-4.27-14a3.88 3.88 0 0 0-2.73 1 3.38 3.38 0 0 0-1 2.5c0 2 1.5 3.09 4 4.72a21.54 21.54 0 0 1 4 3.21 21.57 21.57 0 0 1 4-3.21c2.45-1.63 4-2.73 4-4.72 0-2.28-2.32-3.5-4-3.5s-3.16 2-3.18 2.07a1 1 0 0 1-1.73-.14A3.68 3.68 0 0 0 6 2.01z" fill="#1a2e3b"/></svg>