<svg xmlns="http://www.w3.org/2000/svg" viewBox="0 0 16 16"><path d="M1 10c-.2 0-.5-.1-.6-.2-.4-.4-.5-1-.1-1.4l5-6c.3-.4.9-.5 1.3-.2l3.3 2.5L14.3.3c.4-.4 1-.4 1.4 0s.4 1 0 1.4l-5 5c-.4.4-.9.4-1.3.1L6.2 4.4 1.8 9.6c-.2.3-.5.4-.8.4z" fill="#5a9e02"/><path d="M2 12c-.6 0-1 .4-1 1v2c0 .6.4 1 1 1s1-.4 1-1v-2c0-.6-.4-1-1-1z" fill="#b9df73"/><path d="M6 8c-.6 0-1 .4-1 1v6c0 .6.4 1 1 1s1-.4 1-1V9c0-.6-.4-1-1-1z" fill="#7fc400"/><path d="M10 10c-.6 0-1 .4-1 1v4c0 .6.4 1 1 1s1-.4 1-1v-4c0-.6-.4-1-1-1z" fill="#b9df73"/><path d="M14 8c-.6 0-1 .4-1 1v6c0 .6.4 1 1 1s1-.4 1-1V9c0-.6-.4-1-1-1z" fill="#7fc400"/></svg>