<svg xmlns="http://www.w3.org/2000/svg" viewBox="0 0 48 48"><path d="M7.5 48h-3c-.8 0-1.5-.7-1.5-1.5v-12c0-.8.7-1.5 1.5-1.5h3c.8 0 1.5.7 1.5 1.5v12c0 .8-.7 1.5-1.5 1.5z" fill="#a3dd24"/><path d="M19.5 48h-3c-.8 0-1.5-.7-1.5-1.5v-21c0-.8.7-1.5 1.5-1.5h3c.8 0 1.5.7 1.5 1.5v21c0 .8-.7 1.5-1.5 1.5z" fill="#7fc400"/><path d="M31.5 48h-3c-.8 0-1.5-.7-1.5-1.5v-15c0-.8.7-1.5 1.5-1.5h3c.8 0 1.5.7 1.5 1.5v15c0 .8-.7 1.5-1.5 1.5z" fill="#a3dd24"/><path d="M43.5 48h-3c-.8 0-1.5-.7-1.5-1.5v-21c0-.8.7-1.5 1.5-1.5h3c.8 0 1.5.7 1.5 1.5v21c0 .8-.7 1.5-1.5 1.5z" fill="#7fc400"/><path d="M47.6 2.6L45.5.5c-.6-.6-1.5-.6-2.1 0L30.2 12.9 19.8 5.1c-.5-.4-1.1-.6-1.8-.6-.8 0-1.6.3-2.1.9L.4 20.8c-.6.6-.6 1.5 0 2.1L2.5 25c.6.6 1.5.6 2.1 0l13.2-13.2 10.3 7.8c.5.4 1.1.6 1.8.6.8 0 1.5-.3 2.1-.9L47.5 4.7c.6-.6.6-1.6.1-2.1z" fill="#2e9a01"/></svg>