<svg xmlns="http://www.w3.org/2000/svg" viewBox="0 0 32 32"><path d="M32 16c0-.4-.2-.8-.5-1l-3.6-3.1 3.3-1.3c.5-.2.8-.7.8-1.2 0-.4-.2-.8-.5-1l-9.3-8c-.2-.3-.5-.4-.9-.4-.2 0-.3 0-.5.1l-20 8c-.5.2-.8.7-.8 1.2 0 .4.2.8.5 1l3.6 3.1-3.3 1.3c-.5.3-.8.7-.8 1.3 0 .4.2.8.5 1l3.6 3.1-3.3 1.3c-.5.2-.8.7-.8 1.3 0 .4.2.8.5 1l9.3 8c.2.2.5.3.9.3.2 0 .3 0 .5-.1l20-8c.5-.2.8-.7.8-1.2 0-.4-.2-.8-.5-1l-3.6-3.1 3.3-1.3c.5-.3.8-.7.8-1.3zM21.1 2.9l7 6-17.2 6.9-7-6 17.2-6.9zm7 19.3l-17.2 6.9-7-6 2.5-1L9.8 25c.2.2.5.3.9.3.2 0 .3 0 .5-.1l13.9-5.6 3 2.6zm-17.2.3l-7-6 2.5-1 3.4 2.9c.2.2.5.3.9.3.2 0 .3 0 .5-.1L25.1 13l3 2.6-17.2 6.9z"/></svg>