<svg xmlns="http://www.w3.org/2000/svg" viewBox="0 0 16 16"><path d="M8 0a8 8 0 1 0 0 16A8 8 0 0 0 8 0zm5.191 5h-2.483c-.226-1.108-.571-2.056-.999-2.75A6.01 6.01 0 0 1 13.191 5zM14 8a5.97 5.97 0 0 1-.349 2h-2.777a15.818 15.818 0 0 0 0-4h2.777A5.97 5.97 0 0 1 14 8zm-6 6c-.487 0-1.246-1.105-1.675-3h3.349C9.246 12.895 8.487 14 8 14zm-1.854-4C6.061 9.387 6 8.731 6 8s.061-1.387.146-2h3.708c.085.613.146 1.269.146 2s-.061 1.387-.146 2H6.146zM2 8c0-.702.127-1.374.349-2h2.777a15.818 15.818 0 0 0 0 4H2.349A5.97 5.97 0 0 1 2 8zm6-6c.487 0 1.246 1.105 1.675 3h-3.35C6.754 3.105 7.513 2 8 2zm-1.709.25c-.428.694-.773 1.642-.998 2.75H2.809a6.01 6.01 0 0 1 3.482-2.75zM2.809 11h2.483c.226 1.108.571 2.056.999 2.75A6.01 6.01 0 0 1 2.809 11zm6.9 2.75c.428-.694.773-1.642.999-2.75h2.483a6.01 6.01 0 0 1-3.482 2.75z"/></svg>