<svg xmlns="http://www.w3.org/2000/svg" viewBox="0 0 64 64"><path d="M32 0C14.327 0 0 14.327 0 32c0 17.673 14.327 32 32 32s32-14.327 32-32C64 14.327 49.673 0 32 0zM6.085 34h8.952c.115 3.518.533 6.88 1.204 10H8.946a25.806 25.806 0 0 1-2.861-10zM34 16V6.307c3.337 1.031 6.253 4.603 8.243 9.693H34zm9.532 4c.791 3.032 1.29 6.414 1.426 10H34V20h9.532zM30 6.307V16h-8.243c1.99-5.09 4.906-8.663 8.243-9.693zM30 20v10H19.042c.137-3.586.636-6.968 1.426-10H30zM15.036 30H6.085a25.79 25.79 0 0 1 2.862-10h7.294c-.672 3.12-1.089 6.482-1.205 10zm4.006 4H30v10h-9.532c-.79-3.032-1.289-6.414-1.426-10zM30 48v9.693c-3.337-1.031-6.253-4.603-8.243-9.693H30zm4 9.693V48h8.243c-1.99 5.09-4.906 8.663-8.243 9.693zM34 44V34h10.958c-.137 3.586-.636 6.968-1.426 10H34zm14.964-10h8.952a25.79 25.79 0 0 1-2.862 10H47.76c.671-3.12 1.088-6.482 1.204-10zm0-4a56.478 56.478 0 0 0-1.204-10h7.294a25.807 25.807 0 0 1 2.862 10h-8.952zm3.507-14H46.72c-.821-2.672-1.841-5.098-3.023-7.209A26.155 26.155 0 0 1 52.471 16zM20.303 8.791c-1.182 2.111-2.202 4.537-3.023 7.209h-5.751a26.155 26.155 0 0 1 8.774-7.209zM11.529 48h5.751c.821 2.672 1.842 5.098 3.023 7.209A26.155 26.155 0 0 1 11.529 48zm32.168 7.209c1.182-2.111 2.202-4.537 3.023-7.209h5.751a26.155 26.155 0 0 1-8.774 7.209z"/></svg>