<svg xmlns="http://www.w3.org/2000/svg" viewBox="0 0 64 64"><path d="M62.8 51.2L46.3 34.7 34.7 46.3l3.9 3.9 5.7-5.7 2.8 2.8-5.7 5.7 4.2 4.2 5.7-5.7 2.8 2.8-5.7 5.7 2.7 2.7c1.6 1.6 4.1 1.6 5.7 0l6-6c1.6-1.4 1.6-4 0-5.5zM29.3 17.7L12.8 1.2c-1.6-1.6-4.1-1.6-5.7 0l-6 6c-1.6 1.6-1.6 4.1 0 5.7l2.7 2.7 5.7-5.7 2.8 2.8-5.7 5.7 4.2 4.2 5.7-5.7 2.8 2.8-5.7 5.7 3.9 3.9 11.8-11.6zM61.7 2.3c-3.1-3.1-8.2-3.1-11.3 0l-3.8 3.8C47 6 47.5 6 48 6c5.5 0 10 4.5 10 10 0 .5 0 1-.1 1.4l3.8-3.8c3.1-3.1 3.1-8.1 0-11.3zM44 10c-.5 0-1 0-1.4.1l-30 30c.4-.1.9-.1 1.4-.1 5.5 0 10 4.5 10 10 0 .5 0 1-.1 1.4l30-30c.1-.4.1-.9.1-1.4 0-5.5-4.5-10-10-10zM10 44c-.5 0-1 0-1.4.1l-.2.2L0 64l19.7-8.3.2-.2c.1-.5.1-1 .1-1.5 0-5.5-4.5-10-10-10z"/></svg>