<svg xmlns="http://www.w3.org/2000/svg" viewBox="0 0 16 16"><path d="M15.9 14.6l-4-9c-.1-.4-.5-.6-.9-.6s-.8.2-.9.6L8.6 9c-.7-.1-1.4-.3-2.1-.7 1-1.2 1.7-2.7 1.9-4.3H9c.6 0 1-.4 1-1s-.4-1-1-1H6V1c0-.6-.4-1-1-1S4 .4 4 1v1H1c-.6 0-1 .4-1 1s.4 1 1 1h5.4C6.2 5.2 5.7 6.2 5 7c-.4-.4-.7-.9-.9-1.4-.3-.5-.9-.7-1.4-.5s-.7.8-.4 1.3c.3.7.7 1.3 1.2 1.9-.8.4-1.7.7-2.5.7-.6 0-1 .4-1 1s.4 1 1 1c1.4 0 2.8-.5 4-1.3.8.6 1.8 1 2.7 1.2L6 14.6c-.2.5 0 1.1.5 1.3.5.2 1.1 0 1.3-.5C7.9 15.4 9 13 9 13h4l1.1 2.4c.2.4.5.6.9.6.1 0 .3 0 .4-.1.5-.2.7-.8.5-1.3zm-6-3.6L11 8.5l1.1 2.5H9.9z"/></svg>