<svg xmlns="http://www.w3.org/2000/svg" viewBox="0 0 16 16"><path d="M3 4H1c-.6 0-1-.4-1-1V1c0-.6.4-1 1-1h2c.6 0 1 .4 1 1v2c0 .6-.4 1-1 1zM3 10H1c-.6 0-1-.4-1-1V7c0-.6.4-1 1-1h2c.6 0 1 .4 1 1v2c0 .6-.4 1-1 1zM3 16H1c-.6 0-1-.4-1-1v-2c0-.6.4-1 1-1h2c.6 0 1 .4 1 1v2c0 .6-.4 1-1 1zM15 4H7c-.6 0-1-.4-1-1V1c0-.6.4-1 1-1h8c.6 0 1 .4 1 1v2c0 .6-.4 1-1 1zM15 10H7c-.6 0-1-.4-1-1V7c0-.6.4-1 1-1h8c.6 0 1 .4 1 1v2c0 .6-.4 1-1 1zM15 16H7c-.6 0-1-.4-1-1v-2c0-.6.4-1 1-1h8c.6 0 1 .4 1 1v2c0 .6-.4 1-1 1z"/></svg>