<svg xmlns="http://www.w3.org/2000/svg" viewBox="0 0 32 32"><path d="M16 0C7.163 0 0 7.163 0 16s7.163 16 16 16 16-7.163 16-16S24.837 0 16 0zM3.051 17h3.978c.061 1.758.277 3.441.632 5H4.479a12.892 12.892 0 0 1-1.428-5zM17 8V3.152c1.8.492 3.396 2.277 4.49 4.848H17zm5.194 2c.431 1.516.703 3.207.779 5H17v-5h5.194zM15 3.152V8h-4.49C11.604 5.429 13.2 3.644 15 3.152zM15 10v5H9.028c.075-1.793.347-3.484.779-5H15zm-7.972 5H3.051a12.892 12.892 0 0 1 1.428-5H7.66a26.867 26.867 0 0 0-.632 5zm2 2H15v5H9.806a21.694 21.694 0 0 1-.778-5zM15 24v4.848c-1.8-.492-3.396-2.278-4.49-4.848H15zm2 4.848V24h4.49c-1.094 2.571-2.69 4.356-4.49 4.848zM17 22v-5h5.972c-.075 1.793-.347 3.484-.779 5H17zm7.972-5h3.978a12.892 12.892 0 0 1-1.428 5H24.34c.355-1.559.57-3.242.632-5zm0-2a26.783 26.783 0 0 0-.632-5h3.181a12.892 12.892 0 0 1 1.428 5h-3.977zm1.254-7h-2.44c-.397-1.218-.875-2.342-1.432-3.33A13.112 13.112 0 0 1 26.226 8zM9.646 4.67C9.089 5.658 8.611 6.782 8.214 8h-2.44a13.1 13.1 0 0 1 3.872-3.33zM5.774 24h2.439c.397 1.218.875 2.342 1.432 3.33A13.108 13.108 0 0 1 5.774 24zm16.58 3.33c.557-.987 1.035-2.112 1.432-3.33h2.44a13.112 13.112 0 0 1-3.872 3.33z"/></svg>