<svg xmlns="http://www.w3.org/2000/svg" viewBox="0 0 16 16"><path d="M16 9.5c0-1.48-.921-2.738-2.219-3.25A3.96 3.96 0 0 0 14 5a4 4 0 0 0-4-4C8.247 1 6.774 2.135 6.233 3.704A2.487 2.487 0 0 0 4.5 3 2.5 2.5 0 0 0 2 5.5c0 .273.055.531.135.776A3.49 3.49 0 0 0 3 12.95V12a2.99 2.99 0 0 1 2-2.816V8a3 3 0 1 1 6 0v1.184A2.99 2.99 0 0 1 13 12v.95a3.49 3.49 0 0 0 3-3.45z"/><path d="M10.707 11.293a.999.999 0 0 0-1.414 0L9 11.586V8a1 1 0 0 0-2 0v3.586l-.293-.293a.999.999 0 1 0-1.414 1.414l2 2a.999.999 0 0 0 1.414 0l2-2a.999.999 0 0 0 0-1.414z"/></svg>