<svg xmlns="http://www.w3.org/2000/svg" viewBox="0 0 12 12"><path d="M4.5 6.75h-3a.75.75 0 0 0 0 1.5h1.189L.166 10.773l.01.01A.744.744 0 0 0 0 11.25c0 .414.336.75.75.75a.739.739 0 0 0 .467-.177l.01.01L3.75 9.311V10.5a.75.75 0 0 0 1.5 0v-3a.75.75 0 0 0-.75-.75zM7.5 5.25h3a.75.75 0 0 0 0-1.5H9.311l2.523-2.523-.01-.01A.744.744 0 0 0 12 .75a.75.75 0 0 0-.75-.75.739.739 0 0 0-.467.177l-.01-.01L8.25 2.689V1.5a.75.75 0 0 0-1.5 0v3c0 .414.336.75.75.75zM4.5.75a.75.75 0 0 0-.75.75v1.189L1.227.166l-.01.01A.744.744 0 0 0 .75 0 .75.75 0 0 0 0 .75c0 .179.072.338.177.467l-.01.01L2.689 3.75H1.5a.75.75 0 0 0 0 1.5h3a.75.75 0 0 0 .75-.75v-3A.75.75 0 0 0 4.5.75zM11.834 10.773L9.311 8.25H10.5a.75.75 0 0 0 0-1.5h-3a.75.75 0 0 0-.75.75v3a.75.75 0 0 0 1.5 0V9.311l2.523 2.523.01-.01a.744.744 0 0 0 .467.176.75.75 0 0 0 .75-.75.739.739 0 0 0-.177-.467l.011-.01z"/></svg>