<svg xmlns="http://www.w3.org/2000/svg" viewBox="0 0 64 64"><path d="M10 64H6a2 2 0 0 1-2-2V46a2 2 0 0 1 2-2h4a2 2 0 0 1 2 2v16a2 2 0 0 1-2 2zM26 64h-4a2 2 0 0 1-2-2V34a2 2 0 0 1 2-2h4a2 2 0 0 1 2 2v28a2 2 0 0 1-2 2zM42 64h-4a2 2 0 0 1-2-2V42a2 2 0 0 1 2-2h4a2 2 0 0 1 2 2v20a2 2 0 0 1-2 2zM58 64h-4a2 2 0 0 1-2-2V34a2 2 0 0 1 2-2h4a2 2 0 0 1 2 2v28a2 2 0 0 1-2 2zM63.414 3.409L60.586.58A1.993 1.993 0 0 0 57.81.545h-.017L40.282 17.206 26.398 6.792l-.008.012a3.962 3.962 0 0 0-2.39-.81 3.988 3.988 0 0 0-2.828 1.172L.586 27.752a2 2 0 0 0 0 2.828l2.828 2.828a2 2 0 0 0 2.828 0l17.561-17.561 13.799 10.349.008-.012c.668.502 1.49.81 2.39.81a3.983 3.983 0 0 0 2.786-1.136h.006L63.378 6.273v-.011c.011-.01.026-.013.036-.024a2 2 0 0 0 0-2.829z"/></svg>