<svg width="32" height="32" viewBox="0 0 32 32" xmlns="http://www.w3.org/2000/svg"><g fill="#FFF" fill-rule="evenodd"><path d="M11 32H1a1 1 0 0 1-1-1v-8a1 1 0 0 1 1-1h10a1 1 0 0 1 1 1v8a1 1 0 0 1-1 1"/><path d="M6 16a4 4 0 0 0-4 4v7h2v-7a2 2 0 0 1 4 0v7h2v-7a4 4 0 0 0-4-4"/><path d="M22.643 25.99a1.585 1.585 0 0 0-.684-1.13l-2.585-1.72a1.592 1.592 0 0 1-.708-1.324v-2.3c0-.53.266-1.027.708-1.32l2.89-1.93c.263-.173.57-.266.883-.266h3.144c.246 0 .49.057.71.168l.965.482a11.98 11.98 0 0 1-5.324 9.34zm-1.31-15.067c0-.878.713-1.59 1.59-1.59a1.59 1.59 0 0 0 1.477-1l.254-.633a12.003 12.003 0 0 1 2.65 4.302 1.59 1.59 0 0 0-1.103.464l-.4.402a1.59 1.59 0 0 1-1.125.465h-1.35a1.59 1.59 0 0 1-1.124-.465l-.4-.402a1.593 1.593 0 0 1-.466-1.125v-.417zM16 4.35a1.59 1.59 0 0 1-.88 1.423l-.76.38a1.59 1.59 0 0 1-1.837-.297l-.988-.988A11.945 11.945 0 0 1 16 4v.35zM16 0C7.164 0 0 7.163 0 16c0 .837.084 1.654.208 2.456A6.005 6.005 0 0 1 4.13 14.3a11.948 11.948 0 0 1 2.537-5.835v.612c0 .878.712 1.59 1.59 1.59h.418A1.59 1.59 0 0 0 9.8 10.2l.4-.4a1.592 1.592 0 0 1 1.126-.467h1.35c.42 0 .825.168 1.123.466l.4.4c.3.3.467.703.467 1.125v1.35c0 .42-.168.826-.466 1.124l-1.734 1.734A1.59 1.59 0 0 0 12 16.658v.42c0 .363-.127.695-.333.963.212.616.333 1.273.333 1.96a2 2 0 0 1 2 2v9.862c.657.082 1.32.138 2 .138 8.837 0 16-7.164 16-16 0-8.837-7.163-16-16-16z"/></g></svg>