<svg xmlns="http://www.w3.org/2000/svg" viewBox="0 0 16 16"><path d="M16 8.5a.982.982 0 0 0-.385-.769l.01-.012-1.652-1.322 1.344-.448-.004-.012A.991.991 0 0 0 16 5a.982.982 0 0 0-.385-.769l.01-.012-5-4-.01.012A.98.98 0 0 0 10 0a.99.99 0 0 0-.313.063L9.684.051l-9 3 .004.012A.99.99 0 0 0 0 4c0 .316.156.586.385.769l-.01.012 1.652 1.322-1.343.448.004.012A.99.99 0 0 0 0 7.5c0 .316.156.586.385.769l-.01.012 1.652 1.322-1.344.448.004.012A.991.991 0 0 0 0 11c0 .316.156.586.385.769l-.01.012 5 4 .01-.012A.98.98 0 0 0 6 16c.111 0 .213-.03.312-.063l.004.012 9-3-.004-.012A.99.99 0 0 0 16 12a.982.982 0 0 0-.385-.769l.01-.012-1.652-1.322 1.344-.448-.004-.012A.991.991 0 0 0 16 8.5zm-9.9 5.939l-4.07-3.255 1.393-.465 1.952 1.562.01-.012A.98.98 0 0 0 6 12.5c.111 0 .213-.03.312-.063l.004.012 5.961-1.987 1.693 1.354-7.87 2.623zm0-3.5L2.03 7.684l1.394-.464 1.952 1.562.01-.012A.98.98 0 0 0 6 9c.111 0 .213-.03.312-.063l.004.012 5.961-1.987 1.693 1.354-7.87 2.623zm0-3.5L2.03 4.184 9.899 1.56l4.07 3.255L6.1 7.439z"/></svg>