<svg xmlns="http://www.w3.org/2000/svg" viewBox="0 0 120 47"><defs><style>.cls-1,.cls-2{fill:#fff}.cls-1{fill-rule:evenodd}</style></defs><g id="Layer_2" data-name="Layer 2"><g id="Layer_1-2" data-name="Layer 1"><path class="cls-1" d="M1 12.76s.5.69 1 1.36l1.06 1.31.21-1.33.24-1.33s-.51-.67-1-1.36l-1-1.41s-.17.68-.31 1.37-.2 1.39-.2 1.39zM7.56 11.42s-.74.36-1.45.76-1.45.82-1.45.82l-.24 1.3-.2 1.3 1.4-.89c.7-.43 1.42-.83 1.42-.83s.11-.62.24-1.23.28-1.23.28-1.23zM1.89 8.64s.45.73.93 1.43 1 1.39 1 1.39.14-.66.3-1.31.34-1.3.34-1.3-.46-.72-.93-1.44l-.87-1.48-.4 1.35zM8.55 7.78L7 8.44c-.76.34-1.5.71-1.5.71s-.18.63-.33 1.28-.3 1.28-.3 1.28.72-.41 1.46-.78 1.47-.73 1.47-.73L8.19 9zM.35 16.95l1.13 1.28c.56.63 1.16 1.23 1.16 1.23s0-.67.11-1.34.14-1.34.14-1.34l-1.1-1.29-1.06-1.33-.2 1.39zM6.83 15.13l-1.4.87-1.38.92s-.08.65-.14 1.31-.11 1.31-.11 1.31.65-.51 1.33-1l1.35-.93.16-1.25zM0 21.16s.59.61 1.22 1.2L2.5 23.5v-1.35-1.35s-.5-.58-1.12-1.2L.22 18.35l-.1 1.4c-.05.71-.12 1.41-.12 1.41zM6.36 18.88L5 19.84c-.67.49-1.31 1-1.31 1v2.64l1.26-1.08c.63-.53 1.28-1 1.28-1s0-.63.06-1.26zM0 25.38l1.3 1.11 1.32 1.05s-.06-.67-.08-1.34l-.05-1.35-1.24-1.12C.62 23.17 0 22.57 0 22.57V25.38zM6.18 22.65s-.64.52-1.26 1.06l-1.23 1.11.05 1.32c0 .66.08 1.32.08 1.32L5 26.29l1.2-1.12v-1.26c0-.63-.02-1.26-.02-1.26zM.33 29.59s.68.52 1.38 1 1.39 1 1.39 1-.1-.67-.18-1.33-.15-1.34-.15-1.34-.69-.5-1.35-1L.1 26.79l.1 1.4zM6.26 26.43l-1.17 1.15c-.59.58-1.15 1.19-1.15 1.19s.05.66.14 1.31l.18 1.31s.53-.64 1.09-1.25 1.12-1.2 1.12-1.2l-.12-1.25zM.93 33.78s.71.47 1.44.91l1.46.85-.28-1.32-.24-1.32s-.7-.45-1.41-.9-1.4-1-1.4-1 .09.7.2 1.39.23 1.39.23 1.39zM6.62 30.19s-.56.6-1.09 1.23-1.06 1.28-1.06 1.28L4.7 34l.3 1.28L6 34c.5-.65 1-1.28 1-1.28s-.12-.62-.21-1.24-.17-1.29-.17-1.29zM1.83 37.91l1.51.8c.75.39 1.52.74 1.52.74s-.2-.64-.37-1.29l-.34-1.3L2.67 36l-1.47-.84.3 1.38zM7.24 33.92l-1 1.3-1 1.35s.16.64.33 1.28.43 1.26.43 1.26.43-.71.9-1.39l.93-1.35-.3-1.22zM3 42s.78.36 1.56.69 1.57.63 1.57.63-.2-.67-.43-1.32-.43-1.27-.43-1.27-.78-.33-1.54-.73l-1.53-.73.4 1.35zM8.14 37.59L7.24 39c-.45.7-.86 1.41-.86 1.41s.2.63.43 1.25l.46 1.24s.38-.74.79-1.46.83-1.44.83-1.44l-.39-1.2zM4.53 45.91s.8.3 1.61.57l1.61.52-.55-1.23-.53-1.24s-.79-.28-1.58-.59-1.58-.65-1.58-.65.24.66.5 1.32.52 1.3.52 1.3zM9.3 41.18s-.41.71-.8 1.43-.76 1.47-.76 1.47l.51 1.21.54 1.2.7-1.49c.35-.74.73-1.47.73-1.47s-.25-.58-.47-1.17-.45-1.18-.45-1.18zM8.17 4.27V2.15c0-1.07.11-2.15.11-2.15s-.79.74-1.54 1.53-1.5 1.61-1.5 1.61v2.2c0 1.09.13 2.17.13 2.17s.66-.85 1.35-1.67 1.45-1.57 1.45-1.57zM113 13.89s.72.4 1.42.83l1.4.89-.2-1.3-.24-1.3s-.72-.42-1.44-.82-1.45-.76-1.45-.76.15.61.27 1.23l.24 1.23zM118.45 10s-.47.72-1 1.41-1 1.36-1 1.36l.24 1.33.21 1.33 1.1-1.31c.53-.67 1-1.36 1-1.36s-.12-.69-.27-1.38-.28-1.38-.28-1.38zM112.14 10.2s.74.35 1.47.73 1.46.78 1.46.78-.14-.64-.3-1.28-.33-1.28-.33-1.28-.74-.37-1.5-.71l-1.5-.66.37 1.22zM117.34 5.93l-.86 1.48c-.43.73-.9 1.43-.9 1.43s.19.65.34 1.3.3 1.31.3 1.31.5-.68 1-1.39.93-1.43.93-1.43l-.37-1.36zM113.51 17.62l1.35.93c.68.48 1.33 1 1.33 1s0-.66-.11-1.31-.14-1.31-.14-1.31l-1.37-.93-1.4-.87.18 1.24zM119.27 14.16l-1.06 1.33-1.1 1.29s.08.67.14 1.34.11 1.34.11 1.34.59-.6 1.16-1.23l1.13-1.28-.17-1.4zM113.79 21.39s.65.5 1.28 1l1.26 1.08v-1.32-1.32s-.64-.52-1.31-1l-1.32-1 .09 1.26c-.02.67 0 1.3 0 1.3zM119.78 18.35l-1.16 1.25c-.58.62-1.19 1.2-1.19 1.2v2.7l1.24-1.15c.62-.58 1.22-1.2 1.22-1.2s0-.7-.07-1.4zM113.8 25.17l1.2 1.12 1.17 1.17s.05-.66.08-1.32l.05-1.32-1.24-1.11c-.61-.54-1.26-1.06-1.26-1.06v2.52zM120 22.57s-.61.6-1.24 1.17l-1.27 1.12-.05 1.35c0 .67-.08 1.34-.08 1.34l1.32-1.05 1.3-1.11v-1.41c0-.71.02-1.41.02-1.41zM113.53 28.94s.57.59 1.12 1.2 1.09 1.25 1.09 1.25.1-.65.18-1.31.14-1.31.14-1.31-.56-.61-1.15-1.19l-1.17-1.15-.09 1.26zM119.9 26.79l-1.33 1.07c-.66.53-1.35 1-1.35 1s-.06.67-.15 1.34l-.18 1.33s.71-.46 1.39-1 1.38-1 1.38-1l.13-1.4zM113 32.68s.53.63 1 1.28l1 1.32.3-1.28.24-1.3s-.52-.65-1.06-1.27-1.09-1.23-1.09-1.23-.08.62-.18 1.25-.21 1.23-.21 1.23zM119.5 31s-.69.5-1.4 1-1.41.92-1.41.92l-.24 1.32-.28 1.32 1.46-.85c.73-.44 1.44-.91 1.44-.91s.13-.69.23-1.39l.2-1.41zM112.19 36.37l.93 1.35c.46.69.9 1.39.9 1.39s.2-.63.37-1.27.33-1.28.33-1.28l-1-1.35-1-1.3-.27 1.23zM118.8 35.16l-1.47.87-1.48.82s-.16.65-.34 1.3-.37 1.29-.37 1.29.77-.36 1.52-.74l1.51-.8.33-1.37zM111.11 40s.43.7.83 1.41.79 1.46.79 1.46.24-.61.46-1.24.43-1.25.43-1.25-.41-.72-.86-1.41l-.9-1.37-.36 1.21zM117.8 39.27l-1.53.76c-.76.37-1.54.71-1.54.71s-.2.64-.43 1.27-.47 1.26-.47 1.26.79-.3 1.57-.63S117 42 117 42l.43-1.34zM109.78 43.52s.38.73.73 1.47l.69 1.51.54-1.2.51-1.21s-.37-.75-.76-1.47-.8-1.43-.8-1.43-.21.59-.45 1.18-.46 1.15-.46 1.15zM116.49 43.29s-.78.34-1.58.65-1.58.59-1.58.59l-.53 1.24-.55 1.23 1.61-.52c.81-.27 1.61-.57 1.61-.57s.28-.65.53-1.3.49-1.32.49-1.32zM114.76 3.15s-.73-.83-1.5-1.61S111.72 0 111.72 0s.07 1.08.1 2.15 0 2.12 0 2.12.71.77 1.41 1.59 1.35 1.67 1.35 1.67.09-1.08.13-2.17.05-2.21.05-2.21z"/><path class="cls-2" d="M18 28.06v4.08h2.56v-7.62H17a2 2 0 0 1-2-2V13.6a1.93 1.93 0 0 1 2-2h4.6a2 2 0 0 1 2 2v5h-3v-3.98H18v6.87h3.6a2 2 0 0 1 2 2v9.67a2 2 0 0 1-2 2H17a2 2 0 0 1-2-2v-5.1zM28 14.62h-2.7v-3h8.42v3H31v20.55h-3zM41 30.55h-3.36l-.47 4.62h-3l2.49-23.58H42l2.43 23.58h-3zm-3-3h2.7l-1.35-12.9zM46.34 35.17V11.58h7.58v3h-4.55v6.5h3.2v3h-3.2v11zM55.94 35.17V11.58h7.58v3H59v6.5h3.2v3H59v11zM68.81 11.58h6.6a2 2 0 0 1 2 2v8.86a2 2 0 0 1-2 2h-3.57v10.73h-3V11.58zm5.59 3h-2.56v6.81h2.56zM79.46 11.58h3v23.59h-3zM90.78 18.66v-4h-2.56v17.48h2.56v-4.08h3v5.12a2 2 0 0 1-2 2h-4.57a2 2 0 0 1-2-2V13.6a2.07 2.07 0 0 1 2-2h4.58a2 2 0 0 1 2 2v5.05zM99.07 11.58v8.86l2.36-8.86h3.2l-3.2 11L105 35.17h-3.13l-2.8-10.31v10.31H96V11.58zM42.77 38.89h2.75a.84.84 0 0 1 .84.84v3.12a.84.84 0 0 1-.84.83H44v3.19h-1.23v-8zm2.33 1.26H44v2.27h1.06zM49.52 43.68h-1.07v3.19h-1.26v-8h2.59a.84.84 0 0 1 .84.84v2.59a.67.67 0 0 1-.43.69.83.83 0 0 1 .59.83v3.07h-1.26zm-1.06-1.26h.91v-2.27h-.91zM55.14 46.88h-3.25v-8H55v1.26h-1.84v2h1.33v1.26h-1.33v2.17h2zM60.44 46.88v-4.32l-1 3.19h-1l-1-3.19v4.31h-1.3v-8h1.26l1.5 4.61 1.56-4.61h1.24v8zM62.81 38.89h1.26v8h-1.26zM68.44 46.88h-3.25v-8h3.15v1.26h-1.88v2h1.33v1.26h-1.33v2.17h2zM71.75 43.68h-1.07v3.19h-1.26v-8H72a.84.84 0 0 1 .84.84v2.59a.67.67 0 0 1-.43.69.83.83 0 0 1 .59.83v3.07h-1.25zm-1.06-1.26h.91v-2.27h-.91zM77.38 46.88h-3.25v-8h3.15v1.26h-1.89v2h1.33v1.26h-1.33v2.17h2z"/></g></g></svg>