<svg xmlns="http://www.w3.org/2000/svg" viewBox="0 0 64 64"><path d="M43.414 49.414l-10 10a2 2 0 0 1-2.828 0l-10-10a2 2 0 0 1 0-2.828l2.121-2.121a2 2 0 0 1 2.828 0L28 46.929V30a2 2 0 0 1 2-2h4a2 2 0 0 1 2 2v16.929l2.464-2.464a2 2 0 0 1 2.828 0l2.121 2.121c.782.781.782 2.047.001 2.828z"/><path d="M55.788 24.62A18.11 18.11 0 0 0 56 22c0-9.941-8.059-18-18-18-7.202 0-13.398 4.24-16.276 10.35A8.949 8.949 0 0 0 17 13a9 9 0 0 0-9 9c0 .89.134 1.748.375 2.56C3.52 26.098 0 30.637 0 36c0 6.627 5.373 12 12 12h4a8 8 0 0 1 8-8V28a4 4 0 0 1 4-4h8a4 4 0 0 1 4 4v12a8 8 0 0 1 8 8h4c6.627 0 12-5.373 12-12 0-5.302-3.443-9.793-8.212-11.38z"/></svg>