<svg xmlns="http://www.w3.org/2000/svg" viewBox="0 0 32 32"><path d="M5 32H3a1 1 0 0 1-1-1v-8a1 1 0 0 1 1-1h2a1 1 0 0 1 1 1v8a1 1 0 0 1-1 1zM13 32h-2a1 1 0 0 1-1-1V17a1 1 0 0 1 1-1h2a1 1 0 0 1 1 1v14a1 1 0 0 1-1 1zM21 32h-2a1 1 0 0 1-1-1V21a1 1 0 0 1 1-1h2a1 1 0 0 1 1 1v10a1 1 0 0 1-1 1zM29 32h-2a1 1 0 0 1-1-1V17a1 1 0 0 1 1-1h2a1 1 0 0 1 1 1v14a1 1 0 0 1-1 1zM31.707 1.704L30.293.29a.997.997 0 0 0-1.388-.018h-.008l-8.756 8.33-6.942-5.207-.004.006a1.987 1.987 0 0 0-2.609.182L.293 13.876a.999.999 0 0 0 0 1.414l1.414 1.414a.999.999 0 0 0 1.414 0l8.781-8.781 6.899 5.174.004-.006a1.981 1.981 0 0 0 2.588-.163h.003l10.293-9.793v-.006c.005-.005.013-.007.018-.012a.998.998 0 0 0 0-1.413z"/></svg>