<svg xmlns="http://www.w3.org/2000/svg" viewBox="0 0 64 64"><path d="M61.6 25.7c1.4-.6 2.4-2 2.4-3.7s-1-3.1-2.4-3.7l-28-12c-.5-.2-1-.3-1.6-.3-.6 0-1.1.1-1.6.3l-28 12C1 18.9 0 20.3 0 22s1 3.1 2.4 3.7l28 12c.5.2 1 .3 1.6.3.6 0 1.1-.1 1.6-.3L56 28.1v12.5c-1.2.7-2 2-2 3.4v12c0 1.1.9 2 2 2h4c1.1 0 2-.9 2-2V44c0-1.5-.8-2.8-2-3.4V26.4l1.6-.7zM32 22c-2.2 0-4-.9-4-2s1.8-2 4-2 4 .9 4 2-1.8 2-4 2zm1.6 19.7c-.5.2-1 .3-1.6.3-.6 0-1.1-.1-1.6-.3l-16.4-7V48c0 1.6 1 3.1 2.4 3.7l14 6c.5.2 1 .3 1.6.3.6 0 1.1-.1 1.6-.3l14-6c1.4-.6 2.4-2 2.4-3.7V34.6l-16.4 7.1z"/></svg>