<svg xmlns="http://www.w3.org/2000/svg" viewBox="0 0 96 96"><path d="M15 96H9c-1.7 0-3-1.3-3-3V69c0-1.7 1.3-3 3-3h6c1.7 0 3 1.3 3 3v24c0 1.7-1.3 3-3 3z" fill="#a3dd24"/><path d="M39 96h-6c-1.7 0-3-1.3-3-3V51c0-1.7 1.3-3 3-3h6c1.7 0 3 1.3 3 3v42c0 1.7-1.3 3-3 3z" fill="#7fc400"/><path d="M63 96h-6c-1.7 0-3-1.3-3-3V63c0-1.7 1.3-3 3-3h6c1.7 0 3 1.3 3 3v30c0 1.7-1.3 3-3 3z" fill="#a3dd24"/><path d="M87 96h-6c-1.7 0-3-1.3-3-3V51c0-1.7 1.3-3 3-3h6c1.7 0 3 1.3 3 3v42c0 1.7-1.3 3-3 3z" fill="#7fc400"/><path d="M95.1 5.1L90.9.9c-1.1-1.1-3-1.2-4.2-.1l-26.3 25-20.8-15.6C38.6 9.5 37.4 9 36 9c-1.7 0-3.2.7-4.2 1.8L.9 41.6c-1.2 1.2-1.2 3.1 0 4.2L5.1 50c1.2 1.2 3.1 1.2 4.2 0l26.3-26.3 20.7 15.5c1 .8 2.2 1.2 3.6 1.2 1.6 0 3.1-.7 4.2-1.7l31-29.3h.1c1.1-1.2 1.1-3.1-.1-4.3z" fill="#2e9a01"/></svg>