<?xml version="1.0" encoding="utf-8"?>
<!-- Generator: Adobe Illustrator 19.2.0, SVG Export Plug-In . SVG Version: 6.00 Build 0)  -->
<svg version="1.1" id="Layer_1" xmlns="http://www.w3.org/2000/svg" xmlns:xlink="http://www.w3.org/1999/xlink" x="0px" y="0px"
	 viewBox="0 0 18 18" enable-background="new 0 0 18 18" xml:space="preserve">
<path fill-rule="evenodd" clip-rule="evenodd" d="M15.333,7.829c0.138-0.429,0.212-0.886,0.212-1.361c0-2.468-2.015-4.469-4.5-4.469
	C9.127,2,7.488,3.193,6.841,4.872C6.4,4.597,5.878,4.438,5.318,4.438c-1.582,0-2.864,1.273-2.864,2.844
	c0,0.203,0.022,0.402,0.062,0.593C1.052,8.359,0,9.729,0,11.344C0,13.359,1.65,15,3.686,15H8.25V9.822l-1.721,1.712L5.471,10.47
	l3.547-3.527l3.511,3.491l-1.059,1.064L9.75,9.786V15h4.564C16.355,15,18,13.363,18,11.344C18,9.679,16.873,8.269,15.333,7.829z"/>
</svg>
