<svg xmlns="http://www.w3.org/2000/svg" viewBox="0 0 24 24"><path d="M23 9.8h-3.3c-.2-.6-.4-1.1-.7-1.6l2.3-2.3c.4-.4.4-1 0-1.4l-1.8-1.8c-.4-.4-1-.4-1.4 0L15.8 5c-.5-.3-1-.5-1.6-.7V1c0-.6-.4-1-1-1h-2.5c-.6 0-1 .4-1 1v3.3c-.5.2-1 .4-1.5.7L5.8 2.6c-.4-.4-1-.4-1.4 0L2.6 4.4c-.4.4-.4 1 0 1.4L5 8.2c-.3.5-.5 1-.7 1.6H1c-.6 0-1 .4-1 1v2.5c0 .6.4 1 1 1h3.3c.2.6.4 1.1.7 1.6l-2.3 2.3c-.4.4-.4 1 0 1.4l1.8 1.8c.4.4 1 .4 1.4 0L8.2 19c.5.3 1 .5 1.6.7V23c0 .6.4 1 1 1h2.5c.6 0 1-.4 1-1v-3.3c.6-.2 1.1-.4 1.6-.7l2.3 2.3c.4.4 1 .4 1.4 0l1.8-1.8c.4-.4.4-1 0-1.4L19 15.8c.3-.5.5-1 .7-1.6H23c.6 0 1-.4 1-1v-2.5c0-.5-.4-.9-1-.9zM12 15c-1.7 0-3-1.3-3-3s1.3-3 3-3 3 1.3 3 3-1.3 3-3 3z"/></svg>