<svg xmlns="http://www.w3.org/2000/svg" viewBox="0 0 32 32"><path d="M29.324 21.021a1.957 1.957 0 0 0-.293-.194L18 14.813v-3.156A6.01 6.01 0 0 0 22 6c0-3.309-2.691-6-6-6s-6 2.691-6 6a2 2 0 0 0 4 0c0-1.103.897-2 2-2s2 .897 2 2-.897 2-2 2a2 2 0 0 0-2 2v4.813L2.969 20.827c-.104.056-.199.12-.288.191A5.946 5.946 0 0 0 0 26c0 3.309 2.691 6 6 6h20c3.309 0 6-2.691 6-6 0-2.017-.995-3.86-2.676-4.979zM26 28H6c-1.103 0-2-.897-2-2 0-.693.362-1.329.97-1.698l.097-.063L16 18.278l10.933 5.96c.032.022.064.043.098.063.607.37.969 1.006.969 1.699 0 1.103-.897 2-2 2z"/></svg>