<svg xmlns="http://www.w3.org/2000/svg" viewBox="0 0 32 32"><path d="M20 9v2a1 1 0 0 0 1 1h10a1 1 0 0 0 1-1V1a1 1 0 0 0-1-1h-2a1 1 0 0 0-1 1v4.445C24.981 2.01 20.523-.128 15.558.006 7.293.229.413 6.958.019 15.216-.42 24.409 6.904 32 16 32c8.471 0 15.404-6.583 15.964-14.912a1.01 1.01 0 0 0-1-1.088h-2.005a.988.988 0 0 0-.993.9C27.507 23.107 22.325 28 16 28 9.217 28 3.748 22.371 4.009 15.53 4.247 9.284 9.47 4.147 15.719 4.003A11.943 11.943 0 0 1 24.927 8H21a1 1 0 0 0-1 1z"/><path d="M13 20v-8l8 4z"/></svg>