<svg xmlns="http://www.w3.org/2000/svg" viewBox="0 0 16 16"><path d="M15 3H1a1 1 0 0 1-1-1V1a1 1 0 0 1 1-1h14a1 1 0 0 1 1 1v1a1 1 0 0 1-1 1zM11.707 11.293a.999.999 0 0 0-1.414 0L9 12.586V6a1 1 0 0 0-2 0v6.586l-1.293-1.293a.999.999 0 1 0-1.414 1.414l3 3a.999.999 0 0 0 1.414 0l3-3a.999.999 0 0 0 0-1.414zM5.184 5H1a1 1 0 0 0-1 1v1a1 1 0 0 0 1 1h4V6c0-.353.072-.686.184-1zM11 8h4a1 1 0 0 0 1-1V6a1 1 0 0 0-1-1h-4.184c.112.314.184.647.184 1v2zM2.779 10H1a1 1 0 0 0-1 1v1a1 1 0 0 0 1 1h1.184A2.962 2.962 0 0 1 2 12c0-.772.3-1.468.779-2zM13.816 13H15a1 1 0 0 0 1-1v-1a1 1 0 0 0-1-1h-1.779c.479.532.779 1.228.779 2 0 .353-.072.686-.184 1z"/></svg>