<svg xmlns="http://www.w3.org/2000/svg" viewBox="0 0 32 32"><path d="M11 32H1c-.6 0-1-.4-1-1v-8c0-.6.4-1 1-1h10c.6 0 1 .4 1 1v8c0 .6-.4 1-1 1z"/><path d="M6 16c-2.2 0-4 1.8-4 4v7h2v-7c0-1.1.9-2 2-2s2 .9 2 2v7h2v-7c0-2.2-1.8-4-4-4z"/><g><path d="M16 0C7.2 0 0 7.2 0 16c0 .8.1 1.7.2 2.5.5-2 2-3.5 3.9-4.2.3-2.2 1.2-4.2 2.5-5.8v.6c0 .9.7 1.6 1.6 1.6h.4c.4 0 .8-.2 1.1-.5l.4-.4c.3-.3.7-.5 1.1-.5h1.3c.4 0 .8.2 1.1.5l.4.4c.3.3.5.7.5 1.1v1.3c0 .4-.2.8-.5 1.1l-1.7 1.7c-.3.3-.5.7-.5 1.1v.4c0 .4-.1.7-.3 1 .2.6.3 1.3.3 2 1.1 0 2 .9 2 2v9.9c.7.1 1.3.1 2 .1 8.8 0 16-7.2 16-16S24.8 0 16 0zm0 4.4c0 .6-.3 1.2-.9 1.4l-.8.4c-.6.3-1.4.2-1.8-.3l-1-1c1.4-.6 2.9-.9 4.5-.9v.4zm5.3 6.5c0-.9.7-1.6 1.6-1.6.7 0 1.2-.4 1.5-1l.3-.6c1.2 1.2 2.1 2.7 2.6 4.3-.4 0-.8.2-1.1.5l-.4.4c-.3.3-.7.5-1.1.5h-1.3c-.4 0-.8-.2-1.1-.5l-.4-.4c-.3-.3-.5-.7-.5-1.1v-.5zM22.6 26c-.1-.5-.3-.9-.7-1.1l-2.6-1.7c-.4-.3-.7-.8-.7-1.3v-2.3c0-.5.3-1 .7-1.3l2.9-1.9c.3-.2.6-.3.9-.3h3.1c.2 0 .5.1.7.2l1 .5c-.1 3.7-2.2 7.2-5.3 9.2z"/></g></svg>