<svg xmlns="http://www.w3.org/2000/svg" viewBox="0 0 64 64"><path d="M64 34c0-5.8-4.4-10.9-12.1-14.3C50.7 9.8 42.3 2 32 2S13.3 9.8 12.1 19.7C4.4 23.1 0 28.2 0 34c0 6 4.8 11.2 12.4 14.4l-2.3 7c-.4 1 .2 2.2 1.3 2.5.2.1.4.1.6.1.8 0 1.6-.5 1.9-1.4l2.3-6.8C20.3 51 25 51.8 30 52v8c0 1.1.9 2 2 2s2-.9 2-2v-8.1c5.1-.2 9.7-.9 13.8-2.2l2.3 6.8c.3.8 1.1 1.4 1.9 1.4.2 0 .4 0 .6-.1 1-.3 1.6-1.5 1.3-2.5l-2.3-7C59.2 45.2 64 40 64 34M32 10c6.6 0 12 5.4 12 12 0 1-4.3 4-12 4s-12-3-12-4c0-6.6 5.4-12 12-12m0 34C17.1 44 8 38.2 8 34c0-2.2 2.4-4.5 6.2-6.4C17.4 31.5 24 34 32 34s14.6-2.5 17.8-6.4c3.8 1.9 6.2 4.2 6.2 6.4 0 4.2-9.1 10-24 10"/></svg>