<svg xmlns="http://www.w3.org/2000/svg" viewBox="0 0 32 32"><path d="M30 13h-4.5c-.2-.6-.4-1.1-.7-1.6L28 8.2c.8-.8.8-2 0-2.8L26.6 4c-.8-.8-2-.8-2.8 0l-3.2 3.2c-.5-.3-1-.5-1.6-.7V2c0-1.1-.9-2-2-2h-2c-1.1 0-2 .9-2 2v4.5c-.6.2-1.1.4-1.6.7L8.2 4c-.8-.8-2-.8-2.8 0L4 5.4c-.8.8-.8 2 0 2.8l3.2 3.2c-.3.5-.5 1-.7 1.6H2c-1.1 0-2 .9-2 2v2c0 1.1.9 2 2 2h4.5c.2.6.4 1.1.7 1.6L4 23.8c-.8.8-.8 2 0 2.8L5.4 28c.8.8 2 .8 2.8 0l3.2-3.2c.5.3 1 .5 1.6.7V30c0 1.1.9 2 2 2h2c1.1 0 2-.9 2-2v-4.5c.6-.2 1.1-.4 1.6-.7l3.2 3.2c.8.8 2 .8 2.8 0l1.4-1.4c.8-.8.8-2 0-2.8l-3.2-3.2c.3-.5.5-1 .7-1.6H30c1.1 0 2-.9 2-2v-2c0-1.1-.9-2-2-2m-10 3c0 2.2-1.8 4-4 4s-4-1.8-4-4 1.8-4 4-4 4 1.8 4 4"/></svg>