<svg xmlns="http://www.w3.org/2000/svg" viewBox="0 0 128 128"><path d="M20 128h-8a4 4 0 0 1-4-4V92a4 4 0 0 1 4-4h8a4 4 0 0 1 4 4v32a4 4 0 0 1-4 4zM52 128h-8a4 4 0 0 1-4-4V68a4 4 0 0 1 4-4h8a4 4 0 0 1 4 4v56a4 4 0 0 1-4 4zM84 128h-8a4 4 0 0 1-4-4V84a4 4 0 0 1 4-4h8a4 4 0 0 1 4 4v40a4 4 0 0 1-4 4zM116 128h-8a4 4 0 0 1-4-4V68a4 4 0 0 1 4-4h8a4 4 0 0 1 4 4v56a4 4 0 0 1-4 4zM126.828 6.817l-5.657-5.657c-1.531-1.531-3.983-1.54-5.551-.07h-.033L80.564 34.412 52.795 13.585l-.015.024c-1.337-1.003-2.98-1.62-4.78-1.62a7.979 7.979 0 0 0-5.657 2.343L1.172 55.504a4 4 0 0 0 0 5.657l5.657 5.657a4 4 0 0 0 5.657 0l35.122-35.122 27.597 20.698.015-.024c1.337 1.003 2.98 1.62 4.78 1.62 2.169 0 4.13-.871 5.571-2.273h.013l41.172-39.171v-.023c.022-.021.051-.027.072-.048a4 4 0 0 0 0-5.658z"/></svg>