<svg xmlns="http://www.w3.org/2000/svg" viewBox="0 0 32 32"><path d="M32 20.557v-2.003a1 1 0 0 0-.47-.848L18.896 9.81C18.96 8.153 19 6.795 19 6c0-3-1.343-6-3-6s-3 3-3 6c0 .796.04 2.153.104 3.81L.47 17.706a1 1 0 0 0-.47.848v2.003a1 1 0 0 0 1.351.936l12.072-4.527c.164 3.358.339 7.064.453 9.191l-3.516 2.93a1 1 0 0 0-.36.768v1.144a1 1 0 0 0 1.316.949L16 30.387l4.684 1.561A1 1 0 0 0 22 30.999v-1.144a1 1 0 0 0-.36-.768l-3.516-2.93c.114-2.127.289-5.833.453-9.191l12.072 4.527A1 1 0 0 0 32 20.557z"/></svg>