<svg width="42" height="18" viewBox="0 0 42 18" xmlns="http://www.w3.org/2000/svg"><path d="M25.64.107a8.99 8.99 0 0 0-3.222.605c-.382.147-.483.294-.487.589v15.99a.612.612 0 0 0 .544.595c.013.002 13.875.007 13.965.007a5.036 5.036 0 1 0 0-10.074c-.69 0-1.35.14-1.949.39C34.09 3.67 30.285.108 25.64.108zM20.9 1.285a.56.56 0 0 0-.553.553s-.272 8.771-.227 11.35c.045 2.58.227 4.12.227 4.12.005.3.252.546.554.546a.558.558 0 0 0 .553-.55s.224-2.74.25-4.115c.072-3.783-.25-11.35-.25-11.35a.559.559 0 0 0-.553-.554zm-1.769.982a.526.526 0 0 0-.467.515s-.247 6.936-.198 10.404c.02 1.395.198 4.179.198 4.179a.524.524 0 0 0 .515.518c.28 0 .514-.23.522-.515v-.003s.199-2.782.22-4.176c.055-3.469-.22-10.407-.22-10.407a.526.526 0 0 0-.522-.515c-.017 0-.03-.002-.048 0zm-5.094 1.194a.417.417 0 0 0-.416.41s-.293 7.048-.256 9.315c.037 2.266.256 4.272.256 4.272a.42.42 0 0 0 .416.412.42.42 0 0 0 .416-.412s.249-2.006.291-4.272c.042-2.267-.291-9.316-.291-9.316a.416.416 0 0 0-.416-.41zm1.702.201a.45.45 0 0 0-.451.445s-.282 6.052-.237 9.079c.021 1.413.237 4.233.237 4.233a.454.454 0 0 0 .451.448.455.455 0 0 0 .451-.445v-.003s.24-2.82.263-4.233c.05-3.027-.263-9.079-.263-9.079a.452.452 0 0 0-.45-.445zm-3.389.135a.384.384 0 0 0-.38.377s-.32 6.791-.282 9.012c.038 2.22.282 4.3.282 4.3.006.21.174.378.38.378a.384.384 0 0 0 .378-.374v-.004s.29-2.863.317-4.3c.057-3.005-.317-9.012-.317-9.012a.383.383 0 0 0-.378-.377zm5.104.16a.49.49 0 0 0-.486.486s-.258 5.828-.218 8.743c.02 1.405.221 4.21.221 4.21a.482.482 0 0 0 .483.478.486.486 0 0 0 .484-.484s.222-2.8.243-4.204c.044-2.915-.243-8.743-.243-8.743a.49.49 0 0 0-.484-.486zm-6.78.57a.348.348 0 0 0-.343.342s-.346 5.543-.3 8.317c.023 1.451.3 4.342.3 4.342a.35.35 0 0 0 .343.342c.183 0 .338-.15.348-.339v-.003s.297-2.23.336-4.342c.04-2.113-.336-8.317-.336-8.317a.354.354 0 0 0-.348-.343zm-1.661 1.58a.317.317 0 0 0-.31.307s-.345 4.908-.32 6.768c.023 1.86.32 4.375.32 4.375.009.17.144.307.31.307a.318.318 0 0 0 .31-.307s.34-2.912.362-4.375c.033-2.258-.362-6.768-.362-6.768a.318.318 0 0 0-.31-.307zM5.73 8.46c-.128 0-.23.1-.24.237 0 0-.367 3.011-.365 4.486.002 1.476.365 4.336.365 4.336.01.135.112.234.24.234a.246.246 0 0 0 .24-.234s.407-2.883.41-4.336c.002-1.5-.41-4.486-.41-4.486-.012-.136-.116-.237-.24-.237zm-1.623.157c-.108 0-.197.085-.208.202 0 .001-.383 2.904-.38 4.364.002 1.408.38 4.202.38 4.202.011.117.1.202.208.202.107 0 .193-.08.205-.196 0 0 .43-2.798.432-4.208.003-1.462-.432-4.364-.432-4.364-.013-.118-.098-.202-.205-.202zm3.258.134a.277.277 0 0 0-.275.27s-.34 2.77-.343 4.162c-.003 1.462.343 4.372.343 4.372a.277.277 0 0 0 .275.272.281.281 0 0 0 .275-.27v-.002s.39-2.944.387-4.372C8.024 11.754 7.64 9.02 7.64 9.02a.278.278 0 0 0-.275-.269zm-4.87.586c-.087 0-.158.07-.17.163 0 .002-.405 2.463-.403 3.683.001 1.22.403 3.597.403 3.597.012.096.086.163.173.163.086 0 .158-.066.172-.163 0 0 .453-2.388.455-3.597C3.127 11.946 2.67 9.5 2.67 9.5c-.014-.097-.09-.163-.176-.163zM.983 10.744c-.086 0-.155.066-.166.16 0 0-.299 1.52-.298 2.278 0 .759.298 2.234.298 2.234.011.094.081.16.166.16.083 0 .15-.068.163-.16 0 0 .354-1.48.355-2.234.001-.767-.355-2.278-.355-2.278-.012-.094-.08-.16-.163-.16z" fill="none" fill-rule="evenodd"/></svg>