<svg xmlns="http://www.w3.org/2000/svg" viewBox="0 0 16 16"><path d="M15 0h-4a1 1 0 0 0 0 2h1.586L9.793 4.793a1 1 0 0 0 1.414 1.414L14 3.414V5a1 1 0 0 0 2 0V1a1 1 0 0 0-1-1zM15 10a1 1 0 0 0-1 1v1.586l-2.793-2.793a1 1 0 0 0-1.414 1.414L12.586 14H11a1 1 0 0 0 0 2h4a1 1 0 0 0 1-1v-4a1 1 0 0 0-1-1zM3.414 2H5a1 1 0 0 0 0-2H1a1 1 0 0 0-1 1v4a1 1 0 0 0 2 0V3.414l2.793 2.793a1 1 0 0 0 1.414-1.414L3.414 2zM5.5 9.5a.997.997 0 0 0-.707.293L2 12.586V11a1 1 0 0 0-2 0v4a1 1 0 0 0 1 1h4a1 1 0 0 0 0-2H3.414l2.793-2.793A1 1 0 0 0 5.5 9.5z"/></svg>