<svg xmlns="http://www.w3.org/2000/svg" viewBox="0 0 44 48"><path fill="#1EA8E0" d="M32.154 23.762L44 30.037v.481l-11.846-6.276z"/><path fill="#3AC4F2" d="M14.644 3.228v11.627h.489V2.952zM14.889 32.834L3.831 38.665l.421.239 10.637-5.589z"/><path fill="#1EA8E0" d="M32.155 24.001L4.032 38.779l15.037 8.535c1.611.915 4.249.915 5.86.002l16.14-9.161C42.682 37.24 44 34.99 44 33.159v-2.881l-11.845-6.277z"/><path fill="#237FC0" d="M41.073 9.843L25.013.692c-1.609-.918-4.249-.923-5.863-.009L14.889 3.09v11.765L44 30.278V14.842c0-1.831-1.318-4.08-2.927-4.999z"/><path fill="#3AC4F2" d="M2.934 9.852C1.32 10.765 0 13.011 0 14.842v18.317c0 1.831 1.318 4.081 2.931 4.996l1.1.624 10.857-5.705V3.09L2.934 9.852z"/></svg>