<svg xmlns="http://www.w3.org/2000/svg" viewBox="0 0 16 16"><path d="M16 7.8c0 4.3-3.5 7.8-7.9 7.8-1.4 0-2.7-.4-3.8-1L0 16l1.4-4.2C.7 10.6.3 9.2.3 7.8.3 3.5 3.8 0 8.1 0 12.5 0 16 3.5 16 7.8M8.1 1.2c-3.6 0-6.6 2.9-6.6 6.6 0 1.4.5 2.8 1.3 3.8L2 14.1l2.5-.8c1 .7 2.3 1.1 3.6 1.1 3.6 0 6.6-2.9 6.6-6.6s-2.9-6.6-6.6-6.6m4 8.4c0-.1-.2-.1-.4-.2s-1.1-.6-1.3-.6c-.2-.1-.3-.1-.4.1-.1.1-.5.6-.6.7-.1.1-.2.1-.4 0s-.8-.3-1.6-.9c-.6-.5-1-1.1-1.1-1.3-.1-.2 0-.3.1-.4l.3-.3c.1-.1.1-.2.2-.3.1-.1 0-.2 0-.3 0-.1-.4-1-.6-1.4-.2-.5-.3-.4-.4-.4h-.4c-.1 0-.3 0-.5.2s-.7.6-.7 1.6c0 .9.7 1.8.8 1.9.1.1 1.3 2.1 3.3 2.9 2 .8 2 .5 2.3.5.4 0 1.1-.5 1.3-.9.2-.4.2-.8.1-.9"/></svg>