<svg xmlns="http://www.w3.org/2000/svg" viewBox="0 0 64 64"><path d="M62.8 1.2c-1.6-1.6-4.1-1.6-5.7 0L39.7 18.6c-1 4.2-4.1 7.6-8.2 8.8l.1.1c-.1-.1-.2-.1-.2-.1l2.2 4.8-.5-.1c-.4 0-.7-.1-1.1-.1-2.2 0-4 1.8-4 4v10.3l-6-1.8v-7.2l2.3.6c-.2-.6-.3-1.3-.3-2 0-2.3.9-4.3 2.5-5.7l-7.4-2.1c-.4 0-.7-.1-1.1-.1-2.2 0-4 1.8-4 4v10.1l-6.3-1.9c-.5-.1-1.1-.2-1.7-.2-3.3 0-6 2.7-6 6 0 2.7 1.8 5 4.3 5.7l40 12c.5.2 1.1.3 1.7.3 3.3 0 6-2.7 6-6 0-2.7-1.8-5-4.3-5.7L36 48.7v-7.4l8.9 2.5c.3.1.7.2 1.1.2 2.2 0 4-1.8 4-4 0-.6-.1-1.2-.4-1.7l-5.8-12.5 19-19c1.6-1.5 1.6-4.1 0-5.6zM36 16c0-4.4-3.6-8-8-8s-8 3.6-8 8 3.6 8 8 8 8-3.6 8-8zm-18.4-6L8.8 1.2C7.2-.4 4.7-.4 3.1 1.2c-1.6 1.6-1.6 4.1 0 5.7l13.7 13.7c-.5-1.4-.8-3-.8-4.6 0-2.2.6-4.3 1.6-6z"/></svg>