<svg width="24" height="24" viewBox="0 0 24 24" xmlns="http://www.w3.org/2000/svg"><path d="M18.8 5.2a4.1 4.1 0 0 1 0 5.8l-1.45 1.45A1.024 1.024 0 1 1 15.9 11l1.368-1.369c.722-.722.902-1.885.306-2.715a2.053 2.053 0 0 0-3.125-.266L13 8.1a1.024 1.024 0 1 1-1.449-1.45L13 5.2a4.1 4.1 0 0 1 5.8 0zM11 15.9a1.024 1.024 0 1 1 1.45 1.449L11 18.799A4.1 4.1 0 1 1 5.2 13l1.45-1.451A1.027 1.027 0 0 1 8.1 13l-1.368 1.368c-.722.722-.902 1.885-.306 2.715a2.053 2.053 0 0 0 3.125.266l1.45-1.45zm1.725-6.075a1.024 1.024 0 1 1 1.45 1.45l-2.9 2.9a1.026 1.026 0 0 1-1.45-1.45l2.9-2.9z" fill="#231F20" fill-rule="evenodd"/></svg>