<svg width="20" height="20" viewBox="0 0 20 20" xmlns="http://www.w3.org/2000/svg"><g fill="none" fill-rule="evenodd"><path d="M18.01.5H1.99a2 2 0 0 0-1.99 2v12.055c0 1.105.89 2 1.99 2h12.746l3.698 2.693c.306.245.591.36.832.36.44 0 .733-.39.733-1.102V2.5c0-1.106-.892-2-1.99-2m0 1.5c.27 0 .49.224.49.5V17.44l-2.88-2.098-.395-.287H1.991a.496.496 0 0 1-.49-.5V2.5c0-.271.224-.5.49-.5H18.01" fill="#1A2E3B"/><path d="M14 5.805H5a.75.75 0 0 0 0 1.5h9a.75.75 0 0 0 0-1.5M12 9.805H5a.75.75 0 0 0 0 1.5h7a.75.75 0 0 0 0-1.5" fill="#182E3A"/></g></svg>