<svg width="20" height="20" viewBox="0 0 20 20" xmlns="http://www.w3.org/2000/svg"><title>stats</title><g fill="#1A2E3B" fill-rule="evenodd"><path d="M2.47 8.007l5.068-4.709c.068-.063.186-.063.245-.006l3.408 3.286c.712.687 1.875.736 2.655.118l4.572-3.618a.876.876 0 0 0-1.086-1.373L12.76 5.324c-.097.077-.277.069-.354-.005L8.998 2.032a1.939 1.939 0 0 0-2.651-.016L1.28 6.725a.875.875 0 1 0 1.19 1.282M7.792 18.433a.85.85 0 0 1-.85-.85v-8.3a.85.85 0 0 1 1.7 0v8.3a.85.85 0 0 1-.85.85M3.625 18.433a.85.85 0 0 1-.85-.85v-5.3a.85.85 0 0 1 1.7 0v5.3a.85.85 0 0 1-.85.85M11.958 18.433a.85.85 0 0 1-.85-.85v-5.3a.85.85 0 0 1 1.7 0v5.3a.85.85 0 0 1-.85.85M16.125 18.433a.85.85 0 0 1-.85-.85v-8.3a.85.85 0 0 1 1.7 0v8.3a.85.85 0 0 1-.85.85"/></g></svg>