<svg width="20" height="20" viewBox="0 0 20 20" xmlns="http://www.w3.org/2000/svg" xmlns:xlink="http://www.w3.org/1999/xlink"><title>videos</title><defs><path id="a" d="M0 16V0h17v16H0z"/></defs><g fill="none" fill-rule="evenodd"><g transform="translate(0 .5)"><mask id="b" fill="#fff"><use xlink:href="#a"/></mask><path d="M15 0H2C.896 0 0 .896 0 2.002v11.996A2 2 0 0 0 2 16h13c1.104 0 2-.896 2-2.002V2.002A2 2 0 0 0 15 0m0 1.5c.276 0 .5.226.5.502v11.996a.502.502 0 0 1-.5.502H2a.502.502 0 0 1-.5-.502V2.002c0-.276.224-.502.5-.502h13" fill="#182E3A" mask="url(#b)"/></g><path d="M6.822 6.201v4.614l3.939-2.303-3.938-2.31zm-.276 6.293c-.21 0-.411-.052-.593-.156-.4-.23-.63-.67-.63-1.209V5.891c0-.54.229-.98.629-1.21.4-.228.895-.204 1.358.067l4.458 2.612c.462.27.726.69.726 1.15 0 .461-.264.88-.726 1.15L7.31 12.272a1.516 1.516 0 0 1-.764.222zM18.5 17.498A.502.502 0 0 1 18 18H3.071c.224.862.998 1.5 1.929 1.5h13c1.104 0 2-.896 2-2.002V7.496a3.987 3.987 0 0 0-1.5-3.118v13.12z" fill="#192E3B"/></g></svg>