<svg width="20" height="20" viewBox="0 0 20 20" xmlns="http://www.w3.org/2000/svg"><path d="M18.5 4.379A3.984 3.984 0 0 1 20 7.496v8.995a2.999 2.999 0 0 1-3 3.009H5A2.001 2.001 0 0 1 3.062 18H16.5a2 2 0 0 0 2-2V4.379z"/><path d="M1.5 2.494v12.012c0 .27.224.494.5.494h13c.28 0 .5-.22.5-.494V2.494A.498.498 0 0 0 15 2H2c-.28 0-.5.22-.5.494zm-1.5 0C0 1.393.89.5 2 .5h13c1.105 0 2 .895 2 1.994v12.012c0 1.101-.89 1.994-2 1.994H2c-1.105 0-2-.895-2-1.994V2.494z"/><path d="M6.5 11.013l4.319-2.658L6.5 5.697v5.316zm5.451-3.722a1.25 1.25 0 0 1 0 2.129l-5.046 3.105A1.25 1.25 0 0 1 5 11.46V5.25a1.25 1.25 0 0 1 1.905-1.065l5.046 3.106z"/></svg>