<svg id="Layer_2" data-name="Layer 2" xmlns="http://www.w3.org/2000/svg" viewBox="0 0 64.33 66.62"><title>cart-illustration</title><rect x="57.87" y="16.4" width="1" height="2" transform="translate(-2.51 15.7) rotate(-15)" fill="#b3bfc8"/><path d="M43.31,22.47l-.52-1.93,1.86-.5L45.17,22Zm3.71-1-.52-1.94,1.86-.49L48.88,21Zm3.71-1-.52-1.93,1.86-.5L52.58,20Zm3.71-1-.52-1.93,1.86-.5L56.29,19Z" fill="#b3bfc8"/><polygon points="39.52 23.48 39.01 21.55 40.94 21.03 40.94 21.04 41.45 22.97 39.52 23.48" fill="#b3bfc8"/><path d="M38.57,19.92l-.44-1.64,1.93-.52.44,1.64Zm-.88-3.27L37.25,15l1.93-.52.44,1.64Zm-.88-3.27-.43-1.64,1.93-.52.44,1.64Z" fill="#b3bfc8"/><rect x="35.65" y="7.88" width="2" height="2" transform="translate(-1.05 9.79) rotate(-15)" fill="#b3bfc8"/><path d="M40,9,39.44,7.1l2.09-.56L42,8.47Zm4.17-1.12L43.62,6l2.08-.56.52,1.93Zm4.18-1.12-.52-1.93,2.09-.56.51,1.93Zm4.17-1.12L52,3.74l2.09-.56.52,1.94Z" fill="#b3bfc8"/><rect x="56.36" y="2.33" width="2" height="2" transform="translate(1.09 14.96) rotate(-15)" fill="#b3bfc8"/><path d="M58.42,11.14,58,9.5,59.91,9l.44,1.64Zm-.88-3.29L57.1,6.2,59,5.69l.44,1.64Z" fill="#b3bfc8"/><rect x="58.96" y="12.51" width="2" height="1" transform="matrix(0.97, -0.26, 0.26, 0.97, -1.33, 15.95)" fill="#b3bfc8"/><rect x="26.13" y="19.22" width="2" height="2" transform="translate(2.31 43.23) rotate(-79.54)" fill="#b3bfc8"/><path d="M24,20.66l-2-.36.37-2,1.95.36Zm-3.89-.72-1.95-.36.36-2,1.95.36Zm-3.9-.72-1.95-.36.36-2,1.95.36Zm-3.9-.72-2-.36.36-2,1.95.36Zm-3.9-.72-1.95-.36.37-2,1.94.36Z" fill="#b3bfc8"/><rect x="2.72" y="14.9" width="2" height="2" transform="translate(-12.59 16.67) rotate(-79.53)" fill="#b3bfc8"/><path d="M5.22,13.29l-2-.37.34-1.81,2,.37Zm.67-3.62-2-.37.34-1.81,2,.37Zm.67-3.62-2-.37.34-1.81,2,.37Z" fill="#b3bfc8"/><rect x="5.43" y="0.26" width="2" height="2" transform="translate(4.02 7.35) rotate(-79.54)" fill="#b3bfc8"/><path d="M26.72,6l-1.95-.36.36-2,1.95.36Zm-3.9-.72L20.87,5l.36-2,1.95.36Zm-3.9-.72-2-.36.37-2,1.95.36ZM15,3.87l-1.95-.36.37-2,2,.36Zm-3.89-.72-2-.36.36-2,2,.36Z" fill="#b3bfc8"/><rect x="28.83" y="4.59" width="2" height="2" transform="translate(18.92 33.91) rotate(-79.54)" fill="#b3bfc8"/><path d="M28.63,17.61l-2-.36L27,15.44l2,.36ZM29.3,14l-2-.36.33-1.81,2,.36ZM30,10.37,28,10l.33-1.81,2,.36Z" fill="#b3bfc8"/><path d="M15.64,34.19l-2-.37.41-2.22,2,.37Zm.83-4.43-2-.37.42-2.22,2,.37Z" fill="#b3bfc8"/><polygon points="17.3 25.32 15.33 24.96 15.7 23 17.66 23.35 17.31 25.32 17.3 25.31 17.3 25.32" fill="#b3bfc8"/><path d="M37.78,28.93l-2.05-.37.35-2,2.05.36Zm-4.09-.73-2-.36.35-2,2,.36Zm-4.1-.72-2-.36.34-2,2.05.36Zm-4.09-.72-2.05-.36.35-2,2.05.36ZM21.4,26l-2-.36.34-2,2.05.36Z" fill="#b3bfc8"/><polygon points="41.78 29.65 39.83 29.29 39.83 29.27 39.81 29.27 40.18 27.32 42.16 27.67 41.78 29.65" fill="#b3bfc8"/><rect x="38.8" y="32.18" width="2.53" height="2" transform="translate(-0.17 66.16) rotate(-78.96)" fill="#b3bfc8"/><rect x="38.75" y="36.39" width="1" height="2" transform="translate(-4.97 68.76) rotate(-78.96)" fill="#b3bfc8"/><path d="M64,10.93a1.79,1.79,0,0,0-1.5-.81H4.47a1.84,1.84,0,0,0-.47.06V1.8S4,0,1.7,0A1.66,1.66,0,0,0,0,1.8V50.93a2.3,2.3,0,0,0,1.7,2.19H51.2A2.54,2.54,0,0,0,53,50.93a1.82,1.82,0,0,0-1.8-1.81H4v-11H52.17A1.8,1.8,0,0,0,53.83,37l10.35-24.4A1.78,1.78,0,0,0,64,10.93ZM51.44,35.12H4V14.06a1.86,1.86,0,0,0,.48.06H60.35Z" fill="#00adef"/><ellipse cx="5.39" cy="60.76" rx="5.4" ry="5.36" fill="#00adef"/><ellipse cx="48.5" cy="60.76" rx="5.4" ry="5.36" fill="#00adef"/></svg>