<svg id="Layer_1" xmlns="http://www.w3.org/2000/svg" viewBox="0 0 20 20"><path d="M10,20A10,10,0,1,1,20,10,10,10,0,0,1,10,20ZM10,2a8,8,0,1,0,8,8A8,8,0,0,0,10,2Z" fill="#1a2e3b"/><path d="M13.6,12.16c0-1.43-.83-2.28-2.52-2.7l-.58-.13V6.27A1.62,1.62,0,0,1,12,7.75h1.43A2.9,2.9,0,0,0,10.5,5V4a.5.5,0,0,0-1,0V5c-1.85.18-3,1.21-3,2.77A2.69,2.69,0,0,0,8.9,10.41l.6.15V13.8a1.76,1.76,0,0,1-1.75-1.54H6.3c0,1.58,1.26,2.64,3.2,2.77v1a.5.5,0,0,0,1,0V15C12.47,14.84,13.6,13.8,13.6,12.16ZM8,7.68A1.47,1.47,0,0,1,9.5,6.26V9.11C8.52,8.91,8,8.42,8,7.68Zm2.51,6.13V10.76c1.13.25,1.65.73,1.65,1.53S11.55,13.73,10.5,13.81Z" fill="#1a2e3b"/></svg>