<?xml version="1.0" encoding="UTF-8"?>
<svg viewBox="0 0 20 20" version="1.1" xmlns="http://www.w3.org/2000/svg" xmlns:xlink="http://www.w3.org/1999/xlink">
    <!-- Generator: Sketch 44.1 (41455) - http://www.bohemiancoding.com/sketch -->
    <title>watch later</title>
    <desc>Created with Sketch.</desc>
    <defs></defs>
    <g id="Exportable" stroke="none" stroke-width="1" fill="none" fill-rule="evenodd">
        <g id="watch-later" fill-rule="nonzero" fill="#1A2E3B">
            <g id="Group-13">
                <path d="M10,20 C4.4771525,20 0,15.5228475 0,10 C0,4.4771525 4.4771525,0 10,0 C15.5228475,0 20,4.4771525 20,10 C20,15.5228475 15.5228475,20 10,20 Z M10,18.5 C14.6944204,18.5 18.5,14.6944204 18.5,10 C18.5,5.30557963 14.6944204,1.5 10,1.5 C5.30557963,1.5 1.5,5.30557963 1.5,10 C1.5,14.6944204 5.30557963,18.5 10,18.5 Z M10.75,5 L10.75,9.68933983 L13.8254805,12.7648204 C14.1183738,13.0577136 14.1183738,13.5325873 13.8254805,13.8254805 C13.5325873,14.1183738 13.0577136,14.1183738 12.7648204,13.8254805 L9.25,10.3106602 L9.25,5 C9.25,4.58578644 9.58578644,4.25 10,4.25 C10.4142136,4.25 10.75,4.58578644 10.75,5 Z" id="Combined-Shape"></path>
            </g>
        </g>
    </g>
</svg>