<svg xmlns="http://www.w3.org/2000/svg" viewBox="0 0 20 20"><title> Collections</title><path d="M22,12a1,1,0,0,0-.52-.87l-2-1.13,2-1.14a1,1,0,0,0,0-1.75l-9-5a1,1,0,0,0-1,0l-9,5a1,1,0,0,0,0,1.75l2,1.13-2,1.13a1,1,0,0,0,0,1.75l2,1.13-2,1.12a1,1,0,0,0,0,1.75l9,5a1,1,0,0,0,1,0l9-5a1,1,0,0,0,0-1.75l-2-1.12,2-1.13A1,1,0,0,0,22,12ZM12,4.14,18.94,8,12,11.84,5.06,8Zm-.49,9.72a1,1,0,0,0,1,0l4.9-2.72,1.55.86L12,15.86,5.06,12l1.56-.86ZM18.94,16,12,19.86,5.06,16l1.54-.85,4.91,2.73a1,1,0,0,0,1,0l4.91-2.73Z" transform="translate(-2 -2)" fill="#1a2e3b"/></svg>