<svg id="Layer_1" xmlns="http://www.w3.org/2000/svg" viewBox="0 0 20 20"><g id="Icon_Dark_Eye-Hide"><path d="M10,13a3,3,0,0,0,3-3h0L9.67,13Z" fill="#1a2e3b"/><path d="M17.19,6.25,15.7,7.59A16.35,16.35,0,0,1,17.78,10c-2.37,3.32-5,5-7.78,5a6.91,6.91,0,0,1-2.2-.37L6.13,16.12A9,9,0,0,0,10,17c3.65,0,7-2.17,9.83-6.44a1,1,0,0,0,0-1.12A19.65,19.65,0,0,0,17.19,6.25Z" fill="#1a2e3b"/><path d="M19.75,1.34a1,1,0,0,0-1.41-.09L14.8,4.39A9.23,9.23,0,0,0,10,3C6.35,3,3,5.17.17,9.44a1,1,0,0,0,0,1.12,18.51,18.51,0,0,0,3.37,3.85L.34,17.25a1,1,0,0,0-.09,1.41A1,1,0,0,0,1,19a1,1,0,0,0,.66-.25l18-16A1,1,0,0,0,19.75,1.34ZM2.22,10c2.37-3.32,5-5,7.78-5a7.14,7.14,0,0,1,3.21.81L11.44,7.38A3.06,3.06,0,0,0,10,7a3,3,0,0,0-3,3,3,3,0,0,0,.22,1.13L5.05,13.06A15.1,15.1,0,0,1,2.22,10Z" fill="#1a2e3b"/></g></svg>