<?xml version="1.0" encoding="utf-8"?>
<!-- Generator: Adobe Illustrator 22.0.1, SVG Export Plug-In . SVG Version: 6.00 Build 0)  -->
<svg version="1.1" id="Layer_1" xmlns="http://www.w3.org/2000/svg" xmlns:xlink="http://www.w3.org/1999/xlink" x="0px" y="0px"
	 viewBox="0 0 20 20" style="enable-background:new 0 0 20 20;" xml:space="preserve">
<style type="text/css">
	.st0{fill:#007BB5;}
	.st1{fill:#FFFFFF;}
</style>
<title>Icon/Brand/Social/Color/LinkedIn@2x</title>
<desc>Created with Sketch.</desc>
<g id="Clip-2">
</g>
<path class="st0" d="M18.5,0h-17C0.7,0,0,0.6,0,1.4v17.1C0,19.4,0.7,20,1.5,20h17c0.8,0,1.5-0.6,1.5-1.4V1.4C20,0.6,19.3,0,18.5,0z"
	/>
<path class="st1" d="M3,7.5h3V17H3V7.5z M4.4,2.8c0.9,0,1.7,0.8,1.7,1.7c0,0.9-0.8,1.7-1.7,1.7c-1,0-1.7-0.8-1.7-1.7
	C2.7,3.5,3.5,2.8,4.4,2.8"/>
<path class="st1" d="M7.8,7.5h2.8v1.3h0c0.4-0.8,1.4-1.5,2.8-1.5c3,0,3.6,2,3.6,4.5V17h-3v-4.6c0-1.1,0-2.5-1.5-2.5
	c-1.5,0-1.8,1.2-1.8,2.5V17h-3V7.5z"/>
</svg>
