<?xml version="1.0" encoding="UTF-8"?>
<svg viewBox="0 0 20 20" version="1.1" xmlns="http://www.w3.org/2000/svg" xmlns:xlink="http://www.w3.org/1999/xlink">
    <g id="Icon/Dark/MicOff" stroke="none" stroke-width="1" fill="none" fill-rule="evenodd">
        <path d="M7.36202603,11.0069108 C6.52705714,10.2738049 6,9.19845286 6,8 L6,4 C6,1.790861 7.790861,4.4408921e-16 10,0 C12.209139,-4.4408921e-16 14,1.790861 14,4 L14,5.10648949 L18.3356362,1.25259068 C18.7484189,0.885672665 19.3804913,0.922853393 19.7474093,1.33563616 C20.1143273,1.74841893 20.0771466,2.3804913 19.6643638,2.74740932 L1.66436384,18.7474093 C1.25158107,19.1143273 0.619508698,19.0771466 0.252590681,18.6643638 C-0.114327335,18.2515811 -0.0771466074,17.6195087 0.335636161,17.2525907 L4.3606722,13.6747809 C3.16132266,12.4841765 2.33426135,10.9124234 2.08096456,9.14159758 C2.00276237,8.59487748 2.38257118,8.08827788 2.92929128,8.0100757 C3.47601138,7.93187351 3.98261098,8.31168233 4.06081316,8.85840242 C4.2567927,10.228517 4.91184124,11.4401679 5.85937442,12.3426011 L7.36202603,11.0069108 Z M9.75553262,13.9950821 C9.83664884,13.9983506 9.9181491,14 10,14 C12.9943744,14 15.5194857,11.7925791 15.9391868,8.85840242 C16.017389,8.31168233 16.5239886,7.93187351 17.0707087,8.0100757 C17.6174288,8.08827788 17.9972376,8.59487748 17.9190354,9.14159758 C17.4063559,12.725797 14.5431435,15.4944579 11,15.9378425 L11,20 L9,20 L9,15.9378425 C8.60214111,15.888055 8.21285547,15.808948 7.83450843,15.7026592 L9.75553262,13.9950821 Z" id="Combined-Shape" fill="#000000"></path>
    </g>
</svg>