<?xml version="1.0" encoding="UTF-8"?>
<svg viewBox="0 0 20 20" version="1.1" xmlns="http://www.w3.org/2000/svg" xmlns:xlink="http://www.w3.org/1999/xlink">
    <g id="Icon/Dark/MicOn" stroke="none" stroke-width="1" fill="none" fill-rule="evenodd">
        <path d="M11,15.9378425 L11,20 L9,20 L9,15.9378425 C5.45685648,15.4944579 2.59364412,12.725797 2.08096456,9.14159758 C2.00276237,8.59487748 2.38257118,8.08827788 2.92929128,8.0100757 C3.47601138,7.93187351 3.98261098,8.31168233 4.06081316,8.85840242 C4.48051425,11.7925791 7.00562558,14 10,14 C12.9943744,14 15.5194857,11.7925791 15.9391868,8.85840242 C16.017389,8.31168233 16.5239886,7.93187351 17.0707087,8.0100757 C17.6174288,8.08827788 17.9972376,8.59487748 17.9190354,9.14159758 C17.4063559,12.725797 14.5431435,15.4944579 11,15.9378425 Z M10,4.4408921e-16 C12.209139,-4.05812251e-16 14,1.790861 14,4 L14,8 C14,10.209139 12.209139,12 10,12 C7.790861,12 6,10.209139 6,8 L6,4 C6,1.790861 7.790861,4.05812251e-16 10,4.4408921e-16 Z" id="Combined-Shape" fill="#000000"></path>
    </g>
</svg>