<?xml version="1.0" encoding="UTF-8"?>
<svg width="20px" height="20px" viewBox="0 0 20 20" version="1.1" xmlns="http://www.w3.org/2000/svg" xmlns:xlink="http://www.w3.org/1999/xlink">
    <!-- Generator: Sketch 45.2 (43514) - http://www.bohemiancoding.com/sketch -->
    <title>Fill 1</title>
    <desc>Created with Sketch.</desc>
    <defs></defs>
    <g id="Exportable" stroke="none" stroke-width="1" fill="none" fill-rule="evenodd">
        <g id="feature" fill-rule="nonzero" fill="#1A2E3B">
            <path d="M6.94193459,11.5666591 C7.19807067,11.7623327 7.30502427,12.0969624 7.20985721,12.4049187 L5.74164719,17.1559803 L9.53310994,14.259665 C9.80875745,14.0490966 10.1912426,14.0490966 10.4668901,14.259665 L14.2583528,17.1559803 L12.7901428,12.4049187 C12.6949757,12.0969624 12.8019293,11.7623327 13.0580654,11.5666591 L16.9556801,8.58910001 L12.1786603,8.58910001 C11.8413521,8.58910001 11.543405,8.3693169 11.4438249,8.04704273 L10,3.37434506 L8.55617506,8.04704273 C8.45659501,8.3693169 8.15864789,8.58910001 7.82133969,8.58910001 L3.04431986,8.58910001 L6.94193459,11.5666591 Z M0.30371074,8.43116211 C-0.280898549,7.9845534 0.0349344584,7.05086934 0.770616019,7.05086934 L7.25399552,7.05086934 L9.26516462,0.542057277 C9.48848624,-0.180685759 10.5115138,-0.180685759 10.7348354,0.542057277 L12.7460045,7.05086934 L19.229384,7.05086934 C19.9650655,7.05086934 20.2808985,7.9845534 19.6962893,8.43116211 L14.4181981,12.4633278 L16.4384589,19.0008011 C16.6595488,19.716238 15.8318017,20.2936419 15.2367409,19.8390724 L10,15.8387025 L4.76325905,19.8390724 C4.16819831,20.2936419 3.34045119,19.716238 3.56154109,19.0008011 L5.58180195,12.4633278 L0.30371074,8.43116211 Z" id="Fill-1"></path>
        </g>
    </g>
</svg>