<svg id="Layer_1" data-name="Layer 1" xmlns="http://www.w3.org/2000/svg" xmlns:xlink="http://www.w3.org/1999/xlink" viewBox="0 0 20 20"><defs><mask id="mask" x="1" y="1" width="17.97" height="17.97" maskUnits="userSpaceOnUse"><g id="mask-2"><polygon id="path-1" points="1 1 18.97 1 18.97 18.97 1 18.97 1 1" fill="#fff"/></g></mask></defs><title>Tag-filled@2x</title><g mask="url(#mask)"><path id="Fill-1" d="M13.71,6.66a1.44,1.44,0,0,1,0-2.39,1.42,1.42,0,0,1,1.6,0,1.44,1.44,0,1,1-1.6,2.39m5-4L17.29,1.29A1,1,0,0,0,16.52,1L11,1.39a.57.57,0,0,0-.39.18L1.18,11a.62.62,0,0,0,0,.87l7,7a.62.62,0,0,0,.87,0l9.4-9.4A.57.57,0,0,0,18.58,9L19,3.45a1,1,0,0,0-.29-.77" fill="#1a2e3b"/></g></svg>