<svg id="Layer_1" data-name="Layer 1" xmlns="http://www.w3.org/2000/svg" viewBox="0 0 20 20"><title>Tag@2x</title><path d="M13.71,6.66a1.44,1.44,0,0,1,0-2.39,1.42,1.42,0,0,1,1.6,0,1.44,1.44,0,1,1-1.6,2.39" fill="#1a2e3b"/><path d="M8.57,20a1.61,1.61,0,0,1-1.14-.47l-7-7a1.61,1.61,0,0,1,0-2.28L9.87.86a1.67,1.67,0,0,1,1-.47L16.45,0A2,2,0,0,1,18,.58L19.39,2h0A2,2,0,0,1,20,3.52l-.39,5.55a1.64,1.64,0,0,1-.47,1l-9.4,9.4A1.61,1.61,0,0,1,8.57,20ZM2.16,11.4l6.41,6.41,9-9L18,3.38,16.59,2l-5.41.38ZM17.58,8.93Z" fill="#1a2e3b"/></svg>