<?xml version="1.0" encoding="UTF-8"?>
<svg width="20px" height="20px" viewBox="0 0 20 20" version="1.1" xmlns="http://www.w3.org/2000/svg" xmlns:xlink="http://www.w3.org/1999/xlink">
    <!-- Generator: Sketch 46.2 (44496) - http://www.bohemiancoding.com/sketch -->
    <title>video</title>
    <desc>Created with Sketch.</desc>
    <defs></defs>
    <g id="Page-1" stroke="none" stroke-width="1" fill="none" fill-rule="evenodd">
        <g id="video" fill="#3A5161">
            <path d="M1.25,4.00585866 L1.25,15.9941413 C1.25,16.4142464 1.58334621,16.75 1.99079514,16.75 L18.0092049,16.75 C18.4123718,16.75 18.75,16.4106299 18.75,15.9941413 L18.75,4.00585866 C18.75,3.58575361 18.4166538,3.25 18.0092049,3.25 L1.99079514,3.25 C1.5876282,3.25 1.25,3.58937006 1.25,4.00585866 Z M0,4.00585866 C0,2.89805351 0.898212381,2 1.99079514,2 L18.0092049,2 C19.1086907,2 20,2.89706013 20,4.00585866 L20,15.9941413 C20,17.1019465 19.1017876,18 18.0092049,18 L1.99079514,18 C0.891309342,18 0,17.1029399 0,15.9941413 L0,4.00585866 Z" id="Rectangle-7" fill-rule="nonzero"></path>
            <path d="M7,6.89478221 L7,13.1052178 L7,13.1052178 C7,13.3813602 7.22385763,13.6052178 7.5,13.6052178 C7.59252989,13.6052178 7.68324486,13.5795416 7.76204871,13.5310469 L12.8080276,10.4258292 L12.8080276,10.4258292 C13.0432066,10.2811037 13.1165336,9.97313024 12.9718081,9.73795129 C12.9307864,9.67129107 12.8746878,9.61519252 12.8080276,9.57417084 L7.76204871,6.46895305 L7.76204871,6.46895305 C7.52686976,6.32422755 7.21889635,6.39755455 7.07417084,6.6327335 C7.02567617,6.71153735 7,6.80225232 7,6.89478221 Z" id="Path-2"></path>
        </g>
    </g>
</svg>
